<svg width="128" height="69" viewBox="0 0 128 69" fill="none" xmlns="http://www.w3.org/2000/svg">
<path fill-rule="evenodd" clip-rule="evenodd" d="M35.68 62.9251H98.76C101.698 62.9251 104.08 60.5589 104.08 57.6401C104.08 54.7213 101.698 52.3551 98.76 52.3551C98.76 52.3551 94.2 49.9889 94.2 47.0701C94.2 44.1512 97.2032 41.7851 100.908 41.7851H108.64C111.578 41.7851 113.96 39.4189 113.96 36.5001C113.96 33.5812 111.578 31.2151 108.64 31.2151H91.92C94.8581 31.2151 97.24 28.8489 97.24 25.9301C97.24 23.0112 94.8581 20.6451 91.92 20.6451H122.32C125.258 20.6451 127.64 18.2789 127.64 15.3601C127.64 12.4412 125.258 10.0751 122.32 10.0751H47.84C44.9018 10.0751 42.52 12.4412 42.52 15.3601C42.52 18.2789 44.9018 20.6451 47.84 20.6451H17.44C14.5018 20.6451 12.12 23.0112 12.12 25.9301C12.12 28.8489 14.5018 31.2151 17.44 31.2151H36.44C39.3781 31.2151 41.76 33.5812 41.76 36.5001C41.76 39.4189 39.3781 41.7851 36.44 41.7851H6.04C3.10185 41.7851 0.720001 44.1512 0.720001 47.0701C0.720001 49.9889 3.10185 52.3551 6.04 52.3551H35.68C32.7418 52.3551 30.36 54.7213 30.36 57.6401C30.36 60.5589 32.7418 62.9251 35.68 62.9251ZM117 36.5001C117 39.4189 119.382 41.7851 122.32 41.7851C125.258 41.7851 127.64 39.4189 127.64 36.5001C127.64 33.5812 125.258 31.2151 122.32 31.2151C119.382 31.2151 117 33.5812 117 36.5001Z" fill="#E5EAF4"/>
<path fill-rule="evenodd" clip-rule="evenodd" d="M54.7701 46.5465C54.7107 46.9642 54.68 47.391 54.68 47.825C54.68 52.8287 58.7632 56.885 63.8 56.885C68.8369 56.885 72.92 52.8287 72.92 47.825C72.92 47.391 72.8893 46.9642 72.8299 46.5465H94.96V66.7C94.96 67.951 93.9392 68.965 92.68 68.965H34.92C33.6608 68.965 32.64 67.951 32.64 66.7V46.5465H54.7701Z" fill="white"/>
<path fill-rule="evenodd" clip-rule="evenodd" d="M73.68 46.315C73.68 51.7357 69.2566 56.13 63.8 56.13C58.3434 56.13 53.92 51.7357 53.92 46.315C53.92 46.1394 53.9247 45.9649 53.9338 45.7915H32.64L39.906 24.4494C40.2192 23.5293 41.0881 22.91 42.0658 22.91L85.5343 22.91C86.512 22.91 87.3808 23.5293 87.6941 24.4494L94.96 45.7915H73.6662C73.6754 45.9649 73.68 46.1394 73.68 46.315Z" fill="white"/>
<path fill-rule="evenodd" clip-rule="evenodd" d="M72.2341 47.0356C72.2341 51.2243 68.458 55.3749 63.8 55.3749C59.1419 55.3749 55.3658 51.2243 55.3658 47.0356C55.3658 46.8999 55.3698 46.0101 55.3776 45.8761H39.48L45.6826 30.8944C45.95 30.1835 46.6917 29.705 47.5264 29.705H80.0736C80.9082 29.705 81.65 30.1835 81.9174 30.8944L88.12 45.8761H72.2223C72.2302 46.0101 72.2341 46.8999 72.2341 47.0356Z" fill="#E8F0FE"/>
<path d="M42.5778 24.16H85.0223C85.7714 24.16 86.4375 24.6369 86.6789 25.346L93.71 45.9985V65.21C93.71 66.1765 92.9265 66.96 91.96 66.96H35.64C34.6735 66.96 33.89 66.1765 33.89 65.21V45.9985L40.9211 25.346C41.1626 24.6369 41.8286 24.16 42.5778 24.16Z" stroke="#75A4FE" stroke-width="2.5" stroke-linejoin="round"/>
<path d="M43.28 44.31H44.53C44.53 43.6196 43.9704 43.06 43.28 43.06V44.31ZM43.28 46.81V48.06C43.9704 48.06 44.53 47.5003 44.53 46.81H43.28ZM74.3088 46.8197L74.1441 45.5806C73.5669 45.6573 73.1191 46.1224 73.0643 46.7021L74.3088 46.8197ZM72.1436 45.5037L71.0573 44.8854L71.0573 44.8854L72.1436 45.5037ZM71.8016 47.0325L70.5516 47.0395L70.5516 47.0396L71.8016 47.0325ZM55.6423 47.0325L54.3923 47.0255L54.3923 47.0256L55.6423 47.0325ZM55.3003 45.5037L54.2139 46.122L54.2139 46.122L55.3003 45.5037ZM43.2801 44.31V43.06C42.5897 43.06 42.0301 43.6196 42.0301 44.3099L43.2801 44.31ZM43.2801 46.81L42.0301 46.81C42.0301 47.5003 42.5897 48.06 43.2801 48.06V46.81ZM53.1351 46.8197L54.3796 46.7021C54.3248 46.1224 53.877 45.6573 53.2998 45.5806L53.1351 46.8197ZM37.636 43.0599C36.2553 43.0599 35.136 44.1792 35.136 45.5599H37.636V43.0599ZM39.48 43.0599H37.636V45.5599H39.48V43.0599ZM41.98 45.5599C41.98 44.1792 40.8607 43.0599 39.48 43.0599V45.5599H41.98ZM39.48 48.0599C40.8607 48.0599 41.98 46.9406 41.98 45.5599H39.48V48.0599ZM37.636 48.0599H39.48V45.5599H37.636V48.0599ZM35.136 45.5599C35.136 46.9406 36.2553 48.0599 37.636 48.0599V45.5599H35.136ZM43.28 43.06C41.8993 43.06 40.78 44.1792 40.78 45.56H43.28V43.06ZM44.53 45.56V44.31H42.03V45.56H44.53ZM44.53 46.81V45.56H42.03V46.81H44.53ZM40.78 45.56C40.78 46.9407 41.8993 48.06 43.28 48.06V45.56H40.78ZM74.4735 48.0588C74.4543 48.0614 74.4543 48.06 74.4777 48.06V45.56C74.3554 45.56 74.2447 45.5672 74.1441 45.5806L74.4735 48.0588ZM74.4777 48.06H93.44V45.56H74.4777V48.06ZM93.44 48.06C94.8207 48.06 95.94 46.9407 95.94 45.56H93.44V48.06ZM95.94 45.56C95.94 44.1792 94.8207 43.06 93.44 43.06V45.56H95.94ZM93.44 43.06H74.4777V45.56H93.44V43.06ZM74.4777 43.06C73.1101 43.06 71.7888 43.6 71.0573 44.8854L73.23 46.122C73.4056 45.8135 73.7581 45.56 74.4777 45.56V43.06ZM71.0573 44.8854C70.5306 45.8108 70.5502 46.7865 70.5516 47.0395L73.0516 47.0255C73.0503 46.7856 73.0623 46.4167 73.23 46.122L71.0573 44.8854ZM70.5516 47.0396C70.5517 47.0544 70.5518 47.0631 70.5518 47.07H73.0518C73.0518 47.0546 73.0517 47.0383 73.0516 47.0255L70.5516 47.0396ZM70.5518 47.07C70.5518 50.6259 67.5619 53.63 63.7219 53.63V56.13C68.8763 56.13 73.0518 52.072 73.0518 47.07H70.5518ZM63.7219 53.63C59.8819 53.63 56.8921 50.6259 56.8921 47.07H54.3921C54.3921 52.072 58.5676 56.13 63.7219 56.13V53.63ZM56.8921 47.07C56.8921 47.0631 56.8922 47.0544 56.8922 47.0395L54.3923 47.0256C54.3922 47.0383 54.3921 47.0547 54.3921 47.07H56.8921ZM56.8922 47.0396C56.8937 46.7864 56.9133 45.8108 56.3866 44.8854L54.2139 46.122C54.3816 46.4167 54.3936 46.7856 54.3923 47.0255L56.8922 47.0396ZM56.3866 44.8854C55.6551 43.6 54.3338 43.06 52.9661 43.06V45.56C53.6858 45.56 54.0383 45.8135 54.2139 46.122L56.3866 44.8854ZM52.9661 43.06H52.9357V45.56H52.9661V43.06ZM52.9357 43.06H52.9053V45.56H52.9357V43.06ZM52.9053 43.06H52.8748V45.56H52.9053V43.06ZM52.8748 43.06H52.8444V45.56H52.8748V43.06ZM52.8444 43.06H52.8141V45.56H52.8444V43.06ZM52.8141 43.06H52.7837V45.56H52.8141V43.06ZM52.7837 43.06H52.7533V45.56H52.7837V43.06ZM52.7533 43.06H52.723V45.56H52.7533V43.06ZM52.723 43.06H52.6927V45.56H52.723V43.06ZM52.6927 43.06H52.6624V45.56H52.6927V43.06ZM52.6624 43.06H52.6321V45.56H52.6624V43.06ZM52.6321 43.06H52.6019V45.56H52.6321V43.06ZM52.6019 43.06H52.5716V45.56H52.6019V43.06ZM52.5716 43.06H52.5414V45.56H52.5716V43.06ZM52.5414 43.06H52.5112V45.56H52.5414V43.06ZM52.5112 43.06H52.481V45.56H52.5112V43.06ZM52.481 43.06H52.4508V45.56H52.481V43.06ZM52.4508 43.06H52.4207V45.56H52.4508V43.06ZM52.4207 43.06H52.3905V45.56H52.4207V43.06ZM52.3905 43.06H52.3604V45.56H52.3905V43.06ZM52.3604 43.06H52.3303V45.56H52.3604V43.06ZM52.3303 43.06H52.3003V45.56H52.3303V43.06ZM52.3003 43.06H52.2702V45.56H52.3003V43.06ZM52.2702 43.06H52.2402V45.56H52.2702V43.06ZM52.2402 43.06H52.2102V45.56H52.2402V43.06ZM52.2102 43.06H52.1802V45.56H52.2102V43.06ZM52.1802 43.06H52.1502V45.56H52.1802V43.06ZM52.1502 43.06H52.1203V45.56H52.1502V43.06ZM52.1203 43.06H52.0903V45.56H52.1203V43.06ZM52.0903 43.06H52.0604V45.56H52.0903V43.06ZM52.0604 43.06H52.0306V45.56H52.0604V43.06ZM52.0306 43.06H52.0007V45.56H52.0306V43.06ZM52.0007 43.06H51.9708V45.56H52.0007V43.06ZM51.9708 43.06H51.941V45.56H51.9708V43.06ZM51.941 43.06H51.9112V45.56H51.941V43.06ZM51.9112 43.06H51.8815V45.56H51.9112V43.06ZM51.8815 43.06H51.8517V45.56H51.8815V43.06ZM51.8517 43.06H51.822V45.56H51.8517V43.06ZM51.822 43.06H51.7923V45.56H51.822V43.06ZM51.7923 43.06H51.7626V45.56H51.7923V43.06ZM51.7626 43.06H51.7329V45.56H51.7626V43.06ZM51.7329 43.06H51.7033V45.56H51.7329V43.06ZM51.7033 43.06H51.6737V45.56H51.7033V43.06ZM51.6737 43.06H51.6441V45.56H51.6737V43.06ZM51.6441 43.06H51.6145V45.56H51.6441V43.06ZM51.6145 43.06H51.585V45.56H51.6145V43.06ZM51.585 43.06H51.5554V45.56H51.585V43.06ZM51.5554 43.06H51.5259V45.56H51.5554V43.06ZM51.5259 43.06H51.4965V45.56H51.5259V43.06ZM51.4965 43.06H51.467V45.56H51.4965V43.06ZM51.467 43.06H51.4376V45.56H51.467V43.06ZM51.4376 43.06H51.4082V45.56H51.4376V43.06ZM51.4082 43.06H51.3788V45.56H51.4082V43.06ZM51.3788 43.06H51.3495V45.56H51.3788V43.06ZM51.3495 43.06H51.3202V45.56H51.3495V43.06ZM51.3202 43.06H51.2909V45.56H51.3202V43.06ZM51.2909 43.06H51.2616V45.56H51.2909V43.06ZM51.2616 43.06H51.2323V45.56H51.2616V43.06ZM51.2323 43.06H51.2031V45.56H51.2323V43.06ZM51.2031 43.06H51.1739V45.56H51.2031V43.06ZM51.1739 43.06H51.1448V45.56H51.1739V43.06ZM51.1448 43.06H51.1156V45.56H51.1448V43.06ZM51.1156 43.06H51.0865V45.56H51.1156V43.06ZM51.0865 43.06H51.0574V45.56H51.0865V43.06ZM51.0574 43.06H51.0284V45.56H51.0574V43.06ZM51.0284 43.06H50.9993V45.56H51.0284V43.06ZM50.9993 43.06H50.9703V45.56H50.9993V43.06ZM50.9703 43.06H50.9414V45.56H50.9703V43.06ZM50.9414 43.06H50.9124V45.56H50.9414V43.06ZM50.9124 43.06H50.8835V45.56H50.9124V43.06ZM50.8835 43.06H50.8546V45.56H50.8835V43.06ZM50.8546 43.06H50.8257V45.56H50.8546V43.06ZM50.8257 43.06H50.7969V45.56H50.8257V43.06ZM50.7969 43.06H50.7681V45.56H50.7969V43.06ZM50.7681 43.06H50.7393V45.56H50.7681V43.06ZM50.7393 43.06H50.7105V45.56H50.7393V43.06ZM50.7105 43.06H50.6818V45.56H50.7105V43.06ZM50.6818 43.06H50.6531V45.56H50.6818V43.06ZM50.6531 43.06H50.6245V45.56H50.6531V43.06ZM50.6245 43.06H50.5958V45.56H50.6245V43.06ZM50.5958 43.06H50.5672V45.56H50.5958V43.06ZM50.5672 43.06H50.5387V45.56H50.5672V43.06ZM50.5387 43.06H50.5101V45.56H50.5387V43.06ZM50.5101 43.06H50.4816V45.56H50.5101V43.06ZM50.4816 43.06H50.4531V45.56H50.4816V43.06ZM50.4531 43.06H50.4247V45.56H50.4531V43.06ZM50.4247 43.06H50.3963V45.56H50.4247V43.06ZM50.3963 43.06H50.3679V45.56H50.3963V43.06ZM50.3679 43.06H50.3395V45.56H50.3679V43.06ZM50.3395 43.06H50.3112V45.56H50.3395V43.06ZM50.3112 43.06H50.2829V45.56H50.3112V43.06ZM50.2829 43.06H50.2546V45.56H50.2829V43.06ZM50.2546 43.06H50.2264V45.56H50.2546V43.06ZM50.2264 43.06H50.1982V45.56H50.2264V43.06ZM50.1982 43.06H50.17V45.56H50.1982V43.06ZM50.17 43.06H50.1419V45.56H50.17V43.06ZM50.1419 43.06H50.1138V45.56H50.1419V43.06ZM50.1138 43.06H50.0857V45.56H50.1138V43.06ZM50.0857 43.06H50.0577V45.56H50.0857V43.06ZM50.0577 43.06H50.0297V45.56H50.0577V43.06ZM50.0297 43.06H50.0017V45.56H50.0297V43.06ZM50.0017 43.06H49.9738V45.56H50.0017V43.06ZM49.9738 43.06H49.9458V45.56H49.9738V43.06ZM49.9458 43.06H49.918V45.56H49.9458V43.06ZM49.918 43.06H49.8901V45.56H49.918V43.06ZM49.8901 43.06H49.8623V45.56H49.8901V43.06ZM49.8623 43.06H49.8346V45.56H49.8623V43.06ZM49.8346 43.06H49.8068V45.56H49.8346V43.06ZM49.8068 43.06H49.7791V45.56H49.8068V43.06ZM49.7791 43.06H49.7515V45.56H49.7791V43.06ZM49.7515 43.06H49.7238V45.56H49.7515V43.06ZM49.7238 43.06H49.6962V45.56H49.7238V43.06ZM49.6962 43.06H49.6687V45.56H49.6962V43.06ZM49.6687 43.06H49.6411V45.56H49.6687V43.06ZM49.6411 43.06H49.6137V45.56H49.6411V43.06ZM49.6137 43.06H49.5862V45.56H49.6137V43.06ZM49.5862 43.06H49.5588V45.56H49.5862V43.06ZM49.5588 43.06H49.5314V45.56H49.5588V43.06ZM49.5314 43.06H49.5041V45.56H49.5314V43.06ZM49.5041 43.06H49.4767V45.56H49.5041V43.06ZM49.4767 43.06H49.4495V45.56H49.4767V43.06ZM49.4495 43.06H49.4222V45.56H49.4495V43.06ZM49.4222 43.06H49.395V45.56H49.4222V43.06ZM49.395 43.06H49.3679V45.56H49.395V43.06ZM49.3679 43.06H49.3407V45.56H49.3679V43.06ZM49.3407 43.06H49.3137V45.56H49.3407V43.06ZM49.3137 43.06H49.2866V45.56H49.3137V43.06ZM49.2866 43.06H49.2596V45.56H49.2866V43.06ZM49.2596 43.06H49.2326V45.56H49.2596V43.06ZM49.2326 43.06H49.2057V45.56H49.2326V43.06ZM49.2057 43.06H49.1788V45.56H49.2057V43.06ZM49.1788 43.06H49.1519V45.56H49.1788V43.06ZM49.1519 43.06H49.1251V45.56H49.1519V43.06ZM49.1251 43.06H49.0983V45.56H49.1251V43.06ZM49.0983 43.06H49.0716V45.56H49.0983V43.06ZM49.0716 43.06H49.0449V45.56H49.0716V43.06ZM49.0449 43.06H49.0182V45.56H49.0449V43.06ZM49.0182 43.06H48.9916V45.56H49.0182V43.06ZM48.9916 43.06H48.965V45.56H48.9916V43.06ZM48.965 43.06H48.9384V45.56H48.965V43.06ZM48.9384 43.06H48.9119V45.56H48.9384V43.06ZM48.9119 43.06H48.8855V45.56H48.9119V43.06ZM48.8855 43.06H48.859V45.56H48.8855V43.06ZM48.859 43.06H48.8327V45.56H48.859V43.06ZM48.8327 43.06H48.8063V45.56H48.8327V43.06ZM48.8063 43.06H48.78V45.56H48.8063V43.06ZM48.78 43.06H48.7537V45.56H48.78V43.06ZM48.7537 43.06H48.7275V45.56H48.7537V43.06ZM48.7275 43.06H48.7013V45.56H48.7275V43.06ZM48.7013 43.06H48.6752V45.56H48.7013V43.06ZM48.6752 43.06H48.6491V45.56H48.6752V43.06ZM48.6491 43.06H48.623V45.56H48.6491V43.06ZM48.623 43.06H48.597V45.56H48.623V43.06ZM48.597 43.06H48.571V45.56H48.597V43.06ZM48.571 43.06H48.5451V45.56H48.571V43.06ZM48.5451 43.06H48.5192V45.56H48.5451V43.06ZM48.5192 43.06H48.4934V45.56H48.5192V43.06ZM48.4934 43.06H48.4676V45.56H48.4934V43.06ZM48.4676 43.06H48.4418V45.56H48.4676V43.06ZM48.4418 43.06H48.4161V45.56H48.4418V43.06ZM48.4161 43.06H48.3904V45.56H48.4161V43.06ZM48.3904 43.06H48.3648V45.56H48.3904V43.06ZM48.3648 43.06H48.3392V45.56H48.3648V43.06ZM48.3392 43.06H48.3137V45.56H48.3392V43.06ZM48.3137 43.06H48.2882V45.56H48.3137V43.06ZM48.2882 43.06H48.2627V45.56H48.2882V43.06ZM48.2627 43.06H48.2373V45.56H48.2627V43.06ZM48.2373 43.06H48.2119V45.56H48.2373V43.06ZM48.2119 43.06H48.1866V45.56H48.2119V43.06ZM48.1866 43.06H48.1613V45.56H48.1866V43.06ZM48.1613 43.06H48.1361V45.56H48.1613V43.06ZM48.1361 43.06H48.1109V45.56H48.1361V43.06ZM48.1109 43.06H48.0858V45.56H48.1109V43.06ZM48.0858 43.06H48.0607V45.56H48.0858V43.06ZM48.0607 43.06H48.0356V45.56H48.0607V43.06ZM48.0356 43.06H48.0106V45.56H48.0356V43.06ZM48.0106 43.06H47.9857V45.56H48.0106V43.06ZM47.9857 43.06H47.9608V45.56H47.9857V43.06ZM47.9608 43.06H47.9359V45.56H47.9608V43.06ZM47.9359 43.06H47.9111V45.56H47.9359V43.06ZM47.9111 43.06H47.8863V45.56H47.9111V43.06ZM47.8863 43.06H47.8616V45.56H47.8863V43.06ZM47.8616 43.06H47.8369V45.56H47.8616V43.06ZM47.8369 43.06H47.8123V45.56H47.8369V43.06ZM47.8123 43.06H47.7877V45.56H47.8123V43.06ZM47.7877 43.06H47.7631V45.56H47.7877V43.06ZM47.7631 43.06H47.7386V45.56H47.7631V43.06ZM47.7386 43.06H47.7142V45.56H47.7386V43.06ZM47.7142 43.06H47.6898V45.56H47.7142V43.06ZM47.6898 43.06H47.6655V45.56H47.6898V43.06ZM47.6655 43.06H47.6412V45.56H47.6655V43.06ZM47.6412 43.06H47.6169V45.56H47.6412V43.06ZM47.6169 43.06H47.5927V45.56H47.6169V43.06ZM47.5927 43.06H47.5686V45.56H47.5927V43.06ZM47.5686 43.06H47.5445V45.56H47.5686V43.06ZM47.5445 43.06H47.5204V45.56H47.5445V43.06ZM47.5204 43.06H47.4964V45.56H47.5204V43.06ZM47.4964 43.06H47.4725V45.56H47.4964V43.06ZM47.4725 43.06H47.4486V45.56H47.4725V43.06ZM47.4486 43.06H47.4247V45.56H47.4486V43.06ZM47.4247 43.06H47.4009V45.56H47.4247V43.06ZM47.4009 43.06H47.3771V45.56H47.4009V43.06ZM47.3771 43.06H47.3534V45.56H47.3771V43.06ZM47.3534 43.06H47.3298V45.56H47.3534V43.06ZM47.3298 43.06H47.3062V45.56H47.3298V43.06ZM47.3062 43.06H47.2826V45.56H47.3062V43.06ZM47.2826 43.06H47.2591V45.56H47.2826V43.06ZM47.2591 43.06H47.2357V45.56H47.2591V43.06ZM47.2357 43.06H47.2123V45.56H47.2357V43.06ZM47.2123 43.06H47.1889V45.56H47.2123V43.06ZM47.1889 43.06H47.1656V45.56H47.1889V43.06ZM47.1656 43.06H47.1424V45.56H47.1656V43.06ZM47.1424 43.06H47.1192V45.56H47.1424V43.06ZM47.1192 43.06H47.0961V45.56H47.1192V43.06ZM47.0961 43.06H47.073V45.56H47.0961V43.06ZM47.073 43.06H47.05V45.56H47.073V43.06ZM47.05 43.06H47.027V45.56H47.05V43.06ZM47.027 43.06H47.004V45.56H47.027V43.06ZM47.004 43.06H46.9812V45.56H47.004V43.06ZM46.9812 43.06H46.9583V45.56H46.9812V43.06ZM46.9583 43.06H46.9356V45.56H46.9583V43.06ZM46.9356 43.06H46.9129V45.56H46.9356V43.06ZM46.9129 43.06H46.8902V45.56H46.9129V43.06ZM46.8902 43.06H46.8676V45.56H46.8902V43.06ZM46.8676 43.06H46.845V45.56H46.8676V43.06ZM46.845 43.06H46.8225V45.56H46.845V43.06ZM46.8225 43.06H46.8001V45.56H46.8225V43.06ZM46.8001 43.06H46.7777V45.56H46.8001V43.06ZM46.7777 43.06H46.7554V45.56H46.7777V43.06ZM46.7554 43.06H46.7331V45.56H46.7554V43.06ZM46.7331 43.06H46.7109V45.56H46.7331V43.06ZM46.7109 43.06H46.6887V45.56H46.7109V43.06ZM46.6887 43.06H46.6666V45.56H46.6887V43.06ZM46.6666 43.06H46.6445V45.56H46.6666V43.06ZM46.6445 43.06H46.6225V45.56H46.6445V43.06ZM46.6225 43.06H46.6006V45.56H46.6225V43.06ZM46.6006 43.06H46.5787V45.56H46.6006V43.06ZM46.5787 43.06H46.5569V45.56H46.5787V43.06ZM46.5569 43.06H46.5351V45.56H46.5569V43.06ZM46.5351 43.06H46.5134V45.56H46.5351V43.06ZM46.5134 43.06H46.4917V45.56H46.5134V43.06ZM46.4917 43.06H46.4701V45.56H46.4917V43.06ZM46.4701 43.06H46.4485V45.56H46.4701V43.06ZM46.4485 43.06H46.427V45.56H46.4485V43.06ZM46.427 43.06H46.4056V45.56H46.427V43.06ZM46.4056 43.06H46.3842V45.56H46.4056V43.06ZM46.3842 43.06H46.3629V45.56H46.3842V43.06ZM46.3629 43.06H46.3417V45.56H46.3629V43.06ZM46.3417 43.06H46.3204V45.56H46.3417V43.06ZM46.3204 43.06H46.2993V45.56H46.3204V43.06ZM46.2993 43.06H46.2782V45.56H46.2993V43.06ZM46.2782 43.06H46.2572V45.56H46.2782V43.06ZM46.2572 43.06H46.2362V45.56H46.2572V43.06ZM46.2362 43.06H46.2153V45.56H46.2362V43.06ZM46.2153 43.06H46.1945V45.56H46.2153V43.06ZM46.1945 43.06H46.1737V45.56H46.1945V43.06ZM46.1737 43.06H46.1529V45.56H46.1737V43.06ZM46.1529 43.06H46.1323V45.56H46.1529V43.06ZM46.1323 43.06H46.1116V45.56H46.1323V43.06ZM46.1116 43.06H46.0911V45.56H46.1116V43.06ZM46.0911 43.06H46.0706V45.56H46.0911V43.06ZM46.0706 43.06H46.0502V45.56H46.0706V43.06ZM46.0502 43.06H46.0298V45.56H46.0502V43.06ZM46.0298 43.06H46.0095V45.56H46.0298V43.06ZM46.0095 43.06H45.9892V45.56H46.0095V43.06ZM45.9892 43.06H45.969V45.56H45.9892V43.06ZM45.969 43.06H45.9489V45.56H45.969V43.06ZM45.9489 43.06H45.9288V45.56H45.9489V43.06ZM45.9288 43.06H45.9088V45.56H45.9288V43.06ZM45.9088 43.06H45.8889V45.56H45.9088V43.06ZM45.8889 43.06H45.869V45.56H45.8889V43.06ZM45.869 43.06H45.8492V45.56H45.869V43.06ZM45.8492 43.06H45.8294V45.56H45.8492V43.06ZM45.8294 43.06H45.8097V45.56H45.8294V43.06ZM45.8097 43.06H45.7901V45.56H45.8097V43.06ZM45.7901 43.06H45.7705V45.56H45.7901V43.06ZM45.7705 43.06H45.751V45.56H45.7705V43.06ZM45.751 43.06H45.7316V45.56H45.751V43.06ZM45.7316 43.06H45.7122V45.56H45.7316V43.06ZM45.7122 43.06H45.6929V45.56H45.7122V43.06ZM45.6929 43.06H45.6736V45.56H45.6929V43.06ZM45.6736 43.06H45.6544V45.56H45.6736V43.06ZM45.6544 43.06H45.6353V45.56H45.6544V43.06ZM45.6353 43.06H45.6163V45.56H45.6353V43.06ZM45.6163 43.06H45.5973V45.56H45.6163V43.06ZM45.5973 43.06H45.5783V45.56H45.5973V43.06ZM45.5783 43.06H45.5595V45.56H45.5783V43.06ZM45.5595 43.06H45.5406V45.56H45.5595V43.06ZM45.5406 43.06H45.5219V45.56H45.5406V43.06ZM45.5219 43.06H45.5032V45.56H45.5219V43.06ZM45.5032 43.06H45.4846V45.56H45.5032V43.06ZM45.4846 43.06H45.4661V45.56H45.4846V43.06ZM45.4661 43.06H45.4476V45.56H45.4661V43.06ZM45.4476 43.06H45.4292V45.56H45.4476V43.06ZM45.4292 43.06H45.4108V45.56H45.4292V43.06ZM45.4108 43.06H45.3926V45.56H45.4108V43.06ZM45.3926 43.06H45.3743V45.56H45.3926V43.06ZM45.3743 43.06H45.3562V45.56H45.3743V43.06ZM45.3562 43.06H45.3381V45.56H45.3562V43.06ZM45.3381 43.06H45.3201V45.56H45.3381V43.06ZM45.3201 43.06H45.3022V45.56H45.3201V43.06ZM45.3022 43.06H45.2843V45.56H45.3022V43.06ZM45.2843 43.06H45.2665V45.56H45.2843V43.06ZM45.2665 43.06H45.2487V45.56H45.2665V43.06ZM45.2487 43.06H45.231V45.56H45.2487V43.06ZM45.231 43.06H45.2134V45.56H45.231V43.06ZM45.2134 43.06H45.1959V45.56H45.2134V43.06ZM45.1959 43.06H45.1784V45.56H45.1959V43.06ZM45.1784 43.06H45.161V45.56H45.1784V43.06ZM45.161 43.06H45.1437V45.56H45.161V43.06ZM45.1437 43.06H45.1264V45.56H45.1437V43.06ZM45.1264 43.06H45.1092V45.56H45.1264V43.06ZM45.1092 43.06H45.0921V45.56H45.1092V43.06ZM45.0921 43.06H45.075V45.56H45.0921V43.06ZM45.075 43.06H45.058V45.56H45.075V43.06ZM45.058 43.06H45.0411V45.56H45.058V43.06ZM45.0411 43.06H45.0242V45.56H45.0411V43.06ZM45.0242 43.06H45.0074V45.56H45.0242V43.06ZM45.0074 43.06H44.9907V45.56H45.0074V43.06ZM44.9907 43.06H44.9741V45.56H44.9907V43.06ZM44.9741 43.06H44.9575V45.56H44.9741V43.06ZM44.9575 43.06H44.941V45.56H44.9575V43.06ZM44.941 43.06H44.9246V45.56H44.941V43.06ZM44.9246 43.06H44.9082V45.56H44.9246V43.06ZM44.9082 43.06H44.8919V45.56H44.9082V43.06ZM44.8919 43.06H44.8757V45.56H44.8919V43.06ZM44.8757 43.06H44.8596V45.56H44.8757V43.06ZM44.8596 43.06H44.8435V45.56H44.8596V43.06ZM44.8435 43.06H44.8275V45.56H44.8435V43.06ZM44.8275 43.06H44.8115V45.56H44.8275V43.06ZM44.8115 43.06H44.7957V45.56H44.8115V43.06ZM44.7957 43.06H44.7799V45.56H44.7957V43.06ZM44.7799 43.06H44.7642V45.56H44.7799V43.06ZM44.7642 43.06H44.7485V45.56H44.7642V43.06ZM44.7485 43.06H44.7329V45.56H44.7485V43.06ZM44.7329 43.06H44.7175V45.56H44.7329V43.06ZM44.7175 43.06H44.702V45.56H44.7175V43.06ZM44.702 43.06H44.6867V45.56H44.702V43.06ZM44.6867 43.06H44.6714V45.56H44.6867V43.06ZM44.6714 43.06H44.6562V45.56H44.6714V43.06ZM44.6562 43.06H44.6411V45.56H44.6562V43.06ZM44.6411 43.06H44.626V45.56H44.6411V43.06ZM44.626 43.06H44.611V45.56H44.626V43.06ZM44.611 43.06H44.5961V45.56H44.611V43.06ZM44.5961 43.06H44.5813V45.56H44.5961V43.06ZM44.5813 43.06H44.5665V45.56H44.5813V43.06ZM44.5665 43.06H44.5518V45.56H44.5665V43.06ZM44.5518 43.06H44.5372V45.56H44.5518V43.06ZM44.5372 43.06H44.5227V45.56H44.5372V43.06ZM44.5227 43.06H44.5082V45.56H44.5227V43.06ZM44.5082 43.06H44.4938V45.56H44.5082V43.06ZM44.4938 43.06H44.4795V45.56H44.4938V43.06ZM44.4795 43.06H44.4653V45.56H44.4795V43.06ZM44.4653 43.06H44.4511V45.56H44.4653V43.06ZM44.4511 43.06H44.437V45.56H44.4511V43.06ZM44.437 43.06H44.423V45.56H44.437V43.06ZM44.423 43.06H44.4091V45.56H44.423V43.06ZM44.4091 43.06H44.3952V45.56H44.4091V43.06ZM44.3952 43.06H44.3815V45.56H44.3952V43.06ZM44.3815 43.06H44.3678V45.56H44.3815V43.06ZM44.3678 43.06H44.3541V45.56H44.3678V43.06ZM44.3541 43.06H44.3406V45.56H44.3541V43.06ZM44.3406 43.06H44.3271V45.56H44.3406V43.06ZM44.3271 43.06H44.3137V45.56H44.3271V43.06ZM44.3137 43.06H44.3004V45.56H44.3137V43.06ZM44.3004 43.06H44.2872V45.56H44.3004V43.06ZM44.2872 43.06H44.274V45.56H44.2872V43.06ZM44.274 43.06H44.2609V45.56H44.274V43.06ZM44.2609 43.06H44.2479V45.56H44.2609V43.06ZM44.2479 43.06H44.235V45.56H44.2479V43.06ZM44.235 43.06H44.2222V45.56H44.235V43.06ZM44.2222 43.06H44.2094V45.56H44.2222V43.06ZM44.2094 43.06H44.1967V45.56H44.2094V43.06ZM44.1967 43.06H44.1841V45.56H44.1967V43.06ZM44.1841 43.06H44.1716V45.56H44.1841V43.06ZM44.1716 43.06H44.1591V45.56H44.1716V43.06ZM44.1591 43.06H44.1468V45.56H44.1591V43.06ZM44.1468 43.06H44.1345V45.56H44.1468V43.06ZM44.1345 43.06H44.1223V45.56H44.1345V43.06ZM44.1223 43.06H44.1101V45.56H44.1223V43.06ZM44.1101 43.06H44.0981V45.56H44.1101V43.06ZM44.0981 43.06H44.0861V45.56H44.0981V43.06ZM44.0861 43.06H44.0742V45.56H44.0861V43.06ZM44.0742 43.06H44.0624V45.56H44.0742V43.06ZM44.0624 43.06H44.0507V45.56H44.0624V43.06ZM44.0507 43.06H44.0391V45.56H44.0507V43.06ZM44.0391 43.06H44.0275V45.56H44.0391V43.06ZM44.0275 43.06H44.016V45.56H44.0275V43.06ZM44.016 43.06H44.0046V45.56H44.016V43.06ZM44.0046 43.06H43.9933V45.56H44.0046V43.06ZM43.9933 43.06H43.9821V45.56H43.9933V43.06ZM43.9821 43.06H43.9709V45.56H43.9821V43.06ZM43.9709 43.06H43.9599V45.56H43.9709V43.06ZM43.9599 43.06H43.9489V45.56H43.9599V43.06ZM43.9489 43.06H43.938V45.56H43.9489V43.06ZM43.938 43.06H43.9272V45.56H43.938V43.06ZM43.9272 43.06H43.9164V45.56H43.9272V43.06ZM43.9164 43.06H43.9058V45.56H43.9164V43.06ZM43.9058 43.06H43.8952V45.56H43.9058V43.06ZM43.8952 43.06H43.8847V45.56H43.8952V43.06ZM43.8847 43.06H43.8743V45.56H43.8847V43.06ZM43.8743 43.06H43.864V45.56H43.8743V43.06ZM43.864 43.06H43.8538V45.56H43.864V43.06ZM43.8538 43.06H43.8436V45.56H43.8538V43.06ZM43.8436 43.06H43.8335V45.56H43.8436V43.06ZM43.8335 43.06H43.8236V45.56H43.8335V43.06ZM43.8236 43.06H43.8137V45.56H43.8236V43.06ZM43.8137 43.06H43.8038V45.56H43.8137V43.06ZM43.8038 43.06H43.7941V45.56H43.8038V43.06ZM43.7941 43.06H43.7845V45.56H43.7941V43.06ZM43.7845 43.06H43.7749V45.56H43.7845V43.06ZM43.7749 43.06H43.7654V45.56H43.7749V43.06ZM43.7654 43.06H43.7561V45.56H43.7654V43.06ZM43.7561 43.06H43.7468V45.56H43.7561V43.06ZM43.7468 43.06H43.7376V45.56H43.7468V43.06ZM43.7376 43.06H43.7284V45.56H43.7376V43.06ZM43.7284 43.06H43.7194V45.56H43.7284V43.06ZM43.7194 43.06H43.7104V45.56H43.7194V43.06ZM43.7104 43.06H43.7016V45.56H43.7104V43.06ZM43.7016 43.06H43.6928V45.56H43.7016V43.06ZM43.6928 43.06H43.6841V45.56H43.6928V43.06ZM43.6841 43.06H43.6755V45.56H43.6841V43.06ZM43.6755 43.06H43.667V45.56H43.6755V43.06ZM43.667 43.06H43.6585V45.56H43.667V43.06ZM43.6585 43.06H43.6502V45.56H43.6585V43.06ZM43.6502 43.06H43.642V45.56H43.6502V43.06ZM43.642 43.06H43.6338V45.56H43.642V43.06ZM43.6338 43.06H43.6257V45.56H43.6338V43.06ZM43.6257 43.06H43.6177V45.56H43.6257V43.06ZM43.6177 43.06H43.6098V45.56H43.6177V43.06ZM43.6098 43.06H43.602V45.56H43.6098V43.06ZM43.602 43.06H43.5943V45.56H43.602V43.06ZM43.5943 43.06H43.5867V45.56H43.5943V43.06ZM43.5867 43.06H43.5791V45.56H43.5867V43.06ZM43.5791 43.06H43.5717V45.56H43.5791V43.06ZM43.5717 43.06H43.5643V45.56H43.5717V43.06ZM43.5643 43.06H43.557V45.56H43.5643V43.06ZM43.557 43.06H43.5498V45.56H43.557V43.06ZM43.5498 43.06H43.5428V45.56H43.5498V43.06ZM43.5428 43.06H43.5357V45.56H43.5428V43.06ZM43.5357 43.06H43.5288V45.56H43.5357V43.06ZM43.5288 43.06H43.522V45.56H43.5288V43.06ZM43.522 43.06H43.5153V45.56H43.522V43.06ZM43.5153 43.06H43.5086V45.56H43.5153V43.06ZM43.5086 43.06H43.5021V45.56H43.5086V43.06ZM43.5021 43.06H43.4956V45.56H43.5021V43.06ZM43.4956 43.06H43.4893V45.56H43.4956V43.06ZM43.4893 43.06H43.483V45.56H43.4893V43.06ZM43.483 43.06H43.4768V45.56H43.483V43.06ZM43.4768 43.06H43.4707V45.56H43.4768V43.06ZM43.4707 43.06H43.4647V45.56H43.4707V43.06ZM43.4647 43.06H43.4588V45.56H43.4647V43.06ZM43.4588 43.06H43.453V45.56H43.4588V43.06ZM43.453 43.06H43.4473V45.56H43.453V43.06ZM43.4473 43.06H43.4417V45.56H43.4473V43.06ZM43.4417 43.06H43.4361V45.56H43.4417V43.06ZM43.4361 43.06H43.4307V45.56H43.4361V43.06ZM43.4307 43.06H43.4253V45.56H43.4307V43.06ZM43.4253 43.06H43.4201V45.56H43.4253V43.06ZM43.4201 43.06H43.4149V45.56H43.4201V43.06ZM43.4149 43.06H43.4099V45.56H43.4149V43.06ZM43.4099 43.06H43.4049V45.56H43.4099V43.06ZM43.4049 43.06H43.4V45.56H43.4049V43.06ZM43.4 43.06H43.3952V45.56H43.4V43.06ZM43.3952 43.06H43.3905V45.56H43.3952V43.06ZM43.3905 43.06H43.3859V45.56H43.3905V43.06ZM43.3859 43.06H43.3814V45.56H43.3859V43.06ZM43.3814 43.06H43.377V45.56H43.3814V43.06ZM43.377 43.06H43.3727V45.56H43.377V43.06ZM43.3727 43.06H43.3685V45.56H43.3727V43.06ZM43.3685 43.06H43.3644V45.56H43.3685V43.06ZM43.3644 43.06H43.3604V45.56H43.3644V43.06ZM43.3604 43.06H43.3565V45.56H43.3604V43.06ZM43.3565 43.06H43.3526V45.56H43.3565V43.06ZM43.3526 43.06H43.3489V45.56H43.3526V43.06ZM43.3489 43.06H43.3453V45.56H43.3489V43.06ZM43.3453 43.06H43.3417V45.56H43.3453V43.06ZM43.3417 43.06H43.3383V45.56H43.3417V43.06ZM43.3383 43.06H43.3349V45.56H43.3383V43.06ZM43.3349 43.06H43.3317V45.56H43.3349V43.06ZM43.3317 43.06H43.3285V45.56H43.3317V43.06ZM43.3285 43.06H43.3255V45.56H43.3285V43.06ZM43.3255 43.06H43.3225V45.56H43.3255V43.06ZM43.3225 43.06H43.3197V45.56H43.3225V43.06ZM43.3197 43.06H43.3169V45.56H43.3197V43.06ZM43.3169 43.06H43.3142V45.56H43.3169V43.06ZM43.3142 43.06H43.3117V45.56H43.3142V43.06ZM43.3117 43.06H43.3092V45.56H43.3117V43.06ZM43.3092 43.06H43.3068V45.56H43.3092V43.06ZM43.3068 43.06H43.3046V45.56H43.3068V43.06ZM43.3046 43.06H43.3024V45.56H43.3046V43.06ZM43.3024 43.06H43.3003V45.56H43.3024V43.06ZM43.3003 43.06H43.2984V45.56H43.3003V43.06ZM43.2984 43.06H43.2965V45.56H43.2984V43.06ZM43.2965 43.06H43.2947V45.56H43.2965V43.06ZM43.2947 43.06H43.293V45.56H43.2947V43.06ZM43.293 43.06H43.2915V45.56H43.293V43.06ZM43.2915 43.06H43.29V45.56H43.2915V43.06ZM43.29 43.06H43.2886V45.56H43.29V43.06ZM43.2886 43.06H43.2874V45.56H43.2886V43.06ZM43.2874 43.06H43.2862V45.56H43.2874V43.06ZM43.2862 43.06H43.2851V45.56H43.2862V43.06ZM43.2851 43.06H43.2842V45.56H43.2851V43.06ZM43.2842 43.06H43.2833V45.56H43.2842V43.06ZM43.2833 43.06H43.2825V45.56H43.2833V43.06ZM43.2825 43.06H43.2819V45.56H43.2825V43.06ZM43.2819 43.06H43.2813V45.56H43.2819V43.06ZM43.2813 43.06H43.2808V45.56H43.2813V43.06ZM43.2808 43.06H43.2805V45.56H43.2808V43.06ZM43.2805 43.06H43.2802V45.56H43.2805V43.06ZM43.2802 43.06H43.2801V45.56H43.2802V43.06ZM42.0301 44.3099L42.03 45.5599L44.53 45.56L44.5301 44.31L42.0301 44.3099ZM42.03 45.56L42.0301 46.81L44.5301 46.8099L44.53 45.5599L42.03 45.56ZM43.2801 48.06H43.2802V45.56H43.2801V48.06ZM43.2802 48.06H43.2805V45.56H43.2802V48.06ZM43.2805 48.06H43.2808V45.56H43.2805V48.06ZM43.2808 48.06H43.2813V45.56H43.2808V48.06ZM43.2813 48.06H43.2819V45.56H43.2813V48.06ZM43.2819 48.06H43.2825V45.56H43.2819V48.06ZM43.2825 48.06H43.2833V45.56H43.2825V48.06ZM43.2833 48.06H43.2842V45.56H43.2833V48.06ZM43.2842 48.06H43.2851V45.56H43.2842V48.06ZM43.2851 48.06H43.2862V45.56H43.2851V48.06ZM43.2862 48.06H43.2874V45.56H43.2862V48.06ZM43.2874 48.06H43.2886V45.56H43.2874V48.06ZM43.2886 48.06H43.29V45.56H43.2886V48.06ZM43.29 48.06H43.2915V45.56H43.29V48.06ZM43.2915 48.06H43.293V45.56H43.2915V48.06ZM43.293 48.06H43.2947V45.56H43.293V48.06ZM43.2947 48.06H43.2965V45.56H43.2947V48.06ZM43.2965 48.06H43.2984V45.56H43.2965V48.06ZM43.2984 48.06H43.3003V45.56H43.2984V48.06ZM43.3003 48.06H43.3024V45.56H43.3003V48.06ZM43.3024 48.06H43.3046V45.56H43.3024V48.06ZM43.3046 48.06H43.3068V45.56H43.3046V48.06ZM43.3068 48.06H43.3092V45.56H43.3068V48.06ZM43.3092 48.06H43.3117V45.56H43.3092V48.06ZM43.3117 48.06H43.3142V45.56H43.3117V48.06ZM43.3142 48.06H43.3169V45.56H43.3142V48.06ZM43.3169 48.06H43.3197V45.56H43.3169V48.06ZM43.3197 48.06H43.3225V45.56H43.3197V48.06ZM43.3225 48.06H43.3255V45.56H43.3225V48.06ZM43.3255 48.06H43.3285V45.56H43.3255V48.06ZM43.3285 48.06H43.3317V45.56H43.3285V48.06ZM43.3317 48.06H43.3349V45.56H43.3317V48.06ZM43.3349 48.06H43.3383V45.56H43.3349V48.06ZM43.3383 48.06H43.3417V45.56H43.3383V48.06ZM43.3417 48.06H43.3453V45.56H43.3417V48.06ZM43.3453 48.06H43.3489V45.56H43.3453V48.06ZM43.3489 48.06H43.3526V45.56H43.3489V48.06ZM43.3526 48.06H43.3565V45.56H43.3526V48.06ZM43.3565 48.06H43.3604V45.56H43.3565V48.06ZM43.3604 48.06H43.3644V45.56H43.3604V48.06ZM43.3644 48.06H43.3685V45.56H43.3644V48.06ZM43.3685 48.06H43.3727V45.56H43.3685V48.06ZM43.3727 48.06H43.377V45.56H43.3727V48.06ZM43.377 48.06H43.3814V45.56H43.377V48.06ZM43.3814 48.06H43.3859V45.56H43.3814V48.06ZM43.3859 48.06H43.3905V45.56H43.3859V48.06ZM43.3905 48.06H43.3952V45.56H43.3905V48.06ZM43.3952 48.06H43.4V45.56H43.3952V48.06ZM43.4 48.06H43.4049V45.56H43.4V48.06ZM43.4049 48.06H43.4099V45.56H43.4049V48.06ZM43.4099 48.06H43.4149V45.56H43.4099V48.06ZM43.4149 48.06H43.4201V45.56H43.4149V48.06ZM43.4201 48.06H43.4253V45.56H43.4201V48.06ZM43.4253 48.06H43.4307V45.56H43.4253V48.06ZM43.4307 48.06H43.4361V45.56H43.4307V48.06ZM43.4361 48.06H43.4417V45.56H43.4361V48.06ZM43.4417 48.06H43.4473V45.56H43.4417V48.06ZM43.4473 48.06H43.453V45.56H43.4473V48.06ZM43.453 48.06H43.4588V45.56H43.453V48.06ZM43.4588 48.06H43.4647V45.56H43.4588V48.06ZM43.4647 48.06H43.4707V45.56H43.4647V48.06ZM43.4707 48.06H43.4768V45.56H43.4707V48.06ZM43.4768 48.06H43.483V45.56H43.4768V48.06ZM43.483 48.06H43.4893V45.56H43.483V48.06ZM43.4893 48.06H43.4956V45.56H43.4893V48.06ZM43.4956 48.06H43.5021V45.56H43.4956V48.06ZM43.5021 48.06H43.5086V45.56H43.5021V48.06ZM43.5086 48.06H43.5153V45.56H43.5086V48.06ZM43.5153 48.06H43.522V45.56H43.5153V48.06ZM43.522 48.06H43.5288V45.56H43.522V48.06ZM43.5288 48.06H43.5357V45.56H43.5288V48.06ZM43.5357 48.06H43.5428V45.56H43.5357V48.06ZM43.5428 48.06H43.5498V45.56H43.5428V48.06ZM43.5498 48.06H43.557V45.56H43.5498V48.06ZM43.557 48.06H43.5643V45.56H43.557V48.06ZM43.5643 48.06H43.5717V45.56H43.5643V48.06ZM43.5717 48.06H43.5791V45.56H43.5717V48.06ZM43.5791 48.06H43.5867V45.56H43.5791V48.06ZM43.5867 48.06H43.5943V45.56H43.5867V48.06ZM43.5943 48.06H43.602V45.56H43.5943V48.06ZM43.602 48.06H43.6098V45.56H43.602V48.06ZM43.6098 48.06H43.6177V45.56H43.6098V48.06ZM43.6177 48.06H43.6257V45.56H43.6177V48.06ZM43.6257 48.06H43.6338V45.56H43.6257V48.06ZM43.6338 48.06H43.642V45.56H43.6338V48.06ZM43.642 48.06H43.6502V45.56H43.642V48.06ZM43.6502 48.06H43.6585V45.56H43.6502V48.06ZM43.6585 48.06H43.667V45.56H43.6585V48.06ZM43.667 48.06H43.6755V45.56H43.667V48.06ZM43.6755 48.06H43.6841V45.56H43.6755V48.06ZM43.6841 48.06H43.6928V45.56H43.6841V48.06ZM43.6928 48.06H43.7016V45.56H43.6928V48.06ZM43.7016 48.06H43.7104V45.56H43.7016V48.06ZM43.7104 48.06H43.7194V45.56H43.7104V48.06ZM43.7194 48.06H43.7284V45.56H43.7194V48.06ZM43.7284 48.06H43.7376V45.56H43.7284V48.06ZM43.7376 48.06H43.7468V45.56H43.7376V48.06ZM43.7468 48.06H43.7561V45.56H43.7468V48.06ZM43.7561 48.06H43.7654V45.56H43.7561V48.06ZM43.7654 48.06H43.7749V45.56H43.7654V48.06ZM43.7749 48.06H43.7845V45.56H43.7749V48.06ZM43.7845 48.06H43.7941V45.56H43.7845V48.06ZM43.7941 48.06H43.8038V45.56H43.7941V48.06ZM43.8038 48.06H43.8137V45.56H43.8038V48.06ZM43.8137 48.06H43.8236V45.56H43.8137V48.06ZM43.8236 48.06H43.8335V45.56H43.8236V48.06ZM43.8335 48.06H43.8436V45.56H43.8335V48.06ZM43.8436 48.06H43.8538V45.56H43.8436V48.06ZM43.8538 48.06H43.864V45.56H43.8538V48.06ZM43.864 48.06H43.8743V45.56H43.864V48.06ZM43.8743 48.06H43.8847V45.56H43.8743V48.06ZM43.8847 48.06H43.8952V45.56H43.8847V48.06ZM43.8952 48.06H43.9058V45.56H43.8952V48.06ZM43.9058 48.06H43.9164V45.56H43.9058V48.06ZM43.9164 48.06H43.9272V45.56H43.9164V48.06ZM43.9272 48.06H43.938V45.56H43.9272V48.06ZM43.938 48.06H43.9489V45.56H43.938V48.06ZM43.9489 48.06H43.9599V45.56H43.9489V48.06ZM43.9599 48.06H43.9709V45.56H43.9599V48.06ZM43.9709 48.06H43.9821V45.56H43.9709V48.06ZM43.9821 48.06H43.9933V45.56H43.9821V48.06ZM43.9933 48.06H44.0046V45.56H43.9933V48.06ZM44.0046 48.06H44.016V45.56H44.0046V48.06ZM44.016 48.06H44.0275V45.56H44.016V48.06ZM44.0275 48.06H44.0391V45.56H44.0275V48.06ZM44.0391 48.06H44.0507V45.56H44.0391V48.06ZM44.0507 48.06H44.0624V45.56H44.0507V48.06ZM44.0624 48.06H44.0742V45.56H44.0624V48.06ZM44.0742 48.06H44.0861V45.56H44.0742V48.06ZM44.0861 48.06H44.0981V45.56H44.0861V48.06ZM44.0981 48.06H44.1101V45.56H44.0981V48.06ZM44.1101 48.06H44.1223V45.56H44.1101V48.06ZM44.1223 48.06H44.1345V45.56H44.1223V48.06ZM44.1345 48.06H44.1468V45.56H44.1345V48.06ZM44.1468 48.06H44.1591V45.56H44.1468V48.06ZM44.1591 48.06H44.1716V45.56H44.1591V48.06ZM44.1716 48.06H44.1841V45.56H44.1716V48.06ZM44.1841 48.06H44.1967V45.56H44.1841V48.06ZM44.1967 48.06H44.2094V45.56H44.1967V48.06ZM44.2094 48.06H44.2222V45.56H44.2094V48.06ZM44.2222 48.06H44.235V45.56H44.2222V48.06ZM44.235 48.06H44.2479V45.56H44.235V48.06ZM44.2479 48.06H44.2609V45.56H44.2479V48.06ZM44.2609 48.06H44.274V45.56H44.2609V48.06ZM44.274 48.06H44.2872V45.56H44.274V48.06ZM44.2872 48.06H44.3004V45.56H44.2872V48.06ZM44.3004 48.06H44.3137V45.56H44.3004V48.06ZM44.3137 48.06H44.3271V45.56H44.3137V48.06ZM44.3271 48.06H44.3406V45.56H44.3271V48.06ZM44.3406 48.06H44.3541V45.56H44.3406V48.06ZM44.3541 48.06H44.3678V45.56H44.3541V48.06ZM44.3678 48.06H44.3815V45.56H44.3678V48.06ZM44.3815 48.06H44.3952V45.56H44.3815V48.06ZM44.3952 48.06H44.4091V45.56H44.3952V48.06ZM44.4091 48.06H44.423V45.56H44.4091V48.06ZM44.423 48.06H44.437V45.56H44.423V48.06ZM44.437 48.06H44.4511V45.56H44.437V48.06ZM44.4511 48.06H44.4653V45.56H44.4511V48.06ZM44.4653 48.06H44.4795V45.56H44.4653V48.06ZM44.4795 48.06H44.4938V45.56H44.4795V48.06ZM44.4938 48.06H44.5082V45.56H44.4938V48.06ZM44.5082 48.06H44.5227V45.56H44.5082V48.06ZM44.5227 48.06H44.5372V45.56H44.5227V48.06ZM44.5372 48.06H44.5518V45.56H44.5372V48.06ZM44.5518 48.06H44.5665V45.56H44.5518V48.06ZM44.5665 48.06H44.5813V45.56H44.5665V48.06ZM44.5813 48.06H44.5961V45.56H44.5813V48.06ZM44.5961 48.06H44.611V45.56H44.5961V48.06ZM44.611 48.06H44.626V45.56H44.611V48.06ZM44.626 48.06H44.6411V45.56H44.626V48.06ZM44.6411 48.06H44.6562V45.56H44.6411V48.06ZM44.6562 48.06H44.6714V45.56H44.6562V48.06ZM44.6714 48.06H44.6867V45.56H44.6714V48.06ZM44.6867 48.06H44.702V45.56H44.6867V48.06ZM44.702 48.06H44.7175V45.56H44.702V48.06ZM44.7175 48.06H44.7329V45.56H44.7175V48.06ZM44.7329 48.06H44.7485V45.56H44.7329V48.06ZM44.7485 48.06H44.7642V45.56H44.7485V48.06ZM44.7642 48.06H44.7799V45.56H44.7642V48.06ZM44.7799 48.06H44.7957V45.56H44.7799V48.06ZM44.7957 48.06H44.8115V45.56H44.7957V48.06ZM44.8115 48.06H44.8275V45.56H44.8115V48.06ZM44.8275 48.06H44.8435V45.56H44.8275V48.06ZM44.8435 48.06H44.8596V45.56H44.8435V48.06ZM44.8596 48.06H44.8757V45.56H44.8596V48.06ZM44.8757 48.06H44.8919V45.56H44.8757V48.06ZM44.8919 48.06H44.9082V45.56H44.8919V48.06ZM44.9082 48.06H44.9246V45.56H44.9082V48.06ZM44.9246 48.06H44.941V45.56H44.9246V48.06ZM44.941 48.06H44.9575V45.56H44.941V48.06ZM44.9575 48.06H44.9741V45.56H44.9575V48.06ZM44.9741 48.06H44.9907V45.56H44.9741V48.06ZM44.9907 48.06H45.0074V45.56H44.9907V48.06ZM45.0074 48.06H45.0242V45.56H45.0074V48.06ZM45.0242 48.06H45.0411V45.56H45.0242V48.06ZM45.0411 48.06H45.058V45.56H45.0411V48.06ZM45.058 48.06H45.075V45.56H45.058V48.06ZM45.075 48.06H45.0921V45.56H45.075V48.06ZM45.0921 48.06H45.1092V45.56H45.0921V48.06ZM45.1092 48.06H45.1264V45.56H45.1092V48.06ZM45.1264 48.06H45.1437V45.56H45.1264V48.06ZM45.1437 48.06H45.161V45.56H45.1437V48.06ZM45.161 48.06H45.1784V45.56H45.161V48.06ZM45.1784 48.06H45.1959V45.56H45.1784V48.06ZM45.1959 48.06H45.2134V45.56H45.1959V48.06ZM45.2134 48.06H45.231V45.56H45.2134V48.06ZM45.231 48.06H45.2487V45.56H45.231V48.06ZM45.2487 48.06H45.2665V45.56H45.2487V48.06ZM45.2665 48.06H45.2843V45.56H45.2665V48.06ZM45.2843 48.06H45.3022V45.56H45.2843V48.06ZM45.3022 48.06H45.3201V45.56H45.3022V48.06ZM45.3201 48.06H45.3381V45.56H45.3201V48.06ZM45.3381 48.06H45.3562V45.56H45.3381V48.06ZM45.3562 48.06H45.3743V45.56H45.3562V48.06ZM45.3743 48.06H45.3926V45.56H45.3743V48.06ZM45.3926 48.06H45.4108V45.56H45.3926V48.06ZM45.4108 48.06H45.4292V45.56H45.4108V48.06ZM45.4292 48.06H45.4476V45.56H45.4292V48.06ZM45.4476 48.06H45.4661V45.56H45.4476V48.06ZM45.4661 48.06H45.4846V45.56H45.4661V48.06ZM45.4846 48.06H45.5032V45.56H45.4846V48.06ZM45.5032 48.06H45.5219V45.56H45.5032V48.06ZM45.5219 48.06H45.5406V45.56H45.5219V48.06ZM45.5406 48.06H45.5595V45.56H45.5406V48.06ZM45.5595 48.06H45.5783V45.56H45.5595V48.06ZM45.5783 48.06H45.5973V45.56H45.5783V48.06ZM45.5973 48.06H45.6163V45.56H45.5973V48.06ZM45.6163 48.06H45.6353V45.56H45.6163V48.06ZM45.6353 48.06H45.6544V45.56H45.6353V48.06ZM45.6544 48.06H45.6736V45.56H45.6544V48.06ZM45.6736 48.06H45.6929V45.56H45.6736V48.06ZM45.6929 48.06H45.7122V45.56H45.6929V48.06ZM45.7122 48.06H45.7316V45.56H45.7122V48.06ZM45.7316 48.06H45.751V45.56H45.7316V48.06ZM45.751 48.06H45.7705V45.56H45.751V48.06ZM45.7705 48.06H45.7901V45.56H45.7705V48.06ZM45.7901 48.06H45.8097V45.56H45.7901V48.06ZM45.8097 48.06H45.8294V45.56H45.8097V48.06ZM45.8294 48.06H45.8492V45.56H45.8294V48.06ZM45.8492 48.06H45.869V45.56H45.8492V48.06ZM45.869 48.06H45.8889V45.56H45.869V48.06ZM45.8889 48.06H45.9088V45.56H45.8889V48.06ZM45.9088 48.06H45.9288V45.56H45.9088V48.06ZM45.9288 48.06H45.9489V45.56H45.9288V48.06ZM45.9489 48.06H45.969V45.56H45.9489V48.06ZM45.969 48.06H45.9892V45.56H45.969V48.06ZM45.9892 48.06H46.0095V45.56H45.9892V48.06ZM46.0095 48.06H46.0298V45.56H46.0095V48.06ZM46.0298 48.06H46.0502V45.56H46.0298V48.06ZM46.0502 48.06H46.0706V45.56H46.0502V48.06ZM46.0706 48.06H46.0911V45.56H46.0706V48.06ZM46.0911 48.06H46.1116V45.56H46.0911V48.06ZM46.1116 48.06H46.1323V45.56H46.1116V48.06ZM46.1323 48.06H46.1529V45.56H46.1323V48.06ZM46.1529 48.06H46.1737V45.56H46.1529V48.06ZM46.1737 48.06H46.1945V45.56H46.1737V48.06ZM46.1945 48.06H46.2153V45.56H46.1945V48.06ZM46.2153 48.06H46.2362V45.56H46.2153V48.06ZM46.2362 48.06H46.2572V45.56H46.2362V48.06ZM46.2572 48.06H46.2782V45.56H46.2572V48.06ZM46.2782 48.06H46.2993V45.56H46.2782V48.06ZM46.2993 48.06H46.3204V45.56H46.2993V48.06ZM46.3204 48.06H46.3417V45.56H46.3204V48.06ZM46.3417 48.06H46.3629V45.56H46.3417V48.06ZM46.3629 48.06H46.3842V45.56H46.3629V48.06ZM46.3842 48.06H46.4056V45.56H46.3842V48.06ZM46.4056 48.06H46.427V45.56H46.4056V48.06ZM46.427 48.06H46.4485V45.56H46.427V48.06ZM46.4485 48.06H46.4701V45.56H46.4485V48.06ZM46.4701 48.06H46.4917V45.56H46.4701V48.06ZM46.4917 48.06H46.5134V45.56H46.4917V48.06ZM46.5134 48.06H46.5351V45.56H46.5134V48.06ZM46.5351 48.06H46.5569V45.56H46.5351V48.06ZM46.5569 48.06H46.5787V45.56H46.5569V48.06ZM46.5787 48.06H46.6006V45.56H46.5787V48.06ZM46.6006 48.06H46.6225V45.56H46.6006V48.06ZM46.6225 48.06H46.6445V45.56H46.6225V48.06ZM46.6445 48.06H46.6666V45.56H46.6445V48.06ZM46.6666 48.06H46.6887V45.56H46.6666V48.06ZM46.6887 48.06H46.7109V45.56H46.6887V48.06ZM46.7109 48.06H46.7331V45.56H46.7109V48.06ZM46.7331 48.06H46.7554V45.56H46.7331V48.06ZM46.7554 48.06H46.7777V45.56H46.7554V48.06ZM46.7777 48.06H46.8001V45.56H46.7777V48.06ZM46.8001 48.06H46.8225V45.56H46.8001V48.06ZM46.8225 48.06H46.845V45.56H46.8225V48.06ZM46.845 48.06H46.8676V45.56H46.845V48.06ZM46.8676 48.06H46.8902V45.56H46.8676V48.06ZM46.8902 48.06H46.9129V45.56H46.8902V48.06ZM46.9129 48.06H46.9356V45.56H46.9129V48.06ZM46.9356 48.06H46.9583V45.56H46.9356V48.06ZM46.9583 48.06H46.9812V45.56H46.9583V48.06ZM46.9812 48.06H47.004V45.56H46.9812V48.06ZM47.004 48.06H47.027V45.56H47.004V48.06ZM47.027 48.06H47.05V45.56H47.027V48.06ZM47.05 48.06H47.073V45.56H47.05V48.06ZM47.073 48.06H47.0961V45.56H47.073V48.06ZM47.0961 48.06H47.1192V45.56H47.0961V48.06ZM47.1192 48.06H47.1424V45.56H47.1192V48.06ZM47.1424 48.06H47.1656V45.56H47.1424V48.06ZM47.1656 48.06H47.1889V45.56H47.1656V48.06ZM47.1889 48.06H47.2123V45.56H47.1889V48.06ZM47.2123 48.06H47.2357V45.56H47.2123V48.06ZM47.2357 48.06H47.2591V45.56H47.2357V48.06ZM47.2591 48.06H47.2826V45.56H47.2591V48.06ZM47.2826 48.06H47.3062V45.56H47.2826V48.06ZM47.3062 48.06H47.3298V45.56H47.3062V48.06ZM47.3298 48.06H47.3534V45.56H47.3298V48.06ZM47.3534 48.06H47.3771V45.56H47.3534V48.06ZM47.3771 48.06H47.4009V45.56H47.3771V48.06ZM47.4009 48.06H47.4247V45.56H47.4009V48.06ZM47.4247 48.06H47.4486V45.56H47.4247V48.06ZM47.4486 48.06H47.4725V45.56H47.4486V48.06ZM47.4725 48.06H47.4964V45.56H47.4725V48.06ZM47.4964 48.06H47.5204V45.56H47.4964V48.06ZM47.5204 48.06H47.5445V45.56H47.5204V48.06ZM47.5445 48.06H47.5686V45.56H47.5445V48.06ZM47.5686 48.06H47.5927V45.56H47.5686V48.06ZM47.5927 48.06H47.6169V45.56H47.5927V48.06ZM47.6169 48.06H47.6412V45.56H47.6169V48.06ZM47.6412 48.06H47.6655V45.56H47.6412V48.06ZM47.6655 48.06H47.6898V45.56H47.6655V48.06ZM47.6898 48.06H47.7142V45.56H47.6898V48.06ZM47.7142 48.06H47.7386V45.56H47.7142V48.06ZM47.7386 48.06H47.7631V45.56H47.7386V48.06ZM47.7631 48.06H47.7877V45.56H47.7631V48.06ZM47.7877 48.06H47.8123V45.56H47.7877V48.06ZM47.8123 48.06H47.8369V45.56H47.8123V48.06ZM47.8369 48.06H47.8616V45.56H47.8369V48.06ZM47.8616 48.06H47.8863V45.56H47.8616V48.06ZM47.8863 48.06H47.9111V45.56H47.8863V48.06ZM47.9111 48.06H47.9359V45.56H47.9111V48.06ZM47.9359 48.06H47.9608V45.56H47.9359V48.06ZM47.9608 48.06H47.9857V45.56H47.9608V48.06ZM47.9857 48.06H48.0106V45.56H47.9857V48.06ZM48.0106 48.06H48.0356V45.56H48.0106V48.06ZM48.0356 48.06H48.0607V45.56H48.0356V48.06ZM48.0607 48.06H48.0858V45.56H48.0607V48.06ZM48.0858 48.06H48.1109V45.56H48.0858V48.06ZM48.1109 48.06H48.1361V45.56H48.1109V48.06ZM48.1361 48.06H48.1613V45.56H48.1361V48.06ZM48.1613 48.06H48.1866V45.56H48.1613V48.06ZM48.1866 48.06H48.2119V45.56H48.1866V48.06ZM48.2119 48.06H48.2373V45.56H48.2119V48.06ZM48.2373 48.06H48.2627V45.56H48.2373V48.06ZM48.2627 48.06H48.2882V45.56H48.2627V48.06ZM48.2882 48.06H48.3137V45.56H48.2882V48.06ZM48.3137 48.06H48.3392V45.56H48.3137V48.06ZM48.3392 48.06H48.3648V45.56H48.3392V48.06ZM48.3648 48.06H48.3904V45.56H48.3648V48.06ZM48.3904 48.06H48.4161V45.56H48.3904V48.06ZM48.4161 48.06H48.4418V45.56H48.4161V48.06ZM48.4418 48.06H48.4676V45.56H48.4418V48.06ZM48.4676 48.06H48.4934V45.56H48.4676V48.06ZM48.4934 48.06H48.5192V45.56H48.4934V48.06ZM48.5192 48.06H48.5451V45.56H48.5192V48.06ZM48.5451 48.06H48.571V45.56H48.5451V48.06ZM48.571 48.06H48.597V45.56H48.571V48.06ZM48.597 48.06H48.623V45.56H48.597V48.06ZM48.623 48.06H48.6491V45.56H48.623V48.06ZM48.6491 48.06H48.6752V45.56H48.6491V48.06ZM48.6752 48.06H48.7013V45.56H48.6752V48.06ZM48.7013 48.06H48.7275V45.56H48.7013V48.06ZM48.7275 48.06H48.7537V45.56H48.7275V48.06ZM48.7537 48.06H48.78V45.56H48.7537V48.06ZM48.78 48.06H48.8063V45.56H48.78V48.06ZM48.8063 48.06H48.8327V45.56H48.8063V48.06ZM48.8327 48.06H48.859V45.56H48.8327V48.06ZM48.859 48.06H48.8855V45.56H48.859V48.06ZM48.8855 48.06H48.9119V45.56H48.8855V48.06ZM48.9119 48.06H48.9384V45.56H48.9119V48.06ZM48.9384 48.06H48.965V45.56H48.9384V48.06ZM48.965 48.06H48.9916V45.56H48.965V48.06ZM48.9916 48.06H49.0182V45.56H48.9916V48.06ZM49.0182 48.06H49.0449V45.56H49.0182V48.06ZM49.0449 48.06H49.0716V45.56H49.0449V48.06ZM49.0716 48.06H49.0983V45.56H49.0716V48.06ZM49.0983 48.06H49.1251V45.56H49.0983V48.06ZM49.1251 48.06H49.1519V45.56H49.1251V48.06ZM49.1519 48.06H49.1788V45.56H49.1519V48.06ZM49.1788 48.06H49.2057V45.56H49.1788V48.06ZM49.2057 48.06H49.2326V45.56H49.2057V48.06ZM49.2326 48.06H49.2596V45.56H49.2326V48.06ZM49.2596 48.06H49.2866V45.56H49.2596V48.06ZM49.2866 48.06H49.3137V45.56H49.2866V48.06ZM49.3137 48.06H49.3407V45.56H49.3137V48.06ZM49.3407 48.06H49.3679V45.56H49.3407V48.06ZM49.3679 48.06H49.395V45.56H49.3679V48.06ZM49.395 48.06H49.4222V45.56H49.395V48.06ZM49.4222 48.06H49.4495V45.56H49.4222V48.06ZM49.4495 48.06H49.4767V45.56H49.4495V48.06ZM49.4767 48.06H49.5041V45.56H49.4767V48.06ZM49.5041 48.06H49.5314V45.56H49.5041V48.06ZM49.5314 48.06H49.5588V45.56H49.5314V48.06ZM49.5588 48.06H49.5862V45.56H49.5588V48.06ZM49.5862 48.06H49.6137V45.56H49.5862V48.06ZM49.6137 48.06H49.6411V45.56H49.6137V48.06ZM49.6411 48.06H49.6687V45.56H49.6411V48.06ZM49.6687 48.06H49.6962V45.56H49.6687V48.06ZM49.6962 48.06H49.7238V45.56H49.6962V48.06ZM49.7238 48.06H49.7515V45.56H49.7238V48.06ZM49.7515 48.06H49.7791V45.56H49.7515V48.06ZM49.7791 48.06H49.8068V45.56H49.7791V48.06ZM49.8068 48.06H49.8346V45.56H49.8068V48.06ZM49.8346 48.06H49.8623V45.56H49.8346V48.06ZM49.8623 48.06H49.8901V45.56H49.8623V48.06ZM49.8901 48.06H49.918V45.56H49.8901V48.06ZM49.918 48.06H49.9458V45.56H49.918V48.06ZM49.9458 48.06H49.9738V45.56H49.9458V48.06ZM49.9738 48.06H50.0017V45.56H49.9738V48.06ZM50.0017 48.06H50.0297V45.56H50.0017V48.06ZM50.0297 48.06H50.0577V45.56H50.0297V48.06ZM50.0577 48.06H50.0857V45.56H50.0577V48.06ZM50.0857 48.06H50.1138V45.56H50.0857V48.06ZM50.1138 48.06H50.1419V45.56H50.1138V48.06ZM50.1419 48.06H50.17V45.56H50.1419V48.06ZM50.17 48.06H50.1982V45.56H50.17V48.06ZM50.1982 48.06H50.2264V45.56H50.1982V48.06ZM50.2264 48.06H50.2546V45.56H50.2264V48.06ZM50.2546 48.06H50.2829V45.56H50.2546V48.06ZM50.2829 48.06H50.3112V45.56H50.2829V48.06ZM50.3112 48.06H50.3395V45.56H50.3112V48.06ZM50.3395 48.06H50.3679V45.56H50.3395V48.06ZM50.3679 48.06H50.3963V45.56H50.3679V48.06ZM50.3963 48.06H50.4247V45.56H50.3963V48.06ZM50.4247 48.06H50.4531V45.56H50.4247V48.06ZM50.4531 48.06H50.4816V45.56H50.4531V48.06ZM50.4816 48.06H50.5101V45.56H50.4816V48.06ZM50.5101 48.06H50.5387V45.56H50.5101V48.06ZM50.5387 48.06H50.5672V45.56H50.5387V48.06ZM50.5672 48.06H50.5958V45.56H50.5672V48.06ZM50.5958 48.06H50.6245V45.56H50.5958V48.06ZM50.6245 48.06H50.6531V45.56H50.6245V48.06ZM50.6531 48.06H50.6818V45.56H50.6531V48.06ZM50.6818 48.06H50.7105V45.56H50.6818V48.06ZM50.7105 48.06H50.7393V45.56H50.7105V48.06ZM50.7393 48.06H50.7681V45.56H50.7393V48.06ZM50.7681 48.06H50.7969V45.56H50.7681V48.06ZM50.7969 48.06H50.8257V45.56H50.7969V48.06ZM50.8257 48.06H50.8546V45.56H50.8257V48.06ZM50.8546 48.06H50.8835V45.56H50.8546V48.06ZM50.8835 48.06H50.9124V45.56H50.8835V48.06ZM50.9124 48.06H50.9414V45.56H50.9124V48.06ZM50.9414 48.06H50.9703V45.56H50.9414V48.06ZM50.9703 48.06H50.9993V45.56H50.9703V48.06ZM50.9993 48.06H51.0284V45.56H50.9993V48.06ZM51.0284 48.06H51.0574V45.56H51.0284V48.06ZM51.0574 48.06H51.0865V45.56H51.0574V48.06ZM51.0865 48.06H51.1156V45.56H51.0865V48.06ZM51.1156 48.06H51.1448V45.56H51.1156V48.06ZM51.1448 48.06H51.1739V45.56H51.1448V48.06ZM51.1739 48.06H51.2031V45.56H51.1739V48.06ZM51.2031 48.06H51.2323V45.56H51.2031V48.06ZM51.2323 48.06H51.2616V45.56H51.2323V48.06ZM51.2616 48.06H51.2909V45.56H51.2616V48.06ZM51.2909 48.06H51.3202V45.56H51.2909V48.06ZM51.3202 48.06H51.3495V45.56H51.3202V48.06ZM51.3495 48.06H51.3788V45.56H51.3495V48.06ZM51.3788 48.06H51.4082V45.56H51.3788V48.06ZM51.4082 48.06H51.4376V45.56H51.4082V48.06ZM51.4376 48.06H51.467V45.56H51.4376V48.06ZM51.467 48.06H51.4965V45.56H51.467V48.06ZM51.4965 48.06H51.5259V45.56H51.4965V48.06ZM51.5259 48.06H51.5554V45.56H51.5259V48.06ZM51.5554 48.06H51.585V45.56H51.5554V48.06ZM51.585 48.06H51.6145V45.56H51.585V48.06ZM51.6145 48.06H51.6441V45.56H51.6145V48.06ZM51.6441 48.06H51.6737V45.56H51.6441V48.06ZM51.6737 48.06H51.7033V45.56H51.6737V48.06ZM51.7033 48.06H51.7329V45.56H51.7033V48.06ZM51.7329 48.06H51.7626V45.56H51.7329V48.06ZM51.7626 48.06H51.7923V45.56H51.7626V48.06ZM51.7923 48.06H51.822V45.56H51.7923V48.06ZM51.822 48.06H51.8517V45.56H51.822V48.06ZM51.8517 48.06H51.8815V45.56H51.8517V48.06ZM51.8815 48.06H51.9112V45.56H51.8815V48.06ZM51.9112 48.06H51.941V45.56H51.9112V48.06ZM51.941 48.06H51.9708V45.56H51.941V48.06ZM51.9708 48.06H52.0007V45.56H51.9708V48.06ZM52.0007 48.06H52.0306V45.56H52.0007V48.06ZM52.0306 48.06H52.0604V45.56H52.0306V48.06ZM52.0604 48.06H52.0903V45.56H52.0604V48.06ZM52.0903 48.06H52.1203V45.56H52.0903V48.06ZM52.1203 48.06H52.1502V45.56H52.1203V48.06ZM52.1502 48.06H52.1802V45.56H52.1502V48.06ZM52.1802 48.06H52.2102V45.56H52.1802V48.06ZM52.2102 48.06H52.2402V45.56H52.2102V48.06ZM52.2402 48.06H52.2702V45.56H52.2402V48.06ZM52.2702 48.06H52.3003V45.56H52.2702V48.06ZM52.3003 48.06H52.3303V45.56H52.3003V48.06ZM52.3303 48.06H52.3604V45.56H52.3303V48.06ZM52.3604 48.06H52.3905V45.56H52.3604V48.06ZM52.3905 48.06H52.4207V45.56H52.3905V48.06ZM52.4207 48.06H52.4508V45.56H52.4207V48.06ZM52.4508 48.06H52.481V45.56H52.4508V48.06ZM52.481 48.06H52.5112V45.56H52.481V48.06ZM52.5112 48.06H52.5414V45.56H52.5112V48.06ZM52.5414 48.06H52.5716V45.56H52.5414V48.06ZM52.5716 48.06H52.6019V45.56H52.5716V48.06ZM52.6019 48.06H52.6321V45.56H52.6019V48.06ZM52.6321 48.06H52.6624V45.56H52.6321V48.06ZM52.6624 48.06H52.6927V45.56H52.6624V48.06ZM52.6927 48.06H52.723V45.56H52.6927V48.06ZM52.723 48.06H52.7533V45.56H52.723V48.06ZM52.7533 48.06H52.7837V45.56H52.7533V48.06ZM52.7837 48.06H52.8141V45.56H52.7837V48.06ZM52.8141 48.06H52.8444V45.56H52.8141V48.06ZM52.8444 48.06H52.8748V45.56H52.8444V48.06ZM52.8748 48.06H52.9053V45.56H52.8748V48.06ZM52.9053 48.06H52.9357V45.56H52.9053V48.06ZM52.9357 48.06H52.9661V45.56H52.9357V48.06ZM52.9661 48.06C52.9896 48.06 52.9896 48.0614 52.9704 48.0588L53.2998 45.5806C53.1992 45.5672 53.0885 45.56 52.9661 45.56V48.06ZM51.8906 46.9373C51.89 46.9306 51.8907 46.9341 51.8912 46.9572C51.8918 46.9814 51.8921 47.0152 51.8921 47.07H54.3921C54.3921 46.9635 54.3919 46.8325 54.3796 46.7021L51.8906 46.9373ZM51.8921 47.07C51.8921 53.5243 57.2594 58.63 63.7219 58.63V56.13C58.568 56.13 54.3921 52.0724 54.3921 47.07H51.8921ZM63.7219 58.63C70.1844 58.63 75.5518 53.5243 75.5518 47.07H73.0518C73.0518 52.0724 68.8759 56.13 63.7219 56.13V58.63ZM75.5518 47.07C75.5518 47.0152 75.5521 46.9813 75.5527 46.9572C75.5532 46.934 75.5539 46.9305 75.5532 46.9373L73.0643 46.7021C73.052 46.8325 73.0518 46.9635 73.0518 47.07H75.5518Z" fill="#75A4FE"/>
<path d="M44.2104 4.93881L43.28 5.77358L43.28 5.77358L44.2104 4.93881ZM42.4452 4.84317L41.6105 3.91277L41.6105 3.91277L42.4452 4.84317ZM52.6461 14.3409L53.5765 13.5061L53.5765 13.5061L52.6461 14.3409ZM52.5505 16.1061L53.3853 17.0365L53.3853 17.0365L52.5505 16.1061ZM50.7853 16.0105L51.7157 15.1757L51.7157 15.1757L50.7853 16.0105ZM42.3496 6.60835L41.4192 7.44312L41.4192 7.44312L42.3496 6.60835ZM83.7105 4.84317L84.5453 3.91277L84.5453 3.91277L83.7105 4.84317ZM81.9453 4.93881L81.0149 4.10403L81.0149 4.10403L81.9453 4.93881ZM83.8061 6.60835L82.8757 5.77358L82.8757 5.77358L83.8061 6.60835ZM75.3704 16.0105L76.3008 16.8452L76.3008 16.8452L75.3704 16.0105ZM73.6052 16.1061L74.44 15.1757L74.44 15.1757L73.6052 16.1061ZM73.5096 14.3409L74.44 15.1757L74.44 15.1757L73.5096 14.3409ZM65.6157 2.52502C65.6157 1.14431 64.4964 0.0250244 63.1157 0.0250244V2.52502H65.6157ZM65.6157 15.1757V2.52502H63.1157V15.1757H65.6157ZM63.1157 17.6757C64.4964 17.6757 65.6157 16.5564 65.6157 15.1757H63.1157V17.6757ZM60.6157 15.1757C60.6157 16.5564 61.735 17.6757 63.1157 17.6757V15.1757H60.6157ZM60.6157 2.52502V15.1757H63.1157V2.52502H60.6157ZM63.1157 0.0250244C61.735 0.0250244 60.6157 1.14431 60.6157 2.52502H63.1157V0.0250244ZM45.1408 4.10403C44.2188 3.07634 42.6382 2.9907 41.6105 3.91277L43.28 5.77358L43.28 5.77358L45.1408 4.10403ZM53.5765 13.5061L45.1408 4.10403L43.28 5.77358L51.7157 15.1757L53.5765 13.5061ZM53.3853 17.0365C54.413 16.1144 54.4986 14.5338 53.5765 13.5061L51.7157 15.1757L51.7157 15.1757L53.3853 17.0365ZM49.8549 16.8452C50.777 17.8729 52.3576 17.9586 53.3853 17.0365L51.7157 15.1757L51.7157 15.1757L49.8549 16.8452ZM41.4192 7.44312L49.8549 16.8452L51.7157 15.1757L43.28 5.77358L41.4192 7.44312ZM41.6105 3.91277C40.5828 4.83483 40.4971 6.41543 41.4192 7.44312L43.28 5.77358L43.28 5.77358L41.6105 3.91277ZM84.5453 3.91277C83.5176 2.99071 81.937 3.07633 81.0149 4.10403L82.8757 5.77358L82.8757 5.77358L84.5453 3.91277ZM84.7365 7.44313C85.6586 6.41543 85.573 4.83483 84.5453 3.91277L82.8757 5.77358L82.8757 5.77358L84.7365 7.44313ZM76.3008 16.8452L84.7365 7.44312L82.8757 5.77358L74.44 15.1757L76.3008 16.8452ZM72.7705 17.0365C73.7982 17.9586 75.3788 17.8729 76.3008 16.8452L74.44 15.1757L74.44 15.1757L72.7705 17.0365ZM72.5792 13.5061C71.6571 14.5338 71.7428 16.1144 72.7705 17.0365L74.44 15.1757L74.44 15.1757L72.5792 13.5061ZM81.0149 4.10403L72.5792 13.5061L74.44 15.1757L82.8757 5.77358L81.0149 4.10403Z" fill="#A4C3FE"/>
</svg>
