<svg viewBox="0 0 121 120" fill="none" xmlns="http://www.w3.org/2000/svg">
<g clip-path="url(#clip0)">
<circle cx="60.7135" cy="64.1798" r="55.8202" fill="#F6F6F6"/>
<circle r="5.29329" transform="matrix(-1 0 0 1 8.79329 107.002)" fill="#F6F6F6"/>
<circle r="2.40604" transform="matrix(-1 0 0 1 17.455 56.3014)" fill="#F6F6F6"/>
<circle r="5.29329" transform="matrix(-1 0 0 1 17.4549 5.29329)" fill="#F6F6F6"/>
<circle r="3.36846" transform="matrix(-1 0 0 1 89.0712 10.3348)" fill="#F6F6F6"/>
<circle r="2.64665" transform="matrix(-1 0 0 1 109.945 100.175)" fill="#F6F6F6"/>
<circle r="2.64665" transform="matrix(-1 0 0 1 112.494 10.8272)" fill="#F6F6F6"/>
<circle r="2.0899" transform="matrix(-1 0 0 1 19.5226 114.248)" fill="#F6F6F6"/>
<g opacity="0.6" filter="url(#filter0_f)">
<rect width="43.1304" height="12.5217" rx="6.26087" transform="matrix(1 0 0 -1 39.5 108)" fill="#8B8B8B"/>
</g>
<path d="M76.3871 45.6473V33.9813L60.7717 32.5258L45.1563 33.9813V45.6488C45.1563 52.591 49.5859 58.4848 55.7427 60.6016C57.2574 61.1216 58.2789 62.5572 58.2789 64.1752C58.2789 65.7931 57.2574 67.2273 55.7427 67.7488C49.5873 69.8627 45.1563 75.7579 45.1563 82.6988V94.3663L60.0591 95.8217L76.3871 94.3663V82.6988C76.3871 75.7565 71.9575 69.8627 65.8008 67.7459C64.2861 67.2259 63.2646 65.7903 63.2646 64.1723C63.2646 62.5544 64.2861 61.1202 65.8008 60.5988C71.9575 58.4848 76.3871 52.5896 76.3871 45.6473Z" fill="white"/>
<path d="M69.976 42.8343C64.7639 42.3991 60.8191 47.1356 55.593 46.6835C53.7821 46.5266 51.9082 45.9939 50.2118 45.2803C49.9519 45.1715 49.6655 45.3637 49.6655 45.6477C49.6655 51.851 54.6372 56.8786 60.7716 56.8786C66.906 56.8786 71.8778 51.851 71.8778 45.6477V44.0594C71.8778 43.5507 71.527 43.1169 71.0366 43.0011C70.6928 42.9219 70.3379 42.864 69.976 42.8343Z" fill="#EAEAEA"/>
<path d="M71.8651 94.3339C71.594 88.3751 66.7312 83.6273 60.7715 83.6273C54.8118 83.6273 49.949 88.3751 49.678 94.3339H71.8651Z" fill="#EAEAEA"/>
<path d="M65.7994 60.6002C71.9575 58.4848 76.3871 52.5896 76.3871 45.6488V33.9813L74.3637 32.5258L72.0693 33.9813V45.6488C72.0693 52.591 67.6397 58.4848 61.4829 60.6016C59.9682 61.1216 58.9468 62.5572 58.9468 64.1752C58.9468 65.7931 59.9682 67.2273 61.4829 67.7488C67.6397 69.8655 72.0693 75.7593 72.0693 82.7016V94.3691L74.4839 95.8245L76.3885 94.3691V82.7016C76.3885 75.7593 71.9589 69.8655 65.8022 67.7488C64.2874 67.2288 63.266 65.7931 63.266 64.1752C63.2632 62.5558 64.2846 61.1216 65.7994 60.6002Z" fill="#EAEAEA"/>
<path d="M71.0381 43.0023C70.6929 42.9218 70.3394 42.8638 69.9761 42.8342C68.9392 42.748 67.9513 42.8681 66.9955 43.1083C67.3351 43.2948 67.5601 43.6537 67.5601 44.0593V45.6475C67.5601 51.1033 63.7132 55.6476 58.6128 56.665C59.3115 56.8049 60.0325 56.8784 60.7717 56.8784C66.9061 56.8784 71.8779 51.8508 71.8779 45.6475V44.0593C71.8779 43.552 71.5271 43.1182 71.0381 43.0023Z" fill="#D8D8D8"/>
<path d="M60.7717 83.6255C60.0325 83.6255 59.3115 83.699 58.6128 83.8375C63.5483 84.821 67.3099 89.111 67.5475 94.3322H71.8667C71.5942 88.3734 66.7314 83.6255 60.7717 83.6255Z" fill="#D8D8D8"/>
<path d="M60.7714 75.0924C60.1747 75.0924 59.6912 74.6035 59.6912 74.0001V71.2206C59.6912 70.6173 60.1747 70.1284 60.7714 70.1284C61.3681 70.1284 61.8516 70.6173 61.8516 71.2206V74.0001C61.8516 74.6035 61.3681 75.0924 60.7714 75.0924Z" fill="#D8D8D8"/>
<path d="M61.8516 83.7829V80.1599C61.8516 79.5565 61.3681 79.0676 60.7714 79.0676C60.1747 79.0676 59.6912 79.5565 59.6912 80.1599V83.7829H61.8516Z" fill="#D8D8D8"/>
<path d="M79.8413 28H41.702C40.8706 28 40.1957 28.6825 40.1957 29.5233V29.7748C40.1957 32.0978 42.0569 33.9814 44.3542 33.9814H77.1891C79.4864 33.9814 81.3476 32.0992 81.3476 29.7762V29.5247C81.3476 28.6825 80.6727 28 79.8413 28Z" fill="#8B8B8B"/>
<path d="M79.8411 28H75.5219C76.3547 28 77.0282 28.6825 77.0282 29.5233V29.7748C77.0282 32.0978 75.1669 33.98 72.8697 33.98H77.1889C79.4861 33.98 81.3474 32.0978 81.3474 29.7748V29.5233C81.3474 28.6825 80.6725 28 79.8411 28Z" fill="#606060"/>
<path d="M79.8413 100.348H41.702C40.8706 100.348 40.1957 99.6652 40.1957 98.8245V98.5729C40.1957 96.2499 42.0569 94.3677 44.3542 94.3677H77.1891C79.4864 94.3677 81.3476 96.2499 81.3476 98.5729V98.8245C81.3476 99.6652 80.6727 100.348 79.8413 100.348Z" fill="#8B8B8B"/>
<path d="M77.1889 94.3666H72.8697C75.1669 94.3666 77.0282 96.2488 77.0282 98.5719V98.8234C77.0282 99.6656 76.3533 100.347 75.5219 100.347H79.8411C80.6739 100.347 81.3474 99.6641 81.3474 98.8234V98.5719C81.3474 96.2502 79.4861 94.3666 77.1889 94.3666Z" fill="#606060"/>
</g>
<defs>
<filter id="filter0_f" x="7.5" y="63.4783" width="107.13" height="76.5217" filterUnits="userSpaceOnUse" color-interpolation-filters="sRGB">
<feFlood flood-opacity="0" result="BackgroundImageFix"/>
<feBlend mode="normal" in="SourceGraphic" in2="BackgroundImageFix" result="shape"/>
<feGaussianBlur stdDeviation="16" result="effect1_foregroundBlur"/>
</filter>
<clipPath id="clip0">
<rect width="120" height="120" fill="white" transform="translate(0.5)"/>
</clipPath>
</defs>
</svg>
