<svg width="167" height="88" viewBox="0 0 167 88" fill="none" xmlns="http://www.w3.org/2000/svg">
<path fill-rule="evenodd" clip-rule="evenodd" d="M46 71H129C132.866 71 136 67.866 136 64C136 60.134 132.866 57 129 57C129 57 123 53.866 123 50C123 46.134 126.952 43 131.826 43H142C145.866 43 149 39.866 149 36C149 32.134 145.866 29 142 29H120C123.866 29 127 25.866 127 22C127 18.134 123.866 15 120 15H160C163.866 15 167 11.866 167 8C167 4.13401 163.866 1 160 1H62C58.134 1 55 4.13401 55 8C55 11.866 58.134 15 62 15H22C18.134 15 15 18.134 15 22C15 25.866 18.134 29 22 29H47C50.866 29 54 32.134 54 36C54 39.866 50.866 43 47 43H7C3.13401 43 0 46.134 0 50C0 53.866 3.13401 57 7 57H46C42.134 57 39 60.134 39 64C39 67.866 42.134 71 46 71ZM153 36C153 39.866 156.134 43 160 43C163.866 43 167 39.866 167 36C167 32.134 163.866 29 160 29C156.134 29 153 32.134 153 36Z" fill="#F3F7FF"/>
<circle cx="73.5" cy="35.5" r="33.5" fill="#F3F7FF" stroke="#75A4FE" stroke-width="2.5"/>
<circle cx="73.5" cy="35.5" r="26.5" fill="white" stroke="#75A4FE" stroke-width="2.5" stroke-linecap="round"/>
<ellipse cx="60.3991" cy="58.1607" rx="3.60172" ry="2.08595" stroke="#75A4FE" stroke-width="2.5" stroke-linecap="round"/>
<circle cx="64.5" cy="26.5" r="9.5" stroke="#A4C3FE" stroke-width="2.5" stroke-linecap="round"/>
<path d="M101 62L107 68" stroke="#75A4FE" stroke-width="2.5"/>
<path d="M112.884 67.0303L123.97 78.1156C125.862 80.0083 125.862 83.077 123.97 84.9697C122.077 86.8624 119.008 86.8624 117.116 84.9697L106.03 73.8844C104.138 71.9917 104.138 68.923 106.03 67.0303C107.923 65.1376 110.992 65.1376 112.884 67.0303Z" fill="#E8F0FE" stroke="#75A4FE" stroke-width="2.5"/>
<path d="M111 69L122 80" stroke="white" stroke-width="2.5" stroke-linecap="round"/>
<path d="M116.324 25.5C114.944 25.5 113.824 26.6193 113.824 28H116.324V25.5ZM133.5 25.5H116.324V28H133.5V25.5ZM136 28C136 26.6193 134.881 25.5 133.5 25.5V28H136ZM133.5 30.5C134.881 30.5 136 29.3807 136 28H133.5V30.5ZM116.324 30.5H133.5V28H116.324V30.5ZM113.824 28C113.824 29.3807 114.944 30.5 116.324 30.5V28H113.824ZM138.279 25.5C136.898 25.5 135.779 26.6193 135.779 28H138.279V25.5ZM140.5 25.5H138.279V28H140.5V25.5ZM143 28C143 26.6193 141.881 25.5 140.5 25.5V28H143ZM140.5 30.5C141.881 30.5 143 29.3807 143 28H140.5V30.5ZM138.279 30.5H140.5V28H138.279V30.5ZM135.779 28C135.779 29.3807 136.898 30.5 138.279 30.5V28H135.779ZM119 35.7773H119V33.2773C117.619 33.2773 116.5 34.3966 116.5 35.7773H119ZM119 35.7773H119H116.5C116.5 37.1581 117.619 38.2773 119 38.2773V35.7773ZM127.176 35.7773H119V38.2773H127.176V35.7773ZM127.176 35.7773V38.2773C128.556 38.2773 129.676 37.1581 129.676 35.7773H127.176ZM127.176 35.7773H129.676C129.676 34.3966 128.556 33.2773 127.176 33.2773V35.7773ZM119 35.7773H127.176V33.2773H119V35.7773Z" fill="#A4C3FE"/>
<path d="M5.27881 46.5C3.8981 46.5 2.77881 47.6193 2.77881 49H5.27881V46.5ZM9.5 46.5H5.27881V49H9.5V46.5ZM12 49C12 47.6193 10.8807 46.5 9.5 46.5V49H12ZM9.5 51.5C10.8807 51.5 12 50.3807 12 49H9.5V51.5ZM5.27881 51.5H9.5V49H5.27881V51.5ZM2.77881 49C2.77881 50.3807 3.8981 51.5 5.27881 51.5V49H2.77881ZM15.3242 46.5C13.9435 46.5 12.8242 47.6193 12.8242 49H15.3242V46.5ZM32.5 46.5H15.3242V49H32.5V46.5ZM35 49C35 47.6193 33.8807 46.5 32.5 46.5V49H35ZM32.5 51.5C33.8807 51.5 35 50.3807 35 49H32.5V51.5ZM15.3242 51.5H32.5V49H15.3242V51.5ZM12.8242 49C12.8242 50.3807 13.9435 51.5 15.3242 51.5V49H12.8242ZM29 57.7773V55.2773C27.6193 55.2773 26.5 56.3966 26.5 57.7773H29ZM29 57.7773H26.5C26.5 59.1581 27.6193 60.2773 29 60.2773V57.7773ZM37.1758 57.7773H29V60.2773H37.1758V57.7773ZM37.1758 57.7773V60.2773C38.5565 60.2773 39.6758 59.1581 39.6758 57.7773H37.1758ZM37.1758 57.7773H39.6758C39.6758 56.3966 38.5565 55.2773 37.1758 55.2773V57.7773ZM29 57.7773H37.1758V55.2773H29V57.7773Z" fill="#A4C3FE"/>
</svg>
