<svg viewBox="0 0 121 120" fill="none" xmlns="http://www.w3.org/2000/svg">
<circle cx="60.5296" cy="52.8994" r="49.3491" fill="#F6F6F6"/>
<circle r="6.0355" transform="matrix(-1 0 0 1 16.5059 20.9467)" fill="#F6F6F6"/>
<circle r="3.90533" transform="matrix(-1 0 0 1 65.5 116.095)" fill="#F6F6F6"/>
<circle r="3.90533" transform="matrix(-1 0 0 1 86.0917 3.90533)" fill="#F6F6F6"/>
<circle r="3.90533" transform="matrix(-1 0 0 1 9.40532 82.7219)" fill="#F6F6F6"/>
<circle r="2.84024" transform="matrix(-1 0 0 1 112.719 77.3965)" fill="#F6F6F6"/>
<ellipse rx="2.84024" ry="3.19527" transform="matrix(-1 0 0 1 115.559 11.0059)" fill="#F6F6F6"/>
<path d="M69.72 66.066L64.8612 69.7398L79.3986 88.9665L84.2574 85.2927L69.72 66.066Z" fill="#D8D8D8"/>
<path d="M95.6946 104.667L94.877 105.286C92.7895 106.863 89.8218 106.451 88.2443 104.363L75 86.8048C73.4225 84.7172 73.8352 81.7496 75.9228 80.172L76.7404 79.5528C78.828 77.9752 81.7956 78.3879 83.3731 80.4755L96.6174 98.0339C98.1891 100.12 97.7764 103.088 95.6946 104.667Z" fill="#8B8B8B"/>
<path d="M53.9974 77.6514C68.1537 80.662 82.0701 71.6266 85.0806 57.4704C88.0912 43.3142 79.0558 29.3977 64.8996 26.3872C50.7434 23.3766 36.8269 32.412 33.8164 46.5682C30.8058 60.7245 39.8412 74.6409 53.9974 77.6514Z" fill="#C3C3C3"/>
<path d="M68.4532 69.9396C78.0997 64.9727 81.8932 53.1262 76.9263 43.4798C71.9595 33.8333 60.113 30.0397 50.4665 35.0066C40.82 39.9735 37.0265 51.8199 41.9933 61.4664C46.9602 71.1129 58.8067 74.9065 68.4532 69.9396Z" fill="white"/>
<path fill-rule="evenodd" clip-rule="evenodd" d="M50.7968 47.6982C49.726 46.6137 49.7372 44.8666 50.8216 43.7959C51.9061 42.7251 53.6532 42.7363 54.7239 43.8207L59.3959 48.5527L63.9265 43.964C64.9964 42.8804 66.7421 42.8693 67.8256 43.9391C68.9092 45.009 68.9203 46.7547 67.8505 47.8383L63.2705 52.477L67.8521 57.1173C68.9228 58.2018 68.9117 59.9489 67.8272 61.0196C66.7428 62.0903 64.9957 62.0792 63.9249 60.9947L59.3928 56.4045L54.7192 61.138C53.6493 62.2216 51.9036 62.2327 50.82 61.1629C49.7365 60.093 49.7253 58.3473 50.7952 57.2637L55.5182 52.4801L50.7968 47.6982Z" fill="#EAEAEA"/>
</svg>
