<svg viewBox="0 0 121 139" fill="none" xmlns="http://www.w3.org/2000/svg">
<ellipse cx="60.5897" cy="64.096" rx="55.9036" ry="55.9036" fill="#F4FBF9"/>
<ellipse rx="5.3012" ry="5.3012" transform="matrix(-1 0 0 1 9.98713 107.162)" fill="#F4FBF9"/>
<ellipse rx="2.40964" ry="2.40964" transform="matrix(-1 0 0 1 18.6619 56.3852)" fill="#F4FBF9"/>
<ellipse rx="5.3012" ry="5.3012" transform="matrix(-1 0 0 1 18.6619 5.3012)" fill="#F4FBF9"/>
<ellipse rx="3.37349" ry="3.37349" transform="matrix(-1 0 0 1 36.6641 6.86177)" fill="#F4FBF9"/>
<ellipse rx="2.6506" ry="2.6506" transform="matrix(-1 0 0 1 111.29 100.325)" fill="#F4FBF9"/>
<ellipse rx="2.6506" ry="2.6506" transform="matrix(-1 0 0 1 113.843 10.843)" fill="#F4FBF9"/>
<ellipse rx="2.09302" ry="2.09302" transform="matrix(-1 0 0 1 20.7327 114.418)" fill="#F4FBF9"/>
<g filter="url(#filter0_f)">
<rect x="40.5818" y="100.254" width="56.9233" height="12.3525" rx="6.17626" transform="rotate(-41.4242 40.5818 100.254)" fill="#93D3C6"/>
</g>
<path d="M84.0844 62.2549L67.1759 53.5248L51.4473 45.4025C51.4473 45.4025 49.6589 61.0055 46.3572 63.647L44.6981 78.1413C44.6981 78.1413 44.6963 78.1583 44.6926 78.1925C44.6908 78.2096 44.6887 78.2293 44.6858 78.2543C44.5625 79.4927 43.5699 90.5233 47.2282 93.9411C48.8164 95.4247 51.2818 95.4737 55.0751 92.6617L62.0252 86.1647C62.0252 86.1647 67.0264 76.4666 72.5951 76.2839L84.4869 65.1673C84.9138 64.7681 85.1201 64.1853 85.0401 63.6059C84.9601 63.0266 84.6033 62.5233 84.0844 62.2549Z" fill="#208D77"/>
<path d="M85.0405 63.6076C85.1205 64.187 84.9142 64.7698 84.4874 65.169L72.5956 76.2856C67.0269 76.4683 62.0257 86.1663 62.0257 86.1663L55.0756 92.6634C51.2823 95.4754 48.8168 95.4263 47.2287 93.9428L67.1764 53.5265L84.0848 62.2566C84.6038 62.525 84.9606 63.0282 85.0405 63.6076Z" fill="#208D77"/>
<path d="M50.8076 86.6899L44.6982 78.1421L42.149 100.407C42.0634 101.156 42.4543 101.879 43.1276 102.218C43.1322 102.22 43.1367 102.222 43.1409 102.224C43.5777 102.44 44.0723 102.465 44.5141 102.315C44.7514 102.235 44.9741 102.103 45.1647 101.926L55.0753 92.6626L50.8076 86.6899Z" fill="#67C1AF"/>
<path d="M55.0752 92.6623L45.1645 101.926C44.9739 102.103 44.7513 102.234 44.5139 102.315C44.0722 102.465 43.5776 102.44 43.1408 102.223L50.8075 86.6896L55.0752 92.6623Z" fill="#67C1AF"/>
<path d="M62.9174 62.1538L51.4474 45.4033L50.9299 45.1356C50.4048 44.8641 49.7795 44.8685 49.2573 45.1469C48.7362 45.4249 48.3847 45.9416 48.3168 46.5294L46.3573 63.6477L55.614 76.9514L62.0253 86.1654L72.5952 76.2847L62.9174 62.1538Z" fill="#67C1AF"/>
<path d="M72.595 76.2841L62.0251 86.1649L55.6138 76.9509L62.9172 62.1533L72.595 76.2841Z" fill="#67C1AF"/>
<path d="M78.0164 54.3622C77.3914 54.5742 76.6729 54.433 76.1721 53.9373C75.466 53.2385 75.4601 52.0998 76.1589 51.3936L76.6783 50.8688C79.617 47.8993 83.8143 46.6291 87.9063 47.4699C88.8793 47.6698 89.506 48.6208 89.306 49.5938C89.106 50.5671 88.1551 51.1934 87.1821 50.9937C84.286 50.3984 81.3152 51.2977 79.2351 53.3993L78.7157 53.9242C78.5126 54.1294 78.2723 54.2755 78.0164 54.3622Z" fill="#9B79DB"/>
<path d="M82.2047 42.8134C81.2639 43.1324 80.2421 42.6285 79.9231 41.6878C79.6041 40.7471 80.1076 39.726 81.0483 39.407L81.0494 39.4066C81.9903 39.0875 83.0115 39.5917 83.3305 40.5324C83.6495 41.4731 83.1456 42.4943 82.2047 42.8134Z" fill="#FFA940"/>
<path d="M72.1364 46.3535C72.4553 47.2938 71.9509 48.3157 71.0106 48.6345C70.5405 48.7939 70.0499 48.7475 69.6363 48.5434L69.6359 48.5423C69.2227 48.3393 68.8879 47.9792 68.7285 47.5091C68.4096 46.5688 68.914 45.5469 69.8543 45.2281L69.8554 45.2277C70.3256 45.0683 70.815 45.115 71.2271 45.3184C71.6415 45.521 71.977 45.8833 72.1364 46.3535Z" fill="#DA4343"/>
<path d="M72.1362 46.3535C72.455 47.2938 71.9507 48.3157 71.0104 48.6345C70.5402 48.7939 70.0497 48.7475 69.6361 48.5434L69.6357 48.5423L71.2268 45.3184C71.6412 45.521 71.9768 45.8833 72.1362 46.3535Z" fill="#DA4343"/>
<path d="M62.1986 46.5585C61.9426 46.6452 61.663 46.6755 61.3771 46.6361C60.3929 46.5007 59.7049 45.5931 59.8403 44.609L59.941 43.8774C60.344 40.9482 59.2509 38.0431 57.0168 36.1061C56.2663 35.4554 56.1853 34.3194 56.836 33.5688C57.4866 32.8183 58.6227 32.7372 59.3733 33.3881C62.5297 36.1247 64.0742 40.2293 63.5047 44.3677L63.404 45.0992C63.308 45.7975 62.8234 46.3466 62.1986 46.5585Z" fill="#FFA940"/>
<path d="M68.8223 36.2089C67.8816 36.5279 66.8597 36.024 66.5407 35.0833C66.2217 34.1426 66.7252 33.1215 67.666 32.8025L67.6671 32.8021C68.608 32.4831 69.6292 32.9872 69.9481 33.9279C70.2671 34.8686 69.7633 35.8899 68.8223 36.2089Z" fill="#FFC069"/>
<path d="M81.8156 26.7376L81.8541 26.8512C82.8522 29.7947 81.2701 33.0003 78.3266 33.9984L78.213 34.0369C77.1489 34.3977 76.5763 35.558 76.9371 36.6221C77.2559 37.5623 76.7516 38.5842 75.8113 38.9031C75.3411 39.0625 74.8506 39.0161 74.4381 38.8116C74.0249 38.6086 73.6897 38.2474 73.5303 37.7773C72.5322 34.8338 74.1143 31.6282 77.0578 30.6301L77.1714 30.5916C78.2354 30.2308 78.8081 29.0705 78.4473 28.0064L78.4088 27.8928C78.0899 26.9526 78.5943 25.9307 79.5346 25.6118C80.0047 25.4524 80.4953 25.4988 80.9078 25.7033C81.321 25.9063 81.6562 26.2675 81.8156 26.7376Z" fill="#DA4343"/>
<path d="M81.8152 26.7365L81.8537 26.8501C82.8518 29.7936 81.2697 32.9992 78.3262 33.9973L78.2126 34.0358C77.1486 34.3966 76.5759 35.5569 76.9367 36.6209C77.2555 37.5612 76.7512 38.5831 75.8109 38.9019C75.3407 39.0614 74.8502 39.015 74.4377 38.8104L80.9074 25.7022C81.3206 25.9052 81.6558 26.2664 81.8152 26.7365Z" fill="#DA4343"/>
<defs>
<filter id="filter0_f" x="11.123" y="33.1328" width="109.773" height="105.842" filterUnits="userSpaceOnUse" color-interpolation-filters="sRGB">
<feFlood flood-opacity="0" result="BackgroundImageFix"/>
<feBlend mode="normal" in="SourceGraphic" in2="BackgroundImageFix" result="shape"/>
<feGaussianBlur stdDeviation="16" result="effect1_foregroundBlur"/>
</filter>
</defs>
</svg>
