<svg viewBox="0 0 121 120" fill="none" xmlns="http://www.w3.org/2000/svg">
<ellipse rx="6.0355" ry="6.0355" transform="matrix(-1 0 0 1 14.9076 7.43101)" fill="#F6F6F6"/>
<ellipse rx="3.90533" ry="3.90532" transform="matrix(-1 0 0 1 95.1032 9.48736)" fill="#F6F6F6"/>
<ellipse rx="2.7907" ry="2.7907" transform="matrix(-1 0 0 1 8.17439 25.1169)" fill="#F6F6F6"/>
<circle r="1.39535" transform="matrix(-1 0 0 1 113.523 79.535)" fill="#F6F6F6"/>
<ellipse rx="2.09303" ry="2.44186" transform="matrix(-1 0 0 1 115.616 3.83737)" fill="#F6F6F6"/>
<circle cx="60.8487" cy="59.651" r="52.6744" fill="#F6F6F6"/>
<path fill-rule="evenodd" clip-rule="evenodd" d="M37.169 106.613L35.3152 61.3584H88.0242L86.1996 105.901C78.7219 109.997 70.1386 112.325 61.0115 112.325C52.4271 112.325 44.3238 110.266 37.169 106.613Z" fill="#D8D8D8"/>
<path fill-rule="evenodd" clip-rule="evenodd" d="M81.7896 108.054L83.7022 61.3584H88.0243L86.1997 105.901C84.7688 106.685 83.2974 107.404 81.7896 108.054Z" fill="#C3C3C3"/>
<path d="M75.0239 48.5381H71.6144V43.7075C71.6144 42.2973 70.4673 41.1502 69.0571 41.1502H54.2813C52.8711 41.1502 51.724 42.2973 51.724 43.7075V48.5381H48.3145V43.7075C48.3145 40.4171 50.9913 37.7402 54.2813 37.7402H69.0571C72.3471 37.7402 75.0244 40.4171 75.0244 43.7075V48.5381H75.0239Z" fill="#C3C3C3"/>
<path opacity="0.3" d="M72.1079 38.5811C72.6413 39.4744 72.9485 40.5181 72.9485 41.6319V46.4625H71.6143V48.5383H75.0242V43.7077C75.0238 41.5315 73.8527 39.6235 72.1079 38.5811Z" fill="#8B8B8B"/>
<path fill-rule="evenodd" clip-rule="evenodd" d="M50.1259 111.195C47.6314 110.669 45.2021 109.966 42.8518 109.1V67.7631C42.8518 66.8461 43.5953 66.1025 44.5124 66.1025H48.4654C49.3824 66.1025 50.1259 66.8461 50.1259 67.7631V111.195Z" fill="#C3C3C3"/>
<path fill-rule="evenodd" clip-rule="evenodd" d="M56.5481 112.139V67.7641C56.5481 66.847 57.2916 66.1035 58.2087 66.1035H62.1617C63.0787 66.1035 63.8222 66.847 63.8222 67.7641V112.252C62.8916 112.301 61.9545 112.326 61.0117 112.326C59.5082 112.326 58.0195 112.262 56.5481 112.139Z" fill="#C3C3C3"/>
<path fill-rule="evenodd" clip-rule="evenodd" d="M70.2439 111.517V67.7641C70.2439 66.847 70.9874 66.1035 71.9045 66.1035H75.8575C76.7745 66.1035 77.518 66.847 77.518 67.7641V109.679C75.1628 110.458 72.7336 111.075 70.2439 111.517Z" fill="#C3C3C3"/>
<path d="M90.2301 61.3015H33.1089C32.6381 61.3015 32.2566 60.92 32.2566 60.4492V52.7994C32.2566 50.4455 34.165 48.5371 36.5189 48.5371H86.8201C89.1739 48.5371 91.0824 50.4455 91.0824 52.7994V60.4488C91.0824 60.9196 90.7008 61.3015 90.2301 61.3015Z" fill="#C3C3C3"/>
<path opacity="0.2" d="M86.9297 48.54C86.9305 48.5766 86.931 48.6127 86.931 48.6492V56.2987C86.931 56.7694 86.5494 57.1509 86.0787 57.1509H32.2566V60.4501C32.2566 60.9209 32.6381 61.3024 33.1089 61.3024H90.2297C90.7005 61.3024 91.082 60.9209 91.082 60.4501V52.8007C91.0824 50.4833 89.2329 48.5982 86.9297 48.54Z" fill="#8B8B8B"/>
<path opacity="0.2" d="M88.6123 48.9316C88.8651 49.4767 89.0067 50.0837 89.0067 50.7238V58.3732C89.0067 58.844 88.6252 59.2255 88.1544 59.2255H32.2566V60.449C32.2566 60.9197 32.6381 61.3012 33.1089 61.3012H90.2297C90.7005 61.3012 91.082 60.9197 91.082 60.449V52.7995C91.0824 51.0858 90.0707 49.6087 88.6123 48.9316Z" fill="#606060"/>
<ellipse rx="3.90533" ry="3.90532" transform="matrix(-1 0 0 1 19.0566 108.557)" fill="#F6F6F6"/>
</svg>
