<svg width="305" height="150" viewBox="0 0 305 150" fill="none" xmlns="http://www.w3.org/2000/svg">
<path d="M185.19 53.9282L277.757 104.492H60.5695L185.19 53.9282Z" fill="#2C98F0"/>
<path d="M180.357 70.7294L185.286 98.7826L277.758 104.492L271.211 76.171L180.357 70.7294Z" fill="#2C98F0"/>
<path d="M109.518 104.942L277.76 104.492L271.214 76.1712C271.214 76.1712 266.678 100.665 109.518 104.942Z" fill="#296C9F"/>
<path d="M245.554 68.986L243.324 28.7695L194.089 39.0069L245.554 68.986Z" fill="#FF6C4B"/>
<path d="M273.885 62.534C280.647 62.534 286.129 57.0389 286.129 50.2605C286.129 43.482 280.647 37.987 273.885 37.987C267.123 37.987 261.641 43.482 261.641 50.2605C261.641 57.0389 267.123 62.534 273.885 62.534Z" fill="#449281"/>
<path d="M297.264 86.6763C301.377 86.6763 304.712 83.3335 304.712 79.21C304.712 75.0865 301.377 71.7437 297.264 71.7437C293.15 71.7437 289.816 75.0865 289.816 79.21C289.816 83.3335 293.15 86.6763 297.264 86.6763Z" fill="#7393FD"/>
<path d="M0.257812 90.021L60.5682 60.7694L46.8974 44.6669L39.739 56.0268L27.3643 44.3383L18.6105 65.8539L7.6076 61.2043L0.257812 90.021Z" fill="#98C7BD"/>
<g filter="url(#filter0_d)">
<path d="M264.32 135.809C262.55 135.809 260.853 135.104 259.602 133.85C258.351 132.596 257.648 130.895 257.648 129.121V79.9288H270.991V129.121C270.991 130.895 270.288 132.596 269.037 133.85C267.786 135.104 266.089 135.809 264.32 135.809Z" fill="#F7E6CD"/>
<path d="M248.08 141.294C246.311 141.294 244.614 140.59 243.363 139.335C242.111 138.081 241.409 136.38 241.409 134.607V85.414H254.751V134.607C254.751 136.38 254.049 138.081 252.797 139.335C251.546 140.59 249.849 141.294 248.08 141.294V141.294Z" fill="#F7E6CD"/>
<path d="M187.73 90.2446C187.426 88.4974 187.827 86.7006 188.845 85.2497C189.863 83.7988 191.414 82.8125 193.157 82.5079L225.076 76.9294L227.368 90.1057L195.449 95.6842C193.706 95.9888 191.913 95.5869 190.466 94.5667C189.018 93.5466 188.034 91.9919 187.73 90.2446V90.2446Z" fill="#F7E6CD"/>
<path d="M226.284 84.2059L227.357 90.3787L195.443 95.9552C194.58 96.1062 193.696 96.0852 192.841 95.8936C191.986 95.7019 191.176 95.3433 190.46 94.8381C189.743 94.333 189.132 93.6913 188.663 92.9496C188.194 92.2079 187.874 91.3808 187.724 90.5155V90.5155C195.962 95.1062 230.087 87.733 226.284 84.2059Z" fill="#BCB1A2"/>
<path d="M216.426 138.74C214.658 138.738 212.963 138.032 211.714 136.778C210.464 135.524 209.762 133.824 209.762 132.052V82.8479H223.105V132.041C223.105 133.814 222.402 135.515 221.151 136.769C219.9 138.024 218.203 138.728 216.434 138.728L216.426 138.74Z" fill="#F7E6CD"/>
<path d="M231.757 141.294C230.88 141.295 230.013 141.122 229.203 140.786C228.393 140.45 227.657 139.958 227.037 139.337C226.417 138.716 225.925 137.978 225.59 137.167C225.254 136.355 225.082 135.485 225.082 134.607V85.414H238.425V134.607C238.425 136.38 237.722 138.08 236.472 139.334C235.222 140.588 233.526 141.293 231.757 141.294V141.294Z" fill="#F7E6CD"/>
<path d="M240.372 106.88C232.251 106.88 224.463 103.646 218.721 97.8903C212.978 92.1343 209.752 84.3273 209.752 76.187H270.991C270.991 84.3273 267.765 92.1343 262.023 97.8903C256.281 103.646 248.493 106.88 240.372 106.88V106.88Z" fill="#F7E6CD"/>
<path d="M180.733 73.6856C186.495 73.6856 191.167 69.0027 191.167 63.226C191.167 57.4493 186.495 52.7664 180.733 52.7664C174.97 52.7664 170.298 57.4493 170.298 63.226C170.298 69.0027 174.97 73.6856 180.733 73.6856Z" fill="#3A3A3A"/>
<path d="M190.776 66.4129C189.931 69.0457 188.08 71.2359 185.628 72.5042C183.177 73.7726 180.323 74.0159 177.693 73.181C175.063 72.346 172.869 70.5008 171.593 68.0489C170.316 65.597 170.06 62.7381 170.881 60.0977C178.401 67.3151 185.035 67.7994 190.473 59.262C191.413 61.5349 191.521 64.0682 190.776 66.4129V66.4129Z" fill="#191919"/>
<path d="M120.709 60.4321C130.096 60.4321 137.705 52.8044 137.705 43.3951C137.705 33.9859 130.096 26.3581 120.709 26.3581C111.322 26.3581 103.713 33.9859 103.713 43.3951C103.713 52.8044 111.322 60.4321 120.709 60.4321Z" fill="#191919"/>
<path d="M146.135 53.7408C153.855 53.7408 160.114 47.4668 160.114 39.7275C160.114 31.9882 153.855 25.7142 146.135 25.7142C138.414 25.7142 132.155 31.9882 132.155 39.7275C132.155 47.4668 138.414 53.7408 146.135 53.7408Z" fill="#191919"/>
<path d="M167.265 61.3609C178.513 61.3609 187.63 52.2212 187.63 40.9469C187.63 29.6726 178.513 20.5329 167.265 20.5329C156.018 20.5329 146.9 29.6726 146.9 40.9469C146.9 52.2212 156.018 61.3609 167.265 61.3609Z" fill="#3A3A3A"/>
<path d="M187.617 40.9638C187.617 46.379 185.471 51.5723 181.651 55.4014C177.831 59.2305 172.65 61.3816 167.248 61.3816C161.846 61.3816 156.665 59.2305 152.845 55.4014C149.025 51.5723 146.879 46.379 146.879 40.9638C158.17 54.6048 172.271 54.6846 187.617 40.9638Z" fill="#191919"/>
<path d="M168.948 66.0292C174.887 66.0292 179.701 61.2034 179.701 55.2505C179.701 49.2976 174.887 44.4718 168.948 44.4718C163.009 44.4718 158.195 49.2976 158.195 55.2505C158.195 61.2034 163.009 66.0292 168.948 66.0292Z" fill="#F4DDBE"/>
<path d="M160.356 61.7312C162.071 64.0157 164.621 65.524 167.445 65.9243C170.269 66.3246 173.136 65.5843 175.416 63.866C175.974 63.4445 176.49 62.97 176.958 62.4491C169.926 61.6324 163.808 58.4036 158.346 53.4653C158.102 54.9077 158.155 56.3848 158.501 57.806C158.846 59.2273 159.478 60.563 160.356 61.7312V61.7312Z" fill="#BCB1A2"/>
<path d="M137.703 125.56C158.816 125.56 175.931 108.403 175.931 87.2393C175.931 66.0753 158.816 48.9184 137.703 48.9184C116.589 48.9184 99.4738 66.0753 99.4738 87.2393C99.4738 108.403 116.589 125.56 137.703 125.56Z" fill="#F4DDBE"/>
<path d="M115.805 67.5261C122.484 67.5261 127.898 62.0991 127.898 55.4046C127.898 48.71 122.484 43.2831 115.805 43.2831C109.127 43.2831 103.713 48.71 103.713 55.4046C103.713 62.0991 109.127 67.5261 115.805 67.5261Z" fill="#3A3A3A"/>
<path d="M128.01 55.4046C128.01 58.6194 126.736 61.7026 124.468 63.9758C122.201 66.249 119.125 67.5261 115.918 67.5261C112.711 67.5261 109.635 66.249 107.367 63.9758C105.1 61.7026 103.826 58.6194 103.826 55.4046C114.652 60.7341 122.152 58.9507 125.179 47.6174C127.01 49.7972 128.012 52.5554 128.01 55.4046V55.4046Z" fill="#191919"/>
<path d="M101.369 97.4747C112.616 97.4747 121.734 88.335 121.734 77.0607C121.734 65.7864 112.616 56.6467 101.369 56.6467C90.1217 56.6467 81.004 65.7864 81.004 77.0607C81.004 88.335 90.1217 97.4747 101.369 97.4747Z" fill="#3A3A3A"/>
<path d="M121.716 77.0779C121.716 82.493 119.57 87.6864 115.75 91.5155C111.93 95.3445 106.749 97.4957 101.347 97.4957C95.9451 97.4957 90.7642 95.3445 86.9444 91.5155C83.1245 87.6864 80.9785 82.493 80.9785 77.0779C92.2713 90.7189 106.368 90.7987 121.716 77.0779Z" fill="#191919"/>
<path d="M160.36 23.4122L90.7576 58.867C80.992 39.6002 88.6544 16.0485 107.875 6.25554C127.095 -3.53741 150.592 4.14538 160.36 23.4122Z" fill="#16C6B1"/>
<path d="M160.36 23.4122L90.7576 58.867C121.227 40.3941 141.7 22.5556 135.853 3.39326C141.107 4.82659 146.003 7.34886 150.225 10.7971C154.446 14.2454 157.899 18.543 160.36 23.4122Z" fill="#006064"/>
<path d="M159.836 22.3384L45.5547 80.5568L47.5849 84.5613L161.866 26.3429L159.836 22.3384Z" fill="#006064"/>
<path d="M163.917 77.7919C169.542 92.4795 162.022 108.842 147.088 114.377" stroke="#191919" stroke-width="2" stroke-miterlimit="10"/>
<path d="M124.795 88.2972C125.715 97.0645 128.857 104.89 134.222 111.775L142.784 99.3209" stroke="#3A3A3A" stroke-width="2" stroke-miterlimit="10"/>
<path d="M147.089 84.6523C148.826 84.6523 150.234 83.267 150.234 81.5583C150.234 79.8495 148.826 78.4642 147.089 78.4642C145.352 78.4642 143.943 79.8495 143.943 81.5583C143.943 83.267 145.352 84.6523 147.089 84.6523Z" fill="#191919"/>
<path d="M119.137 104.894C120.874 104.894 122.283 103.508 122.283 101.799C122.283 100.091 120.874 98.7054 119.137 98.7054C117.4 98.7054 115.992 100.091 115.992 101.799C115.992 103.508 117.4 104.894 119.137 104.894Z" fill="#191919"/>
</g>
<defs>
<filter id="filter0_d" x="41.5547" y="0" width="235.436" height="149.294" filterUnits="userSpaceOnUse" color-interpolation-filters="sRGB">
<feFlood flood-opacity="0" result="BackgroundImageFix"/>
<feColorMatrix in="SourceAlpha" type="matrix" values="0 0 0 0 0 0 0 0 0 0 0 0 0 0 0 0 0 0 127 0"/>
<feOffset dx="1" dy="3"/>
<feGaussianBlur stdDeviation="2.5"/>
<feColorMatrix type="matrix" values="0 0 0 0 0 0 0 0 0 0 0 0 0 0 0 0 0 0 0.1 0"/>
<feBlend mode="normal" in2="BackgroundImageFix" result="effect1_dropShadow"/>
<feBlend mode="normal" in="SourceGraphic" in2="effect1_dropShadow" result="shape"/>
</filter>
</defs>
</svg>
