<svg width="951" height="1000" viewBox="0 0 215 226" fill="none" xmlns="http://www.w3.org/2000/svg">
<path d="M17.8027 29.9336C20.671 29.9336 22.9961 27.6085 22.9961 24.7402C22.9961 21.872 20.671 19.5469 17.8027 19.5469C14.9345 19.5469 12.6094 21.872 12.6094 24.7402C12.6094 27.6085 14.9345 29.9336 17.8027 29.9336Z" fill="#C63F17"/>
<path d="M13.5005 124.287H10.3418V213.733H13.5005V124.287Z" fill="#3A3A3A"/>
<path d="M52.0025 189.76L58.719 217.506L39.2416 221.125L16.8174 199.431C16.8174 199.431 39.8012 206.456 38.8107 206.447C38.2769 206.447 43.6107 201.133 43.6107 201.133L41.6861 192.45L52.0025 189.76Z" fill="#16C6B1"/>
<path d="M51.9172 189.783L55.3182 203.832C55.3182 203.832 42.144 203.57 41.1523 203.565L43.5196 201.15L41.5949 192.467L51.9172 189.783Z" fill="#006064"/>
<path d="M57.6982 213.294L58.719 217.512L39.2416 221.131L16.8174 199.432L38.7979 218.16L57.6982 213.294Z" fill="#3A3A3A"/>
<path d="M95.2717 107.004L121.393 116.907L61.5254 155.302L72.131 194.682L32.4924 194.97L30.3008 141.276L95.2717 107.004Z" fill="#191919"/>
<path d="M101.808 191.57L115.02 216.886L96.9903 225.097L69.9932 209.447C69.9932 209.447 93.9932 210.716 93.0297 210.951C92.5122 211.077 96.4014 204.636 96.4014 204.636L92.4396 196.675L101.808 191.57Z" fill="#16C6B1"/>
<path d="M101.732 191.613L108.424 204.433C108.424 204.433 95.5748 207.36 94.6089 207.594L96.3241 204.679L92.3623 196.718L101.732 191.613Z" fill="#006064"/>
<path d="M113.013 213.036L115.02 216.884L96.9912 225.094L69.9941 209.445L95.8439 222.318L113.013 213.036Z" fill="#3A3A3A"/>
<path d="M108.764 114.285H136.473L108.477 160.872L123.54 198.771L84.1975 203.615L75.8467 150.529L108.764 114.285Z" fill="#191919"/>
<path d="M51.034 10.6097L48.2383 25.2146L76.4998 13.0671L77.1952 0.992188L51.034 10.6097Z" fill="#D66D4F"/>
<path d="M115.985 44.8265C120.2 44.8265 123.617 41.4095 123.617 37.1945C123.617 32.9795 120.2 29.5625 115.985 29.5625C111.769 29.5625 108.353 32.9795 108.353 37.1945C108.353 41.4095 111.769 44.8265 115.985 44.8265Z" fill="#F4DDBE"/>
<path d="M125.946 36.3135C128.969 36.3135 131.419 33.8631 131.419 30.8404C131.419 27.8176 128.969 25.3672 125.946 25.3672C122.923 25.3672 120.473 27.8176 120.473 30.8404C120.473 33.8631 122.923 36.3135 125.946 36.3135Z" fill="#191919"/>
<path d="M108.393 34.7917C113.165 34.7917 117.033 30.9235 117.033 26.1517C117.033 21.38 113.165 17.5117 108.393 17.5117C103.621 17.5117 99.7529 21.38 99.7529 26.1517C99.7529 30.9235 103.621 34.7917 108.393 34.7917Z" fill="#3A3A3A"/>
<path d="M99.6729 26.1508C99.6729 27.2855 99.8963 28.409 100.331 29.4572C100.765 30.5055 101.401 31.4579 102.203 32.2602C103.006 33.0625 103.958 33.699 105.006 34.1332C106.055 34.5674 107.178 34.7908 108.313 34.7908C109.447 34.7908 110.571 34.5674 111.619 34.1332C112.667 33.699 113.62 33.0625 114.422 32.2602C115.225 31.4579 115.861 30.5055 116.295 29.4572C116.729 28.409 116.953 27.2855 116.953 26.1508C109.218 29.9499 103.859 28.6796 101.695 20.5957C100.386 22.1505 99.6696 24.1185 99.6729 26.1508Z" fill="#191919"/>
<path d="M118.144 31.9503C121.167 31.9503 123.617 29.4998 123.617 26.4771C123.617 23.4543 121.167 21.0039 118.144 21.0039C115.121 21.0039 112.671 23.4543 112.671 26.4771C112.671 29.4998 115.121 31.9503 118.144 31.9503Z" fill="#3A3A3A"/>
<path d="M112.62 26.477C112.609 27.2024 112.743 27.9227 113.013 28.596C113.283 29.2692 113.685 29.8821 114.194 30.3988C114.703 30.9155 115.31 31.3259 115.979 31.6059C116.649 31.886 117.367 32.0303 118.092 32.0303C118.818 32.0303 119.536 31.886 120.205 31.6059C120.874 31.3259 121.481 30.9155 121.991 30.3988C122.5 29.8821 122.901 29.2692 123.172 28.596C123.442 27.9227 123.575 27.2024 123.565 26.477C118.665 28.8841 115.271 28.0786 113.902 22.9648C113.073 23.9477 112.619 25.1917 112.62 26.477Z" fill="#191919"/>
<path d="M124.799 37.9993C125.984 37.9993 126.946 37.038 126.946 35.8522C126.946 34.6664 125.984 33.7051 124.799 33.7051C123.613 33.7051 122.651 34.6664 122.651 35.8522C122.651 37.038 123.613 37.9993 124.799 37.9993Z" fill="#F4DDBE"/>
<path d="M189.234 37.1163L186.07 34.6732L197.853 19.4127C198.178 18.993 198.655 18.7192 199.181 18.6516C199.707 18.584 200.238 18.7281 200.658 19.0521C200.866 19.2127 201.04 19.4126 201.17 19.6405C201.301 19.8683 201.385 20.1197 201.418 20.3801C201.451 20.6405 201.433 20.905 201.364 21.1583C201.295 21.4117 201.177 21.649 201.017 21.8567L189.233 37.1172L189.234 37.1163Z" fill="#F7E6CD"/>
<path d="M185.99 32.555L182.814 30.1147L194.584 14.7976C194.744 14.5887 194.945 14.4136 195.173 14.2821C195.401 14.1507 195.653 14.0656 195.915 14.0317C196.176 13.9978 196.441 14.0158 196.695 14.0846C196.95 14.1534 197.188 14.2717 197.397 14.4327C197.605 14.593 197.78 14.7928 197.911 15.0207C198.043 15.2486 198.128 15.5001 198.162 15.7609C198.196 16.0218 198.179 16.2868 198.111 16.5408C198.042 16.7949 197.925 17.033 197.764 17.2415L185.994 32.5586L185.99 32.555Z" fill="#F7E6CD"/>
<path d="M182.103 29.5696L178.927 27.1292L190.697 11.8122C191.021 11.3909 191.499 11.1155 192.025 11.0466C192.552 10.9776 193.085 11.1207 193.506 11.4444C193.927 11.7681 194.203 12.2459 194.272 12.7726C194.341 13.2994 194.197 13.832 193.874 14.2533L182.104 29.5703L182.103 29.5696Z" fill="#F7E6CD"/>
<path d="M178.47 27.4473L175.306 25.0042L187.089 9.74367C187.25 9.53585 187.449 9.36168 187.677 9.23109C187.905 9.1005 188.156 9.01606 188.417 8.98257C188.677 8.94909 188.942 8.96723 189.195 9.03595C189.448 9.10468 189.686 9.22264 189.894 9.3831C190.313 9.70729 190.586 10.1847 190.654 10.7105C190.721 11.2362 190.577 11.7672 190.253 12.1868L178.47 27.4473Z" fill="#F7E6CD"/>
<path d="M177.452 27.5783L173.481 28.0983L172.218 18.4553C172.149 17.9286 172.292 17.396 172.616 16.9747C172.94 16.5535 173.417 16.2781 173.944 16.2091C174.471 16.1401 175.004 16.2832 175.425 16.6069C175.846 16.9306 176.121 17.4084 176.19 17.9352L177.453 27.5781L177.452 27.5783Z" fill="#F7E6CD"/>
<path d="M184.837 42.0513L170.263 30.8518L175.034 24.6424C176.519 22.7094 178.712 21.4457 181.129 21.1292C183.546 20.8127 185.99 21.4694 187.923 22.9547C189.856 24.44 191.119 26.6324 191.436 29.0495C191.752 31.4666 191.096 33.9104 189.61 35.8433L184.839 42.0527L184.837 42.0513Z" fill="#F7E6CD"/>
<path d="M191.492 30.3001C191.502 28.8832 191.185 27.4832 190.564 26.2095C189.943 24.9358 189.036 23.8231 187.913 22.9584C185.486 21.0935 182.545 20.5713 179.864 21.3569" stroke="#191919" stroke-miterlimit="10"/>
<path d="M168.193 33.5988L182.839 44.7091L189.925 35.369L172.442 27.998L168.193 33.5988Z" fill="#BCB1A2"/>
<path d="M176.208 30.6626C178.224 27.4068 180.037 24.1194 178.549 22.3984" stroke="#191919" stroke-miterlimit="10"/>
<path d="M109.322 49.0684L55.3311 102.087L74.7933 122.172L111.504 67.2814L109.322 49.0684Z" fill="#16C6B1"/>
<path d="M55.3311 102.088L74.7933 122.174L111.507 67.2832C85.8029 100.552 67.6425 110.402 55.3311 102.088Z" fill="#006064"/>
<path d="M126.36 52.6035L160.431 79.1546L149.311 93.023L130.205 77.7883L126.36 52.6035Z" fill="#16C6B1"/>
<path d="M127.979 63.0195C134.681 80.6718 144.288 90.1173 160.431 79.1546L149.309 93.0231L130.203 77.7883L127.979 63.0195Z" fill="#006064"/>
<path d="M125.952 49.864L105.218 47.416L88.752 116.638L136.58 118.204L125.952 49.864Z" fill="#16C6B1"/>
<path d="M125.952 49.9824C131.389 90.7075 117.591 117.534 88.752 116.756L136.58 118.323L125.952 49.9824Z" fill="#006064"/>
<path d="M142.618 66.7301L167.343 24.7383L187.253 44.6536L160.431 79.1539L142.618 66.7301Z" fill="#16C6B1"/>
<path d="M160.539 110.606L185.444 87.7006L176.491 81.9277L174.682 88.4511L166.998 84.6181L165.896 96.2727L159.899 95.6347L160.539 110.606Z" fill="#2C98F0"/>
<path d="M214.153 50.0358L208.033 35.8828L186.953 59.6311L200.291 74.3659L209.25 65.6311L198.495 59.3642L214.153 50.0358Z" fill="#7393FD"/>
<path d="M45.9043 75.173L55.934 86.9377L68.6305 72.3398L45.9043 75.173Z" fill="#C63F17"/>
<path d="M153.457 21.9746L138.377 25.3791L145.391 43.4095L153.457 21.9746Z" fill="#5CAACC"/>
<path d="M124.799 38.2678C126.434 38.2678 127.759 36.7121 127.759 34.7931C127.759 32.874 126.434 31.3184 124.799 31.3184C123.163 31.3184 121.838 32.874 121.838 34.7931C121.838 36.7121 123.163 38.2678 124.799 38.2678Z" fill="#449281"/>
<path d="M200.554 136.269C204.732 136.269 208.119 132.882 208.119 128.704C208.119 124.526 204.732 121.139 200.554 121.139C196.375 121.139 192.988 124.526 192.988 128.704C192.988 132.882 196.375 136.269 200.554 136.269Z" fill="#C63F17"/>
<path d="M55.2165 57.582L49.1428 43.9863L10.8774 61.0837L23.9591 64.1253L9.12598 79.6386L55.2165 57.582Z" fill="#2C98F0"/>
<path d="M124.799 38.2676C124.799 40.1162 121.799 41.6112 118.093 41.6112" stroke="#2E6054" stroke-miterlimit="10"/>
<path d="M117.261 42.5482C117.966 42.5482 118.538 42.0613 118.538 41.4606C118.538 40.86 117.966 40.373 117.261 40.373C116.557 40.373 115.985 40.86 115.985 41.4606C115.985 42.0613 116.557 42.5482 117.261 42.5482Z" fill="#449281"/>
<path d="M132.59 116.408H90.4893V120.749H132.59V116.408Z" fill="#E4E4E4"/>
<path d="M124.798 31.3179C124.798 29.0572 124.247 27.2285 123.564 27.2285" stroke="#2E6054" stroke-width="2" stroke-miterlimit="10"/>
<path d="M22.8154 96.0226L39.7864 120.871H94.6234L80.5384 91.2109L22.8154 96.0226Z" fill="white"/>
<path d="M167.361 120.75H0.253906V127.824H167.361V120.75Z" fill="#7393FD"/>
<path d="M149.077 127.824H145.918V217.27H149.077V127.824Z" fill="#3A3A3A"/>
<path d="M143.609 69.542L143.228 65.7734L145.731 70.5172L143.609 69.542Z" fill="#006064"/>
<path d="M81.785 54.3201C87.8105 54.3201 92.6951 49.4355 92.6951 43.4101C92.6951 37.3846 87.8105 32.5 81.785 32.5C75.7596 32.5 70.875 37.3846 70.875 43.4101C70.875 49.4355 75.7596 54.3201 81.785 54.3201Z" fill="#7393FD"/>
</svg>
