<svg width="826" height="1000" viewBox="0 0 190 230" fill="none" xmlns="http://www.w3.org/2000/svg">
<path d="M105.806 22.8053C105.972 22.9873 106.1 23.2002 106.184 23.4318C106.267 23.6634 106.304 23.9093 106.293 24.1552C106.281 24.4011 106.221 24.6424 106.116 24.8651C106.012 25.0879 105.864 25.2879 105.682 25.4535L92.3058 37.6077L89.7859 34.8344L103.162 22.6803C103.53 22.346 104.015 22.1716 104.512 22.1953C105.008 22.2191 105.475 22.4391 105.809 22.807L105.806 22.8053Z" fill="#F4DDBE"/>
<path d="M100.644 37.61C100.62 38.1065 100.4 38.5732 100.032 38.9075C99.6644 39.2418 99.1788 39.4162 98.6823 39.3924L89.5937 38.9575L89.7727 35.2157L98.8614 35.6506C99.3579 35.6744 99.8246 35.8944 100.159 36.2623C100.493 36.6302 100.668 37.1157 100.644 37.6122L100.644 37.61Z" fill="#F4DDBE"/>
<path d="M95.6536 30.7476L95.0293 30.0609L98.4019 26.9961L95.6536 30.7476Z" fill="#BCB1A2"/>
<path d="M82.7454 46.1071L71.1797 33.377L76.6038 28.4479C84.6437 21.3205 90.0766 21.5812 93.2761 25.0961C94.0356 25.9321 94.623 26.9094 95.0047 27.9723C95.3865 29.0352 95.5551 30.163 95.501 31.2911C95.4469 32.4192 95.1711 33.5256 94.6893 34.5471C94.2076 35.5686 93.5294 36.4852 92.6933 37.2446L82.7454 46.1071Z" fill="#F4DDBE"/>
<path d="M79.1659 42.168L71.1699 33.3647L81.1189 24.5033C82.8072 22.9701 85.0353 22.1701 87.3132 22.2794C89.5912 22.3887 91.7325 23.3982 93.2662 25.0861C94.6101 26.5615 95.3969 28.4597 95.4909 30.4532L79.1659 42.168Z" fill="#BCB1A2"/>
<path d="M86.1553 22.3275C87.4754 22.2087 88.8051 22.3971 90.0402 22.8779C91.2754 23.3586 92.3826 24.1188 93.275 25.0987V25.0987C95.2006 27.2193 95.9148 29.9182 95.389 32.4814" stroke="#191919" stroke-miterlimit="10"/>
<path d="M90.4796 21.0883C91.2456 20.3923 91.3025 19.2072 90.6067 18.4413C89.9108 17.6755 88.7257 17.619 87.9596 18.315L82.5785 23.2047C81.8124 23.9008 81.7555 25.0859 82.4514 25.8517C83.1473 26.6175 84.3324 26.674 85.0984 25.978L90.4796 21.0883Z" fill="#F4DDBE"/>
<path d="M94.3448 23.7348C95.1109 23.0387 95.1678 21.8536 94.4719 21.0878C93.776 20.322 92.5909 20.2654 91.8249 20.9615L85.2885 26.9008C84.5225 27.5969 84.4656 28.782 85.1614 29.5478C85.8573 30.3136 87.0424 30.3702 87.8084 29.6741L94.3448 23.7348Z" fill="#F4DDBE"/>
<path d="M97.3185 27.2289C98.0845 26.5329 98.1414 25.3478 97.4455 24.582C96.7497 23.8161 95.5645 23.7596 94.7985 24.4557L88.3723 30.2948C87.6063 30.9908 87.5494 32.176 88.2453 32.9418C88.9411 33.7076 90.1263 33.7641 90.8923 33.0681L97.3185 27.2289Z" fill="#F4DDBE"/>
<path d="M86.9932 36.6065C89.8728 34.4761 92.7985 32.5329 94.5182 33.7893" stroke="#191919" stroke-miterlimit="10"/>
<path d="M21.4629 83.8036C20.8375 83.0982 18.7158 82.3128 16.1275 81.5745C15.628 81.4321 17.5274 99.8098 17.5274 99.8098C17.2623 97.181 13.7079 80.9272 13.2621 80.8166C8.38345 79.6117 3.18494 78.6719 3.18494 78.6719C3.18494 78.6719 -3.26882 99.8 4.92654 106.361C13.1219 112.922 24.1893 119.02 24.1893 119.02L6.48083 116.007C6.48083 116.007 5.56622 124.653 11.549 127.773C17.5318 130.892 23.98 134.599 29.643 135.988C35.3059 137.377 33.5194 143.515 17.1933 140.296C17.1933 140.296 38.8373 174.471 51.862 162.629C64.8868 150.787 45.4422 107.463 45.4422 107.463C45.4422 107.463 35.6674 119.174 37.501 120.383C37.501 120.383 37.9829 113.198 39.8012 100.743C38.3181 95.458 21.4629 83.8036 21.4629 83.8036Z" fill="#16C6B1"/>
<path d="M63.8257 200.792L64.3164 199.574L16.6267 180.364L16.136 181.583L63.8257 200.792Z" fill="#7393FD"/>
<path d="M62.1052 199.721C58.6976 204.09 49.0969 209.492 43.791 208.857C48.8636 205.231 58.3525 199.747 62.1052 199.721Z" fill="#7393FD"/>
<path d="M58.61 197.328C55.2013 201.697 45.6017 207.1 40.2959 206.464C45.3684 202.841 54.8573 197.357 58.61 197.328Z" fill="#7393FD"/>
<path d="M52.8122 195.287C50.3181 200.236 41.9519 207.401 36.623 207.809C40.8949 203.268 49.1406 196.045 52.8122 195.287Z" fill="#7393FD"/>
<path d="M48.9206 193.623C46.4265 198.572 38.0592 205.736 32.7314 206.144C37.0022 201.604 45.2447 194.381 48.9206 193.623Z" fill="#7393FD"/>
<path d="M45.029 191.959C42.5349 196.908 34.1676 204.072 28.8398 204.48C33.1117 199.94 41.353 192.716 45.029 191.959Z" fill="#7393FD"/>
<path d="M41.1364 190.301C38.6423 195.25 30.275 202.414 24.9473 202.822C29.2191 198.276 37.4605 191.052 41.1364 190.301Z" fill="#7393FD"/>
<path d="M36.7539 188.199C34.8918 193.42 27.4818 201.562 22.2461 202.635C25.9188 197.598 33.2017 189.407 36.7539 188.199Z" fill="#7393FD"/>
<path d="M33.3534 186.967C30.8593 191.916 22.4919 199.08 17.1631 199.489C21.4349 194.949 29.6774 187.725 33.3534 186.967Z" fill="#7393FD"/>
<path d="M29.4597 185.303C26.9656 190.252 18.5994 197.416 13.2705 197.825C17.5423 193.285 25.7848 186.061 29.4597 185.303Z" fill="#7393FD"/>
<path d="M25.4451 183.684C22.9511 188.633 18.1578 193.52 12.8301 193.928C17.1019 189.388 21.7692 184.442 25.4451 183.684Z" fill="#7393FD"/>
<path d="M21.7928 182.213C19.2987 187.163 15.7388 188.751 11.6904 190.309C15.9623 185.768 18.1179 182.971 21.7928 182.213Z" fill="#7393FD"/>
<path d="M18.7516 181.271C15.102 185.088 15.4185 185.352 11.3701 186.909C15.642 182.369 15.0746 182.028 18.7516 181.271Z" fill="#7393FD"/>
<path d="M16.9671 181.239C11.6974 181.59 11.7533 181.998 7.71582 180.413C13.9319 179.949 13.7446 179.317 16.9671 181.239Z" fill="#7393FD"/>
<path d="M62.4155 198.954C62.9873 193.442 59.813 182.894 55.5488 179.676C56.6924 185.799 59.7308 196.325 62.4155 198.954Z" fill="#7393FD"/>
<path d="M58.2408 198.251C58.8125 192.738 55.6382 182.19 51.374 178.973C52.5176 185.098 55.5561 195.628 58.2408 198.251Z" fill="#7393FD"/>
<path d="M52.6451 195.702C54.2782 190.407 53.2147 179.443 49.657 175.455C49.5869 181.689 50.5201 192.608 52.6451 195.702Z" fill="#7393FD"/>
<path d="M48.685 194.204C50.3182 188.908 49.2546 177.944 45.6969 173.957C45.6279 180.191 46.5611 191.11 48.685 194.204Z" fill="#7393FD"/>
<path d="M44.7271 192.71C46.3603 187.414 45.2967 176.45 41.7389 172.463C41.6699 178.69 42.6032 189.612 44.7271 192.71Z" fill="#7393FD"/>
<path d="M40.7691 191.205C42.4023 185.91 41.3387 174.946 37.7809 170.959C37.7119 177.193 38.6451 188.109 40.7691 191.205Z" fill="#7393FD"/>
<path d="M36.1588 189.679C38.4371 184.627 38.7427 173.616 35.7086 169.217C34.8663 175.393 34.4358 186.345 36.1588 189.679Z" fill="#7393FD"/>
<path d="M32.851 188.208C34.4841 182.912 33.4206 171.949 29.8629 167.961C29.7939 174.198 30.7271 185.115 32.851 188.208Z" fill="#7393FD"/>
<path d="M28.8919 186.71C30.5251 181.414 29.4615 170.451 25.9038 166.463C25.8359 172.696 26.7681 183.618 28.8919 186.71Z" fill="#7393FD"/>
<path d="M24.8787 185.094C26.5118 179.798 26.445 172.953 22.8873 168.965C22.8183 175.198 22.7548 181.999 24.8787 185.094Z" fill="#7393FD"/>
<path d="M21.2273 183.618C22.8604 178.322 21.396 174.708 19.5569 170.779C19.489 177.017 19.1034 180.528 21.2273 183.618Z" fill="#7393FD"/>
<path d="M18.3819 182.194C18.3961 176.913 18.8079 176.943 16.9689 173.014C16.901 179.245 16.258 179.098 18.3819 182.194Z" fill="#7393FD"/>
<path d="M17.0237 181.19C14.3051 176.663 14.6731 176.48 11.0684 174.062C14.2328 179.433 13.6063 179.64 17.0237 181.19Z" fill="#7393FD"/>
<path d="M154.779 110.128C183.557 112.66 183.305 99.0653 183.305 99.0653L166.715 100.43C166.715 100.43 183.521 95.1933 186.431 90.3398C189.341 85.4863 189.343 79.9187 189.343 79.9187L173.899 87.953C173.899 87.953 186.429 81.2824 186.429 74.5701C184.727 74.5701 177.285 76.9196 177.285 76.9196C177.285 76.9196 185.529 70.5425 186.429 67.8579C187.328 65.1732 184.307 60.8477 184.307 60.8477C184.307 60.8477 174.097 62.4786 172.155 64.2859C170.213 66.0933 166.71 74.5668 166.71 74.5668C166.71 74.5668 164.389 68.2741 165.096 65.8413C156.669 67.1842 161.489 85.4863 161.489 85.4863C161.489 85.4863 160.38 78.4936 154.774 72.2765C151.05 80.8596 153.404 87.459 153.991 91.5699C149.405 91.123 148.678 81.6351 144.764 75.9064C144.764 75.9064 140.528 87.5675 146.798 100.427C149.242 105.781 149.242 105.781 154.779 110.128Z" fill="#7393FD"/>
<path d="M39.9001 62.4885C17.7698 48.2348 25.1458 39.0229 25.1458 39.0229L36.4093 49.1844C36.4093 49.1844 27.0397 36.2396 27.5052 31.2821C27.9707 26.3246 30.9183 22.4942 30.9183 22.4942L37.819 36.6044C37.819 36.6044 32.2984 25.0507 35.8473 20.4338C37.0763 21.3802 41.2145 27.133 41.2145 27.133C41.2145 27.133 38.635 18.161 39.4061 15.8126C40.1772 13.4641 44.6495 12.1738 44.6495 12.1738C44.6495 12.1738 51.1613 18.9715 51.6082 21.2948C52.0551 23.618 50.0999 31.3927 50.0999 31.3927C50.0999 31.3927 55.1079 28.3543 55.8855 26.2884C61.2626 31.8966 48.0933 41.8073 48.0933 41.8073C48.0933 41.8073 52.5929 37.6099 59.9339 36.4521C58.0784 44.4252 52.8876 47.6586 50.2872 50.1604C53.8372 52.3971 59.3852 46.2796 65.242 44.5161C65.242 44.5161 62.129 54.8934 50.7933 60.254C46.2016 62.5761 46.2016 62.5761 39.9001 62.4885Z" fill="#C63F17"/>
<path d="M84.6615 198.242L98.9087 220.84L82.7205 229.869L56.3545 217.33C56.3545 217.33 78.831 216.688 77.9514 216.979C77.4782 217.136 80.6153 210.834 80.6153 210.834L76.315 203.715L84.6615 198.242Z" fill="#16C6B1"/>
<path d="M84.5944 198.287L91.8106 209.732C91.8106 209.732 80.0521 213.436 79.1714 213.728L80.5493 210.88L76.249 203.761L84.5944 198.287Z" fill="#006064"/>
<path d="M96.7432 217.406L98.9087 220.841L82.7205 229.87L56.3545 217.33L81.4401 227.367L96.7432 217.406Z" fill="#3A3A3A"/>
<path d="M149.548 122.251L172.147 108.004L181.176 124.192L168.636 150.558C168.636 150.558 167.995 128.082 168.286 128.961C168.444 129.434 162.141 126.297 162.141 126.297L155.021 130.598L149.548 122.251Z" fill="#16C6B1"/>
<path d="M149.594 122.318L161.039 115.104C161.039 115.104 164.742 126.862 165.035 127.741L162.187 126.365L155.067 130.665L149.594 122.318Z" fill="#006064"/>
<path d="M168.71 110.169L172.145 108.004L181.174 124.192L168.635 150.558L178.671 125.472L168.71 110.169Z" fill="#3A3A3A"/>
<path d="M109.483 109.65L68.2169 113.149C68.2169 113.149 44.1774 146.442 50.411 164.362C56.6446 182.282 75.4615 209.192 75.4615 209.192L73.2128 211.878L95.112 206.195L88.9266 203.364C88.9266 203.364 82.7686 172.626 79.9448 162.719C81.8824 152.891 109.483 109.65 109.483 109.65Z" fill="#191919"/>
<path d="M109.713 110.641L62.6133 128.575C62.6133 128.575 96.0322 167.937 114.507 163.626C132.982 159.314 158.894 131.473 158.894 131.473L161.329 133.992L157.98 111.618L154.513 117.469C154.513 117.469 129.406 128.246 119.257 130.011C109.683 127.052 109.713 110.641 109.713 110.641Z" fill="#191919"/>
<path d="M96.3066 57.5701C100.25 57.5701 103.447 54.3732 103.447 50.4296C103.447 46.486 100.25 43.2891 96.3066 43.2891C92.3629 43.2891 89.166 46.486 89.166 50.4296C89.166 54.3732 92.3629 57.5701 96.3066 57.5701Z" fill="#F4DDBE"/>
<path d="M92.9679 44.1179C92.5596 44.3328 92.1733 44.5871 91.8145 44.877C92.6338 44.3907 100.922 47.9516 103.447 50.3154C103.427 49.0945 103.094 47.8992 102.48 46.8436C101.866 45.7881 100.992 44.9075 99.9407 44.2859C98.8897 43.6643 97.6969 43.3225 96.4762 43.2931C95.2555 43.2637 94.0476 43.5477 92.9679 44.1179Z" fill="#BCB1A2"/>
<path d="M103.956 55.7619C105.066 55.7619 105.965 54.8625 105.965 53.753C105.965 52.6435 105.066 51.7441 103.956 51.7441C102.847 51.7441 101.947 52.6435 101.947 53.753C101.947 54.8625 102.847 55.7619 103.956 55.7619Z" fill="#F4DDBE"/>
<path d="M106.038 63.3066L141.088 100.487L124.242 111.674L98.4023 69.3409L106.038 63.3066Z" fill="#6F8C85"/>
<path d="M153.564 48.877L151.235 45.9419L165.391 34.706C165.78 34.3969 166.276 34.2552 166.77 34.312C167.264 34.3688 167.715 34.6194 168.024 35.0087C168.333 35.3981 168.474 35.8941 168.417 36.3877C168.36 36.8813 168.11 37.3321 167.72 37.641L153.564 48.877Z" fill="#F4DDBE"/>
<path d="M152.266 44.0929L149.936 41.1579L164.092 29.9219C164.482 29.6129 164.978 29.4712 165.472 29.5279C165.965 29.5847 166.416 29.8353 166.725 30.2247C167.034 30.614 167.176 31.1101 167.119 31.6039C167.063 32.0977 166.812 32.5487 166.423 32.8577L152.267 44.0938L152.266 44.0929Z" fill="#F4DDBE"/>
<path d="M149.414 40.5011L147.085 37.5661L161.241 26.3301C161.63 26.0211 162.126 25.8794 162.62 25.9362C163.114 25.9929 163.565 26.2436 163.874 26.6329C164.183 27.0222 164.325 27.5183 164.268 28.0121C164.211 28.5059 163.96 28.9569 163.571 29.266L149.415 40.502L149.414 40.5011Z" fill="#F4DDBE"/>
<path d="M146.022 37.6945L143.692 34.7594L157.848 23.5234C158.041 23.3704 158.262 23.2569 158.499 23.1893C158.735 23.1217 158.983 23.1014 159.227 23.1295C159.472 23.1576 159.709 23.2336 159.924 23.3532C160.139 23.4727 160.328 23.6335 160.481 23.8262C160.79 24.2156 160.932 24.7117 160.875 25.2055C160.818 25.6993 160.568 26.1503 160.178 26.4593L146.022 37.6953L146.022 37.6945Z" fill="#F4DDBE"/>
<path d="M145.651 37.6465L141.924 37.2179L142.964 28.1785C143.021 27.6847 143.271 27.2336 143.661 26.9246C144.05 26.6156 144.546 26.4739 145.04 26.5307C145.284 26.5588 145.521 26.6348 145.736 26.7544C145.951 26.8739 146.141 27.0347 146.294 27.2274C146.447 27.4202 146.56 27.6412 146.628 27.8779C146.695 28.1145 146.716 28.3622 146.688 28.6067L145.648 37.6461L145.651 37.6465Z" fill="#F4DDBE"/>
<path d="M149.069 52.4512L138.378 38.9815L144.118 34.4258C145.904 33.0079 148.181 32.3577 150.446 32.6183C152.712 32.8788 154.782 34.0288 156.2 35.8152C157.617 37.6017 158.267 39.8779 158.006 42.1433C157.745 44.4087 156.595 46.4778 154.809 47.8955L149.069 52.4512Z" fill="#F4DDBE"/>
<path d="M135.886 40.9987L146.661 54.4046L149.069 52.4494L142.067 36.0312L135.886 40.9987Z" fill="#BCB1A2"/>
<path d="M86.7236 60.3867L106.038 63.3069L109.367 118.032L62.5 117.716L86.7236 60.3867Z" fill="#5CAACC"/>
<path d="M52.0674 50.4265L73.385 26.8262L87.0329 43.8971L63.3691 64.5564L52.0674 50.4265Z" fill="#5CAACC"/>
<path d="M84.8788 64.6017L56.0176 45.752L44.6074 59.0363L79.4317 79.8741L84.8788 64.6017Z" fill="#5CAACC"/>
<path d="M96.3633 68.6132L139.809 35.1855L147.829 56.2731L103.007 86.0686L96.3633 68.6132Z" fill="#5CAACC"/>
<path d="M86.9549 60.3535C72.1163 95.8142 83.3567 111.671 109.602 117.999L62.7314 117.678L86.9549 60.3535Z" fill="#296C9F"/>
<path d="M81.7543 73.3279C81.7543 73.3279 65.162 69.021 57.6567 60.3535L56.0137 45.7285L44.6035 59.0128L79.4278 79.8507L81.7543 73.3279Z" fill="#296C9F"/>
<path d="M69.7448 57.8725L72.9476 56.3555L69.5498 60.049L69.7448 57.8725Z" fill="#296C9F"/>
<path d="M139.783 35.1094L147.803 56.198L124.241 71.8614C137.15 62.5061 143.641 50.7465 139.783 35.1094Z" fill="#296C9F"/>
<path d="M99.9375 78.1777C102.954 86.1047 111.97 80.1088 111.97 80.1088L102.954 86.1026L99.9375 78.1777Z" fill="#296C9F"/>
<path d="M87.4209 40.4472L109.123 53.2386L106.997 50.0249C106.997 50.0249 111.975 45.9031 107.557 41.043C103.138 36.183 94.2438 41.4034 94.2438 41.4034L87.4209 40.4472Z" fill="#FF6C4B"/>
<path d="M87.4209 40.4473L109.123 53.2387L106.997 50.025C106.997 50.025 109.798 47.7061 109.333 44.4979C105.301 47.7729 97.2023 45.2997 87.4209 40.4473Z" fill="#C63F17"/>
<path d="M81.7539 60.0478L100.1 55.7617L103.133 62.6876L84.5142 68.4217L81.7539 60.0478Z" fill="#98C7BD"/>
<path d="M81.7539 60.0996C87.3139 64.217 94.6319 64.6902 103.133 62.7394L84.512 68.4735L81.7539 60.0996Z" fill="#6F8C85"/>
<path d="M183.4 0.787109H157.09C155.193 0.787109 153.654 2.3255 153.654 4.2232V57.2181C153.654 59.1158 155.193 60.6542 157.09 60.6542H183.4C185.298 60.6542 186.837 59.1158 186.837 57.2181V4.2232C186.837 2.3255 185.298 0.787109 183.4 0.787109Z" fill="#191919"/>
<path d="M153.654 31.2147V4.22211C153.654 3.77093 153.743 3.32416 153.916 2.90734C154.089 2.49051 154.342 2.11179 154.661 1.79281C154.98 1.47383 155.359 1.22083 155.776 1.04827C156.192 0.875708 156.639 0.786966 157.09 0.78711H183.4C183.852 0.786966 184.298 0.875708 184.715 1.04827C185.132 1.22083 185.511 1.47383 185.83 1.79281C186.149 2.11179 186.402 2.49051 186.575 2.90734C186.748 3.32416 186.837 3.77093 186.837 4.22211V8.98138L153.654 31.2147Z" fill="#3A3A3A"/>
<path d="M182.719 2.61328H157.772C156.237 2.61328 154.993 3.85743 154.993 5.39217V56.1012C154.993 57.6359 156.237 58.8801 157.772 58.8801H182.719C184.253 58.8801 185.498 57.6359 185.498 56.1012V5.39217C185.498 3.85743 184.253 2.61328 182.719 2.61328Z" fill="#FBFBFB"/>
<path d="M182.718 58.8826H157.773C157.408 58.8832 157.046 58.8114 156.709 58.6716C156.372 58.5317 156.066 58.3264 155.808 58.0676C155.305 57.5649 185.492 34.4082 185.492 34.4082V56.1037C185.492 56.8397 185.2 57.5457 184.68 58.0667C184.16 58.5877 183.454 58.8811 182.718 58.8826Z" fill="#D3D3D3"/>
<path d="M163.024 144.236L161.318 143.086L116.293 209.864L117.999 211.014L163.024 144.236Z" fill="#C63F17"/>
<path d="M119.304 208.117C127.562 210.796 144.758 209.382 151.086 203.901C141.325 203.65 124.199 204.862 119.304 208.117Z" fill="#C63F17"/>
<path d="M121.742 201.951C130 204.63 147.197 203.215 153.525 197.735C143.762 197.484 126.637 198.696 121.742 201.951Z" fill="#C63F17"/>
<path d="M127.474 194.211C135.053 198.444 152.198 200.398 159.47 196.252C149.942 194.109 132.908 191.969 127.474 194.211Z" fill="#C63F17"/>
<path d="M131.062 188.637C138.641 192.87 155.786 194.824 163.058 190.677C153.53 188.535 136.497 186.394 131.062 188.637Z" fill="#C63F17"/>
<path d="M134.653 183.062C142.233 187.296 159.376 189.25 166.649 185.104C157.122 182.961 140.087 180.82 134.653 183.062Z" fill="#C63F17"/>
<path d="M138.243 177.484C145.823 181.718 162.967 183.672 170.239 179.526C160.712 177.385 143.678 175.245 138.243 177.484Z" fill="#C63F17"/>
<path d="M142.09 170.923C149.085 176.065 165.859 180.134 173.584 176.924C164.397 173.614 147.76 169.379 142.09 170.923Z" fill="#C63F17"/>
<path d="M145.422 166.337C153.002 170.571 170.146 172.525 177.418 168.379C167.893 166.237 150.858 164.095 145.422 166.337Z" fill="#C63F17"/>
<path d="M149.014 160.763C156.593 164.997 173.737 166.951 181.01 162.805C171.481 160.662 154.448 158.521 149.014 160.763Z" fill="#C63F17"/>
<path d="M152.804 155.14C160.383 159.374 170.891 161.51 178.164 157.363C168.636 155.222 158.237 152.9 152.804 155.14Z" fill="#C63F17"/>
<path d="M156.252 150.028C163.832 154.262 169.845 153.198 176.465 151.671C166.938 149.524 161.686 147.786 156.252 150.028Z" fill="#C63F17"/>
<path d="M159.372 146.139C167.457 147.891 167.277 148.508 173.897 146.977C164.37 144.833 164.808 143.897 159.372 146.139Z" fill="#C63F17"/>
<path d="M161.659 144.528C168.804 140.359 169.091 140.937 172.941 135.338C164.465 140.19 164.15 139.206 161.659 144.528Z" fill="#C63F17"/>
<path d="M118.229 207.394C112.643 200.743 107.512 184.27 110.22 176.35C114.113 185.305 119.412 201.636 118.229 207.394Z" fill="#C63F17"/>
<path d="M123.032 202.821C117.451 196.17 112.315 179.697 115.023 171.775C118.915 180.732 124.215 197.061 123.032 202.821Z" fill="#C63F17"/>
<path d="M128.057 194.605C121.29 189.166 113.051 174.005 114.167 165.709C119.726 173.738 128.097 188.726 128.057 194.605Z" fill="#C63F17"/>
<path d="M131.877 189.185C125.11 183.746 116.871 168.586 117.987 160.289C123.546 168.318 131.918 183.307 131.877 189.185Z" fill="#C63F17"/>
<path d="M135.698 183.768C128.931 178.33 120.692 163.169 121.808 154.873C127.367 162.901 135.739 177.891 135.698 183.768Z" fill="#C63F17"/>
<path d="M139.522 178.349C132.755 172.91 124.515 157.749 125.632 149.453C131.19 157.482 139.562 172.471 139.522 178.349Z" fill="#C63F17"/>
<path d="M144.164 172.32C136.774 167.764 126.714 153.745 126.791 145.375C133.305 152.65 143.475 166.482 144.164 172.32Z" fill="#C63F17"/>
<path d="M147.165 167.517C140.398 162.078 132.159 146.918 133.274 138.621C138.834 146.646 147.206 161.634 147.165 167.517Z" fill="#C63F17"/>
<path d="M150.986 162.094C144.219 156.656 135.98 141.495 137.095 133.199C142.655 141.229 151.027 156.217 150.986 162.094Z" fill="#C63F17"/>
<path d="M154.776 156.472C148.01 151.034 142.089 142.094 143.207 133.799C148.765 141.826 154.817 150.595 154.776 156.472Z" fill="#C63F17"/>
<path d="M158.225 151.358C151.458 145.92 150.188 139.946 149.126 133.234C154.685 141.262 158.265 145.479 158.225 151.358Z" fill="#C63F17"/>
<path d="M160.662 147.007C156.009 140.168 155.501 140.567 154.438 133.855C159.997 141.887 160.703 141.129 160.662 147.007Z" fill="#C63F17"/>
<path d="M161.543 144.514C161.096 136.254 160.454 136.333 163.015 130.039C163.622 139.785 164.616 139.504 161.543 144.514Z" fill="#C63F17"/>
</svg>
