<svg width="900" height="503" viewBox="0 0 305 178" fill="none" xmlns="http://www.w3.org/2000/svg">
<path d="M99.6818 50.6656C126.633 53.034 126.398 40.3193 126.398 40.3193L110.861 41.5957C110.861 41.5957 126.601 36.6981 129.326 32.159C132.052 27.6199 132.054 22.4099 132.054 22.4099L117.589 29.9238C117.589 29.9238 129.324 23.6852 129.324 17.4078C127.73 17.4078 120.759 19.6051 120.759 19.6051C120.759 19.6051 128.482 13.6411 129.324 11.1303C130.166 8.61954 127.337 4.57422 127.337 4.57422C127.337 4.57422 117.775 6.09954 115.956 7.78978C114.137 9.48003 110.857 17.4047 110.857 17.4047C110.857 17.4047 108.683 11.5196 109.344 9.24441C101.452 10.5003 105.965 27.6169 105.965 27.6169C105.965 27.6169 104.928 21.0771 99.6777 15.2627C96.1898 23.2898 98.3943 29.4618 98.9442 33.3063C94.6489 32.8884 93.9677 24.0151 90.3023 18.6575C90.3023 18.6575 86.3353 29.5632 92.2073 41.5895C94.4961 46.5998 94.4961 46.5998 99.6818 50.6656Z" fill="#16C6B1"/>
<path d="M59.892 148.717L41.9619 166.138L54.7176 177.896L81.4763 172.277C81.4763 172.277 61.1539 166.765 61.8904 167.222C62.2875 167.469 60.8153 161.051 60.8153 161.051L66.2955 155.52L59.892 148.717Z" fill="#16C6B1"/>
<path d="M59.9424 148.773L50.8594 157.597C50.8594 157.597 60.7529 163.538 61.4894 164.001L60.8616 161.109L66.3408 155.577L59.9424 148.773Z" fill="#BCB1A2"/>
<path d="M44.6828 163.49L41.957 166.138L54.7127 177.896L81.4715 172.277L56.429 175.902L44.6828 163.49Z" fill="#3A3A3A"/>
<path d="M106.665 146.695L105.845 171.667L123.211 171.298L138.581 148.715C138.581 148.715 120.116 158.822 120.963 158.642C121.42 158.539 115.901 154.942 115.901 154.942L116.004 147.156L106.665 146.695Z" fill="#16C6B1"/>
<path d="M106.741 146.701L106.331 159.348C106.331 159.348 117.587 156.778 118.436 156.598L115.974 154.95L116.077 147.164L106.741 146.701Z" fill="#BCB1A2"/>
<path d="M105.974 167.871L105.85 171.666L123.205 171.299L138.576 148.717L123.055 168.674L105.974 167.871Z" fill="#3A3A3A"/>
<path d="M192.772 143.795L202.465 166.827L186.123 172.676L163.688 157.065C163.688 157.065 184.554 159.919 183.693 160.053C183.231 160.125 187.097 154.792 187.097 154.792L184.217 147.561L192.772 143.795Z" fill="#2C98F0"/>
<path d="M192.703 143.826L197.612 155.491C197.612 155.491 186.179 157.105 185.322 157.24L187.031 154.823L184.151 147.591L192.703 143.826Z" fill="#91765C"/>
<path d="M200.992 163.327L202.465 166.827L186.123 172.675L163.688 157.064L185.324 170.169L200.992 163.327Z" fill="#3A3A3A"/>
<path d="M35.502 31.8361L39.273 97.3571H101.81L93.5343 30.2227L35.502 31.8361Z" fill="#E4E4E4"/>
<path d="M28.5589 34.9388C28.1588 34.3355 26.6272 33.5139 24.7365 32.677C24.3713 32.5161 23.8584 46.6835 23.8584 46.6835C23.9374 44.6593 22.9638 31.9322 22.6366 31.796C19.0522 30.3618 15.197 29.0957 15.197 29.0957C15.197 29.0957 8.03541 44.4615 13.5741 50.3221C19.1127 56.1826 26.8816 61.996 26.8816 61.996L13.729 57.8175C13.729 57.8175 12.1091 64.2896 16.3326 67.2973C20.5561 70.3049 25.0658 73.8062 29.2268 75.4647C33.3877 77.1232 31.376 81.5977 19.2943 77.411C19.2943 77.411 32.1259 105.684 43.2996 98.0689C54.4734 90.4536 44.2896 55.4655 44.2896 55.4655C44.2896 55.4655 35.6015 63.3277 36.8685 64.4412C36.8685 64.4412 37.9969 59.0325 40.7093 49.7607C40.1451 45.5884 28.5589 34.9388 28.5589 34.9388Z" fill="#449281"/>
<path d="M46.1689 12.1093V30.2236H81.0043V9.64258L46.1689 12.1093Z" fill="#E4E4E4"/>
<path d="M191.699 93.2402V115.996H268.896L267.363 93.2402H191.699Z" fill="#E4E4E4"/>
<path d="M196.268 30.9591L200.04 96.4801H262.576L254.301 29.3457L196.268 30.9591Z" fill="#E4E4E4"/>
<path d="M206.937 11.2324V29.3467H241.772V8.76562L206.937 11.2324Z" fill="#E4E4E4"/>
<path d="M30.9326 94.1172V116.873H108.128L106.597 94.1172H30.9326Z" fill="#E4E4E4"/>
<path d="M92.687 19.3677C94.6337 19.3677 96.2119 17.7919 96.2119 15.8479C96.2119 13.904 94.6337 12.3281 92.687 12.3281C90.7403 12.3281 89.1621 13.904 89.1621 15.8479C89.1621 17.7919 90.7403 19.3677 92.687 19.3677Z" fill="#7C7C7C"/>
<path d="M86.8468 27.7701C90.5403 27.7701 93.5345 24.7802 93.5345 21.0921C93.5345 17.4039 90.5403 14.4141 86.8468 14.4141C83.1533 14.4141 80.1592 17.4039 80.1592 21.0921C80.1592 24.7802 83.1533 27.7701 86.8468 27.7701Z" fill="#F4DDBE"/>
<path d="M74.5922 26.1909C78.5916 26.1909 81.8338 22.9534 81.8338 18.9597C81.8338 14.966 78.5916 11.7285 74.5922 11.7285C70.5928 11.7285 67.3506 14.966 67.3506 18.9597C67.3506 22.9534 70.5928 26.1909 74.5922 26.1909Z" fill="#D3D3D3"/>
<path d="M85.5557 19.8197C88.6758 19.8197 91.2052 17.294 91.2052 14.1784C91.2052 11.0628 88.6758 8.53711 85.5557 8.53711C82.4356 8.53711 79.9062 11.0628 79.9062 14.1784C79.9062 17.294 82.4356 19.8197 85.5557 19.8197Z" fill="#D3D3D3"/>
<path d="M91.2564 14.1781C91.2665 14.9253 91.1278 15.667 90.8485 16.3602C90.5691 17.0534 90.1546 17.6843 89.629 18.2162C89.1035 18.7481 88.4774 19.1705 87.787 19.4588C87.0966 19.747 86.3558 19.8955 85.6075 19.8955C84.8592 19.8955 84.1183 19.747 83.4279 19.4588C82.7376 19.1705 82.1114 18.7481 81.5859 18.2162C81.0603 17.6843 80.6458 17.0534 80.3665 16.3602C80.0871 15.667 79.9484 14.9253 79.9585 14.1781C85.016 16.6582 88.5194 15.8284 89.9341 10.5508C90.7903 11.5658 91.2588 12.851 91.2564 14.1781Z" fill="#7C7C7C"/>
<path d="M81.8289 18.9648C81.8062 20.8676 81.0333 22.6848 79.6778 24.0223C78.3223 25.3599 76.4934 26.1099 74.5878 26.1099C72.6821 26.1099 70.8533 25.3599 69.4977 24.0223C68.1422 22.6848 67.3694 20.8676 67.3467 18.9648C71.3589 23.7959 76.3723 23.8245 81.8289 18.9648Z" fill="#7C7C7C"/>
<path d="M139.633 55.4668L139.63 51.9624L156.557 51.9506C157.023 51.9505 157.469 52.135 157.798 52.4634C158.127 52.7919 158.312 53.2374 158.313 53.7021C158.313 54.1666 158.128 54.6121 157.799 54.9408C157.471 55.2695 157.025 55.4544 156.56 55.455L139.633 55.4668Z" fill="#F4DDBE"/>
<path d="M141.463 51.2031L141.46 47.6936L158.387 47.6818C158.853 47.6814 159.299 47.8658 159.629 48.1943C159.958 48.5227 160.143 48.9684 160.144 49.4333C160.144 49.8981 159.959 50.3441 159.63 50.673C159.302 51.0019 158.855 51.1869 158.39 51.1872L141.463 51.199L141.463 51.2031Z" fill="#F4DDBE"/>
<path d="M141.46 46.913L141.458 43.4086L158.384 43.3968C158.615 43.3966 158.843 43.4418 159.056 43.5298C159.269 43.6177 159.463 43.7467 159.626 43.9093C159.789 44.0719 159.918 44.2651 160.007 44.4777C160.095 44.6903 160.141 44.9181 160.141 45.1483C160.141 45.3785 160.096 45.6064 160.008 45.8191C159.92 46.0318 159.79 46.2252 159.628 46.388C159.465 46.5509 159.271 46.6801 159.058 46.7684C158.846 46.8566 158.617 46.9021 158.387 46.9023L141.46 46.9141L141.46 46.913Z" fill="#F4DDBE"/>
<path d="M140.604 42.8857L140.601 39.3813L157.528 39.3695C157.993 39.3691 158.44 39.5535 158.769 39.882C159.099 40.2104 159.284 40.6561 159.284 41.121C159.285 41.5858 159.1 42.0318 158.771 42.3607C158.442 42.6896 157.996 42.8746 157.53 42.8749L140.604 42.8867L140.604 42.8857Z" fill="#F4DDBE"/>
<path d="M140.359 42.6243L137.875 40.148L143.896 34.1273C144.225 33.7984 144.672 33.6134 145.137 33.6131C145.603 33.6128 146.049 33.7971 146.379 34.1256C146.708 34.4541 146.893 34.8997 146.894 35.3646C146.894 35.8294 146.709 36.2754 146.38 36.6043L140.359 42.625L140.359 42.6243Z" fill="#F4DDBE"/>
<path d="M134.253 55.4726L134.242 39.3896L141.104 39.3848C143.24 39.3833 145.289 40.2293 146.8 41.7365C148.312 43.2437 149.162 45.2887 149.163 47.4217C149.165 49.5547 148.318 51.601 146.808 53.1103C145.299 54.6196 143.251 55.4683 141.115 55.4698L134.253 55.4746L134.253 55.4726Z" fill="#F4DDBE"/>
<path d="M145.968 53.8122C146.957 53.0633 147.759 52.0961 148.312 50.9861C148.865 49.8761 149.153 48.6534 149.153 47.4138V47.4138C149.153 44.7351 147.943 42.4169 145.965 40.9766" stroke="#191919" stroke-miterlimit="10"/>
<path d="M131.226 39.4165L131.337 55.5014L134.243 55.4676L138.653 39.3652L131.226 39.4165Z" fill="#BCB1A2"/>
<path d="M137.549 43.4065C140.886 43.0674 144.139 42.5706 144.537 40.6191" stroke="#191919" stroke-miterlimit="10"/>
<path d="M86.1531 36.6992L137.487 37.4327L131.108 57.5486L80.875 53.3517L86.1531 36.6992Z" fill="#2C98F0"/>
<path d="M137.512 37.3633L131.133 57.4782L86.3232 53.7033C101.239 54.3446 131.248 51.0645 137.512 37.3633Z" fill="#296C9F"/>
<path d="M79.1236 21.7985C80.1627 21.7985 81.0051 20.9573 81.0051 19.9197C81.0051 18.8822 80.1627 18.041 79.1236 18.041C78.0845 18.041 77.2422 18.8822 77.2422 19.9197C77.2422 20.9573 78.0845 21.7985 79.1236 21.7985Z" fill="#F4DDBE"/>
<path d="M219.517 15.6295C221.464 15.6295 223.042 14.0536 223.042 12.1096C223.042 10.1657 221.464 8.58984 219.517 8.58984C217.57 8.58984 215.992 10.1657 215.992 12.1096C215.992 14.0536 217.57 15.6295 219.517 15.6295Z" fill="#7C7C7C"/>
<path d="M225.356 24.0318C229.049 24.0318 232.043 21.0419 232.043 17.3538C232.043 13.6656 229.049 10.6758 225.356 10.6758C221.662 10.6758 218.668 13.6656 218.668 17.3538C218.668 21.0419 221.662 24.0318 225.356 24.0318Z" fill="#CCA77F"/>
<path d="M231.225 16.0815C234.345 16.0815 236.874 13.5558 236.874 10.4401C236.874 7.32453 234.345 4.79883 231.225 4.79883C228.105 4.79883 225.575 7.32453 225.575 10.4401C225.575 13.5558 228.105 16.0815 231.225 16.0815Z" fill="#D3D3D3"/>
<path d="M225.522 10.4399C225.512 11.187 225.651 11.9287 225.93 12.6219C226.209 13.3151 226.624 13.946 227.149 14.4779C227.675 15.0098 228.301 15.4322 228.991 15.7205C229.682 16.0088 230.423 16.1572 231.171 16.1572C231.919 16.1572 232.66 16.0088 233.35 15.7205C234.041 15.4322 234.667 15.0098 235.193 14.4779C235.718 13.946 236.133 13.3151 236.412 12.6219C236.691 11.9287 236.83 11.187 236.82 10.4399C231.762 12.9199 228.259 12.0902 226.844 6.8125C225.988 7.82756 225.52 9.11269 225.522 10.4399Z" fill="#7C7C7C"/>
<path d="M224.562 12.2049C226.562 12.2049 228.184 10.5855 228.184 8.58782C228.184 6.59014 226.562 4.9707 224.562 4.9707C222.561 4.9707 220.939 6.59014 220.939 8.58782C220.939 10.5855 222.561 12.2049 224.562 12.2049Z" fill="#D3D3D3"/>
<path d="M220.942 8.58984C220.942 9.54916 221.324 10.4692 222.003 11.1475C222.683 11.8259 223.604 12.207 224.565 12.207C225.525 12.207 226.447 11.8259 227.126 11.1475C227.805 10.4692 228.187 9.54916 228.187 8.58984C226.179 11.0064 223.672 11.0207 220.942 8.58984Z" fill="#7C7C7C"/>
<path d="M224.591 27.5936C226.047 27.5936 227.228 26.4144 227.228 24.9599C227.228 23.5053 226.047 22.3262 224.591 22.3262C223.134 22.3262 221.953 23.5053 221.953 24.9599C221.953 26.4144 223.134 27.5936 224.591 27.5936Z" fill="#D3D3D3"/>
<path d="M221.955 24.9609C221.948 25.3112 222.011 25.6594 222.14 25.985C222.27 26.3107 222.463 26.6073 222.709 26.8575C222.954 27.1076 223.247 27.3064 223.571 27.4421C223.894 27.5777 224.242 27.6476 224.593 27.6476C224.943 27.6476 225.291 27.5777 225.614 27.4421C225.938 27.3064 226.231 27.1076 226.477 26.8575C226.722 26.6073 226.916 26.3107 227.045 25.985C227.174 25.6594 227.238 25.3112 227.231 24.9609C225.769 26.7219 223.943 26.7321 221.955 24.9609Z" fill="#7C7C7C"/>
<path d="M227.639 24.9588C228.367 24.9588 228.957 24.3695 228.957 23.6425C228.957 22.9155 228.367 22.3262 227.639 22.3262C226.91 22.3262 226.32 22.9155 226.32 23.6425C226.32 24.3695 226.91 24.9588 227.639 24.9588Z" fill="#D3D3D3"/>
<path d="M226.321 23.6426C226.321 23.9917 226.46 24.3265 226.707 24.5734C226.955 24.8202 227.29 24.9589 227.64 24.9589C227.989 24.9589 228.324 24.8202 228.572 24.5734C228.819 24.3265 228.958 23.9917 228.958 23.6426C228.227 24.5225 227.314 24.5276 226.321 23.6426Z" fill="#7C7C7C"/>
<path d="M233.079 18.0582C234.118 18.0582 234.96 17.2171 234.96 16.1795C234.96 15.1419 234.118 14.3008 233.079 14.3008C232.04 14.3008 231.197 15.1419 231.197 16.1795C231.197 17.2171 232.04 18.0582 233.079 18.0582Z" fill="#CCA77F"/>
<path d="M48.1212 81.2656H84.0297L121.307 105.802L128.926 151.416L46.1689 157.693L77.2425 119.479L48.1212 81.2656Z" fill="#191919"/>
<path d="M72.8466 31.8359L90.9398 34.5373L85.4494 92.9234L48.1211 87.0874L72.8466 31.8359Z" fill="#2C98F0"/>
<path d="M179.587 69.5313L183.095 69.6304L182.616 86.526C182.603 86.9907 182.406 87.4311 182.068 87.7504C181.729 88.0697 181.278 88.2417 180.812 88.2285C180.347 88.2154 179.906 88.0182 179.586 87.6803C179.266 87.3425 179.094 86.8916 179.107 86.4269L179.586 69.5312L179.587 69.5313Z" fill="#CCA77F"/>
<path d="M183.805 71.4844L187.313 71.5835L186.834 88.4792C186.821 88.9438 186.624 89.3842 186.285 89.7035C185.947 90.0228 185.495 90.1948 185.03 90.1816C184.565 90.1685 184.124 89.9713 183.804 89.6334C183.484 89.2956 183.312 88.8447 183.325 88.3801L183.804 71.4844L183.805 71.4844Z" fill="#CCA77F"/>
<path d="M188.098 71.6055L191.606 71.7046L191.127 88.6002C191.114 89.0649 190.917 89.5053 190.578 89.8246C190.24 90.1439 189.788 90.3159 189.323 90.3027C188.858 90.2896 188.417 90.0924 188.097 89.7545C187.777 89.4167 187.605 88.9658 187.618 88.5011L188.097 71.6055L188.098 71.6055Z" fill="#CCA77F"/>
<path d="M192.152 70.8672L195.66 70.9663L195.182 87.862C195.169 88.3266 194.971 88.767 194.633 89.0863C194.295 89.4056 193.843 89.5776 193.378 89.5644C192.912 89.5513 192.471 89.3541 192.152 89.0162C191.832 88.6784 191.66 88.2275 191.673 87.7629L192.151 70.8672L192.152 70.8672Z" fill="#CCA77F"/>
<path d="M192.402 70.6302L194.953 68.2232L200.806 74.4081C200.964 74.5754 201.088 74.7722 201.17 74.9872C201.252 75.2023 201.291 75.4314 201.285 75.6615C201.278 75.8915 201.226 76.1181 201.132 76.3282C201.038 76.5382 200.903 76.7277 200.736 76.8858C200.397 77.2051 199.946 77.3771 199.481 77.3639C199.015 77.3508 198.574 77.1536 198.254 76.8158L192.401 70.6309L192.402 70.6302Z" fill="#CCA77F"/>
<path d="M179.739 64.1641L195.839 64.6188L195.645 71.4682C195.585 73.6003 194.679 75.6212 193.126 77.0862C191.573 78.5512 189.502 79.3404 187.366 79.2801C185.231 79.2198 183.207 78.315 181.74 76.7647C180.273 75.2144 179.483 73.1456 179.543 71.0135L179.737 64.1641L179.739 64.1641Z" fill="#CCA77F"/>
<path d="M195.77 61.5037L179.662 61.4863L179.65 71.7445L195.763 67.6542L195.77 61.5037Z" fill="#91765C"/>
<path d="M155.116 83.8969C154.715 83.2935 153.184 82.472 151.292 81.635C150.928 81.4742 150.415 95.6415 150.415 95.6415C150.494 93.6173 149.52 80.8903 149.193 80.7541C145.609 79.3199 141.754 78.0527 141.754 78.0527C141.754 78.0527 134.592 93.4186 140.131 99.2791C145.669 105.14 153.441 110.948 153.441 110.948L140.286 106.775C140.286 106.775 138.669 113.248 142.889 116.255C147.11 119.263 151.622 122.764 155.783 124.423C159.944 126.081 157.938 130.555 145.851 126.369C145.851 126.369 158.683 154.642 169.856 147.028C181.03 139.414 170.846 104.425 170.846 104.425C170.846 104.425 162.159 112.283 163.426 113.396C163.426 113.396 164.555 107.987 167.267 98.7157C166.708 94.5454 155.116 83.8969 155.116 83.8969Z" fill="#7393FD"/>
<path d="M202.033 13.429C201.752 13.1217 200.808 12.7898 199.659 12.4815C199.437 12.422 200.403 20.5209 200.403 20.5209C200.268 19.3633 198.585 12.212 198.387 12.1659C196.222 11.666 193.918 11.2891 193.918 11.2891C193.918 11.2891 191.211 20.6592 194.879 23.4988C198.548 26.3384 203.481 28.9547 203.481 28.9547L195.636 27.7459C195.636 27.7459 195.288 31.571 197.954 32.9027C200.62 34.2344 203.494 35.8304 206.009 36.4051C208.524 36.9797 207.774 39.7005 200.535 38.3913C200.535 38.3913 210.338 53.328 216.014 48.0104C221.69 42.6928 212.796 23.7057 212.796 23.7057C212.796 23.7057 208.555 28.9413 209.374 29.4617C209.374 29.4617 209.538 26.2861 210.255 20.777C209.564 18.4547 202.033 13.427 202.033 13.427" fill="#C63F17"/>
<path d="M114.152 43.9564L112.039 41.1587L125.552 30.9795C125.923 30.7 126.391 30.5792 126.851 30.6436C127.312 30.708 127.728 30.9524 128.009 31.323C128.289 31.6941 128.41 32.1612 128.346 32.6216C128.281 33.082 128.036 33.4979 127.664 33.7778L114.151 43.957L114.152 43.9564Z" fill="#F4DDBE"/>
<path d="M113.803 43.8983L110.327 43.4124L111.509 34.985C111.573 34.5246 111.818 34.1087 112.19 33.8288C112.562 33.5488 113.029 33.4278 113.49 33.4922C113.951 33.5567 114.368 33.8014 114.648 34.1725C114.929 34.5436 115.05 35.0107 114.985 35.471L113.804 43.8984L113.803 43.8983Z" fill="#F4DDBE"/>
<path d="M118.928 39.2681L119.451 39.9617L122.858 37.3945L118.928 39.2681Z" fill="#BCB1A2"/>
<path d="M102.547 48.4607L112.249 61.3004L117.727 57.1731C125.685 51.0268 126.391 45.9806 123.713 42.4352C123.076 41.5915 122.278 40.8814 121.366 40.3455C120.454 39.8096 119.445 39.4584 118.397 39.312C117.35 39.1655 116.283 39.2268 115.259 39.4922C114.234 39.7576 113.273 40.2219 112.428 40.8587L102.547 48.4607Z" fill="#F4DDBE"/>
<path d="M121.486 49.803C120.712 50.386 120.558 51.4849 121.141 52.2574C121.725 53.03 122.826 53.1837 123.599 52.6007L129.036 48.5056C129.81 47.9226 129.964 46.8237 129.38 46.0512C128.797 45.2786 127.696 45.1249 126.922 45.7079L121.486 49.803Z" fill="#F4DDBE"/>
<path d="M118.556 46.6702C117.782 47.2532 117.628 48.3521 118.212 49.1246C118.795 49.8972 119.896 50.0509 120.67 49.4679L127.273 44.4936C128.047 43.9107 128.201 42.8118 127.618 42.0393C127.034 41.2667 125.934 41.113 125.16 41.696L118.556 46.6702Z" fill="#F4DDBE"/>
<path d="M115.966 43.2464C115.193 43.8294 115.038 44.9282 115.622 45.7008C116.206 46.4733 117.306 46.627 118.08 46.0441L124.572 41.1537C125.346 40.5708 125.5 39.4719 124.916 38.6993C124.333 37.9268 123.232 37.7731 122.458 38.3561L115.966 43.2464Z" fill="#F4DDBE"/>
<path d="M112.655 61.1616L102.547 48.6384L110.546 42.2012L117.451 57.3017L112.655 61.1616Z" fill="#BCB1A2"/>
<path d="M265.71 62.8427L266.616 63.2559L282.81 27.8378L281.904 27.4247L265.71 62.8427Z" fill="#7393FD"/>
<path d="M281.502 28.9222C277.346 28.3004 269.246 30.3399 266.66 33.4561C271.346 32.8015 279.424 30.8634 281.502 28.9222Z" fill="#7393FD"/>
<path d="M280.829 32.055C276.672 31.4332 268.572 33.4727 265.986 36.589C270.667 35.9333 278.75 33.9962 280.829 32.055Z" fill="#7393FD"/>
<path d="M278.705 36.2007C274.749 34.784 266.407 35.2132 263.264 37.768C267.984 38.0334 276.288 37.7015 278.705 36.2007Z" fill="#7393FD"/>
<path d="M277.436 39.1449C273.48 37.7271 265.137 38.1563 261.994 40.7111C266.714 40.9765 275.019 40.6456 277.436 39.1449Z" fill="#7393FD"/>
<path d="M276.168 42.0878C272.208 40.671 263.865 41.0982 260.722 43.6592C265.443 43.9204 273.747 43.5885 276.168 42.0878Z" fill="#7393FD"/>
<path d="M274.893 45.0308C270.937 43.6141 262.593 44.0433 259.45 46.5981C264.17 46.8634 272.475 46.5274 274.893 45.0308Z" fill="#7393FD"/>
<path d="M273.577 48.4673C269.827 46.5711 261.496 45.9616 258.06 48.1067C262.71 48.9559 270.992 49.6566 273.577 48.4673Z" fill="#7393FD"/>
<path d="M272.351 50.9183C268.394 49.5005 260.051 49.9298 256.908 52.4846C261.628 52.7499 269.934 52.419 272.351 50.9183Z" fill="#7393FD"/>
<path d="M271.079 53.8609C267.122 52.4442 258.78 52.8734 255.637 55.4272C260.357 55.6926 268.662 55.3617 271.079 53.8609Z" fill="#7393FD"/>
<path d="M269.717 56.843C265.76 55.4263 260.572 55.2419 257.429 57.7967C262.149 58.0621 267.3 58.3438 269.717 56.843Z" fill="#7393FD"/>
<path d="M268.474 59.5541C264.518 58.1373 261.73 59.1218 258.69 60.3736C263.414 60.643 266.059 61.0548 268.474 59.5541Z" fill="#7393FD"/>
<path d="M267.295 61.6588C263.294 61.4662 263.331 61.1558 260.291 62.4117C265.011 62.677 264.883 63.1585 267.295 61.6588Z" fill="#7393FD"/>
<path d="M266.33 62.6113C263.253 65.1672 263.067 64.9131 261.675 67.89C265.335 64.8998 265.563 65.3444 266.33 62.6113Z" fill="#7393FD"/>
<path d="M282.072 29.1816C285.267 31.9096 289.029 39.3569 288.366 43.352C285.794 39.3876 281.966 32.0213 282.072 29.1816Z" fill="#7393FD"/>
<path d="M280.143 31.7441C283.337 34.4721 287.099 41.9194 286.436 45.9125C283.862 41.9501 280.036 34.5838 280.143 31.7441Z" fill="#7393FD"/>
<path d="M278.397 36.0605C282.061 38.1165 287.201 44.6921 287.328 48.7374C284.035 45.3497 278.845 38.8664 278.397 36.0605Z" fill="#7393FD"/>
<path d="M277.003 38.9473C280.666 41.0042 285.807 47.5788 285.933 51.6241C282.64 48.2364 277.45 41.7541 277.003 38.9473Z" fill="#7393FD"/>
<path d="M275.608 41.834C279.272 43.8899 284.412 50.4655 284.533 54.5108C281.246 51.1232 276.056 44.6398 275.608 41.834Z" fill="#7393FD"/>
<path d="M274.219 44.7207C277.883 46.7777 283.024 53.3522 283.15 57.3975C279.852 54.0099 274.662 47.5275 274.219 44.7207Z" fill="#7393FD"/>
<path d="M272.475 47.9609C276.367 49.5477 282.285 55.439 282.914 59.4341C279.226 56.4828 273.27 50.693 272.475 47.9609Z" fill="#7393FD"/>
<path d="M271.425 50.4961C275.089 52.5531 280.23 59.1276 280.356 63.1729C277.063 59.7852 271.873 53.3029 271.425 50.4961Z" fill="#7393FD"/>
<path d="M270.031 53.3848C273.696 55.4407 278.836 62.0163 278.962 66.0616C275.669 62.6739 270.48 56.1906 270.031 53.3848Z" fill="#7393FD"/>
<path d="M268.667 56.3613C272.331 58.4173 275.869 62.2106 275.995 66.2559C272.702 62.8723 269.115 59.1712 268.667 56.3613Z" fill="#7393FD"/>
<path d="M267.429 59.0781C271.092 61.1351 272.173 63.8825 273.215 66.9987C269.922 63.6111 267.876 61.885 267.429 59.0781Z" fill="#7393FD"/>
<path d="M266.611 61.3457C269.381 64.2376 269.586 64.0091 270.629 67.1233C267.336 63.7366 267.059 64.1515 266.611 61.3457Z" fill="#7393FD"/>
<path d="M266.387 62.6035C267.257 66.5075 267.557 66.4183 266.835 69.6236C265.769 65.0241 265.317 65.2372 266.387 62.6035Z" fill="#7393FD"/>
<path d="M271.829 144.387C298.782 146.756 298.546 134.041 298.546 134.041L283.008 135.318C283.008 135.318 298.748 130.421 301.474 125.881C304.199 121.341 304.201 116.133 304.201 116.133L289.737 123.645C289.737 123.645 301.472 117.407 301.472 111.129C299.877 111.129 292.908 113.327 292.908 113.327C292.908 113.327 300.629 107.364 301.472 104.853C302.314 102.342 299.484 98.2969 299.484 98.2969C299.484 98.2969 289.923 99.8232 288.104 101.513C286.284 103.204 283.004 111.127 283.004 111.127C283.004 111.127 280.83 105.243 281.492 102.967C273.603 104.228 278.117 121.345 278.117 121.345C278.117 121.345 277.078 114.806 271.828 108.99C268.34 117.018 270.545 123.191 271.095 127.035C266.799 126.616 266.118 117.744 262.453 112.386C262.453 112.386 258.486 123.293 264.358 135.319C266.643 140.321 266.643 140.321 271.829 144.387Z" fill="#16C6B1"/>
<path d="M93.2327 75.9013L118.661 60.4136L105.327 44.9043L82.1953 63.0596L93.2327 75.9013Z" fill="#2C98F0"/>
<path d="M212.169 79.5234L247.975 84.9138L197.362 113.537L210.56 146.7L176.086 150.938L168.769 104.488L212.169 79.5234Z" fill="#191919"/>
<path d="M266.866 143.512L291.179 149.394L286.191 165.998L260.293 174.76C260.293 174.76 274.978 159.687 274.577 160.456C274.362 160.866 272.358 154.597 272.358 154.597L264.821 152.619L266.866 143.512Z" fill="#2C98F0"/>
<path d="M266.85 143.586L279.161 146.565C279.161 146.565 273.675 156.706 273.274 157.48L272.342 154.671L264.805 152.693L266.85 143.586Z" fill="#91765C"/>
<path d="M287.485 148.5L291.182 149.394L286.194 165.999L260.296 174.76L283.7 165.154L287.485 148.5Z" fill="#3A3A3A"/>
<path d="M226.584 89.773L250.619 77.127L245.207 121.864L279.768 130.942L262.719 161.162L220.94 139.468L226.584 89.773Z" fill="#191919"/>
<path d="M249.664 120.014C249.224 119.863 248.862 119.543 248.658 119.126C248.454 118.708 248.424 118.226 248.575 117.787L254.081 101.803L257.399 102.943L251.894 118.927C251.743 119.366 251.423 119.727 251.005 119.931C250.587 120.135 250.105 120.165 249.664 120.014Z" fill="#CCA77F"/>
<path d="M245.032 120.359C244.591 120.208 244.229 119.889 244.025 119.471C243.821 119.053 243.791 118.571 243.943 118.132L249.448 102.148L252.763 103.287L247.257 119.27C247.106 119.709 246.787 120.07 246.37 120.274C245.953 120.478 245.471 120.509 245.032 120.359Z" fill="#CCA77F"/>
<path d="M240.969 118.965C240.529 118.814 240.167 118.495 239.963 118.077C239.758 117.659 239.729 117.178 239.88 116.738L245.385 100.754L248.704 101.894L243.199 117.878C243.047 118.317 242.728 118.679 242.309 118.883C241.891 119.086 241.409 119.116 240.969 118.965Z" fill="#CCA77F"/>
<path d="M237.432 116.848C236.992 116.697 236.63 116.377 236.425 115.96C236.221 115.542 236.192 115.06 236.343 114.621L241.848 98.6372L245.167 99.777L239.662 115.761C239.51 116.2 239.19 116.561 238.772 116.765C238.354 116.969 237.872 116.999 237.432 116.848Z" fill="#CCA77F"/>
<path d="M235.004 102.398C234.8 101.98 234.771 101.498 234.922 101.059C235.073 100.619 235.393 100.258 235.812 100.054L243.47 96.3206L245.01 99.4707L237.352 103.204C236.933 103.408 236.451 103.437 236.011 103.286C235.571 103.135 235.209 102.815 235.004 102.398Z" fill="#CCA77F"/>
<path d="M246.682 109.334C244.662 108.64 243 107.174 242.063 105.257C241.126 103.34 240.99 101.13 241.685 99.1132L243.917 92.6336L259.147 97.8644L256.915 104.344C256.221 106.361 254.752 108.02 252.832 108.956C250.913 109.891 248.7 110.027 246.68 109.333L246.682 109.334Z" fill="#CCA77F"/>
<path d="M245.077 89.7324L260.16 95.3768L256.555 104.982L242.915 95.4926L245.077 89.7324Z" fill="#91765C"/>
<path d="M237.201 30.2989L218.908 30.1309L215.152 88.6533L252.935 88.7403L237.201 30.2989Z" fill="#FF6C4B"/>
<path d="M178.815 37.8553L177.648 67.5749L197.965 65.0764L195.634 35.7891L178.815 37.8553Z" fill="#FF6C4B"/>
<path d="M218.085 49.0934L186.012 52.7751L182.012 37.5147L219.926 34.041L218.909 42.355L218.085 49.0934Z" fill="#FF6C4B"/>
<path d="M239.069 42.7185L250.884 72.7198L269.651 73.3908L238.18 34.0234L239.069 42.7185Z" fill="#FF6C4B"/>
<path d="M165.762 1.17953L141.727 6.60579C139.993 6.99717 138.906 8.71777 139.298 10.4489L150.243 58.7907C150.635 60.5218 152.358 61.6078 154.092 61.2164L178.127 55.7902C179.86 55.3988 180.948 53.6782 180.556 51.9471L169.61 3.60526C169.218 1.87418 167.495 0.788143 165.762 1.17953Z" fill="#191919"/>
<path d="M144.872 35.0758L139.297 10.4536C139.204 10.0419 139.193 9.61594 139.264 9.19999C139.336 8.78405 139.489 8.38626 139.714 8.02935C139.94 7.67243 140.234 7.36339 140.579 7.11986C140.924 6.87634 141.314 6.7031 141.726 6.61004L165.761 1.18077C166.174 1.08764 166.6 1.07652 167.017 1.14802C167.433 1.21953 167.832 1.37228 168.189 1.59754C168.547 1.82279 168.856 2.11615 169.1 2.46086C169.344 2.80556 169.517 3.19487 169.61 3.60653L170.593 7.9479L144.872 35.0758Z" fill="#3A3A3A"/>
<path d="M165.517 2.98695L142.728 8.13195C141.326 8.44848 140.446 9.83999 140.763 11.24L151.237 57.4966C151.554 58.8966 152.947 59.7749 154.349 59.4583L177.138 54.3133C178.54 53.9968 179.42 52.6053 179.103 51.2053L168.629 4.94872C168.313 3.54874 166.919 2.67042 165.517 2.98695Z" fill="#FBFBFB"/>
<path d="M177.136 54.3193L154.347 59.4638C154.013 59.5394 153.669 59.5484 153.332 59.4904C152.995 59.4324 152.673 59.3085 152.384 59.1258C151.821 58.7713 174.619 31.416 174.619 31.416L179.101 51.2113C179.253 51.8836 179.132 52.5887 178.763 53.1716C178.395 53.7545 177.81 54.1673 177.136 54.3193Z" fill="#D3D3D3"/>
<path d="M151.415 16.6823L152.458 22.2506L151.398 22.4485L147.985 19.5867L148.618 22.9675L147.343 23.2055L146.301 17.6371L147.368 17.4378L150.774 20.301L150.141 16.9202L151.415 16.6823Z" fill="#FF6C4B"/>
<path d="M157.496 19.1125C157.499 19.1284 157.512 19.2413 157.534 19.4511L154.292 20.0564C154.4 20.3106 154.577 20.4943 154.824 20.6075C155.071 20.7206 155.356 20.7469 155.68 20.6865C155.903 20.6448 156.093 20.5763 156.251 20.4809C156.414 20.3793 156.556 20.243 156.678 20.072L157.473 20.6645C157.156 21.2013 156.609 21.542 155.834 21.6868C155.351 21.777 154.906 21.764 154.499 21.6478C154.092 21.5263 153.756 21.3173 153.492 21.0209C153.227 20.7245 153.055 20.3641 152.976 19.9399C152.897 19.5209 152.925 19.126 153.059 18.7552C153.197 18.3782 153.422 18.0646 153.732 17.8145C154.047 17.5582 154.419 17.3898 154.85 17.3095C155.269 17.2312 155.666 17.2505 156.039 17.3673C156.413 17.4842 156.727 17.6944 156.982 17.9982C157.241 18.2956 157.412 18.667 157.496 19.1125ZM155.033 18.2467C154.752 18.2993 154.53 18.4229 154.369 18.6177C154.208 18.8125 154.131 19.0518 154.141 19.3355L156.252 18.9413C156.159 18.6788 156.002 18.4858 155.781 18.3624C155.559 18.2337 155.309 18.1952 155.033 18.2467Z" fill="#FF6C4B"/>
<path d="M164.724 15.6026L163.96 20.1535L162.768 20.372L161.32 17.8993L160.815 20.7303L159.623 20.9488L157.298 16.9646L158.465 16.7505L160.005 19.4523L160.522 16.3732L161.571 16.1809L163.118 18.8813L163.628 15.8036L164.724 15.6026Z" fill="#FF6C4B"/>
<path d="M167.497 19.5108C167.142 19.5772 166.786 19.5998 166.43 19.5784C166.073 19.5517 165.781 19.4909 165.555 19.396L165.802 18.4277C166.016 18.514 166.266 18.5716 166.552 18.6006C166.837 18.6243 167.109 18.6118 167.369 18.5632C167.895 18.4651 168.134 18.286 168.085 18.0262C168.062 17.9042 167.974 17.8301 167.821 17.8038C167.668 17.7776 167.439 17.7736 167.134 17.792C166.774 17.8045 166.473 17.7975 166.232 17.7712C165.99 17.7449 165.768 17.6601 165.566 17.5168C165.368 17.3726 165.239 17.1387 165.179 16.8152C165.128 16.5447 165.16 16.2917 165.276 16.0561C165.395 15.8142 165.593 15.6072 165.869 15.435C166.149 15.2618 166.494 15.137 166.903 15.0607C167.206 15.0042 167.512 14.9826 167.823 14.996C168.137 15.0032 168.404 15.0467 168.622 15.1267L168.373 16.087C167.957 15.9453 167.525 15.9161 167.079 15.9994C166.813 16.0489 166.621 16.1232 166.502 16.2223C166.384 16.3213 166.335 16.4292 166.357 16.5458C166.382 16.6784 166.471 16.7578 166.624 16.7841C166.777 16.8104 167.015 16.8181 167.337 16.8073C167.699 16.8002 167.998 16.8103 168.234 16.8376C168.469 16.8596 168.685 16.9428 168.882 17.087C169.08 17.2313 169.208 17.4599 169.266 17.7728C169.316 18.0379 169.28 18.2888 169.16 18.5254C169.039 18.7619 168.836 18.9673 168.55 19.1415C168.268 19.3094 167.917 19.4325 167.497 19.5108Z" fill="#FF6C4B"/>
<path d="M151.361 33.8961C152.539 33.8961 153.494 32.9426 153.494 31.7664C153.494 30.5902 152.539 29.6367 151.361 29.6367C150.183 29.6367 149.229 30.5902 149.229 31.7664C149.229 32.9426 150.183 33.8961 151.361 33.8961Z" fill="#7393FD"/>
<path d="M171 25.7847L154.474 29.5098L154.647 30.2752L171.173 26.5501L171 25.7847Z" fill="#7C7C7C"/>
<path d="M163.043 30.1071L155.199 31.875L155.372 32.6404L163.216 30.8725L163.043 30.1071Z" fill="#7C7C7C"/>
<path d="M172.585 32.7963L150.175 37.8477L150.348 38.6131L172.758 33.5617L172.585 32.7963Z" fill="#7C7C7C"/>
<path d="M173.009 34.6713L150.599 39.7227L150.772 40.4881L173.182 35.4367L173.009 34.6713Z" fill="#7C7C7C"/>
<path d="M173.434 36.5482L151.023 41.5996L151.196 42.365L173.607 37.3137L173.434 36.5482Z" fill="#7C7C7C"/>
<path d="M173.858 38.4213L151.447 43.4727L151.62 44.2381L174.031 39.1867L173.858 38.4213Z" fill="#7C7C7C"/>
<path d="M174.282 40.2983L151.871 45.3496L152.044 46.115L174.455 41.0637L174.282 40.2983Z" fill="#7C7C7C"/>
<path d="M160.656 45.3403L152.296 47.2246L152.469 47.99L160.829 46.1057L160.656 45.3403Z" fill="#7C7C7C"/>
<path d="M175.13 44.0502L152.72 49.1016L152.893 49.867L175.303 44.8156L175.13 44.0502Z" fill="#7C7C7C"/>
<path d="M175.555 45.9232L153.145 50.9746L153.318 51.74L175.728 46.6887L175.555 45.9232Z" fill="#7C7C7C"/>
<path d="M175.978 47.7983L153.567 52.8496L153.74 53.615L176.151 48.5637L175.978 47.7983Z" fill="#7C7C7C"/>
<path d="M176.401 49.6752L153.99 54.7266L154.163 55.492L176.574 50.4406L176.401 49.6752Z" fill="#7C7C7C"/>
<path d="M176.827 51.5502L154.416 56.6016L154.589 57.367L177 52.3156L176.827 51.5502Z" fill="#7C7C7C"/>
<path d="M177.25 53.4252L154.84 58.4766L155.013 59.242L177.423 54.1906L177.25 53.4252Z" fill="#7C7C7C"/>
<path d="M19.0934 106.341L17.4727 107.381L58.2568 170.744L59.8775 169.704L19.0934 106.341Z" fill="#C63F17"/>
<path d="M57.8698 167.516C63.232 161.413 68.3808 146.116 66.007 138.654C62.1784 146.949 56.8808 162.108 57.8698 167.516Z" fill="#C63F17"/>
<path d="M53.4684 163.143C58.8306 157.039 63.9784 141.743 61.6056 134.281C57.7771 142.575 52.4795 157.735 53.4684 163.143Z" fill="#C63F17"/>
<path d="M48.9316 155.36C55.3792 150.413 63.4067 136.408 62.5316 128.623C57.1612 136.02 49.0137 149.863 48.9316 155.36Z" fill="#C63F17"/>
<path d="M45.4648 150.215C51.9124 145.268 59.9398 131.264 59.0648 123.479C53.6944 130.875 45.5531 144.718 45.4648 150.215Z" fill="#C63F17"/>
<path d="M41.9971 145.074C48.4447 140.128 56.4721 126.123 55.597 118.338C50.2266 125.73 42.0791 139.572 41.9971 145.074Z" fill="#C63F17"/>
<path d="M38.5303 139.926C44.9779 134.979 53.0053 120.975 52.1302 113.189C46.7598 120.586 38.6134 134.428 38.5303 139.926Z" fill="#C63F17"/>
<path d="M34.3066 134.194C41.3195 130.086 51.0283 117.189 51.1309 109.355C44.8782 116.025 35.073 128.75 34.3066 134.194Z" fill="#C63F17"/>
<path d="M31.6006 129.635C38.0482 124.689 46.0756 110.684 45.2005 102.898C39.826 110.296 31.6786 124.138 31.6006 129.635Z" fill="#C63F17"/>
<path d="M28.1289 124.491C34.5765 119.544 42.6039 105.539 41.7289 97.7539C36.3584 105.151 28.2151 118.994 28.1289 124.491Z" fill="#C63F17"/>
<path d="M24.6953 119.157C31.1429 114.211 36.8693 105.973 35.9942 98.1934C30.6238 105.585 24.7774 113.661 24.6953 119.157Z" fill="#C63F17"/>
<path d="M21.5732 114.305C28.0208 109.358 29.3319 103.799 30.4655 97.5449C25.0951 104.938 21.6553 108.81 21.5732 114.305Z" fill="#C63F17"/>
<path d="M19.3809 110.185C23.8783 103.885 24.345 104.27 25.4786 98.0156C20.1113 105.409 19.4629 104.689 19.3809 110.185Z" fill="#C63F17"/>
<path d="M18.8434 107.624C17.9006 99.9408 18.5049 99.9131 15.1123 94.5371C16.1495 103.611 15.1872 103.514 18.8434 107.624Z" fill="#C63F17"/>
<path d="M56.849 168.173C49.0617 170.509 32.9884 168.833 27.1758 163.579C36.3193 163.545 52.3332 165.028 56.849 168.173Z" fill="#C63F17"/>
<path d="M54.6927 162.357C46.9054 164.692 30.8321 163.016 25.0205 157.762C34.1651 157.728 50.1769 159.21 54.6927 162.357Z" fill="#C63F17"/>
<path d="M49.4849 155.004C42.3038 158.807 26.2079 160.283 19.4844 156.256C28.4494 154.448 44.4427 152.797 49.4849 155.004Z" fill="#C63F17"/>
<path d="M46.2378 149.717C39.0567 153.52 22.9608 154.996 16.2373 150.969C25.2024 149.161 41.1957 147.51 46.2378 149.717Z" fill="#C63F17"/>
<path d="M42.9878 144.432C35.8067 148.235 19.7108 149.71 12.9873 145.684C21.9575 143.876 37.9487 142.224 42.9878 144.432Z" fill="#C63F17"/>
<path d="M39.7437 139.145C32.5626 142.948 16.4667 144.423 9.74316 140.397C18.7082 138.589 34.7015 136.937 39.7437 139.145Z" fill="#C63F17"/>
<path d="M36.2768 132.928C29.622 137.593 13.8369 141.054 6.66406 137.893C15.3347 134.986 30.9987 131.363 36.2768 132.928Z" fill="#C63F17"/>
<path d="M33.2505 128.575C26.0694 132.377 9.97354 133.852 3.25 129.826C12.212 128.018 28.2084 126.367 33.2505 128.575Z" fill="#C63F17"/>
<path d="M30.0034 123.288C22.8223 127.09 6.72647 128.565 0.00292969 124.539C8.96799 122.731 24.9613 121.08 30.0034 123.288Z" fill="#C63F17"/>
<path d="M26.5741 117.954C19.393 121.756 9.50777 123.538 2.7832 119.512C11.7442 117.704 21.5279 115.746 26.5741 117.954Z" fill="#C63F17"/>
<path d="M23.4475 113.102C16.2664 116.905 10.6539 115.787 4.48633 114.22C13.4514 112.412 18.4053 110.895 23.4475 113.102Z" fill="#C63F17"/>
<path d="M20.6057 109.399C12.9989 110.868 13.1538 111.448 6.9873 109.885C15.9524 108.077 15.5636 107.192 20.6057 109.399Z" fill="#C63F17"/>
<path d="M18.7882 107.721C11.5168 105.051 11.3475 105.631 6.87988 101.105C15.4951 104.186 15.6152 103.228 18.7882 107.721Z" fill="#C63F17"/>
<path d="M85.4496 92.925L48.1172 87.0942C80.8711 92.2161 90.9359 34.543 90.9359 34.543L85.4496 92.925Z" fill="#296C9F"/>
<path d="M86.0003 43.2852L98.3231 73.0826L84.1117 81.2583L70.998 45.6351L86.0003 43.2852Z" fill="#2C98F0"/>
<path d="M242.613 50.4551L238.756 88.7601L252.934 88.7929L242.613 50.4551Z" fill="#C63F17"/>
<path d="M269.652 73.3917L260.271 101.62L242.135 92.1421L254.636 65.5469L269.652 73.3917Z" fill="#FF6C4B"/>
<path d="M250.437 96.4811L264.629 72.5688L247.684 45.9121L269.651 73.3914L260.271 101.619L250.437 96.4811Z" fill="#C63F17"/>
<path d="M250.884 72.7209L254.392 72.2559L255.021 74.2176L250.884 72.7209Z" fill="#C63F17"/>
<path d="M194.989 50.0488L189.585 48.8338L197.215 56.3354L196.908 51.6806L217.694 49.1412C217.694 49.1412 218.087 43.256 218.054 43.5183C218.021 43.7805 194.989 50.0488 194.989 50.0488Z" fill="#C63F17"/>
<path d="M105.327 44.9043L118.661 60.4136L111.062 64.9987L103.464 46.3671L105.327 44.9043Z" fill="#296C9F"/>
<path d="M91.2571 55.9961L88.9961 62.2705V59.1338L91.2571 55.9961Z" fill="#296C9F"/>
</svg>
