<svg width="527" height="289" viewBox="0 0 527 289" fill="none" xmlns="http://www.w3.org/2000/svg">
<path opacity="0.3" d="M527 112.183C476.669 301.714 140.632 380.553 0 135.277C63.1417 1.55314 170.498 -18.7517 269.421 15.8244C378.966 54.1132 430.038 129.703 458.164 116.961L466.306 152.797C453.477 161.291 416.123 175.413 369.344 163.946C356.021 103.423 301.989 65.9945 285.705 59.6237C313.831 82.7178 352.32 154.389 347.879 159.964C338.257 159.964 264.24 133.684 260.539 134.481C257.579 122.535 216.129 73.958 161.357 69.1799C199.846 83.5142 236.114 120.146 236.114 127.313C180.601 111.386 72.5365 125.721 70.316 132.092C113.246 127.313 174.68 127.313 179.861 132.092C168.018 159.964 118.427 182.262 106.584 185.447C137.671 188.632 185.042 153.026 197.625 137.666C214.205 133.206 285.458 158.106 319.013 171.113C305.69 189.96 264.832 230.52 207.987 241.988C249.437 247.562 315.312 206.949 336.036 179.076C422.636 200.578 496.653 181.465 527 112.183Z" fill="url(#paint0_linear)"/>
<defs>
<linearGradient id="paint0_linear" x1="263.5" y1="95.9287" x2="210.36" y2="247.522" gradientUnits="userSpaceOnUse">
<stop stop-color="white" stop-opacity="0.51"/>
<stop offset="1" stop-color="white"/>
</linearGradient>
</defs>
</svg>
