<svg width="206" height="94" viewBox="0 0 206 94" fill="none" xmlns="http://www.w3.org/2000/svg">
<path d="M266.5 88C266.5 109.599 253.534 129.212 232.452 143.447C211.372 157.68 182.222 166.5 150 166.5C117.778 166.5 88.628 157.68 67.5483 143.447C46.4657 129.212 33.5 109.599 33.5 88C33.5 66.401 46.4657 46.7882 67.5483 32.5529C88.628 18.3197 117.778 9.5 150 9.5C182.222 9.5 211.372 18.3197 232.452 32.5529C253.534 46.7882 266.5 66.401 266.5 88Z" stroke="white" stroke-opacity="0.16"/>
<path d="M303.5 88C303.5 109.599 290.534 129.212 269.452 143.447C248.372 157.68 219.222 166.5 187 166.5C154.778 166.5 125.628 157.68 104.548 143.447C83.4657 129.212 70.5 109.599 70.5 88C70.5 66.401 83.4657 46.7882 104.548 32.5529C125.628 18.3197 154.778 9.5 187 9.5C219.222 9.5 248.372 18.3197 269.452 32.5529C290.534 46.7882 303.5 66.401 303.5 88Z" stroke="white" stroke-opacity="0.16"/>
<path d="M233.5 79C233.5 100.599 220.534 120.212 199.452 134.447C178.372 148.68 149.222 157.5 117 157.5C84.7776 157.5 55.628 148.68 34.5483 134.447C13.4657 120.212 0.5 100.599 0.5 79C0.5 57.401 13.4657 37.7882 34.5483 23.5529C55.628 9.31966 84.7776 0.5 117 0.5C149.222 0.5 178.372 9.31966 199.452 23.5529C220.534 37.7882 233.5 57.401 233.5 79Z" stroke="white" stroke-opacity="0.16"/>
</svg>
