<svg width="201" height="229" viewBox="0 0 201 229" fill="none" xmlns="http://www.w3.org/2000/svg">
<path d="M2.7205 171.238C10.3365 189.823 22.7545 193.692 31.4853 189.823C48.3704 182.342 92.232 173.983 137.279 193.631C196.942 219.654 209.637 180.392 190.595 140.678C171.554 100.963 165.1 60.8007 187.051 38.6736C209.002 16.5465 180.277 -18.0684 129.264 17.9633C96.2976 41.2482 72.1041 36.0633 59.1122 29.4808C46.8678 23.277 33.2506 16.7912 20.4925 21.8553C5.01202 28.0003 -1.08778 41.323 22.4651 71.086C55.8415 113.263 -14.3518 129.581 2.7205 171.238Z" fill="#EBF7F8"/>
<path d="M33.7305 80.7031H152.259V171.858C152.259 172.044 152.185 172.222 152.054 172.353C151.922 172.485 151.744 172.558 151.559 172.558H34.4305C34.2448 172.558 34.0668 172.485 33.9355 172.353C33.8042 172.222 33.7305 172.044 33.7305 171.858V80.7031Z" fill="#A3D8DC"/>
<path d="M122.524 44.9824H67.4107L33.7305 80.7038H152.259L122.524 44.9824Z" fill="#7EC8CE"/>
<path d="M44.957 30.6934L67.4105 44.982L33.7303 80.7035L8.21484 61.3118L44.957 30.6934Z" fill="#5AB9C1"/>
<path d="M144.977 30.6934L122.523 44.982L152.258 80.7035L181.719 61.3118L144.977 30.6934Z" fill="#5AB9C1"/>
<path d="M81.89 31.4252C82.5237 31.1248 83.0166 30.5911 83.266 29.9357C83.5153 29.2803 83.5016 28.5539 83.2279 27.9083L73.127 4.09037C72.984 3.753 72.7741 3.44804 72.5102 3.19384C72.2463 2.93964 71.9336 2.74143 71.5911 2.61115C71.2486 2.48087 70.8833 2.4212 70.5171 2.43573C70.151 2.45026 69.7915 2.53868 69.4604 2.69569L67.5144 3.61843C67.1833 3.77543 66.8874 3.99776 66.6444 4.27206C66.4014 4.54636 66.2164 4.86697 66.1005 5.21459C65.9846 5.56222 65.9402 5.9297 65.9699 6.29493C65.9997 6.66017 66.103 7.01562 66.2736 7.33991L78.3203 30.2349C78.6469 30.8555 79.2006 31.3259 79.8659 31.5477C80.5312 31.7696 81.2564 31.7257 81.89 31.4252Z" fill="#5AB9C1"/>
<path d="M94.5545 29.1154C95.0131 29.0827 95.4413 28.8741 95.7497 28.5331C96.0581 28.1922 96.2228 27.7453 96.2095 27.2857L95.7105 10.3295C95.7034 10.0893 95.6479 9.85301 95.5471 9.63485C95.4464 9.41669 95.3026 9.22115 95.1244 9.05999C94.9462 8.89882 94.7372 8.77536 94.5101 8.69701C94.2829 8.61867 94.0423 8.58706 93.8026 8.60409L92.3938 8.70448C92.1542 8.72153 91.9205 8.78685 91.7068 8.89651C91.4931 9.00616 91.3038 9.15789 91.1502 9.34258C90.9966 9.52726 90.8819 9.74109 90.8131 9.97121C90.7442 10.2013 90.7226 10.443 90.7495 10.6817L92.6573 27.5377C92.7089 27.9947 92.9351 28.414 93.2887 28.708C93.6423 29.0021 94.0958 29.148 94.5545 29.1154Z" fill="#5AB9C1"/>
<path d="M104.331 35.3835C105.592 36.1128 107.363 35.4436 108.345 33.8662L125.784 5.85881C126.826 4.18567 126.579 2.14643 125.241 1.37293L123.377 0.294933C122.039 -0.478706 120.148 0.324611 119.218 2.06215L103.643 31.1474C102.766 32.7855 103.07 34.6541 104.331 35.3835Z" fill="#5AB9C1"/>
<path d="M101.624 67.7169C101.462 67.717 101.304 67.6605 101.179 67.5572C101.053 67.4538 100.968 67.3099 100.937 67.1503C100.906 66.9907 100.931 66.8253 101.009 66.6825C101.087 66.5396 101.212 66.4283 101.362 66.3675C101.39 66.3559 102.08 66.0787 103.345 65.6134C103.519 65.5493 103.712 65.557 103.88 65.6349C104.049 65.7127 104.179 65.8544 104.243 66.0286C104.308 66.2028 104.3 66.3954 104.222 66.5639C104.144 66.7325 104.002 66.8632 103.828 66.9273C102.583 67.3852 101.893 67.6633 101.886 67.6659C101.803 67.6995 101.714 67.7168 101.624 67.7169Z" fill="#5AB9C1"/>
<path d="M130.92 228.913C130.432 228.913 129.935 228.903 129.442 228.883C129.349 228.88 129.259 228.859 129.175 228.821C129.091 228.782 129.015 228.728 128.952 228.66C128.889 228.593 128.84 228.513 128.808 228.427C128.776 228.34 128.761 228.248 128.765 228.156C128.769 228.064 128.791 227.973 128.829 227.889C128.868 227.805 128.923 227.73 128.991 227.668C129.059 227.605 129.139 227.557 129.226 227.525C129.313 227.494 129.405 227.48 129.497 227.484C130.88 227.54 132.265 227.513 133.644 227.404C133.736 227.397 133.828 227.408 133.915 227.436C134.003 227.464 134.084 227.509 134.154 227.569C134.224 227.629 134.281 227.701 134.323 227.783C134.365 227.865 134.391 227.954 134.398 228.046C134.405 228.138 134.394 228.23 134.366 228.317C134.338 228.405 134.293 228.486 134.233 228.556C134.174 228.626 134.101 228.683 134.019 228.725C133.937 228.767 133.848 228.792 133.756 228.8C132.828 228.875 131.873 228.912 130.92 228.913ZM125.259 228.49C125.225 228.49 125.191 228.488 125.158 228.483C123.792 228.285 122.373 228.013 120.941 227.676C120.76 227.633 120.604 227.521 120.506 227.363C120.408 227.205 120.377 227.015 120.42 226.834C120.462 226.653 120.575 226.497 120.733 226.399C120.891 226.302 121.081 226.271 121.262 226.313C122.655 226.641 124.033 226.905 125.359 227.097C125.534 227.122 125.693 227.213 125.804 227.351C125.915 227.489 125.97 227.663 125.957 227.84C125.945 228.017 125.866 228.182 125.736 228.302C125.606 228.423 125.436 228.49 125.259 228.49V228.49ZM137.885 228.193C137.712 228.193 137.545 228.129 137.417 228.013C137.288 227.897 137.207 227.738 137.189 227.566C137.171 227.394 137.217 227.221 137.319 227.081C137.421 226.941 137.57 226.844 137.74 226.808C139.09 226.519 140.419 226.143 141.72 225.68C141.895 225.618 142.087 225.628 142.255 225.707C142.422 225.787 142.552 225.93 142.614 226.105C142.676 226.28 142.666 226.472 142.587 226.64C142.507 226.808 142.364 226.937 142.189 226.999C140.83 227.482 139.442 227.876 138.032 228.177C137.983 228.187 137.934 228.192 137.885 228.192V228.193ZM117.018 226.572C116.948 226.572 116.877 226.561 116.81 226.54C115.509 226.134 114.15 225.665 112.767 225.147C112.593 225.082 112.452 224.95 112.375 224.781C112.299 224.612 112.292 224.419 112.357 224.246C112.423 224.072 112.554 223.931 112.723 223.854C112.892 223.777 113.085 223.771 113.259 223.836C114.617 224.346 115.951 224.806 117.227 225.204C117.387 225.254 117.523 225.359 117.612 225.501C117.701 225.643 117.735 225.812 117.71 225.977C117.685 226.143 117.601 226.294 117.474 226.403C117.347 226.512 117.186 226.572 117.018 226.572ZM145.841 225.372C145.683 225.372 145.53 225.319 145.407 225.222C145.283 225.124 145.196 224.988 145.159 224.834C145.123 224.681 145.139 224.52 145.205 224.377C145.272 224.234 145.384 224.118 145.525 224.047C146.76 223.421 147.959 222.727 149.116 221.967C149.193 221.915 149.279 221.88 149.37 221.862C149.461 221.844 149.554 221.844 149.645 221.863C149.735 221.881 149.821 221.917 149.898 221.969C149.975 222.021 150.04 222.088 150.091 222.165C150.141 222.242 150.176 222.329 150.193 222.42C150.21 222.511 150.209 222.604 150.19 222.694C150.171 222.785 150.134 222.871 150.081 222.947C150.029 223.023 149.962 223.088 149.884 223.138C148.683 223.927 147.438 224.648 146.156 225.297C146.058 225.346 145.95 225.372 145.841 225.372ZM109.08 223.613C108.986 223.613 108.892 223.594 108.806 223.557C107.569 223.03 106.26 222.445 104.915 221.818C104.83 221.78 104.754 221.726 104.691 221.658C104.628 221.59 104.579 221.511 104.547 221.424C104.515 221.337 104.501 221.245 104.504 221.152C104.508 221.06 104.53 220.969 104.569 220.885C104.608 220.801 104.664 220.726 104.732 220.664C104.8 220.601 104.88 220.553 104.967 220.522C105.055 220.491 105.147 220.477 105.239 220.482C105.332 220.486 105.422 220.509 105.506 220.549C106.837 221.17 108.132 221.748 109.355 222.269C109.503 222.332 109.625 222.445 109.7 222.588C109.775 222.731 109.798 222.895 109.766 223.053C109.734 223.211 109.648 223.353 109.523 223.455C109.398 223.557 109.241 223.613 109.08 223.613V223.613ZM152.917 220.757C152.772 220.757 152.63 220.712 152.512 220.628C152.394 220.545 152.305 220.427 152.256 220.29C152.208 220.153 152.203 220.005 152.243 219.866C152.282 219.727 152.364 219.603 152.477 219.512C153.525 218.666 154.579 217.739 155.609 216.755C155.743 216.627 155.923 216.558 156.108 216.562C156.294 216.566 156.47 216.644 156.598 216.778C156.727 216.913 156.796 217.092 156.792 217.278C156.788 217.464 156.71 217.64 156.576 217.768C155.517 218.778 154.434 219.732 153.356 220.602C153.231 220.702 153.077 220.757 152.917 220.757L152.917 220.757ZM101.39 220.044C101.282 220.044 101.176 220.02 101.08 219.972C99.8991 219.387 98.658 218.759 97.2874 218.052C97.2057 218.01 97.133 217.952 97.0737 217.882C97.0143 217.812 96.9693 217.731 96.9413 217.643C96.9133 217.555 96.9029 217.463 96.9105 217.372C96.9181 217.28 96.9438 217.191 96.9859 217.109C97.028 217.027 97.0858 216.955 97.156 216.895C97.2262 216.836 97.3074 216.791 97.3949 216.763C97.4825 216.735 97.5747 216.725 97.6663 216.732C97.7579 216.74 97.8471 216.765 97.9288 216.808C99.2931 217.511 100.527 218.136 101.701 218.717C101.843 218.787 101.957 218.903 102.024 219.046C102.091 219.189 102.108 219.35 102.072 219.504C102.036 219.658 101.949 219.795 101.825 219.893C101.701 219.991 101.548 220.045 101.39 220.044ZM93.849 216.168C93.7354 216.168 93.6236 216.14 93.5232 216.087C92.3575 215.473 91.1873 214.853 90.0126 214.229L89.7745 214.103C89.6923 214.061 89.6194 214.002 89.5598 213.931C89.5003 213.861 89.4555 213.779 89.4279 213.69C89.4002 213.602 89.3904 213.509 89.3989 213.417C89.4075 213.325 89.4342 213.235 89.4775 213.153C89.5209 213.072 89.58 212.999 89.6516 212.94C89.7231 212.882 89.8055 212.838 89.8941 212.811C89.9827 212.784 90.0758 212.776 90.1678 212.785C90.2599 212.795 90.3492 212.822 90.4305 212.866L90.6684 212.992C91.8422 213.615 93.0114 214.234 94.176 214.849C94.3145 214.922 94.4245 215.039 94.4885 215.182C94.5526 215.325 94.5669 215.485 94.5293 215.637C94.4916 215.788 94.4042 215.923 94.2809 216.02C94.1576 216.116 94.0056 216.168 93.8491 216.168L93.849 216.168ZM159.044 214.93C158.908 214.93 158.776 214.891 158.662 214.817C158.548 214.743 158.459 214.637 158.404 214.513C158.349 214.389 158.331 214.252 158.353 214.118C158.375 213.984 158.435 213.86 158.526 213.759C159.435 212.759 160.351 211.687 161.248 210.573C161.365 210.431 161.534 210.341 161.717 210.322C161.901 210.303 162.084 210.357 162.228 210.473C162.371 210.589 162.463 210.756 162.484 210.939C162.505 211.123 162.452 211.306 162.338 211.451C161.424 212.587 160.49 213.68 159.562 214.701C159.496 214.773 159.416 214.831 159.327 214.871C159.238 214.91 159.141 214.931 159.044 214.931V214.93ZM86.3593 212.206C86.2459 212.206 86.1343 212.178 86.034 212.125C84.648 211.396 83.4207 210.757 82.282 210.172C82.1168 210.088 81.9921 209.94 81.9352 209.764C81.8784 209.587 81.8942 209.395 81.9791 209.229C82.064 209.064 82.211 208.939 82.3878 208.883C82.5647 208.826 82.7569 208.842 82.9221 208.926C84.0644 209.514 85.2954 210.154 86.6855 210.886C86.824 210.958 86.9342 211.076 86.9983 211.218C87.0625 211.361 87.0769 211.521 87.0393 211.673C87.0018 211.825 86.9143 211.96 86.791 212.057C86.6677 212.153 86.5157 212.205 86.3591 212.205L86.3593 212.206ZM164.362 208.348C164.233 208.348 164.106 208.312 163.996 208.244C163.886 208.177 163.797 208.081 163.739 207.966C163.68 207.851 163.654 207.722 163.664 207.593C163.675 207.465 163.72 207.341 163.796 207.237C164.594 206.136 165.399 204.973 166.188 203.78C166.29 203.626 166.45 203.518 166.632 203.481C166.814 203.444 167.003 203.48 167.158 203.583C167.313 203.685 167.421 203.845 167.458 204.027C167.495 204.209 167.458 204.398 167.355 204.553C166.555 205.763 165.739 206.942 164.929 208.059C164.864 208.149 164.779 208.222 164.68 208.272C164.582 208.322 164.473 208.348 164.362 208.348V208.348ZM78.8187 208.339C78.7111 208.339 78.6049 208.314 78.5086 208.266C77.175 207.606 75.9301 207.005 74.7029 206.429C74.5372 206.349 74.4098 206.206 74.3483 206.033C74.2869 205.859 74.2963 205.668 74.3745 205.502C74.4527 205.335 74.5935 205.206 74.7662 205.142C74.939 205.079 75.1299 205.086 75.2976 205.162C76.5336 205.742 77.7873 206.346 79.1298 207.011C79.2714 207.082 79.3851 207.197 79.4524 207.34C79.5198 207.483 79.5368 207.645 79.5008 207.799C79.4647 207.952 79.3777 208.089 79.2539 208.188C79.1301 208.286 78.9767 208.339 78.8187 208.339ZM71.1368 204.744C71.0404 204.744 70.9451 204.724 70.8568 204.685C69.5307 204.106 68.2206 203.56 66.9631 203.061C66.8776 203.027 66.7997 202.976 66.7338 202.912C66.6678 202.848 66.6151 202.772 66.5787 202.687C66.5422 202.603 66.5228 202.512 66.5214 202.42C66.5201 202.328 66.5368 202.237 66.5707 202.152C66.6047 202.066 66.6551 201.988 66.7191 201.922C66.7832 201.856 66.8596 201.804 66.944 201.767C67.0284 201.731 67.1191 201.711 67.211 201.71C67.303 201.709 67.3942 201.725 67.4797 201.759C68.7517 202.264 70.0764 202.817 71.4168 203.402C71.5642 203.467 71.685 203.58 71.7588 203.723C71.8326 203.865 71.855 204.029 71.8221 204.187C71.7893 204.344 71.7032 204.486 71.5784 204.587C71.4536 204.689 71.2976 204.744 71.1368 204.744ZM63.249 201.622C63.1701 201.622 63.0917 201.609 63.0172 201.582C61.6656 201.108 60.3194 200.67 59.0156 200.28C58.9275 200.254 58.8454 200.211 58.7741 200.153C58.7028 200.095 58.6436 200.023 58.5999 199.942C58.5563 199.861 58.5289 199.773 58.5195 199.681C58.5101 199.59 58.5188 199.497 58.5451 199.409C58.5714 199.321 58.6148 199.239 58.6728 199.168C58.7308 199.097 58.8023 199.037 58.8832 198.994C58.9641 198.95 59.0527 198.923 59.1442 198.913C59.2356 198.904 59.328 198.912 59.4161 198.939C60.7412 199.335 62.1087 199.779 63.4809 200.261C63.6368 200.316 63.7684 200.424 63.8523 200.567C63.9361 200.709 63.9669 200.877 63.9392 201.039C63.9114 201.202 63.8269 201.35 63.7006 201.457C63.5743 201.563 63.4143 201.622 63.249 201.622ZM169.039 201.292C168.915 201.292 168.793 201.259 168.686 201.196C168.579 201.133 168.49 201.043 168.43 200.934C168.369 200.826 168.338 200.704 168.34 200.579C168.342 200.455 168.378 200.334 168.442 200.228C169.153 199.062 169.87 197.84 170.574 196.596C170.618 196.514 170.679 196.441 170.751 196.383C170.824 196.324 170.907 196.281 170.997 196.255C171.086 196.229 171.18 196.221 171.272 196.232C171.365 196.243 171.454 196.273 171.535 196.318C171.617 196.364 171.688 196.426 171.745 196.5C171.802 196.573 171.843 196.658 171.867 196.748C171.891 196.838 171.897 196.932 171.884 197.024C171.871 197.116 171.84 197.205 171.792 197.285C171.081 198.543 170.356 199.777 169.637 200.956C169.575 201.059 169.487 201.144 169.382 201.203C169.278 201.262 169.159 201.292 169.039 201.292V201.292ZM25.8427 199.699C25.6749 199.699 25.5127 199.639 25.3856 199.53C25.2585 199.42 25.175 199.268 25.1502 199.102C25.1255 198.937 25.1612 198.767 25.2508 198.625C25.3405 198.483 25.4781 198.379 25.6386 198.33C27.0089 197.911 28.406 197.546 29.7906 197.243C29.972 197.203 30.1616 197.237 30.3179 197.338C30.4742 197.438 30.5842 197.596 30.6239 197.777C30.6635 197.959 30.6294 198.149 30.5292 198.305C30.4289 198.461 30.2707 198.571 30.0893 198.611C28.7417 198.905 27.3817 199.261 26.0474 199.669C25.9811 199.689 25.9121 199.699 25.8427 199.699ZM55.1236 199.206C55.0684 199.206 55.0133 199.2 54.9596 199.187C53.5798 198.856 52.199 198.568 50.8555 198.333C50.6749 198.298 50.5151 198.194 50.4105 198.043C50.306 197.892 50.2652 197.705 50.2969 197.524C50.3286 197.343 50.4303 197.182 50.58 197.075C50.7298 196.968 50.9155 196.925 51.097 196.954C52.469 197.194 53.8784 197.487 55.2864 197.825C55.4533 197.865 55.5998 197.965 55.6981 198.105C55.7963 198.246 55.8395 198.418 55.8194 198.588C55.7993 198.758 55.7174 198.915 55.5891 199.029C55.4608 199.143 55.2951 199.206 55.1236 199.206V199.206ZM34.1108 197.895C33.9331 197.895 33.7621 197.827 33.6324 197.706C33.5028 197.584 33.4241 197.418 33.4125 197.241C33.4009 197.063 33.4571 196.888 33.5698 196.751C33.6825 196.613 33.8433 196.524 34.0194 196.501C35.4277 196.314 36.8662 196.182 38.2949 196.111C38.3867 196.106 38.4785 196.12 38.5651 196.151C38.6517 196.182 38.7314 196.229 38.7996 196.291C38.8677 196.353 38.9231 196.427 38.9625 196.51C39.0019 196.593 39.0245 196.683 39.0291 196.775C39.0337 196.867 39.0202 196.959 38.9893 197.045C38.9584 197.132 38.9107 197.212 38.8491 197.28C38.7874 197.348 38.7129 197.403 38.6298 197.443C38.5467 197.482 38.4567 197.505 38.3649 197.509C36.9744 197.579 35.5745 197.706 34.2041 197.889C34.1732 197.893 34.142 197.895 34.1108 197.895ZM46.7882 197.755C46.7635 197.755 46.7388 197.754 46.7142 197.751C45.318 197.604 43.9142 197.509 42.544 197.469C42.3584 197.463 42.1825 197.384 42.0552 197.249C41.9279 197.113 41.8594 196.933 41.865 196.748C41.8706 196.562 41.9497 196.386 42.0849 196.259C42.2201 196.131 42.4004 196.063 42.586 196.069C43.9915 196.111 45.4298 196.209 46.8606 196.358C47.0387 196.377 47.2028 196.464 47.3191 196.6C47.4353 196.736 47.495 196.912 47.4857 197.091C47.4765 197.269 47.399 197.438 47.2693 197.561C47.1396 197.685 46.9675 197.754 46.7884 197.754L46.7882 197.755ZM173.216 193.926C173.095 193.926 172.977 193.895 172.871 193.835C172.766 193.776 172.679 193.69 172.616 193.587C172.554 193.483 172.52 193.366 172.517 193.245C172.513 193.124 172.541 193.005 172.598 192.898C173.24 191.686 173.888 190.423 174.524 189.146C174.565 189.064 174.622 188.991 174.691 188.93C174.761 188.87 174.841 188.824 174.928 188.795C175.016 188.766 175.108 188.754 175.199 188.76C175.291 188.767 175.381 188.791 175.463 188.832C175.545 188.873 175.619 188.93 175.679 188.999C175.739 189.068 175.785 189.149 175.814 189.236C175.844 189.323 175.855 189.415 175.849 189.507C175.843 189.599 175.818 189.688 175.777 189.771C175.136 191.058 174.483 192.331 173.835 193.554C173.775 193.666 173.686 193.76 173.577 193.826C173.468 193.891 173.343 193.926 173.216 193.926V193.926ZM176.996 186.347C176.878 186.347 176.762 186.317 176.659 186.26C176.555 186.203 176.468 186.121 176.405 186.021C176.342 185.922 176.305 185.808 176.298 185.69C176.29 185.573 176.313 185.455 176.363 185.348C176.949 184.103 177.542 182.812 178.124 181.511C178.161 181.428 178.215 181.352 178.282 181.289C178.349 181.226 178.427 181.176 178.513 181.143C178.599 181.111 178.691 181.095 178.782 181.098C178.874 181.1 178.965 181.121 179.049 181.158C179.133 181.196 179.208 181.25 179.271 181.316C179.335 181.383 179.384 181.462 179.417 181.548C179.45 181.634 179.465 181.725 179.463 181.817C179.46 181.909 179.439 181.999 179.402 182.083C178.816 183.392 178.22 184.692 177.63 185.945C177.573 186.065 177.483 186.166 177.371 186.237C177.259 186.309 177.129 186.346 176.997 186.346L176.996 186.347ZM180.457 178.616C180.342 178.616 180.228 178.587 180.126 178.532C180.024 178.477 179.937 178.398 179.873 178.302C179.809 178.205 179.771 178.094 179.76 177.979C179.75 177.864 179.768 177.748 179.813 177.641C180.354 176.374 180.901 175.062 181.439 173.742C181.473 173.655 181.523 173.577 181.588 173.51C181.652 173.443 181.729 173.39 181.815 173.353C181.9 173.317 181.991 173.298 182.084 173.297C182.177 173.296 182.269 173.314 182.355 173.349C182.441 173.384 182.519 173.435 182.585 173.501C182.65 173.566 182.702 173.644 182.738 173.73C182.773 173.816 182.791 173.908 182.791 174C182.79 174.093 182.771 174.185 182.735 174.27C182.194 175.597 181.644 176.916 181.101 178.19C181.047 178.316 180.958 178.424 180.843 178.5C180.729 178.575 180.595 178.615 180.458 178.616L180.457 178.616ZM183.657 170.772C183.543 170.772 183.431 170.744 183.33 170.691C183.23 170.638 183.143 170.561 183.079 170.467C183.015 170.373 182.975 170.264 182.962 170.151C182.949 170.038 182.964 169.923 183.005 169.817C183.508 168.532 184.017 167.204 184.517 165.87C184.583 165.697 184.714 165.556 184.884 165.479C185.053 165.402 185.245 165.396 185.419 165.461C185.593 165.527 185.734 165.658 185.81 165.827C185.887 165.996 185.893 166.189 185.828 166.363C185.324 167.702 184.814 169.036 184.309 170.327C184.258 170.458 184.168 170.571 184.052 170.65C183.936 170.729 183.798 170.772 183.658 170.772L183.657 170.772ZM186.639 162.843C186.527 162.843 186.416 162.815 186.316 162.764C186.217 162.712 186.131 162.637 186.066 162.545C186.002 162.453 185.96 162.346 185.946 162.235C185.931 162.124 185.943 162.01 185.981 161.905C186.452 160.604 186.929 159.264 187.399 157.921C187.428 157.833 187.475 157.752 187.536 157.682C187.597 157.612 187.671 157.556 187.754 157.515C187.838 157.474 187.928 157.45 188.021 157.445C188.113 157.439 188.206 157.452 188.293 157.483C188.381 157.513 188.461 157.561 188.53 157.623C188.599 157.685 188.655 157.76 188.695 157.844C188.734 157.927 188.757 158.018 188.761 158.111C188.766 158.203 188.752 158.296 188.72 158.383C188.249 159.73 187.77 161.076 187.297 162.381C187.248 162.516 187.159 162.633 187.041 162.716C186.924 162.798 186.783 162.842 186.64 162.842L186.639 162.843ZM189.431 154.843C189.32 154.843 189.211 154.816 189.112 154.766C189.013 154.715 188.928 154.642 188.863 154.552C188.798 154.462 188.756 154.358 188.739 154.248C188.723 154.138 188.732 154.026 188.767 153.921C189.219 152.571 189.661 151.219 190.08 149.903C190.136 149.726 190.26 149.578 190.425 149.493C190.59 149.408 190.782 149.392 190.959 149.448C191.136 149.504 191.283 149.629 191.369 149.794C191.454 149.959 191.47 150.151 191.414 150.328C190.992 151.65 190.549 153.008 190.095 154.365C190.049 154.504 189.96 154.625 189.841 154.711C189.722 154.796 189.579 154.843 189.432 154.843L189.431 154.843ZM192.001 146.768C191.892 146.768 191.784 146.743 191.687 146.694C191.589 146.645 191.504 146.573 191.439 146.486C191.374 146.398 191.33 146.296 191.312 146.189C191.293 146.081 191.299 145.971 191.331 145.866C191.74 144.508 192.138 143.144 192.515 141.811C192.566 141.632 192.685 141.481 192.847 141.39C193.009 141.299 193.201 141.277 193.379 141.327C193.558 141.378 193.709 141.497 193.8 141.659C193.891 141.821 193.913 142.013 193.863 142.191C193.483 143.532 193.083 144.905 192.671 146.27C192.628 146.414 192.539 146.54 192.419 146.63C192.298 146.72 192.152 146.768 192.002 146.768L192.001 146.768ZM194.305 138.613C194.197 138.614 194.092 138.589 193.996 138.542C193.899 138.495 193.815 138.426 193.75 138.341C193.684 138.256 193.639 138.158 193.618 138.053C193.597 137.948 193.6 137.839 193.627 137.736C193.988 136.36 194.336 134.983 194.659 133.641C194.704 133.462 194.818 133.308 194.976 133.212C195.134 133.117 195.323 133.087 195.502 133.131C195.682 133.174 195.837 133.286 195.934 133.443C196.031 133.6 196.062 133.789 196.02 133.969C195.695 135.32 195.345 136.707 194.981 138.091C194.942 138.241 194.854 138.373 194.732 138.467C194.61 138.562 194.46 138.613 194.305 138.613L194.305 138.613ZM196.289 130.375C196.184 130.376 196.081 130.352 195.986 130.307C195.892 130.262 195.809 130.196 195.743 130.115C195.677 130.033 195.631 129.938 195.607 129.837C195.583 129.735 195.582 129.629 195.604 129.527C195.907 128.136 196.192 126.746 196.452 125.393C196.469 125.302 196.503 125.215 196.553 125.138C196.604 125.06 196.669 124.994 196.745 124.942C196.822 124.889 196.907 124.853 196.998 124.834C197.088 124.815 197.182 124.815 197.272 124.832C197.363 124.849 197.45 124.885 197.527 124.936C197.604 124.987 197.67 125.052 197.721 125.129C197.773 125.206 197.809 125.292 197.827 125.383C197.845 125.473 197.845 125.567 197.827 125.657C197.565 127.021 197.277 128.423 196.973 129.824C196.939 129.98 196.852 130.12 196.728 130.22C196.604 130.321 196.449 130.375 196.289 130.375ZM197.884 122.054C197.782 122.054 197.682 122.032 197.59 121.989C197.498 121.947 197.416 121.884 197.35 121.807C197.284 121.73 197.236 121.639 197.209 121.541C197.182 121.443 197.176 121.341 197.192 121.241C197.423 119.833 197.632 118.43 197.813 117.071C197.824 116.979 197.853 116.89 197.899 116.81C197.945 116.729 198.006 116.659 198.079 116.602C198.152 116.545 198.236 116.504 198.326 116.48C198.415 116.456 198.508 116.449 198.6 116.462C198.692 116.474 198.78 116.504 198.86 116.551C198.94 116.597 199.01 116.659 199.066 116.733C199.122 116.807 199.163 116.891 199.186 116.981C199.209 117.071 199.214 117.164 199.201 117.256C199.019 118.628 198.807 120.046 198.574 121.467C198.547 121.631 198.463 121.779 198.337 121.887C198.211 121.994 198.051 122.054 197.885 122.054H197.884ZM198.996 113.655C198.973 113.655 198.95 113.654 198.926 113.652C198.835 113.643 198.746 113.616 198.665 113.572C198.584 113.529 198.512 113.47 198.454 113.399C198.395 113.328 198.352 113.246 198.325 113.158C198.298 113.07 198.289 112.978 198.298 112.886C198.438 111.469 198.55 110.057 198.633 108.69C198.644 108.505 198.728 108.331 198.867 108.208C199.006 108.085 199.188 108.022 199.373 108.033C199.559 108.044 199.732 108.129 199.855 108.267C199.978 108.406 200.041 108.589 200.03 108.774C199.947 110.158 199.833 111.588 199.692 113.024C199.674 113.196 199.594 113.357 199.466 113.473C199.337 113.59 199.17 113.655 198.997 113.655H198.996ZM199.496 105.199H199.485C199.393 105.198 199.302 105.178 199.218 105.141C199.133 105.105 199.057 105.052 198.993 104.986C198.929 104.92 198.879 104.842 198.845 104.757C198.811 104.671 198.795 104.58 198.796 104.488C198.804 103.994 198.808 103.502 198.808 103.023C198.808 102.104 198.794 101.184 198.764 100.286C198.76 100.194 198.774 100.101 198.806 100.014C198.838 99.9275 198.887 99.8479 198.95 99.78C199.013 99.7121 199.088 99.6573 199.172 99.6189C199.257 99.5804 199.348 99.5591 199.44 99.556C199.533 99.553 199.625 99.5683 199.711 99.6011C199.798 99.6339 199.877 99.6835 199.944 99.7471C200.011 99.8107 200.065 99.887 200.103 99.9716C200.141 100.056 200.161 100.147 200.163 100.24C200.193 101.153 200.208 102.089 200.208 103.023C200.208 103.509 200.204 104.01 200.196 104.51C200.193 104.694 200.118 104.869 199.987 104.997C199.856 105.126 199.68 105.198 199.497 105.199L199.496 105.199ZM199.205 96.7386C199.031 96.7384 198.863 96.6729 198.734 96.555C198.605 96.4371 198.525 96.2753 198.509 96.1014C198.381 94.684 198.21 93.286 198.001 91.9463C197.985 91.8549 197.988 91.7613 198.009 91.671C198.03 91.5806 198.069 91.4953 198.123 91.4201C198.177 91.3448 198.245 91.281 198.324 91.2325C198.403 91.1839 198.491 91.1515 198.583 91.1372C198.674 91.1229 198.768 91.1269 198.858 91.149C198.948 91.1711 199.033 91.2109 199.107 91.2661C199.182 91.3212 199.245 91.3906 199.292 91.4703C199.34 91.5499 199.371 91.6382 199.384 91.73C199.598 93.0996 199.773 94.5282 199.903 95.9756C199.912 96.0672 199.902 96.1595 199.874 96.2472C199.847 96.335 199.802 96.4165 199.744 96.4871C199.685 96.5576 199.612 96.6159 199.531 96.6586C199.45 96.7012 199.361 96.7275 199.269 96.7357C199.248 96.7371 199.227 96.7381 199.206 96.7381L199.205 96.7386ZM197.885 88.3851C197.727 88.385 197.574 88.3315 197.451 88.2334C197.327 88.1353 197.24 87.9984 197.204 87.8447C196.881 86.4666 196.504 85.1147 196.082 83.8291C196.051 83.7412 196.038 83.648 196.043 83.5549C196.049 83.4619 196.073 83.3709 196.114 83.2873C196.155 83.2037 196.213 83.1292 196.283 83.0681C196.354 83.007 196.436 82.9605 196.524 82.9315C196.613 82.9025 196.706 82.8914 196.799 82.899C196.892 82.9065 196.982 82.9326 197.065 82.9756C197.148 83.0185 197.221 83.0776 197.281 83.1493C197.34 83.221 197.385 83.3038 197.412 83.393C197.846 84.7177 198.235 86.1079 198.567 87.5252C198.591 87.628 198.592 87.7349 198.568 87.8379C198.545 87.941 198.499 88.0374 198.434 88.1201C198.368 88.2028 198.285 88.2696 198.19 88.3155C198.095 88.3614 197.99 88.3852 197.885 88.3851H197.885ZM195.239 80.3602C195.103 80.3603 194.97 80.3208 194.856 80.2465C194.743 80.1723 194.653 80.0665 194.598 79.9421C194.041 78.6741 193.415 77.4374 192.723 76.2375C192.634 76.077 192.612 75.8882 192.661 75.7117C192.711 75.5351 192.827 75.3849 192.986 75.2933C193.144 75.2016 193.333 75.1759 193.51 75.2215C193.688 75.2672 193.84 75.3806 193.935 75.5375C194.652 76.7815 195.301 78.0638 195.879 79.3785C195.926 79.485 195.946 79.6016 195.936 79.7176C195.927 79.8337 195.889 79.9455 195.825 80.0431C195.762 80.1406 195.675 80.2208 195.572 80.2763C195.47 80.3317 195.355 80.3608 195.239 80.3609V80.3602ZM191.002 73.0569C190.893 73.0571 190.786 73.0318 190.688 72.9832C190.591 72.9346 190.506 72.864 190.441 72.7769C189.613 71.6709 188.717 70.6172 187.758 69.6218C187.629 69.4881 187.559 69.3087 187.562 69.1231C187.566 68.9375 187.643 68.7608 187.776 68.632C187.91 68.5031 188.089 68.4327 188.275 68.4361C188.461 68.4395 188.637 68.5165 188.766 68.6502C189.765 69.6873 190.698 70.7852 191.562 71.9376C191.64 72.0416 191.687 72.1653 191.699 72.2948C191.711 72.4242 191.686 72.5544 191.628 72.6707C191.57 72.787 191.48 72.8847 191.37 72.9531C191.259 73.0214 191.132 73.0576 191.002 73.0576L191.002 73.0569ZM185.142 66.9793C184.982 66.9793 184.827 66.9244 184.703 66.8237C183.626 65.9549 182.498 65.1508 181.325 64.4157C181.168 64.317 181.057 64.1599 181.015 63.9789C180.974 63.798 181.006 63.6079 181.105 63.4507C181.203 63.2935 181.36 63.1818 181.541 63.1404C181.722 63.099 181.912 63.1312 182.07 63.2299C183.289 63.9945 184.462 64.8309 185.582 65.7345C185.695 65.8255 185.777 65.9492 185.816 66.0885C185.855 66.2279 185.851 66.376 185.802 66.5125C185.754 66.649 185.665 66.7671 185.546 66.8507C185.428 66.9342 185.287 66.979 185.142 66.979V66.9793ZM107.585 65.5702C107.419 65.5702 107.258 65.5112 107.131 65.4036C107.005 65.296 106.92 65.1468 106.894 64.9828C106.867 64.8187 106.899 64.6506 106.985 64.5083C107.071 64.366 107.205 64.259 107.362 64.2063C108.683 63.7635 110.047 63.3253 111.415 62.9043C111.504 62.8757 111.597 62.8649 111.689 62.8726C111.782 62.8803 111.872 62.9063 111.954 62.949C112.036 62.9918 112.109 63.0506 112.169 63.1218C112.228 63.1931 112.273 63.2754 112.3 63.3641C112.328 63.4528 112.337 63.546 112.328 63.6384C112.319 63.7307 112.292 63.8204 112.248 63.9021C112.204 63.9838 112.144 64.0559 112.072 64.1143C112 64.1727 111.917 64.2161 111.827 64.2421C110.469 64.6604 109.117 65.0951 107.807 65.5342C107.736 65.5582 107.66 65.5703 107.585 65.5702ZM115.687 63.0726C115.518 63.0726 115.355 63.0114 115.227 62.9004C115.1 62.7893 115.017 62.6359 114.994 62.4684C114.97 62.3009 115.009 62.1307 115.101 61.9892C115.194 61.8477 115.335 61.7445 115.497 61.6987C116.861 61.3136 118.244 60.9408 119.607 60.5906C119.786 60.5466 119.975 60.575 120.133 60.6697C120.291 60.7643 120.406 60.9176 120.452 61.0962C120.498 61.2748 120.471 61.4643 120.378 61.6235C120.285 61.7827 120.133 61.8988 119.955 61.9465C118.603 62.2939 117.231 62.6639 115.878 63.0461C115.816 63.0636 115.752 63.0725 115.687 63.0726H115.687ZM177.992 62.4767C177.887 62.4766 177.783 62.4527 177.688 62.4067C176.467 61.8163 175.177 61.2708 173.852 60.7848C173.679 60.72 173.539 60.5894 173.462 60.4214C173.385 60.2534 173.377 60.0617 173.441 59.8882C173.504 59.7146 173.634 59.5733 173.801 59.495C173.969 59.4168 174.161 59.408 174.335 59.4705C175.702 59.9721 177.035 60.536 178.298 61.1463C178.44 61.2154 178.555 61.3308 178.624 61.4737C178.692 61.6166 178.71 61.7785 178.675 61.9329C178.639 62.0874 178.553 62.2252 178.429 62.3239C178.305 62.4226 178.151 62.4763 177.992 62.4763L177.992 62.4767ZM123.898 60.9647C123.726 60.9647 123.56 60.9014 123.432 60.7869C123.304 60.6723 123.222 60.5145 123.203 60.3436C123.183 60.1727 123.228 60.0007 123.327 59.8603C123.426 59.7199 123.574 59.621 123.742 59.5825C125.131 59.2619 126.53 58.9578 127.902 58.6788C128.084 58.6418 128.273 58.6785 128.428 58.781C128.582 58.8835 128.69 59.0433 128.727 59.2252C128.764 59.4072 128.727 59.5963 128.625 59.7512C128.522 59.906 128.363 60.0138 128.181 60.0508C126.821 60.3276 125.434 60.6291 124.056 60.9468C124.005 60.9586 123.952 60.9644 123.899 60.9642L123.898 60.9647ZM170.056 59.5486C169.994 59.5486 169.933 59.5403 169.873 59.5241C168.563 59.1696 167.191 58.8552 165.796 58.5896C165.705 58.5734 165.618 58.5393 165.54 58.4892C165.462 58.4391 165.395 58.374 165.342 58.2977C165.289 58.2214 165.252 58.1355 165.233 58.0448C165.214 57.9541 165.213 57.8606 165.231 57.7695C165.248 57.6785 165.283 57.5918 165.334 57.5145C165.385 57.4372 165.451 57.3708 165.528 57.3192C165.605 57.2675 165.691 57.2317 165.782 57.2137C165.873 57.1957 165.967 57.1959 166.058 57.2144C167.488 57.4866 168.895 57.809 170.239 58.1727C170.403 58.2168 170.545 58.319 170.639 58.4603C170.734 58.6015 170.773 58.7721 170.751 58.9404C170.729 59.1087 170.646 59.2632 170.518 59.375C170.391 59.4869 170.227 59.5486 170.057 59.5486H170.056ZM132.205 59.2765C132.029 59.2764 131.861 59.2106 131.732 59.0921C131.602 58.9737 131.523 58.8111 131.507 58.6365C131.492 58.462 131.543 58.2881 131.65 58.1493C131.757 58.0105 131.912 57.9168 132.085 57.8868C133.496 57.6403 134.911 57.4146 136.291 57.2159C136.475 57.1895 136.662 57.2372 136.811 57.3484C136.959 57.4597 137.058 57.6255 137.084 57.8093C137.11 57.9931 137.063 58.1798 136.952 58.3285C136.84 58.4771 136.675 58.5755 136.491 58.6019C135.124 58.7986 133.723 59.0219 132.326 59.2662C132.286 59.2729 132.246 59.2761 132.205 59.2759L132.205 59.2765ZM140.591 58.0737C140.413 58.0736 140.24 58.0049 140.11 57.8818C139.981 57.7587 139.903 57.5905 139.893 57.4118C139.883 57.2331 139.942 57.0574 140.058 56.9209C140.174 56.7845 140.338 56.6975 140.515 56.6779C141.946 56.5197 143.374 56.3877 144.759 56.2859C144.945 56.2722 145.128 56.3327 145.268 56.4539C145.409 56.5752 145.495 56.7473 145.509 56.9324C145.523 57.1176 145.462 57.3006 145.341 57.4412C145.22 57.5818 145.048 57.6685 144.863 57.6821C143.494 57.7832 142.083 57.9136 140.669 58.0698C140.644 58.0723 140.618 58.0735 140.592 58.0732L140.591 58.0737ZM161.741 57.9523C161.712 57.9523 161.683 57.9505 161.655 57.9472C160.303 57.7821 158.897 57.6532 157.475 57.563C157.383 57.5575 157.293 57.534 157.21 57.4936C157.127 57.4533 157.053 57.397 156.992 57.328C156.931 57.259 156.884 57.1786 156.854 57.0914C156.824 57.0042 156.812 56.912 156.818 56.8201C156.824 56.7281 156.847 56.6382 156.888 56.5555C156.929 56.4728 156.985 56.3989 157.055 56.3381C157.124 56.2773 157.204 56.2308 157.292 56.2013C157.379 56.1717 157.471 56.1596 157.563 56.1658C159.012 56.2574 160.446 56.3898 161.825 56.5578C162.002 56.5792 162.164 56.6673 162.278 56.8043C162.393 56.9413 162.45 57.1168 162.439 57.2948C162.429 57.4729 162.35 57.6402 162.221 57.7624C162.091 57.8847 161.919 57.9528 161.741 57.9528V57.9523ZM149.043 57.4551C148.857 57.4581 148.678 57.3873 148.544 57.2581C148.411 57.129 148.334 56.9522 148.331 56.7665C148.328 56.5809 148.399 56.4016 148.528 56.2682C148.657 56.1348 148.834 56.0581 149.02 56.0551C150.094 56.0192 151.167 56.0009 152.209 56.0009C152.576 55.9979 152.931 56.003 153.291 56.0073C153.476 56.0084 153.654 56.0832 153.785 56.2153C153.915 56.3473 153.988 56.5258 153.987 56.7114C153.986 56.8971 153.911 57.0747 153.779 57.2052C153.647 57.3357 153.468 57.4084 153.282 57.4073H153.274C152.921 57.4031 152.569 57.401 152.215 57.401H152.209C151.182 57.401 150.125 57.4189 149.066 57.4544C149.059 57.4544 149.051 57.4545 149.043 57.4545L149.043 57.4551Z" fill="#5AB9C1"/>
<path d="M19.7847 201.948C19.6239 201.948 19.4679 201.893 19.343 201.792C19.2182 201.691 19.132 201.55 19.0989 201.392C19.0659 201.235 19.088 201.071 19.1617 200.928C19.2353 200.785 19.3559 200.672 19.5032 200.607C20.1522 200.323 20.8124 200.047 21.4658 199.789C21.5513 199.755 21.6426 199.739 21.7345 199.74C21.8265 199.742 21.9172 199.761 22.0015 199.798C22.0859 199.835 22.1622 199.887 22.2261 199.953C22.2901 200.019 22.3404 200.097 22.3742 200.183C22.4079 200.268 22.4246 200.36 22.4231 200.452C22.4216 200.544 22.402 200.634 22.3654 200.719C22.3289 200.803 22.2761 200.879 22.21 200.943C22.144 201.007 22.066 201.057 21.9805 201.091C21.3432 201.343 20.6988 201.612 20.0654 201.889C19.9769 201.928 19.8814 201.948 19.7847 201.948Z" fill="#5AB9C1"/>
<path d="M11.6739 202.659C12.7397 202.39 13.2132 200.624 12.7316 198.716C12.2499 196.808 10.9955 195.478 9.92973 195.747C8.86397 196.016 8.39045 197.782 8.8721 199.69C9.35375 201.598 10.6082 202.928 11.6739 202.659Z" fill="#B7EEE3"/>
<path d="M15.7135 212.811C16.7406 212.419 17.0047 210.611 16.3035 208.771C15.6022 206.932 14.2012 205.759 13.1741 206.15C12.147 206.542 11.8829 208.35 12.5842 210.189C13.2854 212.029 14.6865 213.202 15.7135 212.811Z" fill="#B7EEE3"/>
<path d="M12.1476 206.008C12.9605 206.008 13.6194 205.349 13.6194 204.536C13.6194 203.723 12.9605 203.064 12.1476 203.064C11.3347 203.064 10.6758 203.723 10.6758 204.536C10.6758 205.349 11.3347 206.008 12.1476 206.008Z" fill="#5AB9C1"/>
</svg>
