<svg width="20" height="20" viewBox="0 0 20 20" fill="none" xmlns="http://www.w3.org/2000/svg">
<path d="M14.8961 10.3914C14.8742 8.11344 16.7536 7.02016 16.8377 6.96531C15.781 5.41863 14.1319 5.20655 13.5469 5.18461C12.1464 5.04201 10.8118 6.01097 10.1025 6.01097C9.39312 6.01097 8.29618 5.20655 7.13342 5.22849C5.60502 5.25043 4.19728 6.11701 3.41114 7.48453C1.82424 10.2378 3.00527 14.3148 4.55196 16.5489C5.30885 17.6422 6.20834 18.8708 7.39303 18.8232C8.53385 18.7793 8.96165 18.0846 10.3401 18.0846C11.7186 18.0846 12.1062 18.8232 13.3092 18.7976C14.5341 18.7757 15.3129 17.6861 16.0625 16.5891C16.9291 15.3203 17.2874 14.0918 17.3094 14.0296C17.2838 14.0186 14.9217 13.1118 14.8961 10.3914Z" fill="#fff"/>
<path d="M12.6327 3.70735C13.2617 2.94681 13.6858 1.89009 13.5688 0.833374C12.6657 0.869939 11.5687 1.43303 10.9179 2.19358C10.3365 2.87002 9.82824 3.94502 9.96353 4.97615C10.9727 5.05659 12.0038 4.46424 12.6327 3.70735Z" fill="#fff"/>
</svg>
