<svg width="247" height="56" viewBox="0 0 247 56" fill="none" xmlns="http://www.w3.org/2000/svg">
<path d="M37.2671 29.0572C36.2605 31.0338 31.0855 34.4307 25.3421 34.4899C25.3421 34.4899 32.6724 33.259 35.8816 28.6548C35.5263 28.5483 35.1592 28.4299 34.8039 28.3116C30.5882 26.8912 28.1605 26.1456 25.1645 25.7195C21.6118 29.72 16.3303 30.0159 16.3303 30.0159C21.2921 28.5838 23.2816 26.3468 23.6961 25.5064C16.5079 24.6187 12.6592 25.7432 12.6592 25.7432C12.6592 25.7432 18.8408 23.4233 28.5158 25.0922C27.1303 22.4291 21.5408 20.2513 21.5408 20.2513C26.4316 20.6064 29.25 23.3878 30.6592 25.5775C32.1158 25.9444 32.9566 26.2403 34.9579 26.7966C36.2487 27.1635 37.2789 27.4002 38.4039 27.6014C37.8118 25.8023 35.5382 21.8491 32.4711 19.2334C32.4711 19.2334 36.9592 20.4288 40.2632 28.0512C49.6539 29.2703 52.4487 24.5951 53.1 20.5827C53.3842 18.3575 52.8513 15.9548 51.6671 13.5995C50.3408 10.9719 48.2447 8.54555 45.9947 6.66364C43.7092 4.78172 37.2553 0.0118444 27.7816 8.45527e-06C12.4342 -0.0118275 0 12.4041 0 27.6842C0 36.8453 4.46447 44.9647 11.3447 50.0068C16.1053 53.5576 22.0382 55.6526 28.4684 55.6526C33.6789 55.6526 38.5816 54.2678 42.7737 51.8532C42.8092 51.8295 44.6092 50.9063 44.5618 48.8469C44.5145 46.965 43.0342 45.4381 41.1395 45.4381C40.5237 45.4381 39.9316 45.6038 39.4224 45.8997C36.7224 47.3792 33.6908 48.3498 30.4224 48.6694C17.6684 49.9476 6.3 40.8576 5.04474 28.3707C3.80132 15.8838 13.1329 4.73438 25.9105 3.44426C40.1684 2.00028 48.375 13.2326 49.725 16.6413C50.2342 17.9433 50.6013 19.624 50.4829 21.0325C50.2224 24.3347 47.9132 24.1571 47.2974 24.0861C43.1053 23.6245 41.5539 18.8546 29.7237 15.4932C14.0566 11.0548 7.63816 25.7313 7.63816 25.7313C7.63816 25.7313 13.7724 38.4313 31.1329 38.0052C48.5053 37.5673 52.8868 26.5125 52.8868 26.5125C52.8868 26.5125 53.6803 25.3526 54 23.4352C51.2882 29.9212 44.5974 31.0101 37.2671 29.0572Z" fill="#00B998"/>
<path d="M170.93 42.48C168.023 42.48 165.397 41.8534 163.05 40.6C160.73 39.3467 158.903 37.6267 157.57 35.44C156.263 33.2267 155.61 30.7467 155.61 28C155.61 25.2534 156.263 22.7867 157.57 20.6C158.903 18.3867 160.73 16.6534 163.05 15.4C165.397 14.1467 168.023 13.52 170.93 13.52C173.837 13.52 176.45 14.1467 178.77 15.4C181.09 16.6534 182.917 18.3867 184.25 20.6C185.583 22.7867 186.25 25.2534 186.25 28C186.25 30.7467 185.583 33.2267 184.25 35.44C182.917 37.6267 181.09 39.3467 178.77 40.6C176.45 41.8534 173.837 42.48 170.93 42.48ZM170.93 36.96C172.583 36.96 174.077 36.5867 175.41 35.84C176.743 35.0667 177.783 34 178.53 32.64C179.303 31.28 179.69 29.7334 179.69 28C179.69 26.2667 179.303 24.72 178.53 23.36C177.783 22 176.743 20.9467 175.41 20.2C174.077 19.4267 172.583 19.04 170.93 19.04C169.277 19.04 167.783 19.4267 166.45 20.2C165.117 20.9467 164.063 22 163.29 23.36C162.543 24.72 162.17 26.2667 162.17 28C162.17 29.7334 162.543 31.28 163.29 32.64C164.063 34 165.117 35.0667 166.45 35.84C167.783 36.5867 169.277 36.96 170.93 36.96Z" fill="#00B998"/>
<path d="M207.36 20.16C210.027 20.16 212.173 20.96 213.8 22.56C215.453 24.16 216.28 26.5334 216.28 29.68V42H210.04V30.64C210.04 28.9334 209.667 27.6667 208.92 26.84C208.173 25.9867 207.093 25.56 205.68 25.56C204.107 25.56 202.853 26.0534 201.92 27.04C200.987 28 200.52 29.44 200.52 31.36V42H194.28V20.48H200.24V23C201.067 22.0934 202.093 21.4 203.32 20.92C204.547 20.4134 205.893 20.16 207.36 20.16Z" fill="#00B998"/>
<path d="M246.851 31.32C246.851 31.4 246.811 31.96 246.731 33H230.451C230.744 34.3334 231.437 35.3867 232.531 36.16C233.624 36.9334 234.984 37.32 236.611 37.32C237.731 37.32 238.717 37.16 239.571 36.84C240.451 36.4934 241.264 35.96 242.011 35.24L245.331 38.84C243.304 41.16 240.344 42.32 236.451 42.32C234.024 42.32 231.877 41.8534 230.011 40.92C228.144 39.96 226.704 38.64 225.691 36.96C224.677 35.28 224.171 33.3734 224.171 31.24C224.171 29.1334 224.664 27.24 225.651 25.56C226.664 23.8534 228.037 22.5334 229.771 21.6C231.531 20.64 233.491 20.16 235.651 20.16C237.757 20.16 239.664 20.6134 241.371 21.52C243.077 22.4267 244.411 23.7334 245.371 25.44C246.357 27.12 246.851 29.08 246.851 31.32ZM235.691 24.88C234.277 24.88 233.091 25.28 232.131 26.08C231.171 26.88 230.584 27.9734 230.371 29.36H240.971C240.757 28 240.171 26.92 239.211 26.12C238.251 25.2934 237.077 24.88 235.691 24.88Z" fill="#00B998"/>
<path d="M92.0001 36.8V42H70.3201V14H91.4801V19.2H76.7601V25.28H89.7601V30.32H76.7601V36.8H92.0001Z" fill="#296C9F"/>
<path d="M110.56 42.32C108.266 42.32 106.2 41.8533 104.36 40.92C102.546 39.96 101.12 38.64 100.08 36.96C99.0664 35.28 98.5598 33.3733 98.5598 31.24C98.5598 29.1067 99.0664 27.2 100.08 25.52C101.12 23.84 102.546 22.5333 104.36 21.6C106.2 20.64 108.266 20.16 110.56 20.16C112.826 20.16 114.8 20.64 116.48 21.6C118.186 22.5333 119.426 23.88 120.2 25.64L115.36 28.24C114.24 26.2667 112.626 25.28 110.52 25.28C108.893 25.28 107.546 25.8133 106.48 26.88C105.413 27.9467 104.88 29.4 104.88 31.24C104.88 33.08 105.413 34.5333 106.48 35.6C107.546 36.6667 108.893 37.2 110.52 37.2C112.653 37.2 114.266 36.2133 115.36 34.24L120.2 36.88C119.426 38.5867 118.186 39.92 116.48 40.88C114.8 41.84 112.826 42.32 110.56 42.32Z" fill="#296C9F"/>
<path d="M137.359 42.32C135.092 42.32 133.052 41.8533 131.239 40.92C129.452 39.96 128.052 38.64 127.039 36.96C126.026 35.28 125.519 33.3733 125.519 31.24C125.519 29.1067 126.026 27.2 127.039 25.52C128.052 23.84 129.452 22.5333 131.239 21.6C133.052 20.64 135.092 20.16 137.359 20.16C139.626 20.16 141.652 20.64 143.439 21.6C145.226 22.5333 146.626 23.84 147.639 25.52C148.652 27.2 149.159 29.1067 149.159 31.24C149.159 33.3733 148.652 35.28 147.639 36.96C146.626 38.64 145.226 39.96 143.439 40.92C141.652 41.8533 139.626 42.32 137.359 42.32ZM137.359 37.2C138.959 37.2 140.266 36.6667 141.279 35.6C142.319 34.5067 142.839 33.0533 142.839 31.24C142.839 29.4267 142.319 27.9867 141.279 26.92C140.266 25.8267 138.959 25.28 137.359 25.28C135.759 25.28 134.439 25.8267 133.399 26.92C132.359 27.9867 131.839 29.4267 131.839 31.24C131.839 33.0533 132.359 34.5067 133.399 35.6C134.439 36.6667 135.759 37.2 137.359 37.2Z" fill="#296C9F"/>
</svg>
