<?xml version="1.0" encoding="utf-8"?>
<!-- Generator: Adobe Illustrator 24.1.3, SVG Export Plug-In . SVG Version: 6.00 Build 0)  -->
<svg version="1.1" id="Layer_1" xmlns="http://www.w3.org/2000/svg" xmlns:xlink="http://www.w3.org/1999/xlink" x="0px" y="0px"
	 viewBox="0 0 1000 1000" style="enable-background:new 0 0 1000 1000;" xml:space="preserve">
<style type="text/css">
	.st0{fill:url(#SVGID_1_);}
	.st1{fill:#72BE44;}
	.st2{fill:#6D6E70;}
</style>
<g>
	<g>
		
			<linearGradient id="SVGID_1_" gradientUnits="userSpaceOnUse" x1="504.2137" y1="453.6327" x2="504.2137" y2="745.812" gradientTransform="matrix(1 0 0 -1 -37.4424 962.5566)">
			<stop  offset="0" style="stop-color:#00BFF2"/>
			<stop  offset="0.1179" style="stop-color:#04BFEC"/>
			<stop  offset="0.2779" style="stop-color:#0FBFDB"/>
			<stop  offset="0.4621" style="stop-color:#22BFBE"/>
			<stop  offset="0.6644" style="stop-color:#3CBE96"/>
			<stop  offset="0.8789" style="stop-color:#5DBE64"/>
			<stop  offset="1" style="stop-color:#72BE44"/>
		</linearGradient>
		<path class="st0" d="M534.1,384.2c-6.7,13-40.5,35.3-78.2,35.6c0,0,48.1-8.1,69.1-38.3c-2.4-0.8-4.7-1.5-7.1-2.3
			c-27.6-9.3-43.6-14.2-63.2-17c-23.3,26.3-57.9,28.2-57.9,28.2c32.5-9.4,45.6-24.1,48.3-29.6c-47.1-5.8-72.4,1.5-72.4,1.5
			s40.6-15.2,103.9-4.3c-9.1-17.5-45.7-31.7-45.7-31.7c32.1,2.3,50.6,20.6,59.8,35c9.6,2.4,15,4.4,28.2,8c8.4,2.4,15.2,3.9,22.6,5.3
			c-3.9-11.8-18.8-37.7-38.9-54.9c0,0,29.4,7.9,51.1,57.8c61.6,8,79.9-22.7,84.3-49c1.8-14.6-1.6-30.4-9.4-45.8
			c-8.7-17.2-22.4-33.2-37.2-45.5c-14.9-12.5-57.3-43.8-119.4-43.9c-100.6-0.1-182.2,81.4-182.2,181.6c0,60.1,29.3,113.4,74.4,146.5
			c31.2,23.3,70.1,37.1,112.3,37.1c34.2,0,66.3-9.2,93.8-25c0,0,0,0,0.1,0c0.2-0.2,12-6.2,11.7-19.7c-0.3-12.4-10-22.4-22.4-22.4
			c-4.1,0-7.9,1.1-11.3,3c-17.7,9.7-37.6,16.1-59,18.2c-83.8,8.4-158.3-51.2-166.5-133.2c-8.2-81.9,53-155.1,136.8-163.5
			c93.5-9.5,147.3,64.2,156.1,86.6c3.4,8.5,5.7,19.6,5,28.8c-1.7,21.7-16.8,20.5-20.9,20.1c-27.5-3.1-37.7-34.3-115.2-56.3
			c-102.8-29.2-144.9,67-144.9,67s40.2,83.3,154.1,80.6c113.9-2.9,142.6-75.4,142.6-75.4s5.2-7.6,7.3-20.2
			C626.1,389.9,582.2,397,534.1,384.2z"/>
		<g>
			<path class="st1" d="M534.1,384.2c-6.7,13-40.5,35.3-78.2,35.6c0,0,48.1-8.1,69.1-38.3c-2.4-0.8-4.7-1.5-7.1-2.3
				c-27.6-9.3-43.6-14.2-63.2-17c-23.3,26.3-57.9,28.2-57.9,28.2c32.5-9.4,45.6-24.1,48.3-29.6c-47.1-5.8-72.4,1.5-72.4,1.5
				s40.6-15.2,103.9-4.3c-9.1-17.5-45.7-31.7-45.7-31.7c32.1,2.3,50.6,20.6,59.8,35c9.6,2.4,15,4.4,28.2,8
				c8.4,2.4,15.2,3.9,22.6,5.3c-3.9-11.8-18.8-37.7-38.9-54.9c0,0,29.4,7.9,51.1,57.8c61.6,8,79.9-22.7,84.3-49
				c1.8-14.6-1.6-30.4-9.4-45.8c-8.7-17.2-22.4-33.2-37.2-45.5c-14.9-12.5-57.3-43.8-119.4-43.9c-0.4,0-0.9,0-1.3,0v21.9
				c86.7-2.9,136.7,65.8,145.2,87.3c3.4,8.5,5.7,19.6,5,28.8c-1.7,21.7-16.8,20.5-20.9,20.1c-27.5-3.1-37.7-34.3-115.2-56.3
				c-102.8-29.2-144.9,67-144.9,67s40.2,83.3,154.1,80.6c113.9-2.9,142.6-75.4,142.6-75.4s5.2-7.6,7.3-20.2
				C626.1,389.9,582.2,397,534.1,384.2z"/>
		</g>
	</g>
	<g>
		<path class="st2" d="M288.6,754.5c-1.6,0-2.8,0.9-3.6,1.8c-9.3,9.3-21.4,16.6-36.4,16.6c-26.6,0-47.8-22.3-47.8-50.2v-0.4
			c0-27.7,20.5-49.8,46.8-49.8c15.7,0,26.6,7.5,36,16.4c0.9,0.9,2.5,1.3,3.8,1.3c3.2,0,5.7-2.5,5.7-5.6c0-1.6-0.7-3.2-1.6-4.1
			c-10.4-9.8-23.6-18.4-43.6-18.4c-33.2,0-59.1,28.2-59.1,60.7v0.4c0,32.6,25.7,60.3,59.1,60.3c19.8,0,33.2-8.1,44.8-20
			c0.9-0.9,1.4-2.2,1.4-3.4C294,757.2,291.2,754.5,288.6,754.5z"/>
		<path class="st2" d="M117.2,661.9c-32.9,0-57.7,26.9-57.7,60.5v0.5c0,36.2,27.7,60.5,59.7,60.5c22,0,35.6-7.5,47.5-18.8
			c1.4-1.4,1.9-2.8,1.9-3.9c0-2.9-2.6-5.2-5.7-5.2c-1.7,0-2.9,0.7-3.8,1.6c-9.8,9.1-22,15.9-39.4,15.9c-23.8,0-45.6-16.8-47.7-45.7
			h95.5c2.8,0,5.7-2.4,5.7-5.2C173.1,688.8,151.4,661.9,117.2,661.9z M71.9,717.2c2.2-25.7,20.7-45.1,44.9-45.1
			c28,0,42,21.6,43.7,45.1H71.9z"/>
		<path class="st2" d="M367,661.9c-34.6,0-59.8,28.2-59.8,60.7v0.4c0,32.6,25,60.3,59.3,60.3c34.6,0,59.8-28.2,59.8-60.7v-0.4
			C426.3,689.7,401.3,661.9,367,661.9z M414.3,723c0,27.3-19.8,49.8-47.3,49.8c-26.8,0-47.8-22.3-47.8-50.2v-0.4
			c0-27.3,19.8-49.8,47.3-49.8c26.8,0,47.7,22.3,47.7,50.2L414.3,723L414.3,723z"/>
		<path class="st2" d="M924.8,755.2c1.4-1.2,2.1-3.1,2.1-5.7c0-2.8-0.8-4.8-2.4-6.1c-1.7-1.3-4.2-2.1-7.6-2.1h-11.1V770h4.5v-12.3
			h4.7l7.8,12.3h4.8l-8.2-12.6C921.5,757.1,923.3,756.4,924.8,755.2z M914.9,754h-4.7v-9.1h5.9c0.7,0,1.5,0,2.2,0.1
			c0.8,0.2,1.4,0.4,2,0.7c0.6,0.3,1.1,0.7,1.4,1.3c0.4,0.6,0.6,1.3,0.6,2.3c0,1-0.2,2-0.6,2.6c-0.4,0.7-1,1.2-1.7,1.4
			c-0.7,0.3-1.5,0.5-2.4,0.6C916.8,754,915.9,754,914.9,754z"/>
		<path class="st2" d="M508.2,661.9c-22.9,0-37.7,13.4-47.7,28.7v-21.2c0-3.4-2.5-5.7-5.7-5.7c-3.2,0-5.5,2.3-5.5,5.7v131.3
			c0,3.4,2.5,5.7,5.7,5.7c3.2,0,5.5-2.3,5.5-5.7v-45.1c9.6,14.5,24.6,27.7,47.7,27.7c28,0,56.4-22.9,56.4-60.7v-0.4
			C564.6,684.4,536.2,661.9,508.2,661.9z M552.6,723c0,31.2-20.2,49.6-45.5,49.6c-24.1,0-47.3-20-47.3-49.8v-0.5
			c0-29.6,23.2-49.8,47.3-49.8c24.3,0,45.5,19.5,45.5,50V723z"/>
		<path class="st2" d="M827,716l42.5-43.1c1.4-1.4,1.8-2.3,1.8-3.9c0-3-2.3-5.2-5.2-5.2c-1.6,0-2.7,0.5-3.9,1.6L791.1,739V619.4
			c0-3.2-2.5-5.6-5.7-5.6c-3.2,0-5.4,2.5-5.4,5.6v156.5c0,3.4,2.6,5.7,5.7,5.7c3.2,0,5.5-2.3,5.5-5.7v-23.4l28.2-28.4l44.6,55.1
			c1.6,1.8,2.7,2.5,4.7,2.5c3.2,0,5.5-2.1,5.5-5.2c0-1.6-0.4-2.7-1.6-4L827,716z"/>
		<path class="st2" d="M938,745.9c-1.3-3-3.1-5.6-5.3-7.7c-2.2-2.3-4.8-4-7.8-5.2c-3-1.2-6.1-1.9-9.5-1.9c-3.4,0-6.6,0.7-9.6,1.9
			c-3,1.2-5.6,3-7.8,5.2c-2.3,2.1-4.1,4.8-5.4,7.7c-1.3,3-2,6.2-2,9.7c0,3.5,0.7,6.8,2,9.8c1.3,3,3.1,5.6,5.4,7.8
			c2.2,2.2,4.8,4,7.8,5.1c3,1.3,6.2,1.8,9.6,1.8c3.4,0,6.5-0.6,9.5-1.8c3-1.2,5.6-3,7.8-5.1c2.2-2.3,4-4.8,5.3-7.8
			c1.3-3,2-6.3,2-9.8C940,752.1,939.3,748.9,938,745.9z M934,764c-1.1,2.5-2.5,4.8-4.3,6.7c-1.8,1.8-3.9,3.3-6.4,4.4
			c-2.4,1.1-5.1,1.6-7.9,1.6c-2.9,0-5.6-0.5-8.1-1.6c-2.4-1.1-4.6-2.6-6.4-4.4c-1.8-1.9-3.2-4.2-4.3-6.7c-1-2.6-1.5-5.4-1.5-8.4
			c0-3,0.5-5.7,1.5-8.3c1.1-2.5,2.4-4.7,4.3-6.6c1.8-1.9,4-3.3,6.4-4.4c2.5-1.1,5.2-1.6,8.1-1.6c2.8,0,5.5,0.5,7.9,1.6
			c2.5,1.1,4.6,2.6,6.4,4.4c1.8,1.9,3.2,4.1,4.3,6.6c1.1,2.6,1.6,5.3,1.6,8.3C935.5,758.6,935,761.4,934,764z"/>
		<path class="st2" d="M758.1,662.8c-16.4,0-36.6,12.3-46.6,34.8v-28.2c0-3.4-2.5-5.7-5.7-5.7c-3.2,0-5.4,2.5-5.4,5.7v106.4
			c0,3.4,2.4,5.7,5.6,5.7c3.2,0,5.4-2.5,5.4-5.7v-42.7c0-37.3,22-55.7,46.6-58c3.6-0.2,5.9-3,5.9-6.1
			C764,665.5,761.5,662.8,758.1,662.8z"/>
		<path class="st2" d="M630.1,662.8c-14.8,0-26.4,3.4-38.2,8.6c-1.2,0.5-3.2,2.3-3.2,5c0,2.8,2.5,5.2,5.2,5.2c0.7,0,1.6-0.2,2.5-0.7
			c9.6-4.6,20.2-7.7,33-7.7c23.9,0,38.2,12.1,38.2,35.5v5c-11.1-2.9-22.3-5-38.4-5c-30,0-50.7,13.6-50.7,37.8v0.5
			c0,24.1,23.2,36.3,44.8,36.3c22.1,0,36.4-10.9,44.3-22v14.5c0,3.4,2.3,5.7,5.5,5.7c3.2,0,5.5-2.3,5.5-5.7v-67.5
			c0-14.4-4.1-25-11.8-32.7C658.3,667.2,645.8,662.8,630.1,662.8z M667.9,737.1c0,21.2-20.3,35.7-43.9,35.7
			c-17.8,0-33.7-9.8-33.7-26.5v-0.5c0-16.2,13.7-27,38.2-27c16.6,0,29.6,2.7,39.4,5.2L667.9,737.1L667.9,737.1z"/>
	</g>
</g>
</svg>
