<?xml version="1.0" encoding="utf-8"?>
<!-- Generator: Adobe Illustrator 24.1.3, SVG Export Plug-In . SVG Version: 6.00 Build 0)  -->
<svg version="1.1" id="Layer_1" xmlns="http://www.w3.org/2000/svg" xmlns:xlink="http://www.w3.org/1999/xlink" x="0px" y="0px"
	 viewBox="0 0 1000 1000" style="enable-background:new 0 0 1000 1000;" xml:space="preserve">
<style type="text/css">
	.st0{fill:#5F9152;}
	.st1{fill:#79AD37;}
</style>
<g>
	<path class="st0" d="M540.44,392.41c-2.31-1.48-3.73-2.34-5.1-3.27c-10.19-6.95-20.38-13.88-30.54-20.88
		c-3.85-2.65-8.98-1.91-11.35,1.78c-2.52,3.92-1.01,8.74,3.44,11.09c13.27,6.99,26.5,14.05,39.82,20.95
		c2.65,1.37,3.52,3.11,3.46,6.07c-0.19,10.34,0.01,20.68-0.11,31.03c-0.09,8.59-0.34,17.18-0.64,25.76
		c-0.36,10.5-1.93,33.96-2.7,34.37c-10.19,5.46-20.46,10.79-30.73,16.12c-4.94,2.57-9.67,1.1-14.17-1.11
		c-7.51-3.68-14.85-7.7-22.36-11.39c-4.03-1.98-4.09-25.86-4.5-34.42c-0.66-13.7-1.39-27.39-1.91-41.09
		c-0.38-9.98-0.41-19.98-0.71-29.97c-0.06-2.02,0.63-3.14,2.42-4.01c5.76-2.83,11.46-5.8,17.18-8.73c4.19-2.15,5.55-5.8,3.44-9.2
		c-2.07-3.34-6.21-3.85-9.85-1.27c-4.17,2.97-8.37,5.89-13.17,9.26c0.25-3.93,0.4-7.17,0.69-10.41c0.65-7.18,1.96-14.26,8.23-18.8
		c8.84-6.4,17.63-12.97,27.05-18.44c11.47-6.65,23.58-12.2,35.38-18.29c3.4-1.75,5.33-5.34,4.95-8.68c-0.43-3.78-3.19-7.33-7.1-7.68
		c-2.42-0.21-5.34,0.63-7.42,1.97c-5.21,3.35-10.07,7.25-15.72,11.4c-0.49-3.43-1.11-6.35-1.29-9.31
		c-0.21-3.43-0.21-6.89-0.02-10.33c0.3-5.63,3.86-9.14,8.4-11.74c9.21-5.25,18.52-10.31,27.72-15.58c1.27-0.73,2.73-2.01,3.03-3.29
		c0.3-1.28-0.4-3.77-1.3-4.13c-1.53-0.61-3.95-0.58-5.31,0.27c-6.65,4.14-13.02,8.72-19.59,12.98c-3.41,2.21-7.07,4.03-10.54,6.15
		c-5.02,3.06-9.93,2.7-14.74-0.37c-9.31-5.94-18.58-11.93-27.87-17.91c-0.72-0.46-1.37-1.13-2.15-1.4
		c-2.11-0.73-4.29-1.07-5.74,1.19c-1.25,1.94-0.36,4.86,1.84,6.03c5.78,3.07,11.69,5.88,17.37,9.11c4.84,2.75,9.46,5.88,14.12,8.94
		c3.44,2.26,5.6,5.6,5.59,9.65c-0.02,6.63-0.93,20.32-0.94,20.58c-0.23,6.93-3.73,9.95-8.91,12.79c-7.23,3.97-14.3,8.23-21.48,12.28
		c-8.69,4.9-17.3,5.51-26.59,0.88c-15.1-7.53-29.03-16.8-42.93-26.55c27.88-45.08,60.13-85.84,102.91-118.01
		c6.84,5.55,13.75,10.51,19.89,16.3c10.4,9.81,20.89,19.65,30.28,30.4c11.29,12.91,21.86,26.5,32.03,40.32
		c14.7,19.97,27.3,41.3,38.33,63.5c4.81,9.68,8.86,19.72,13.35,29.56c0.78,1.72,0.5,2.65-1.06,3.69
		c-14.59,9.63-29.1,19.35-44.84,27.12c-7.17,3.54-13.83,3.74-20.77-0.07c-4.79-2.63-9.55-5.35-14.53-7.56
		c-3.82-1.7-3.85-4.56-3.66-7.88c0.29-5.14,0.41-10.28,0.67-15.42c0.14-2.67-0.05-5.5,0.82-7.94c0.73-2.06,2.43-4.21,4.3-5.35
		c9.41-5.75,19.02-11.18,28.57-16.7c0.93-0.54,1.94-0.93,2.88-1.46c2.69-1.51,3.49-3.64,2.24-5.8c-1.41-2.44-3.96-2.89-6.54-1.18
		c-7.14,4.76-14.2,9.63-21.44,14.24c-3.61,2.3-7.52,4.12-11.29,6.17c-2.83,1.54-5.77,1.75-8.55,0.12
		c-8.66-5.1-17.27-10.3-25.86-15.52c-2.2-1.34-4.27-2.88-6.36-4.39c-3.28-2.37-5.62-2.34-7.16,0.15c-1.66,2.67-0.64,4.83,3.1,6.8
		c6.92,3.65,13.9,7.18,20.68,11.08c3.99,2.29,7.72,5.05,11.37,7.87c1.27,0.99,2.63,2.72,2.75,4.2
		C539.82,376.49,540.03,383.96,540.44,392.41z M484.55,490.95c-0.17,5.1,2.85,12.21,6.63,15.61c5.78,5.22,13.43,5,18.08-1.22
		c2.35-3.14,3.89-7.15,4.83-11.01c2.2-8.99-3.91-16.81-13.55-18.06C492.74,475.26,484.83,482.52,484.55,490.95z M465.73,321.45
		c0.1-6.31-4.53-11.93-10.97-13.32c-6.4-1.38-13.02,2.16-15.47,8.26c-2.38,5.93,0.02,14.93,5.18,19.4
		c5.21,4.51,11.77,4.16,16.33-1.02C464.12,331,465.53,326.43,465.73,321.45z M576.82,379.1c-5.63,0.05-10.69,4.43-11.45,9.92
		c-0.98,7.06,3.6,14.94,9.66,16.39c1.3,0.31,2.8,0.34,4.09,0.04c6.18-1.47,8.19-6.38,9.37-11.84
		C590.16,385.89,584.61,379.03,576.82,379.1z M496.13,272.03c-0.02,3.96,3.03,7.83,6.18,7.82c3.17,0,6.14-3.71,6.26-7.81
		c0.1-3.42-2.76-6.14-6.43-6.11C498.58,265.96,496.15,268.43,496.13,272.03z M550.87,349.95c0.01-3.06-3.09-6.17-6.25-6.26
		c-3.24-0.09-6.34,3.02-6.39,6.41c-0.05,3.85,3.11,7.54,6.42,7.52C548,357.6,550.86,354.07,550.87,349.95z"/>
	<path class="st0" d="M831.41,769.52c1.47-2.47,2.66-4.31,3.7-6.23c10.5-19.39,20.96-38.81,31.47-58.2
		c12.25-22.59,24.54-45.15,36.8-67.73c0.89-1.64,1.98-2.5,4.04-2.44c5.6,0.16,11.21,0.14,16.81,0.01c2.29-0.05,3.23,0.47,3.23,3.01
		c-0.07,53.44-0.07,106.87,0,160.31c0,2.5-0.87,3.11-3.2,3.05c-5.17-0.14-10.35-0.24-15.51,0.03c-3.2,0.16-4.2-0.66-4.19-4.06
		c0.14-36.2,0.09-72.4,0.07-108.6c0-1.33-0.14-2.66-0.22-3.99c-0.28-0.08-0.57-0.17-0.85-0.25c-0.79,1.15-1.69,2.25-2.35,3.47
		c-10.7,19.77-21.35,39.58-32.05,59.35c-9.43,17.42-18.9,34.82-28.46,52.18c-0.49,0.88-1.92,1.69-2.95,1.74
		c-4.08,0.2-8.19,0.22-12.28-0.01c-1.12-0.06-2.68-0.9-3.2-1.85c-8.82-16.03-17.51-32.14-26.23-48.23
		c-11.57-21.37-23.14-42.75-34.73-64.12c-0.44-0.8-1.03-1.52-2.37-2.15c-0.1,1.28-0.28,2.56-0.28,3.83
		c-0.02,36.09-0.01,72.18-0.01,108.27c0,4.33,0,4.33-4.4,4.33c-4.96,0-9.92-0.18-14.87,0.07c-2.97,0.15-3.57-0.95-3.55-3.7
		c0.12-16.16,0.06-32.32,0.06-48.48c0-36.74,0.03-73.48-0.06-110.21c-0.01-3.01,0.63-4.2,3.88-4.03c5.27,0.27,10.56,0.14,15.84,0.04
		c1.93-0.04,3.04,0.47,4.02,2.31c14.58,27.17,29.26,54.29,43.93,81.41c8.4,15.54,16.82,31.06,25.25,46.59
		C829.4,766.45,830.2,767.59,831.41,769.52z"/>
	<path class="st0" d="M347.59,446.49c11.88,6.92,23.57,13.42,34.96,20.43c24.46,15.05,48.88,30.18,73.08,45.64
		c7.47,4.77,14.17,10.74,21.26,16.12c5.22,3.97,6.79,9.66,7.58,15.74c2.53,19.34,1.96,59.27,1.94,60.62
		c-7-1.91-14.08-3.46-20.66-5.71c-21.19-7.25-40.24-18.42-57.73-32.36c-16.42-13.08-30.82-28-42.37-45.59
		c-9.39-14.3-16.47-29.67-18.73-46.69C345.79,466.18,347.16,447.55,347.59,446.49z"/>
	<path class="st0" d="M652.69,446.38c0.43,4.46,1.02,8.46,1.16,12.46c0.39,11.12-1.37,21.92-4.91,32.47
		c-5.57,16.58-14.44,31.27-25.51,44.69c-20.06,24.29-44.34,43.18-72.82,56.67c-10.57,5-35.12,12.3-36.5,12.3c0-5.26,0-11.46,0-16.64
		c0-7-0.33-14.02,0.09-21c0.55-9.16,1.54-18.3,2.64-27.42c0.83-6.89,5.98-11,10.92-14.94c22.28-17.75,46.67-32.35,70.96-47.07
		c16.95-10.27,34.14-20.14,51.22-30.18C650.58,447.35,651.27,447.07,652.69,446.38z"/>
	<path class="st0" d="M600.23,733.37c0,1.83,0,3.11,0,4.39c0,20.04-0.05,40.08,0.06,60.12c0.01,2.73-0.84,3.51-3.49,3.42
		c-5.38-0.18-10.78-0.15-16.16-0.01c-2.29,0.06-3.23-0.48-3.23-3.02c0.07-53.44,0.06-106.89,0.01-160.33c0-2.17,0.54-3.03,2.88-3.02
		c28.56,0.07,57.12-0.24,85.67,0.18c11.62,0.17,23.17,2,34.02,6.84c13.7,6.12,22.2,16.25,25.1,31.13
		c1.54,7.91,1.63,15.69-0.39,23.48c-2.55,9.82-8.51,17.29-16.63,22.97c-10.55,7.38-22.51,11.11-35.22,12.55
		c-20.37,2.3-40.82,0.94-61.24,1.29C607.97,733.42,604.33,733.37,600.23,733.37z M634.31,712.47c9.69,0,19.39,0.18,29.07-0.05
		c9.54-0.22,18.79-1.84,27.17-6.89c9.11-5.49,13.35-13.41,12.32-24.04c-0.96-9.82-5.93-16.86-14.87-21.04
		c-7.04-3.28-14.58-4.54-22.24-4.59c-20.67-0.15-41.35-0.01-62.02-0.1c-2.61-0.01-3.55,0.68-3.53,3.42
		c0.11,16.58,0.12,33.16-0.01,49.74c-0.02,2.94,1.02,3.64,3.75,3.6C614.06,712.4,624.18,712.47,634.31,712.47z"/>
	<path class="st1" d="M560.24,715.02c-0.38,21.79-3.9,39.16-14.67,54.39c-11.37,16.06-27.01,25.84-45.99,30.46
		c-10.69,2.61-21.58,3.77-32.55,3.2c-16.77-0.87-32.96-4.07-47.53-13.15c-18.17-11.34-29.11-27.72-33.24-48.49
		c-1.64-8.25-2.7-16.8-2.54-25.18c0.33-17.28,3.93-33.87,14.35-48.28c11.32-15.66,27.03-24.6,45.48-28.9
		c6.73-1.57,13.74-2.04,20.65-2.71c17.16-1.67,33.87,0.58,49.77,7.17c24.37,10.09,39.2,28.3,44.11,54.27
		C559.38,704.59,559.83,711.56,560.24,715.02z M471.89,792.81c7.56-0.89,15.25-1.16,22.65-2.78c25.13-5.49,42.47-20.15,50.24-45.03
		c4.51-14.42,4.9-29.25,2.22-44.04c-3.92-21.68-15.42-38.12-35.94-46.86c-24.39-10.39-49.54-10.41-74.34-1.65
		c-19.62,6.93-32.55,21.03-38.17,41.21c-4.81,17.28-4.61,34.71,0.78,51.83c6.2,19.68,19.21,33.36,38.33,41.05
		C448.59,790.94,460.04,792.67,471.89,792.81z"/>
	<path class="st1" d="M84.5,709.38c1.71,0,3.11,0,4.5,0c30.82,0,61.64,0,92.46,0c4.23,0,4.26,0.01,4.24,4.3
		c-0.03,6.79,0.72,6.04-6.05,6.04c-30.28,0.02-60.56,0.01-90.84,0.01c-4.62,0-4.62,0-4.62,4.76c0,20.69,0,41.37,0,62.06
		c0,1.27,0,2.54,0,4.28c1.7,0,3.05,0,4.41,0c35.56,0,71.12,0,106.68,0c4.65,0,4.66,0,4.65,4.54c-0.02,6.34,0.66,5.8-5.64,5.8
		c-39.12,0.01-78.24,0-117.35,0c-4.38,0-4.39-0.01-4.39-4.48c0-52.47,0-104.94,0-157.42c0-4.25,0.01-4.25,4.29-4.25
		c39.44,0,78.88,0.04,118.32-0.07c3.26-0.01,4.32,0.87,4.19,4.17c-0.31,7.93,0.94,6.87-6.9,6.88c-34.48,0.03-68.97,0.01-103.45,0.01
		c-1.39,0-2.79,0-4.5,0C84.5,667.13,84.5,688.04,84.5,709.38z"/>
	<path class="st1" d="M370.04,664.75c-2.91,1.83-5.47,3.58-8.19,5.03c-0.6,0.32-2.18-0.11-2.62-0.71
		c-10.93-14.6-26.11-21.81-43.63-24.07c-18.65-2.4-37.2-1.56-54.54,6.82c-21.48,10.38-34.13,27.53-37.89,51.13
		c-2.72,17.09-1.83,33.94,5.4,49.83c9.7,21.33,26.71,33.93,49.61,37.92c16.64,2.9,33.37,2.77,49.57-3.12
		c11.35-4.13,21.03-10.72,28.61-20.2c1.25-1.57,2.25-2.4,4.17-0.79c1.63,1.37,3.54,2.45,5.44,3.45c1.97,1.03,1.72,1.95,0.46,3.46
		c-13.97,16.57-31.88,25.55-53.23,28.44c-17.32,2.35-34.3,1.32-50.77-4.45c-26.38-9.24-43.19-27.58-49.36-54.87
		c-1.99-8.8-2.83-18.09-2.61-27.11c0.49-20.14,6.16-38.78,19.82-54.2c10.93-12.33,24.58-20.58,40.64-24.18
		c8.31-1.86,16.91-2.61,25.43-3.32c13.28-1.11,26.28,0.74,38.86,5.12C349.26,643.82,360.82,652.22,370.04,664.75z"/>
	<path class="st0" d="M365.04,379.13c7.11-17.9,15.29-35.03,25-51.98c5.53,2.89,11.06,5.43,16.23,8.55
		c7.89,4.76,15.67,9.73,23.24,14.98c7.47,5.17,12.37,11.93,12.39,21.64c0.02,7.05,0.85,14.09,1.11,21.14
		c0.04,1.18-0.62,2.99-1.53,3.49c-6.55,3.64-13.21,7.1-19.92,10.43c-3.09,1.53-6.37,1.32-9.6-0.02
		c-12.46-5.18-23.57-12.7-34.78-20.05C373.24,384.73,369.36,382.04,365.04,379.13z M426.15,393.07c0.06-5.38-3.72-9.68-8.32-10.1
		c-5.4-0.49-9.83,2.56-10.81,7.44c-1.17,5.84,2.96,12.85,8.21,13.96c4.75,1.01,9.05-2.78,10.61-9.38
		C426.04,394.17,426.11,393.31,426.15,393.07z"/>
	<path class="st0" d="M585.08,467.93c0.9-13.23,1.73-26.46,2.72-39.68c0.41-5.42,4.72-8.41,8.4-11.32
		c12.9-10.22,27.34-18.02,41.85-25.66c0.26-0.14,0.62-0.08,1.49-0.17c2.38,7.96,4.85,15.97,7.17,24.02c1,3.47,3.14,7.55,2.11,10.4
		c-1.02,2.84-5.25,4.64-8.24,6.64c-17.5,11.76-35.05,23.44-52.59,35.15c-0.52,0.35-1.08,0.63-1.63,0.94
		C585.94,468.15,585.51,468.04,585.08,467.93z"/>
	<path class="st0" d="M360.65,389.05c14.85,7.82,28.84,15.02,41.33,24.73c4.21,3.27,7.04,7.34,7.42,12.9
		c0.87,12.83,1.15,25.66,0.19,38.89c-1.11-0.47-38.5-24.95-56.6-36.84c-2.14-1.4-2.71-2.68-1.95-5.27
		C354.34,412.22,357.37,400.9,360.65,389.05z"/>
	<path class="st0" d="M551.72,490.49c-0.06-0.95-0.53-17.5-0.74-25.44c-0.24-9.12-0.53-18.24-0.64-27.36
		c-0.11-8.9-0.02-17.8-0.02-27.41c4.09,3.32,8.13,6.66,12.23,9.91c4.66,3.7,5.63,9.02,5.91,14.37c0.49,9.22,0.54,18.46,0.71,27.69
		c0.08,4.63,0.25,9.28-0.11,13.88c-0.14,1.73-1.25,3.94-2.63,4.93C561.87,484.32,556.63,487.42,551.72,490.49z"/>
	<path class="st0" d="M439.64,485.05c-5.28-3.33-9.74-6.05-14.08-8.96c-0.71-0.48-1.24-1.75-1.26-2.67
		c-0.3-11.93-0.63-23.85-0.63-35.78c0-4.68,0.81-9.36,1.28-14.04c0.39-3.85,2.9-6.42,5.65-8.67c3.77-3.08,8.99-6.85,12.88-9.78
		C443.84,405.34,440.89,458.42,439.64,485.05z"/>
	<path class="st0" d="M486.16,604.97"/>
</g>
</svg>
