<svg width="38" height="39" viewBox="0 0 38 39" fill="none" xmlns="http://www.w3.org/2000/svg">
<path d="M26.145 20.3626C25.4388 21.7478 21.8082 24.1282 17.7789 24.1697C17.7789 24.1697 22.9215 23.3071 25.1729 20.0806C24.9237 20.006 24.6662 19.923 24.4169 19.8401C21.4593 18.8447 19.7562 18.3222 17.6543 18.0236C15.1619 20.8271 11.4566 21.0345 11.4566 21.0345C14.9376 20.0308 16.3333 18.4632 16.6241 17.8743C11.5812 17.2522 8.88114 18.0402 8.88114 18.0402C8.88114 18.0402 13.2179 16.4145 20.0054 17.584C19.0334 15.7178 15.1121 14.1916 15.1121 14.1916C18.5432 14.4405 20.5205 16.3896 21.5092 17.9241C22.531 18.1812 23.1209 18.3886 24.5249 18.7784C25.4305 19.0355 26.1533 19.2014 26.9425 19.3424C26.5271 18.0817 24.932 15.3114 22.7803 13.4783C22.7803 13.4783 25.929 14.316 28.2469 19.6576C34.835 20.5119 36.7957 17.2356 37.2526 14.4239C37.452 12.8645 37.0782 11.1808 36.2474 9.5302C35.3169 7.68886 33.8464 5.98852 32.2679 4.66972C30.6645 3.35092 26.1367 0.00830027 19.4903 5.92525e-06C8.72329 -0.00828842 0 8.69248 0 19.4005C0 25.8203 3.13208 31.5102 7.95897 35.0436C11.2987 37.5319 15.461 39 19.9722 39C23.6277 39 27.0671 38.0296 30.0081 36.3375C30.0331 36.3209 31.2959 35.674 31.2626 34.2308C31.2294 32.912 30.1909 31.842 28.8616 31.842C28.4296 31.842 28.0142 31.9581 27.657 32.1655C25.7628 33.2023 23.636 33.8824 21.343 34.1063C12.3954 35.0021 4.4198 28.6321 3.53917 19.8815C2.66684 11.131 9.21346 3.31774 18.1777 2.41366C28.1804 1.40175 33.9378 9.27308 34.8849 11.6618C35.2421 12.5742 35.4997 13.752 35.4166 14.7391C35.2338 17.0532 33.6138 16.9288 33.1817 16.879C30.2408 16.5555 29.1524 13.2129 20.8528 10.8573C9.86148 7.74692 5.35859 18.0319 5.35859 18.0319C5.35859 18.0319 9.66209 26.9317 21.8415 26.6331C34.0292 26.3262 37.1031 18.5793 37.1031 18.5793C37.1031 18.5793 37.6597 17.7665 37.884 16.4228C35.9815 20.9681 31.2875 21.7312 26.145 20.3626Z" fill="#16C6B1"/>
</svg>
