<?xml version="1.0" encoding="utf-8"?>
<!-- Generator: Adobe Illustrator 24.1.3, SVG Export Plug-In . SVG Version: 6.00 Build 0)  -->
<svg version="1.1" id="Layer_1" xmlns="http://www.w3.org/2000/svg" xmlns:xlink="http://www.w3.org/1999/xlink" x="0px" y="0px"
	 viewBox="0 0 1000 1000" style="enable-background:new 0 0 1000 1000;" xml:space="preserve">
<style type="text/css">
	.st0{fill:#002DCC;}
</style>
<g>
	<g>
		<polygon class="st0" points="388.8,538 605.8,538 605.8,603.1 475.6,603.1 475.6,646.5 562.4,646.5 562.4,711.7 475.6,711.7 
			475.6,755.1 605.8,755.1 605.8,820.2 388.8,820.2 		"/>
		<polygon class="st0" points="338.1,538 251.3,538 164.5,538 77.7,538 77.7,614.3 164.5,614.3 164.5,820.2 251.3,820.2 
			251.3,614.3 338.1,614.3 		"/>
		<polygon class="st0" points="757.8,684.5 757.8,673.6 877.1,548.9 877.1,538 670.9,538 670.9,820.2 877.1,820.2 877.1,809.3 		"/>
	</g>
	<g>
		<polygon class="st0" points="77.7,190.7 294.7,190.7 294.7,255.8 164.5,255.8 164.5,299.2 251.3,299.2 251.3,364.4 164.5,364.4 
			164.5,407.8 294.7,407.8 294.7,472.9 77.7,472.9 		"/>
		<path class="st0" d="M488.9,386.1c-30,0-54.3-24.3-54.3-54.3s24.3-54.3,54.3-54.3h88v-86.8h-97.7c-77.9,0-141.1,63.2-141.1,141.1
			s63.2,141.1,141.1,141.1h97.7v-86.8H488.9z"/>
		<path class="st0" d="M771,179.8c-83.9,0-152,68-152,152s68,152,152,152s152-68,152-152S855,179.8,771,179.8z M771,396.9
			c-35.9,0-65.1-29.1-65.1-65.1s29.1-65.1,65.1-65.1s65.1,29.1,65.1,65.1S807,396.9,771,396.9z"/>
	</g>
</g>
</svg>
