<svg width="297" height="226" viewBox="0 0 297 226" fill="none" xmlns="http://www.w3.org/2000/svg">
<path d="M38.9208 103.895L19.2402 160.569L103.323 189.767L123.003 133.093L38.9208 103.895Z" fill="#EBEBEB"/>
<path d="M122.998 133.08C122.666 133.274 122.317 133.437 121.955 133.566L118.902 134.8L107.609 139.218L70.1577 153.553L69.8464 153.667L69.6717 153.389L69.2403 152.712L47.6586 118.275L41.1928 107.79L39.4726 104.917C39.2597 104.591 39.077 104.245 38.9265 103.885C39.1844 104.177 39.4131 104.494 39.6091 104.83L41.4604 107.621L48.1391 117.991L69.9283 152.302C70.0703 152.537 70.2178 152.766 70.3543 152.979L69.8683 152.815L107.407 138.71L118.793 134.51L121.9 133.418C122.254 133.27 122.622 133.156 122.998 133.08Z" fill="#E0E0E0"/>
<path d="M19.2399 160.586C19.1252 160.395 28.1467 154.825 39.3853 148.141C50.6239 141.457 59.8311 136.198 59.9458 136.389C60.0605 136.58 51.039 142.15 39.7949 148.834C28.5508 155.519 19.3545 160.75 19.2399 160.586Z" fill="#E0E0E0"/>
<path d="M88.1406 145.356C88.3481 145.285 91.9196 155.185 96.1136 167.423C100.308 179.661 103.535 189.682 103.322 189.753C103.109 189.824 99.5431 179.924 95.349 167.686C91.155 155.448 87.9276 145.427 88.1406 145.356Z" fill="#E0E0E0"/>
<path d="M287.047 89.1433L203.846 103.246L213.352 159.327L296.553 145.225L287.047 89.1433Z" fill="#E0E0E0"/>
<path d="M287.04 89.168C286.853 89.4806 286.637 89.7749 286.395 90.0473L284.424 92.4664L277.052 101.291C270.722 108.756 262.061 118.974 252.477 130.289L252.275 130.529L252.002 130.376L251.336 130.011L217.686 111.236L207.534 105.469L204.803 103.869C204.474 103.699 204.163 103.496 203.875 103.263C204.223 103.39 204.559 103.547 204.88 103.732L207.692 105.212L217.964 110.761L251.724 129.328L252.39 129.694L251.915 129.781L276.675 100.931L284.227 92.2644C285.096 91.2978 285.784 90.5224 286.308 89.9326C286.531 89.6587 286.776 89.403 287.04 89.168Z" fill="#EBEBEB"/>
<path d="M213.344 159.347C213.164 159.238 218.117 150.489 224.408 139.807C230.699 129.126 235.952 120.552 236.133 120.661C236.313 120.771 231.36 129.514 225.069 140.201C218.778 150.888 213.524 159.451 213.344 159.347Z" fill="#EBEBEB"/>
<path d="M263.672 115.26C263.814 115.108 271.317 121.688 280.366 129.967C289.415 138.246 296.689 145.083 296.542 145.257C296.394 145.432 288.929 138.819 279.847 130.551C270.766 122.283 263.508 115.43 263.672 115.26Z" fill="#EBEBEB"/>
<path d="M203.881 1.79017e-06L188.892 38.11L245.435 60.3485L260.424 22.2385L203.881 1.79017e-06Z" fill="#EBEBEB"/>
<path d="M260.407 22.7465C260.177 22.8745 259.933 22.9753 259.68 23.0468L257.567 23.8114L249.741 26.5145L223.796 35.252L223.583 35.323L223.474 35.1264L223.201 34.6568L209.445 10.5685C207.725 7.51587 206.327 5.02567 205.327 3.23994L204.235 1.23577C204.096 1.00694 203.979 0.765604 203.886 0.514927C204.055 0.720948 204.205 0.942143 204.334 1.1757C204.628 1.67265 205.022 2.3225 205.519 3.13072L209.789 10.3774C213.371 16.5647 218.281 25.0291 223.698 34.4056L223.971 34.8807L223.649 34.7551L249.638 26.1705L257.501 23.6093L259.648 22.9704C259.894 22.8757 260.148 22.8008 260.407 22.7465Z" fill="#E0E0E0"/>
<path d="M188.879 38.6269C188.802 38.4959 195.11 34.9408 202.963 30.6922C210.816 26.4435 217.238 23.1124 217.309 23.2434C217.38 23.3745 211.083 26.9296 203.225 31.1618C195.366 35.394 188.95 38.7634 188.879 38.6269Z" fill="#E0E0E0"/>
<path d="M236.291 30.157C236.438 30.1133 238.601 36.9559 241.118 45.4476C243.636 53.9394 245.569 60.8366 245.422 60.8803C245.274 60.924 243.112 54.0869 240.594 45.5896C238.077 37.0924 236.143 30.2007 236.291 30.157Z" fill="#E0E0E0"/>
<path d="M7.77201 75.1006L15.5812 72.3319L12.2227 67.8485C12.0562 66.8579 11.9758 65.8548 11.9824 64.8504C11.9842 64.3333 12.0728 63.8201 12.2445 63.3323C12.4341 62.7185 12.7079 62.1341 13.0582 61.5957C13.1451 61.5041 13.2006 61.3873 13.2168 61.2622C13.2329 61.137 13.2089 61.0099 13.1481 60.8993C13.0873 60.7887 12.993 60.7003 12.8787 60.6468C12.7643 60.5933 12.636 60.5776 12.5121 60.6018C11.966 60.7383 10.9394 61.9834 10.4752 63.8292C10.011 65.675 8.74407 62.9555 8.29081 61.9779C7.83755 61.0004 6.18834 58.0297 5.76785 57.9368C5.15622 57.8003 4.89956 58.4338 5.40196 59.4004C5.90437 60.367 7.19862 63.3814 6.66344 63.6108C6.12827 63.8401 3.7746 58.8051 3.7746 58.8051C3.7746 58.8051 3.44694 57.6474 2.82439 57.8932C1.69944 58.33 4.61013 63.4906 4.89956 63.9712C5.10161 64.3098 4.53367 64.5774 4.35346 64.206C4.17325 63.8347 2.10901 59.1328 0.96221 59.5697C0.082996 59.9028 3.31588 63.8347 3.2012 65.0306C3.08652 66.2266 1.05504 61.8032 0.224977 62.1527C-0.0808359 62.2838 -0.321117 62.4257 1.24072 64.8067C2.00563 65.9207 2.8277 66.9943 3.70361 68.0232L7.78294 75.0897" fill="#FFBE9D"/>
<path d="M78.06 84.6464C78.06 84.6464 74.2046 75.6467 71.5451 71.2725C69.0385 67.1549 65.7183 66.4887 63.9489 66.3576C63.2154 66.132 62.462 65.9766 61.699 65.8935L47.2548 65.7788C44.0978 65.8075 41.0476 66.9264 38.621 68.9461C37.9493 69.4922 32.9526 75.2918 26.3175 83.5487L14.713 70.9885L7.79395 75.0842C7.79395 75.0842 15.3082 101.029 24.7229 99.249C30.3258 98.2059 34.6946 94.3177 34.6946 94.3177L42.0396 88.398L42.2089 89.381C42.3563 90.577 42.7277 92.5101 43.0116 93.6788C43.8963 97.3868 44.3933 102.269 42.4655 105.502C42.4655 105.502 39.8497 107.506 41.9194 109.707H69.1423C69.1423 109.707 72.9977 107.091 69.4754 104.186L67.291 98.6646L68.7163 91.9258L69.2624 89.2281L71.6598 93.3347C71.6598 93.3347 76.3999 99.2981 81.3311 98.5663C87.2563 97.6817 90.6912 86.8854 85.3449 72.6104L78.901 74.5709L78.06 84.6464Z" fill="#61D8CA"/>
<g opacity="0.4">
<path opacity="0.4" d="M7.77197 75.1006L8.45459 77.2632L16.1436 72.5722L14.691 71.0049L7.77197 75.1006Z" fill="black"/>
</g>
<g opacity="0.2">
<path opacity="0.2" d="M42.4601 105.502C43.6042 105.33 44.702 104.93 45.6873 104.323C46.6727 103.717 47.5253 102.918 48.1941 101.974C48.8947 101.023 49.4002 99.9428 49.6813 98.7956C49.9625 97.6484 50.0138 96.4569 49.8324 95.2898C49.8026 94.875 49.6862 94.4712 49.4905 94.1043C49.2948 93.7374 49.0243 93.4157 48.6965 93.16C47.8391 92.6139 46.665 92.8979 45.7749 92.4228C45.0431 92.035 44.6554 91.2377 44.1366 90.5824C43.6178 89.9271 42.9243 88.9114 42.1707 89.239C42.1707 89.239 43.0826 94.0447 43.4813 96.1854C43.8799 98.3261 44.0274 101.401 43.2574 103.645C43.06 104.291 42.7926 104.914 42.4601 105.502Z" fill="black"/>
</g>
<path d="M25.2034 87.9557C25.2112 87.1866 25.3478 86.4243 25.6075 85.7003C25.7745 84.954 26.0046 84.2232 26.2956 83.5159C26.2944 84.2856 26.1576 85.0491 25.8915 85.7713C25.7245 86.5177 25.4943 87.2484 25.2034 87.9557Z" fill="#263238"/>
<path d="M26.929 86.7816C26.5157 85.7509 26.2936 84.6535 26.2737 83.5433C26.5234 84.0409 26.6824 84.579 26.7433 85.1324C26.8983 85.6676 26.961 86.2253 26.929 86.7816Z" fill="#263238"/>
<path d="M78.8409 54.9934L68.9565 71.0049L76.7329 73.1729L85.3612 59.8646L78.8409 54.9934Z" fill="#455A64"/>
<path d="M78.2239 68.6349L78.557 70.9776L79.9386 72.7524L80.0751 74.205L85.0337 72.6978L83.0295 65.5986C83.19 64.6426 83.2559 63.6731 83.2261 62.7043L81.8609 64.5118L81.4841 61.5629L78.6935 59.3185C78.6211 59.2653 78.539 59.2269 78.4517 59.2055C78.3645 59.1841 78.2739 59.1801 78.1851 59.1938C78.0963 59.2075 78.0111 59.2386 77.9343 59.2853C77.8576 59.332 77.7908 59.3934 77.7378 59.4659C77.6438 59.5972 77.5993 59.7575 77.6123 59.9185C77.6253 60.0795 77.6949 60.2307 77.8088 60.3451L80.0533 62.322L80.2007 64.763L78.5624 63.2558C78.4024 63.1062 78.2039 63.0041 77.989 62.9609L75.7337 62.5077C75.6533 62.4921 75.5705 62.4934 75.4907 62.5115C75.4108 62.5297 75.3356 62.5643 75.2699 62.6131C75.2041 62.6619 75.1493 62.7238 75.1088 62.795C75.0683 62.8662 75.043 62.945 75.0347 63.0265C75.0209 63.1615 75.0541 63.2972 75.1287 63.4106C75.2033 63.524 75.3148 63.6082 75.4442 63.649L77.4976 64.277L79.5727 66.374L77.5413 65.5986L74.7835 65.9863C74.6543 66.0072 74.5368 66.0739 74.4527 66.1741C74.3685 66.2743 74.3231 66.4015 74.3248 66.5324C74.3248 66.6772 74.3823 66.8161 74.4847 66.9185C74.5871 67.021 74.726 67.0785 74.8708 67.0785L76.6238 66.9802L77.6559 67.3024L75.2859 67.9304C75.1792 67.957 75.0852 68.0203 75.0203 68.1091C74.9554 68.1979 74.9238 68.3067 74.9309 68.4164C74.9336 68.4803 74.9492 68.543 74.9768 68.6007C75.0043 68.6584 75.0432 68.71 75.0911 68.7523C75.1391 68.7946 75.195 68.8268 75.2557 68.847C75.3164 68.8672 75.3805 68.8749 75.4442 68.8697L78.2239 68.6349Z" fill="#FFBE9D"/>
<g opacity="0.4">
<path opacity="0.4" d="M78.8736 74.5709L78.6606 77.1922L86.1804 75.1225L85.3176 72.6104L78.8736 74.5709Z" fill="black"/>
</g>
<path d="M68.9566 71.0268C68.9566 71.0268 68.2904 70.1257 68.345 69.9728C68.3996 69.8199 77.7487 54.4255 77.7487 54.4255L78.8409 55.0152L68.9566 71.0268Z" fill="#263238"/>
<path d="M81.3147 59.0127C81.357 58.9703 81.4095 58.9397 81.4671 58.9239C81.5247 58.908 81.5855 58.9075 81.6434 58.9222C81.7013 58.937 81.7544 58.9666 81.7974 59.0081C81.8404 59.0497 81.8718 59.1017 81.8886 59.159C81.9053 59.2164 81.9069 59.2771 81.893 59.3353C81.8792 59.3934 81.8504 59.447 81.8096 59.4906C81.7688 59.5343 81.7173 59.5665 81.6602 59.5842C81.6031 59.6019 81.5424 59.6044 81.484 59.5915C81.4304 59.5748 81.3814 59.5457 81.3409 59.5066C81.3005 59.4676 81.2698 59.4196 81.2512 59.3665C81.2326 59.3134 81.2267 59.2568 81.234 59.201C81.2412 59.1453 81.2614 59.092 81.2929 59.0454" fill="#263238"/>
<path d="M75.1056 78.7758C75.0359 78.9216 74.9396 79.0531 74.8216 79.1636C74.4811 79.4818 74.06 79.7009 73.6039 79.797C72.8832 79.9442 72.1402 79.9442 71.4195 79.797C70.5019 79.5794 69.5514 79.5368 68.618 79.6714C67.5234 79.9904 66.5139 80.5502 65.6636 81.3097C64.6861 82.0579 63.654 82.9862 62.2669 83.4231C61.5574 83.6248 60.8147 83.6823 60.0825 83.5924C59.333 83.4775 58.5997 83.274 57.8982 82.9862C56.4674 82.4401 55.0967 81.6319 53.5895 81.0858C52.137 80.5194 50.5464 80.409 49.0296 80.7691C47.5496 81.0749 46.1626 81.5882 44.7809 81.8613C42.3118 82.3935 39.7341 82.0377 37.5015 80.8565C35.9895 80.0769 34.6805 78.9549 33.6788 77.5799C33.3141 77.0835 33.0081 76.5466 32.7668 75.9798C32.8051 75.9798 33.0672 76.5696 33.7717 77.5144C34.7951 78.8351 36.1012 79.9099 37.5943 80.6599C39.7956 81.7945 42.3246 82.1229 44.7427 81.5882C46.1025 81.2933 47.4732 80.7746 48.9913 80.4578C50.5602 80.0817 52.2065 80.1941 53.7096 80.78C55.2496 81.3261 56.6257 82.1343 58.0292 82.6913C58.7099 82.9715 59.421 83.1713 60.1481 83.2866C60.8431 83.3712 61.5481 83.3192 62.2232 83.1337C63.5339 82.7296 64.5605 81.834 65.5435 81.0858C66.4284 80.3162 67.4756 79.7561 68.6071 79.4475C69.5662 79.3166 70.5415 79.3723 71.4795 79.6114C72.1753 79.7692 72.8954 79.7878 73.5984 79.666C74.0393 79.5908 74.4532 79.4027 74.7998 79.1199C74.9081 79.011 75.0102 78.8962 75.1056 78.7758Z" fill="#FAFAFA"/>
<path d="M78.2182 89.179C78.0469 88.3845 77.9717 87.5722 77.9943 86.7598C77.9187 85.9499 77.9425 85.1337 78.0653 84.3296C78.2367 85.1241 78.3119 85.9364 78.2892 86.7488C78.3646 87.5587 78.3408 88.3748 78.2182 89.179Z" fill="#263238"/>
<path d="M61.1855 189.589C61.4204 190.54 66.9905 221.771 66.9905 221.771L75.526 221.132L73.9642 189.24L61.1855 189.589Z" fill="#FFBE9D"/>
<path d="M75.7826 221.629L75.7553 220.728L66.6628 220.919L66.7175 223.879H67.2635C69.7647 223.961 79.9876 224.13 81.6422 223.633C83.5099 223.092 75.7826 221.629 75.7826 221.629Z" fill="#FF725E"/>
<g opacity="0.3">
<path opacity="0.3" d="M69.9995 223.748C69.838 223.028 69.4109 222.397 68.8036 221.978C68.1828 221.544 67.429 221.341 66.6738 221.405L66.723 223.759L69.9995 223.748Z" fill="black"/>
</g>
<g opacity="0.3">
<path opacity="0.3" d="M79.5617 222.47C79.5617 222.47 82.2922 223.142 81.9481 223.562C81.6041 223.983 71.2829 224.174 66.7175 223.884V223.693L78.7753 223.573C78.7753 223.573 79.0374 222.497 79.5617 222.47Z" fill="black"/>
</g>
<path d="M66.5864 223.688H66.7393H67.1871L68.8254 223.726C70.218 223.726 72.1348 223.753 74.2591 223.726C76.3834 223.699 78.3002 223.617 79.6927 223.546L81.331 223.453L81.7733 223.42H81.9317H81.7733H81.3255L79.6873 223.48C78.3002 223.529 76.3779 223.595 74.2591 223.628C72.1402 223.66 70.218 223.671 68.8254 223.671H66.5864V223.688Z" fill="#263238"/>
<path d="M78.7862 223.699C78.8505 223.441 78.9478 223.194 79.0757 222.961C79.2325 222.741 79.4159 222.541 79.6218 222.366C79.3459 222.461 79.1157 222.656 78.9774 222.912C78.8153 223.14 78.7469 223.422 78.7862 223.699Z" fill="#263238"/>
<path d="M76.0885 222.486C76.0885 222.486 76.236 222.355 76.367 222.159C76.4981 221.962 76.5745 221.793 76.5472 221.776C76.5199 221.76 76.3998 221.907 76.2742 222.104C76.1486 222.301 76.0612 222.47 76.0885 222.486Z" fill="#263238"/>
<path d="M75.3458 222.137C75.3458 222.137 75.5096 222.066 75.6625 221.935C75.8154 221.804 75.9192 221.678 75.9028 221.656C75.8864 221.634 75.739 221.727 75.5861 221.858C75.4332 221.989 75.324 222.12 75.3458 222.137Z" fill="#263238"/>
<path d="M74.8652 221.35C75.018 221.402 75.1803 221.418 75.3403 221.4C75.499 221.416 75.6593 221.397 75.81 221.345C75.6566 221.297 75.4949 221.28 75.3349 221.296C75.1763 221.284 75.0168 221.302 74.8652 221.35Z" fill="#263238"/>
<path d="M74.696 220.793C74.8594 220.895 75.0503 220.942 75.2421 220.93C75.4283 220.958 75.6184 220.929 75.7882 220.848C75.6065 220.834 75.4239 220.834 75.2421 220.848C75.0621 220.814 74.8793 220.795 74.696 220.793Z" fill="#263238"/>
<path d="M76.3779 221.749C76.5715 221.78 76.7687 221.78 76.9622 221.749C77.1704 221.722 77.3753 221.675 77.5739 221.607C77.6979 221.576 77.8173 221.528 77.9288 221.465C77.962 221.448 77.9912 221.424 78.0147 221.395C78.0382 221.365 78.0554 221.332 78.0654 221.296C78.0754 221.255 78.0718 221.212 78.055 221.174C78.0382 221.135 78.0092 221.103 77.9725 221.083C77.7507 220.981 77.5011 220.956 77.2635 221.012C77.0259 221.069 76.8141 221.203 76.6619 221.394C76.5765 221.502 76.5151 221.627 76.4817 221.76C76.4817 221.853 76.4817 221.907 76.4817 221.907C76.5338 221.738 76.6192 221.58 76.7329 221.443C76.8641 221.295 77.0345 221.187 77.2244 221.132C77.4514 221.055 77.6991 221.067 77.9179 221.165C78.0108 221.225 77.978 221.329 77.8797 221.383C77.7755 221.44 77.6657 221.486 77.552 221.52C77.3579 221.587 77.1589 221.64 76.9568 221.678C76.6018 221.749 76.3779 221.749 76.3779 221.749Z" fill="#263238"/>
<path d="M76.5309 221.749C76.5937 221.634 76.6131 221.5 76.5855 221.372C76.5649 221.229 76.5085 221.094 76.4217 220.979C76.3683 220.897 76.2955 220.83 76.2097 220.783C76.1239 220.737 76.0279 220.712 75.9302 220.711C75.902 220.716 75.8751 220.726 75.8509 220.741C75.8268 220.757 75.8059 220.777 75.7896 220.8C75.7733 220.823 75.7619 220.85 75.756 220.878C75.7501 220.906 75.75 220.935 75.7554 220.963C75.77 221.05 75.8057 221.132 75.8592 221.203C75.9398 221.322 76.0353 221.43 76.1432 221.525C76.2368 221.623 76.3531 221.696 76.4818 221.738C76.4818 221.738 76.3616 221.645 76.1978 221.476C76.1023 221.378 76.0181 221.27 75.9466 221.154C75.8647 221.045 75.8046 220.837 75.9466 220.81C76.0234 220.818 76.0976 220.842 76.1644 220.88C76.2313 220.919 76.2892 220.971 76.3343 221.034C76.4178 221.135 76.4758 221.255 76.5036 221.383C76.525 221.504 76.5342 221.626 76.5309 221.749Z" fill="#263238"/>
<path d="M66.7175 221.383C66.7175 221.383 66.9797 221.356 67.3892 221.383C67.9177 221.436 68.4236 221.624 68.8582 221.929C69.2758 222.226 69.6013 222.635 69.7975 223.109C69.945 223.469 69.9613 223.71 69.9832 223.71C69.9951 223.654 69.9951 223.596 69.9832 223.54C69.964 223.386 69.9292 223.234 69.8794 223.087C69.6954 222.587 69.3641 222.155 68.9292 221.847C68.4804 221.526 67.9508 221.337 67.4001 221.301C67.2349 221.285 67.0685 221.285 66.9032 221.301C66.7776 221.356 66.7175 221.372 66.7175 221.383Z" fill="#263238"/>
<path d="M71.1191 222.907C71.5556 222.995 72.0014 223.028 72.4462 223.005C72.8899 223.018 73.3336 222.977 73.7677 222.885C73.7677 222.852 73.1725 222.885 72.4407 222.885C71.7089 222.885 71.1246 222.879 71.1191 222.907Z" fill="#263238"/>
<path d="M69.3442 222.94C69.3442 222.94 69.3934 223.054 69.4589 223.18C69.5245 223.305 69.5572 223.415 69.59 223.415C69.6227 223.415 69.6337 223.278 69.5572 223.136C69.4808 222.994 69.3661 222.918 69.3442 222.94Z" fill="#263238"/>
<path d="M68.6616 222.175C68.6616 222.175 68.6999 222.284 68.7927 222.372C68.8855 222.459 68.9838 222.514 69.0057 222.492C69.0275 222.47 68.9674 222.383 68.8691 222.295C68.7708 222.208 68.678 222.159 68.6616 222.175Z" fill="#263238"/>
<path d="M67.6952 221.842C67.6952 221.869 67.8208 221.869 67.9573 221.907C68.0938 221.946 68.1867 222.011 68.2085 221.995C68.2303 221.978 68.1539 221.858 67.9901 221.809C67.8262 221.76 67.6842 221.815 67.6952 221.842Z" fill="#263238"/>
<path d="M67.0071 221.689C67.0071 221.689 67.0508 221.754 67.1272 221.782C67.2037 221.809 67.2747 221.809 67.2856 221.782C67.2965 221.754 67.2419 221.711 67.1655 221.684C67.089 221.656 67.018 221.662 67.0071 221.689Z" fill="#263238"/>
<path d="M39.4729 186.985C39.4292 187.962 35.885 218.374 35.885 218.374L44.2348 220.225L51.9402 189.24L39.4729 186.985Z" fill="#FFBE9D"/>
<path d="M44.6117 221.034L44.8028 220.16L35.9233 218.178L35.2734 221.066L35.8195 221.219C38.2278 221.896 48.1176 224.496 49.8487 224.403C51.771 224.299 44.6117 221.034 44.6117 221.034Z" fill="#FF725E"/>
<g opacity="0.3">
<path opacity="0.3" d="M38.5172 221.749C38.5343 221.012 38.2708 220.295 37.78 219.745C37.2808 219.174 36.5963 218.797 35.8468 218.68L35.3335 220.979L38.5172 221.749Z" fill="black"/>
</g>
<g opacity="0.3">
<path opacity="0.3" d="M48.0848 222.754C48.0848 222.754 50.5586 224.054 50.1436 224.392C49.7286 224.731 39.6422 222.443 35.2734 221.077L35.3281 220.897L47.0691 223.628C47.0691 223.628 47.566 222.656 48.0848 222.754Z" fill="black"/>
</g>
<path d="M35.1914 220.848L35.3388 220.897L35.7703 221.023L37.3594 221.449C38.7083 221.798 40.5704 222.262 42.6401 222.732C44.7098 223.202 46.5939 223.589 47.9591 223.852L49.5974 224.152L50.0397 224.223H50.1981L50.0452 224.185L49.6083 224.092L47.97 223.759C46.6048 223.475 44.7262 223.082 42.6565 222.612C40.5868 222.142 38.7246 221.689 37.3703 221.356L35.7866 220.985L35.3498 220.881C35.2989 220.862 35.2455 220.851 35.1914 220.848Z" fill="#263238"/>
<path d="M47.0364 223.764C47.1623 223.53 47.3164 223.311 47.4951 223.114C47.7033 222.94 47.9304 222.79 48.1722 222.666C47.8842 222.698 47.617 222.832 47.4186 223.043C47.2029 223.225 47.0659 223.484 47.0364 223.764Z" fill="#263238"/>
<path d="M44.7044 221.946C44.7044 221.946 44.8846 221.853 45.0539 221.689C45.2232 221.525 45.3433 221.383 45.3215 221.367C45.2996 221.35 45.1467 221.46 44.9774 221.618C44.8081 221.776 44.6825 221.924 44.7044 221.946Z" fill="#263238"/>
<path d="M44.0656 221.432C44.1925 221.421 44.3145 221.377 44.4205 221.307C44.6007 221.214 44.7373 221.116 44.7209 221.094C44.7045 221.072 44.5461 221.121 44.3659 221.214C44.1857 221.307 44.0547 221.405 44.0656 221.432Z" fill="#263238"/>
<path d="M43.787 220.553C43.2155 220.543 42.6617 220.752 42.2396 221.137C41.8176 221.523 41.5594 222.055 41.5183 222.625C41.4771 223.196 41.6561 223.76 42.0184 224.202C42.3807 224.644 42.8987 224.93 43.4658 225.002C44.0329 225.074 44.6059 224.925 45.0669 224.587C45.5278 224.249 45.8416 223.747 45.9436 223.185C46.0457 222.623 45.9282 222.042 45.6154 221.564C45.3026 221.086 44.8182 220.745 44.2621 220.613C44.1096 220.561 43.9478 220.54 43.787 220.553Z" fill="#263238"/>
<path d="M43.7542 219.969C43.8855 220.1 44.0527 220.189 44.2347 220.225C44.4081 220.294 44.5973 220.313 44.7808 220.28C44.615 220.213 44.4431 220.162 44.2675 220.127C44.1004 220.062 43.9288 220.009 43.7542 219.969Z" fill="#263238"/>
<path d="M45.1631 221.296C45.3378 221.364 45.522 221.405 45.7092 221.416C45.9199 221.436 46.132 221.436 46.3427 221.416C46.468 221.41 46.5924 221.392 46.714 221.361C46.7884 221.342 46.8528 221.295 46.8942 221.23C46.9112 221.192 46.9167 221.149 46.9099 221.107C46.9031 221.066 46.8844 221.027 46.856 220.995C46.6636 220.844 46.4261 220.762 46.1816 220.762C45.937 220.762 45.6995 220.844 45.5071 220.995C45.3957 221.078 45.3042 221.184 45.2395 221.307C45.1959 221.389 45.1904 221.443 45.1959 221.443C45.2884 221.293 45.4089 221.161 45.5508 221.056C45.7116 220.943 45.901 220.879 46.0969 220.87C46.3359 220.848 46.5741 220.919 46.7631 221.066C46.8396 221.148 46.7631 221.236 46.6703 221.268C46.5578 221.3 46.4426 221.32 46.3263 221.329C46.1208 221.342 45.9147 221.342 45.7092 221.329C45.3815 221.323 45.1685 221.279 45.1631 221.296Z" fill="#263238"/>
<path d="M45.3051 221.35C45.3051 221.35 45.4253 221.247 45.4526 221.001C45.464 220.857 45.4396 220.713 45.3816 220.58C45.3487 220.488 45.2936 220.406 45.2212 220.34C45.1488 220.274 45.0613 220.228 44.9665 220.204C44.9381 220.202 44.9097 220.206 44.8829 220.216C44.8562 220.226 44.8316 220.241 44.8108 220.26C44.7899 220.279 44.7731 220.303 44.7614 220.329C44.7497 220.355 44.7433 220.383 44.7426 220.411C44.7363 220.499 44.7513 220.587 44.7863 220.668C44.8352 220.801 44.9013 220.928 44.9829 221.045C45.0523 221.161 45.1476 221.26 45.2614 221.334C45.2614 221.334 45.1686 221.214 45.0485 221.012C44.9804 220.894 44.9237 220.769 44.8792 220.64C44.8245 220.509 44.8191 220.296 44.9665 220.307C45.114 220.318 45.2287 220.488 45.2887 220.613C45.3459 220.733 45.3758 220.863 45.3761 220.995C45.3656 221.116 45.3418 221.235 45.3051 221.35Z" fill="#263238"/>
<path d="M35.8687 218.642C35.8687 218.642 36.1253 218.675 36.5185 218.811C37.0193 218.981 37.4672 219.278 37.8182 219.674C38.1532 220.065 38.3726 220.541 38.4517 221.05C38.4741 221.257 38.485 221.465 38.4845 221.673C38.4845 221.673 38.5118 221.613 38.5227 221.509C38.5399 221.353 38.5399 221.195 38.5227 221.039C38.4628 220.512 38.2459 220.016 37.9001 219.614C37.5345 219.202 37.0619 218.9 36.5349 218.74C36.3747 218.691 36.2101 218.658 36.0434 218.642C35.9856 218.632 35.9265 218.632 35.8687 218.642Z" fill="#263238"/>
<path d="M39.7786 221.17C40.1797 221.36 40.6037 221.498 41.04 221.58C41.4692 221.698 41.9111 221.764 42.3561 221.776C42.3561 221.749 41.7718 221.651 41.0673 221.481C40.3629 221.312 39.7895 221.143 39.7786 221.17Z" fill="#263238"/>
<path d="M38.0476 220.777C38.0476 220.777 38.0476 220.903 38.1022 221.039C38.1568 221.176 38.1404 221.29 38.1732 221.296C38.206 221.301 38.2497 221.176 38.2114 221.023C38.1732 220.87 38.0695 220.761 38.0476 220.777Z" fill="#263238"/>
<path d="M37.5615 219.876C37.5615 219.876 37.5615 219.991 37.6489 220.094C37.7363 220.198 37.8018 220.275 37.8236 220.264C37.8455 220.253 37.8237 220.149 37.7417 220.045C37.6598 219.941 37.5888 219.86 37.5615 219.876Z" fill="#263238"/>
<path d="M36.7041 219.319C36.7041 219.352 36.8242 219.374 36.9444 219.445C37.0645 219.516 37.1464 219.603 37.1737 219.592C37.201 219.581 37.1737 219.445 36.999 219.357C36.8242 219.27 36.7041 219.292 36.7041 219.319Z" fill="#263238"/>
<path d="M36.0762 219.019C36.0762 219.019 36.1035 219.095 36.169 219.139C36.2345 219.182 36.3055 219.199 36.3219 219.171C36.3383 219.144 36.3219 219.095 36.2291 219.051C36.1362 219.008 36.0926 218.986 36.0762 219.019Z" fill="#263238"/>
<path d="M70.8188 51.5421C70.5949 50.8922 70.0434 50.4062 69.7758 49.7727C69.3772 48.8225 69.6721 47.7467 69.7758 46.7255C69.8796 45.7043 69.6666 44.4592 68.7328 44.0387C68.324 43.9322 67.9227 43.799 67.5314 43.6401C66.7996 43.1814 66.8378 42.1438 66.7723 41.2864C66.7281 40.7194 66.5839 40.1648 66.3463 39.6481L66.4992 39.599C67.0526 39.465 67.6354 39.53 68.1456 39.7826C68.6558 40.0352 69.0609 40.4593 69.2898 40.9806C69.3908 41.1987 69.4347 41.4389 69.4175 41.6786C69.4003 41.9184 69.3225 42.1498 69.1915 42.3513C69.079 42.5191 68.9134 42.6442 68.7213 42.7066C68.5292 42.769 68.3217 42.765 68.1321 42.6953C67.9852 42.6188 67.8677 42.496 67.7976 42.346C67.7275 42.1959 67.7088 42.027 67.7443 41.8653C67.7902 41.7484 67.8751 41.6508 67.9845 41.5892C68.0939 41.5275 68.2212 41.5054 68.345 41.5267C68.4278 41.5337 68.5081 41.5583 68.5806 41.5988C68.6531 41.6392 68.7161 41.6947 68.7655 41.7615C68.8311 41.8598 68.8365 41.9308 68.8474 41.9253C68.8584 41.9199 68.8474 41.8543 68.8474 41.7342C68.8012 41.6465 68.7352 41.5707 68.6547 41.5129C68.5741 41.455 68.4812 41.4168 68.3833 41.4011C68.2427 41.3749 68.0976 41.3862 67.9628 41.4338C67.8784 41.4653 67.8019 41.5148 67.7387 41.579C67.6755 41.6431 67.6271 41.7203 67.5969 41.8052C67.5337 42.0115 67.5444 42.2335 67.6271 42.4328C67.7098 42.6321 67.8594 42.7964 68.0501 42.8974C68.2885 43.0018 68.5555 43.0208 68.8062 42.9511C69.0569 42.8815 69.276 42.7275 69.4263 42.5151C69.5922 42.2792 69.6945 42.0045 69.7232 41.7175C69.7519 41.4305 69.7061 41.1409 69.5901 40.8768C69.361 40.3237 68.9544 39.8626 68.4343 39.566C67.9143 39.2694 67.3104 39.1542 66.7177 39.2385C66.8462 39.0218 66.9276 38.7805 66.9568 38.5302C66.986 38.28 66.9622 38.0264 66.887 37.7859C66.7865 37.4929 66.6208 37.2266 66.4022 37.0071C66.1837 36.7876 65.9181 36.6207 65.6255 36.519C65.1129 36.3305 64.5555 36.3001 64.0254 36.4316C63.5769 36.5406 63.1503 36.7253 62.7639 36.9777C62.409 37.2071 62.1359 37.4583 61.8738 37.6276C61.6567 37.7843 61.4027 37.8821 61.1366 37.9115C60.9076 37.9326 60.6776 37.8851 60.4758 37.775C60.4758 37.775 60.6451 38.0371 61.142 38.0371C61.4353 38.0291 61.7206 37.9402 61.9666 37.7805C62.2561 37.6166 62.5455 37.3709 62.8841 37.1688C63.2634 36.906 63.6983 36.7343 64.1548 36.667C64.6114 36.5998 65.0773 36.6388 65.5163 36.7811C65.7694 36.868 65.9994 37.0116 66.1887 37.2009C66.378 37.3901 66.5215 37.6201 66.6085 37.8733C66.6894 38.1272 66.6969 38.3987 66.6302 38.6567C66.5636 38.9146 66.4254 39.1485 66.2316 39.3314C65.955 38.8283 65.5474 38.4094 65.0521 38.119C63.9599 37.502 62.3216 37.8023 61.7755 38.9273L52.8141 35.8473C52.2523 35.375 51.5805 35.0519 50.8609 34.9078C50.1412 34.7637 49.3969 34.8032 48.6965 35.0227L48.5109 34.9899C47.9934 34.9414 47.4722 35.0279 46.9982 35.2411C46.4033 35.5748 45.8845 36.0285 45.4746 36.5736C45.2289 36.8564 44.9394 37.0979 44.6172 37.289C44.5602 37.3141 44.5019 37.336 44.4424 37.3545C44.0455 37.3994 43.6457 37.414 43.2465 37.3982C42.4929 37.2235 41.712 36.792 40.7836 36.6992C40.2646 36.629 39.7367 36.6662 39.2327 36.8084C38.6973 36.9661 38.2167 37.2707 37.8456 37.6876C37.4554 38.1246 37.2414 38.6909 37.2449 39.2768C37.2521 39.6972 37.3182 40.1144 37.4415 40.5164C37.2401 41.0571 37.1509 41.6331 37.1794 42.2093C37.2176 42.9684 37.436 43.7657 37.447 44.5084C37.2275 44.6798 36.9772 44.8077 36.7097 44.8852C36.2401 45.0326 35.7322 45.1036 35.2517 45.2893C34.8017 45.4725 34.3963 45.7501 34.0628 46.1034C33.7294 46.4567 33.4755 46.8774 33.3185 47.3371C33.1683 47.7044 33.1116 48.1033 33.1536 48.4979C33.1955 48.8924 33.3347 49.2704 33.5588 49.598C33.4441 50.0964 33.4414 50.614 33.551 51.1136C33.6605 51.6131 33.8795 52.0821 34.1922 52.4868C34.6894 52.9592 35.158 53.4606 35.5957 53.9886C36.1855 54.9006 36.0981 56.0747 36.251 57.1505C36.4039 58.2263 37.021 59.4495 38.1077 59.5205C38.9815 59.5751 39.746 58.8434 40.6416 58.9144C41.8649 59.0127 42.3673 60.4817 43.0772 61.4865C43.5356 62.1178 44.1546 62.6149 44.8701 62.926C45.5855 63.2372 46.3713 63.351 47.1456 63.2558C48.2378 63.1084 49.3628 62.5186 50.4495 62.7916C51.8202 63.1411 52.6339 64.7467 54.0483 64.9487C55.0858 65.0962 56.0524 64.4026 56.8279 63.6927C57.6033 62.9828 58.3843 62.1636 59.4218 61.978C60.6669 61.7541 61.8683 62.5241 63.1244 62.677C63.9396 62.7746 64.7656 62.6305 65.4996 62.2625C66.2336 61.8945 66.8433 61.3189 67.2528 60.6073C67.9409 59.3567 67.9355 57.8222 68.5853 56.5498C69.0825 55.7392 69.6296 54.9605 70.2236 54.2179C70.7369 53.4479 71.1356 52.4595 70.8188 51.5421ZM34.8858 47.5119C34.785 47.4904 34.6808 47.4904 34.58 47.5119C34.58 47.5119 34.6728 47.5119 34.8257 47.572L34.6564 47.6976C34.1451 48.1234 33.7756 48.6948 33.597 49.3358C33.4616 49.0455 33.387 48.7306 33.3776 48.4104C33.3682 48.0902 33.4243 47.7714 33.5424 47.4737C33.6924 47.055 33.9297 46.6729 34.2385 46.3528C34.5473 46.0328 34.9205 45.7819 35.3336 45.6169C35.7704 45.4531 36.2674 45.3821 36.7753 45.2292C36.9953 45.1672 37.205 45.0734 37.3978 44.9507C37.3746 45.2481 37.287 45.5369 37.1411 45.7972C36.6715 46.6108 35.6776 46.9549 34.8858 47.5119ZM41.002 37.4637C40.2761 37.6009 39.5926 37.9065 39.0064 38.3561C38.4202 38.8057 37.9478 39.3867 37.6272 40.0522C37.5715 39.8067 37.5422 39.5559 37.5398 39.3041C37.5373 38.7938 37.7218 38.3003 38.0586 37.917C38.396 37.5614 38.8151 37.2935 39.2795 37.1365C39.7439 36.9795 40.2395 36.9381 40.7235 37.0159C41.2266 37.082 41.7198 37.2085 42.1925 37.3927C41.7945 37.3863 41.3965 37.41 41.002 37.4637ZM45.4964 37.0869C45.3872 37.1361 45.2725 37.1688 45.1633 37.2071C45.3225 37.0625 45.4738 36.9093 45.6165 36.7484C46.0032 36.2192 46.4892 35.7703 47.0473 35.4268C47.4595 35.2244 47.9154 35.1269 48.3743 35.1428C48.1374 35.2295 47.9104 35.3411 47.6972 35.476C46.9326 35.9674 46.3265 36.7047 45.4964 37.0869Z" fill="#263238"/>
<path d="M64.9208 55.8453C65.3468 53.1585 65.2157 48.7461 64.9863 45.1364C64.9383 44.3671 64.735 43.6154 64.3888 42.9267C64.0426 42.2381 63.5606 41.6266 62.9718 41.1291C62.383 40.6316 61.6996 40.2585 60.9628 40.0321C60.2259 39.8058 59.4509 39.7309 58.6844 39.8119L49.297 40.8058C48.8235 40.8551 48.386 41.0808 48.0713 41.4379C47.7566 41.7951 47.5879 42.2577 47.5987 42.7336L48.5652 65.7952H46.3809V69.9728C46.3809 72.267 47.2922 74.4672 48.9144 76.0894C50.5367 77.7116 52.7369 78.6229 55.031 78.6229C57.3252 78.6229 59.5254 77.7116 61.1476 76.0894C62.7698 74.4672 63.6812 72.267 63.6812 69.9728V66.3576C63.6812 66.3576 61.4313 65.6204 60.066 65.6969H59.7329C59.7329 63.5835 59.9076 61.9288 59.9076 61.9288C59.9076 61.9288 64.0634 61.2571 64.9208 55.8453Z" fill="#FFBE9D"/>
<path d="M63.5829 48.6368C63.583 48.8176 63.5131 48.9914 63.3879 49.1217C63.2627 49.252 63.0918 49.3288 62.9112 49.3358C62.8226 49.3433 62.7335 49.3328 62.6491 49.305C62.5647 49.2772 62.4867 49.2326 62.4199 49.174C62.3532 49.1153 62.2989 49.0438 62.2604 48.9637C62.2219 48.8837 62.1999 48.7966 62.1958 48.7078C62.1957 48.5271 62.2655 48.3533 62.3908 48.223C62.516 48.0926 62.6869 48.0159 62.8675 48.0088C62.9559 48.0022 63.0447 48.0132 63.1288 48.0413C63.2129 48.0694 63.2905 48.114 63.3572 48.1725C63.4238 48.231 63.4781 48.3022 63.5168 48.3819C63.5556 48.4617 63.578 48.5483 63.5829 48.6368Z" fill="#263238"/>
<path d="M64.0309 47.4354C63.9435 47.5228 63.4192 47.1351 62.6711 47.1351C61.9229 47.1351 61.3768 47.5119 61.2949 47.4191C61.213 47.3262 61.3441 47.217 61.5844 47.0422C61.9061 46.8221 62.2867 46.7042 62.6766 46.7037C63.0685 46.7009 63.4512 46.8233 63.7687 47.0532C63.9926 47.2279 64.0746 47.3917 64.0309 47.4354Z" fill="#263238"/>
<path d="M56.2816 48.6368C56.2832 48.8171 56.2145 48.9909 56.0901 49.1213C55.9658 49.2518 55.7955 49.3288 55.6154 49.3358C55.5268 49.3433 55.4377 49.3328 55.3533 49.305C55.2689 49.2772 55.1909 49.2326 55.1241 49.174C55.0573 49.1153 55.0031 49.0438 54.9646 48.9637C54.9261 48.8837 54.9041 48.7966 54.9 48.7078C54.897 48.5272 54.9653 48.3526 55.0899 48.2218C55.2146 48.0911 55.3856 48.0145 55.5662 48.0088C55.6546 48.0022 55.7435 48.0132 55.8276 48.0413C55.9116 48.0694 55.9893 48.114 56.0559 48.1725C56.1225 48.231 56.1768 48.3022 56.2156 48.3819C56.2543 48.4617 56.2768 48.5483 56.2816 48.6368Z" fill="#263238"/>
<path d="M56.6913 47.572C56.6039 47.6648 56.0796 47.2771 55.3315 47.2771C54.5833 47.2771 54.0372 47.6539 53.9553 47.561C53.8734 47.4682 54.0045 47.359 54.2448 47.1842C54.5641 46.9593 54.9463 46.8408 55.337 46.8457C55.7294 46.8401 56.1128 46.9628 56.4291 47.1952C56.653 47.3699 56.735 47.5447 56.6913 47.572Z" fill="#263238"/>
<path d="M59.3998 53.1094C59.7933 52.9864 60.2005 52.913 60.6122 52.8909C60.8033 52.8909 60.9835 52.8363 61.0163 52.7053C61.028 52.5149 60.9843 52.3253 60.8907 52.1592C60.7105 51.7004 60.5248 51.2144 60.3446 50.7065C59.5637 48.6423 58.9957 46.9439 59.0831 46.9112C59.7002 48.0974 60.2243 49.3299 60.6504 50.5973C60.8361 51.1107 61.0163 51.5912 61.1965 52.0609C61.3171 52.2906 61.3519 52.5559 61.2948 52.809C61.2663 52.8762 61.223 52.9362 61.1682 52.9844C61.1134 53.0326 61.0484 53.0679 60.978 53.0875C60.8731 53.1164 60.7647 53.131 60.6558 53.1312C60.238 53.1777 59.8158 53.1703 59.3998 53.1094Z" fill="#263238"/>
<path d="M59.9186 61.9452C57.3706 61.9842 54.8619 61.3149 52.6719 60.012C52.6719 60.012 54.4303 63.7309 59.8421 63.2231L59.9186 61.9452Z" fill="#EB996E"/>
<path d="M59.0831 54.9115C58.941 54.7323 58.7557 54.5922 58.5446 54.5043C58.3335 54.4164 58.1035 54.3836 57.8763 54.4091C57.7115 54.4246 57.5517 54.4732 57.4062 54.5521C57.2608 54.6309 57.1327 54.7383 57.0298 54.8678C56.9294 54.9919 56.8697 55.144 56.8589 55.3034C56.8482 55.4627 56.8869 55.6214 56.9697 55.7579C57.0909 55.8898 57.248 55.9834 57.4217 56.0271C57.5954 56.0707 57.7781 56.0626 57.9472 56.0037C58.2979 55.8847 58.6224 55.6993 58.9029 55.4576C58.9873 55.3969 59.0595 55.321 59.1159 55.2337C59.1441 55.1927 59.1592 55.1441 59.1592 55.0944C59.1592 55.0447 59.1441 54.9961 59.1159 54.9552" fill="#EB996E"/>
<path d="M57.2045 53.6282C57.3246 53.6282 57.3246 54.4309 58.0181 55.0043C58.7117 55.5777 59.5745 55.4903 59.58 55.605C59.5854 55.7197 59.3888 55.7634 59.0339 55.7743C58.56 55.7803 58.0993 55.6178 57.7342 55.3156C57.3797 55.0298 57.1521 54.6158 57.1007 54.1633C57.0843 53.8247 57.1499 53.6227 57.2045 53.6282Z" fill="#263238"/>
<path d="M57.0243 46.2668C56.9534 46.4688 56.2052 46.3705 55.3315 46.4798C54.4577 46.589 53.7478 46.8238 53.6331 46.6381C53.5785 46.5562 53.7041 46.3651 53.9881 46.1685C54.3663 45.9206 54.7993 45.7688 55.2495 45.7262C55.6977 45.6723 56.1523 45.7247 56.5766 45.8791C56.8988 46.0101 57.0844 46.1685 57.0243 46.2668Z" fill="#263238"/>
<path d="M63.7576 45.9064C63.6265 46.0757 63.1077 45.9064 62.4907 45.9064C61.8736 45.9064 61.3493 46.0211 61.2292 45.8408C61.1746 45.7535 61.2292 45.5842 61.4858 45.4258C61.7917 45.2305 62.1499 45.1333 62.5125 45.1473C62.8762 45.153 63.2291 45.2712 63.5228 45.4859C63.7412 45.6497 63.8122 45.8245 63.7576 45.9064Z" fill="#263238"/>
<path d="M67.0014 40.3089C66.6301 38.8672 65.5379 37.5347 64.0744 37.2617C63.1187 37.0869 62.1412 37.3654 61.1746 37.3054C60.3718 37.2562 60.0824 36.6173 59.3233 36.3661C58.0564 35.9511 57.0843 34.5421 54.3484 34.837C53.6166 34.9189 52.6773 35.7654 52.0056 36.7265C50.9571 36.2733 49.5755 36.7593 48.8219 37.0924C47.2546 37.775 46.2771 39.5389 45.9658 41.3301C45.6546 43.1213 45.9112 44.9616 46.1624 46.7637C46.2771 47.5829 46.3918 48.402 46.5119 49.2321C46.5565 49.7786 46.7028 50.312 46.9433 50.8048L45.6982 62.3821C46.3215 62.5814 46.9788 62.6516 47.6301 62.5885C48.2814 62.5254 48.913 62.3302 49.4864 62.0149C50.0598 61.6996 50.5629 61.2708 50.965 60.7546C51.3672 60.2384 51.6599 59.6457 51.8254 59.0127C52.306 56.7354 51.0391 54.42 51.2411 52.0991C51.3613 50.7175 52.1422 49.4341 52.1367 48.0471C52.1278 47.591 52.0617 47.1378 51.9401 46.6982C54.1245 44.9125 54.7034 43.4762 54.6105 41.7833C55.2846 42.2547 56.0819 42.5186 56.9041 42.5424C58.0618 42.5424 59.2687 42.1055 60.35 42.5424C61.0942 42.9232 61.7508 43.4552 62.2777 44.1043C62.8729 44.694 63.6429 45.2347 64.4621 45.12C64.8537 45.0274 65.2344 44.8938 65.598 44.7213C65.7806 44.6348 65.9802 44.59 66.1823 44.59C66.3844 44.59 66.584 44.6348 66.7666 44.7213C67.2088 43.2926 67.2894 41.7765 67.0014 40.3089Z" fill="#263238"/>
<path d="M34.6509 52.1646C35.2109 52.5708 35.8133 52.915 36.4475 53.1913C37.1916 53.5047 37.9885 53.6733 38.7957 53.6882C39.8658 53.7168 40.9168 53.4009 41.7938 52.7872C42.3198 52.424 42.7637 51.9544 43.0967 51.4088C43.4297 50.8631 43.6444 50.2537 43.727 49.6198C43.8119 48.9163 43.6683 48.2041 43.3174 47.5883C43.136 47.2729 42.8786 47.0077 42.5687 46.817C42.2587 46.6262 41.906 46.5159 41.5426 46.4962C41.1715 46.4865 40.8085 46.6062 40.5159 46.8347C40.2191 47.0829 39.9994 47.4107 39.8825 47.7795C39.7536 48.1596 39.7241 48.5664 39.7967 48.9611C39.8694 49.3559 40.0418 49.7255 40.2975 50.0349C40.8538 50.6814 41.6051 51.1299 42.4382 51.3127C43.2986 51.5157 44.1927 51.5306 45.0595 51.3564C45.9292 51.1833 46.7464 50.8093 47.4459 50.2642C48.123 49.7399 48.6364 49.0332 48.9258 48.2273C49.21 47.4518 49.2779 46.6137 49.1224 45.8026C49.0482 45.4189 48.9117 45.05 48.7183 44.7104C48.5416 44.3703 48.2894 44.0752 47.9811 43.8476C47.6953 43.6211 47.3459 43.4894 46.9817 43.4708C46.8128 43.4651 46.6455 43.5058 46.4982 43.5886C46.3509 43.6715 46.2291 43.7931 46.1462 43.9404C45.9872 44.2408 45.95 44.5909 46.0424 44.9179C46.1476 45.2428 46.3359 45.5346 46.5885 45.7644C47.4873 46.5248 48.6381 46.9212 49.8145 46.8758C50.9909 46.8303 52.1077 46.3461 52.9451 45.5186C53.5072 44.9392 53.918 44.2303 54.141 43.4544C54.3251 42.7903 54.3825 42.0974 54.3103 41.412C54.3607 41.59 54.3901 41.7733 54.3977 41.9581C54.4365 42.4776 54.3885 42.9999 54.2557 43.5036C54.0393 44.3051 53.6306 45.0417 53.0652 45.6497C52.2957 46.4532 51.2664 46.9582 50.16 47.075C49.4928 47.1613 48.815 47.1062 48.1705 46.9133C47.526 46.7204 46.9293 46.3941 46.4192 45.9555C46.1363 45.6971 45.9287 45.3669 45.8185 44.9999C45.7075 44.6069 45.7525 44.1863 45.9441 43.8258C46.0496 43.6385 46.2037 43.4833 46.3902 43.3766C46.5768 43.2698 46.7887 43.2156 47.0036 43.2196C47.4262 43.237 47.8328 43.3859 48.1667 43.6455C48.5063 43.8945 48.7846 44.2176 48.9804 44.5903C49.1911 44.9626 49.3404 45.3664 49.4228 45.7862C49.5927 46.6477 49.5228 47.5393 49.2207 48.3638C48.9149 49.2252 48.3715 49.9825 47.6534 50.5482C46.9154 51.1164 46.0555 51.5053 45.1414 51.6841C44.2383 51.8641 43.3069 51.8474 42.4109 51.6349C41.5163 51.4358 40.7099 50.9531 40.1118 50.2588C39.8297 49.9056 39.6418 49.4866 39.5657 49.041C39.4983 48.6019 39.5339 48.1533 39.6695 47.7303C39.8015 47.304 40.0537 46.9248 40.3958 46.6381C40.7426 46.3714 41.1708 46.2326 41.6081 46.2449C42.0179 46.2669 42.4153 46.3927 42.763 46.6105C43.1107 46.8283 43.3974 47.131 43.5959 47.49C43.9674 48.1541 44.1184 48.919 44.0273 49.6744C43.9363 50.3398 43.7059 50.9786 43.3511 51.5488C42.9964 52.1191 42.5252 52.6081 41.9686 52.9838C41.0564 53.6137 39.9633 53.9282 38.8558 53.8794C38.0304 53.8559 37.2177 53.6704 36.4639 53.3333C35.9861 53.1283 35.535 52.8661 35.1205 52.5524C34.9785 52.4486 34.8802 52.3558 34.8093 52.3012L34.6509 52.1646Z" fill="#455A64"/>
<path d="M67.3182 42.7554C67.2408 42.8287 67.1523 42.8895 67.0561 42.9356C66.7884 43.0849 66.4992 43.1918 66.1987 43.2523C65.7194 43.3497 65.2254 43.3497 64.7461 43.2523C64.1123 43.1025 63.5252 42.7987 63.0368 42.3677C62.4485 41.8441 61.9888 41.1919 61.6935 40.4618C61.5953 40.2516 61.5408 40.0237 61.5333 39.7918C61.5258 39.56 61.5654 39.329 61.6498 39.1129C61.7542 38.8799 61.9327 38.6879 62.1576 38.5668C62.2791 38.5037 62.4139 38.4707 62.5508 38.4707C62.6877 38.4707 62.8226 38.5037 62.944 38.5668C63.1779 38.7028 63.3591 38.9137 63.4582 39.1654C63.5573 39.4172 63.5686 39.695 63.4901 39.9539C63.3951 40.2077 63.2492 40.4394 63.0614 40.6347C62.8736 40.8301 62.6478 40.9849 62.3979 41.0898C61.392 41.524 60.255 41.5417 59.236 41.139C58.7269 40.9552 58.2383 40.7191 57.778 40.4345C57.3181 40.1682 56.9003 39.8351 56.5383 39.4461C56.3444 39.2402 56.2262 38.9745 56.2034 38.6926C56.1806 38.4108 56.2544 38.1295 56.4127 37.8952C56.5061 37.7816 56.6286 37.6957 56.7672 37.6466C56.9058 37.5975 57.0551 37.5872 57.1991 37.6166C57.4633 37.675 57.6989 37.8237 57.8653 38.0371C58.0314 38.247 58.1079 38.5139 58.0783 38.7798C58.044 39.0287 57.9377 39.2622 57.7725 39.4515C57.469 39.802 57.0389 40.018 56.5765 40.0522C56.1605 40.082 55.7427 40.0282 55.3478 39.8939C54.9921 39.7809 54.6438 39.6459 54.3048 39.4897C53.7041 39.239 53.1791 38.8362 52.7812 38.3211C52.4908 37.9154 52.3517 37.4207 52.388 36.9231C52.407 36.6124 52.5172 36.3142 52.7047 36.0657C52.7701 35.9797 52.8517 35.9073 52.945 35.8528C52.6698 36.151 52.5126 36.5392 52.5027 36.9449C52.4884 37.4086 52.6329 37.8633 52.9122 38.2337C53.3021 38.7204 53.8122 39.0969 54.3922 39.3259C55.0692 39.668 55.818 39.844 56.5765 39.8392C56.7752 39.8205 56.9682 39.7625 57.1444 39.6688C57.3206 39.5751 57.4766 39.4474 57.6032 39.2932C57.7442 39.1502 57.8295 38.9615 57.8435 38.7612C57.8575 38.5609 57.7994 38.3622 57.6797 38.201C57.4339 37.8788 56.9097 37.7368 56.6639 38.0699C56.6012 38.1534 56.5558 38.2486 56.5304 38.3499C56.5051 38.4512 56.5004 38.5565 56.5165 38.6597C56.5485 38.8818 56.6432 39.0902 56.7895 39.2604C57.1332 39.6205 57.5267 39.9295 57.9582 40.1778C58.4004 40.4517 58.8709 40.6769 59.3616 40.8495C59.8271 41.0433 60.3264 41.1431 60.8306 41.1431C61.3349 41.1431 61.8341 41.0433 62.2996 40.8495C62.5103 40.7612 62.7008 40.631 62.8594 40.4667C63.0181 40.3024 63.1416 40.1075 63.2225 39.8939C63.2895 39.6913 63.2842 39.4717 63.2075 39.2726C63.1309 39.0735 62.9876 38.907 62.802 38.8017C62.7151 38.7623 62.6209 38.7417 62.5255 38.741C62.4301 38.7403 62.3356 38.7596 62.2482 38.7977C62.1607 38.8358 62.0822 38.8918 62.0177 38.962C61.9532 39.0323 61.9041 39.1154 61.8737 39.2058C61.8043 39.39 61.7719 39.5862 61.7785 39.783C61.785 39.9798 61.8304 40.1733 61.9119 40.3526C62.1863 41.0514 62.6157 41.6788 63.1679 42.1875C63.6234 42.6082 64.1744 42.9118 64.7734 43.0721C65.2283 43.1878 65.7017 43.2119 66.166 43.1431C66.5656 43.0657 66.9531 42.9353 67.3182 42.7554Z" fill="#455A64"/>
<path d="M51.5471 55.4576C51.4821 55.5324 51.4045 55.5953 51.3178 55.6432C51.0755 55.8005 50.8046 55.9081 50.5205 55.96C50.0712 56.0527 49.6052 56.0225 49.1716 55.8726C48.8727 55.7859 48.5957 55.6362 48.3593 55.4337C48.1229 55.2312 47.9325 54.9806 47.8009 54.6985C47.7121 54.5186 47.6843 54.3147 47.7218 54.1177C47.7592 53.9206 47.8598 53.7411 48.0084 53.6063C48.1766 53.4766 48.3831 53.4062 48.5955 53.4062C48.8079 53.4062 49.0143 53.4766 49.1825 53.6063C49.5209 53.8822 49.7779 54.245 49.9261 54.6557C50.0742 55.0665 50.1079 55.5097 50.0235 55.9381C49.9678 56.4126 49.7942 56.8655 49.5185 57.2557C49.2428 57.6458 48.8739 57.9607 48.4453 58.1717C47.9734 58.3711 47.4608 58.4552 46.9499 58.4172C46.439 58.3793 45.9445 58.2202 45.5073 57.9532C45.0551 57.6995 44.6695 57.342 44.3824 56.9102C44.2364 56.694 44.1372 56.4497 44.0911 56.193C44.0451 55.9363 44.0531 55.6728 44.1148 55.4193C44.1804 55.1659 44.3145 54.9354 44.5025 54.7531C44.5982 54.6597 44.712 54.5868 44.8369 54.539C44.9618 54.4911 45.0952 54.4692 45.2288 54.4746C45.4743 54.4932 45.7109 54.5749 45.9156 54.7117C46.1204 54.8485 46.2863 55.0358 46.3974 55.2555C46.5999 55.6517 46.71 56.0886 46.7196 56.5334C46.7357 56.9429 46.6953 57.3527 46.5995 57.7512C46.4278 58.4757 46.0482 59.1343 45.5073 59.6461C45.1203 60.0204 44.6313 60.272 44.1018 60.3692C43.5722 60.4663 43.0258 60.4048 42.5311 60.1922C42.2669 60.0771 42.0262 59.9141 41.8212 59.7117C41.7471 59.6459 41.6844 59.5684 41.6355 59.4823C41.9155 59.73 42.2324 59.9327 42.5748 60.083C42.9812 60.2401 43.4201 60.2945 43.8526 60.2414C44.4215 60.1724 44.9515 59.917 45.3599 59.5151C45.8533 59.0231 46.1946 58.3993 46.3428 57.7184C46.4311 57.3411 46.4642 56.953 46.4411 56.5662C46.4294 56.1643 46.3267 55.7703 46.1408 55.4139C46.0528 55.2353 45.92 55.0826 45.7554 54.9706C45.5907 54.8587 45.3999 54.7912 45.2015 54.775C45.0009 54.7873 44.8105 54.8676 44.6616 55.0026C44.5127 55.1376 44.4142 55.3192 44.3824 55.5176C44.3307 55.7317 44.325 55.9543 44.3654 56.1708C44.4059 56.3872 44.4917 56.5927 44.6172 56.7737C44.8795 57.1651 45.2291 57.4904 45.6384 57.7239C46.0419 57.9692 46.498 58.1149 46.969 58.1491C47.4399 58.1833 47.9123 58.1049 48.347 57.9205C48.7334 57.7289 49.0663 57.4446 49.316 57.093C49.5656 56.7413 49.7243 56.3333 49.7778 55.9054C49.8549 55.5259 49.8299 55.1328 49.7051 54.7663C49.5804 54.3997 49.3605 54.0729 49.0679 53.8193C48.9409 53.7196 48.7842 53.6655 48.6228 53.6655C48.4614 53.6655 48.3047 53.7196 48.1777 53.8193C48.0675 53.9212 47.9927 54.0556 47.9642 54.2029C47.9357 54.3502 47.955 54.5028 48.0193 54.6384C48.1341 54.895 48.3012 55.1246 48.51 55.3127C48.7188 55.5008 48.9646 55.6432 49.2317 55.7306C49.6397 55.8817 50.0794 55.9268 50.5095 55.8617C50.8759 55.7872 51.2269 55.6505 51.5471 55.4576Z" fill="#455A64"/>
<path d="M28.9878 188.208C28.9878 188.208 32.6412 195.307 42.1651 191.856C42.1651 191.856 51.4924 196.924 60.4156 191.25C60.4156 191.25 71.9655 192.795 78.251 189.753L70.1907 120.05L69.164 109.346H43.6559C43.6559 109.346 36.087 112.792 34.8692 129.617C33.6514 146.443 31.0466 169.553 31.0466 169.553L28.9878 188.208Z" fill="#263238"/>
<path d="M59.8695 191.463C59.8695 191.463 59.8695 191.392 59.8695 191.25C59.8695 191.108 59.8368 190.895 59.8149 190.633C59.7712 190.086 59.7112 189.273 59.6292 188.252C59.4763 186.187 59.2743 183.195 59.0558 179.514C58.6135 172.12 58.1439 161.886 57.8981 150.571C57.6524 139.256 57.6797 129.017 57.7998 121.628C57.8599 117.92 57.9254 114.922 57.9964 112.852C58.0292 111.826 58.0565 111.028 58.0783 110.466C58.0783 110.204 58.0783 109.996 58.0783 109.843C58.0713 109.774 58.0713 109.705 58.0783 109.636C58.0866 109.705 58.0866 109.774 58.0783 109.843V110.466C58.0783 111.012 58.0783 111.831 58.051 112.852C58.051 114.938 57.991 117.936 57.9473 121.628C57.8817 129.038 57.8817 139.278 58.1275 150.571C58.3732 161.864 58.8156 172.104 59.2197 179.514C59.4217 183.206 59.5856 186.193 59.7057 188.252C59.7603 189.273 59.804 190.076 59.8368 190.633C59.8368 190.895 59.8368 191.102 59.8641 191.255C59.8716 191.324 59.8735 191.393 59.8695 191.463Z" fill="#455A64"/>
<path d="M62.1085 171.508C62.1085 171.508 62.1631 171.432 62.3051 171.394C62.5153 171.348 62.7347 171.375 62.9276 171.47C63.0738 171.542 63.2021 171.645 63.3032 171.773C63.4043 171.9 63.4756 172.049 63.5119 172.207C63.5328 172.411 63.494 172.617 63.4003 172.8C63.3065 172.982 63.1618 173.133 62.9837 173.235C62.8055 173.337 62.6017 173.385 62.3969 173.373C62.1921 173.361 61.9952 173.29 61.83 173.168C61.7117 173.055 61.6204 172.917 61.5627 172.764C61.5051 172.611 61.4826 172.447 61.4968 172.284C61.5126 172.07 61.6012 171.867 61.748 171.71C61.8518 171.607 61.9392 171.585 61.9446 171.596C61.7988 171.801 61.7137 172.043 61.6989 172.295C61.6992 172.421 61.7261 172.547 61.7779 172.662C61.8296 172.778 61.905 172.882 61.9993 172.966C62.1248 173.046 62.2695 173.089 62.4179 173.093C62.5663 173.096 62.7129 173.059 62.8419 172.985C62.9708 172.912 63.0774 172.805 63.1503 172.675C63.2231 172.546 63.2594 172.399 63.2553 172.251C63.2323 172.126 63.1822 172.007 63.1087 171.904C63.0351 171.8 62.9398 171.713 62.8293 171.65C62.6091 171.531 62.3576 171.481 62.1085 171.508Z" fill="#455A64"/>
<path d="M61.5407 150.811C61.5407 150.811 61.5953 150.74 61.7373 150.702C61.9473 150.653 62.1679 150.68 62.3598 150.779C62.5084 150.847 62.6388 150.949 62.7403 151.077C62.8419 151.205 62.9117 151.356 62.9441 151.516C62.9629 151.718 62.9229 151.922 62.8289 152.103C62.7348 152.283 62.5907 152.433 62.4139 152.534C62.237 152.635 62.0348 152.682 61.8315 152.671C61.6283 152.66 61.4325 152.591 61.2676 152.471C61.1471 152.361 61.0542 152.224 60.9964 152.071C60.9385 151.919 60.9173 151.755 60.9345 151.592C60.9522 151.388 61.0388 151.195 61.1802 151.046C61.2895 150.937 61.3714 150.92 61.3768 150.931C61.2317 151.135 61.1466 151.375 61.1311 151.625C61.1311 151.752 61.1578 151.877 61.2096 151.993C61.2613 152.109 61.3369 152.212 61.4314 152.297C61.5562 152.378 61.7008 152.423 61.8494 152.427C61.9981 152.432 62.1451 152.396 62.2746 152.322C62.4041 152.249 62.511 152.142 62.5838 152.012C62.6566 151.883 62.6924 151.735 62.6875 151.587C62.6638 151.462 62.6141 151.343 62.5417 151.239C62.4692 151.134 62.3756 151.046 62.267 150.981C62.0454 150.858 61.7938 150.799 61.5407 150.811Z" fill="#455A64"/>
<path d="M61.2074 132.506C61.2074 132.506 61.262 132.435 61.4095 132.397C61.6177 132.348 61.8364 132.375 62.0265 132.473C62.1754 132.542 62.3062 132.644 62.4086 132.772C62.511 132.9 62.5821 133.05 62.6163 133.211C62.636 133.414 62.5964 133.619 62.5021 133.801C62.4079 133.982 62.2631 134.133 62.0852 134.234C61.9073 134.335 61.704 134.382 61.4998 134.37C61.2956 134.358 61.0992 134.287 60.9344 134.166C60.8149 134.055 60.7227 133.918 60.6649 133.766C60.6071 133.613 60.5853 133.449 60.6012 133.287C60.6163 133.074 60.7029 132.872 60.847 132.714C60.9562 132.61 61.0381 132.588 61.049 132.599C60.9006 132.801 60.8134 133.042 60.7978 133.293C60.7971 133.42 60.824 133.546 60.8768 133.662C60.9296 133.778 61.007 133.881 61.1036 133.964C61.2283 134.044 61.3723 134.088 61.5201 134.091C61.6679 134.095 61.814 134.059 61.9426 133.986C62.0711 133.913 62.1774 133.806 62.2499 133.677C62.3225 133.548 62.3585 133.402 62.3542 133.254C62.3305 133.129 62.2808 133.011 62.2084 132.907C62.136 132.802 62.0424 132.714 61.9337 132.648C61.7095 132.534 61.458 132.485 61.2074 132.506Z" fill="#455A64"/>
<path d="M60.5575 112.923C60.5575 112.923 60.6121 112.847 60.7541 112.808C60.9648 112.762 61.1851 112.791 61.3766 112.89C61.5245 112.96 61.6542 113.062 61.7556 113.19C61.857 113.318 61.9273 113.468 61.9609 113.628C61.9889 113.834 61.9511 114.043 61.8531 114.227C61.7551 114.41 61.6017 114.558 61.4148 114.649C61.2393 114.758 61.0345 114.81 60.8284 114.798C60.6222 114.786 60.4246 114.711 60.2626 114.583C60.1443 114.47 60.053 114.332 59.9954 114.179C59.9377 114.026 59.9152 113.862 59.9295 113.699C59.9511 113.494 60.0394 113.302 60.1807 113.153C60.2899 113.049 60.3718 113.027 60.3773 113.038C60.2314 113.243 60.1463 113.485 60.1315 113.737C60.1318 113.864 60.1587 113.989 60.2105 114.105C60.2622 114.22 60.3376 114.324 60.4319 114.409C60.5574 114.488 60.7021 114.531 60.8505 114.535C60.9989 114.538 61.1455 114.501 61.2745 114.428C61.4035 114.354 61.5101 114.247 61.5829 114.118C61.6557 113.988 61.692 113.842 61.6879 113.693C61.6649 113.568 61.6149 113.45 61.5413 113.346C61.4677 113.242 61.3724 113.156 61.2619 113.092C61.0495 112.967 60.804 112.908 60.5575 112.923Z" fill="#455A64"/>
<path d="M92.9847 91.8847L221.792 90.9509L225.38 178.523L92.0017 177.289L92.9847 91.8847Z" fill="#00B998"/>
<path d="M92.9792 91.8847L153.945 42.5559C155.198 41.5436 156.761 40.9941 158.372 41C159.982 41.006 161.542 41.5671 162.787 42.5887L221.792 90.9509" fill="#00B998"/>
<g opacity="0.3">
<path opacity="0.3" d="M92.9792 91.8847L153.945 42.5559C155.198 41.5436 156.761 40.9941 158.372 41C159.982 41.006 161.542 41.5671 162.787 42.5887L221.792 90.9509" fill="black"/>
</g>
<path d="M92.0018 177.289C91.8434 177.136 102.154 165.875 115.036 152.141C127.918 138.407 138.485 127.392 138.649 127.539C138.813 127.687 128.497 138.947 115.615 152.687C102.733 166.427 92.1656 177.436 92.0018 177.289Z" fill="#263238"/>
<path d="M225.38 178.523C225.216 178.67 215.174 167.639 202.952 153.888C190.73 140.138 180.955 128.866 181.108 128.719C181.261 128.571 191.315 139.602 203.536 153.359C215.758 167.115 225.555 178.375 225.38 178.523Z" fill="#263238"/>
<g opacity="0.5">
<path opacity="0.5" d="M221.792 90.9509L157.107 142.622L92.9849 91.8847" fill="black"/>
</g>
<path d="M99.4668 96.6685L99.2703 56.4431L212.055 55.1052L213.328 97.433L157.102 141.945L99.4668 96.6685Z" fill="#FAFAFA"/>
<path d="M99.4669 96.6685C99.4669 96.6685 99.8328 96.9415 100.526 97.4822L103.584 99.8631L115.244 108.967L157.189 141.852H157.047L213.257 97.3238L213.202 97.4385C212.962 89.3672 212.705 80.8918 212.443 72.2744C212.274 66.4694 212.099 60.7354 211.93 55.1106L212.072 55.2471L99.2867 56.5305L99.3741 56.4431C99.4178 69.0961 99.456 79.1497 99.4779 86.0415C99.4779 89.4873 99.4779 92.1413 99.4779 93.938V95.9749C99.4779 96.4337 99.4779 96.6685 99.4779 96.6685C99.4779 96.6685 99.4779 96.4391 99.4779 95.9859C99.4779 95.5326 99.4779 94.85 99.4779 93.9598C99.4779 92.1632 99.4396 89.5146 99.4123 86.0742C99.3686 79.1716 99.3031 69.1125 99.2212 56.4431V56.3503H99.3086L212.099 54.9686H212.236V55.1106C212.405 60.7299 212.574 66.4639 212.749 72.2689C213.011 80.8918 213.262 89.3617 213.508 97.4385V97.5095L213.453 97.5532L157.206 142.044L157.135 142.098L157.064 142.044L115.145 109.048L103.557 99.9014L100.499 97.4985C99.811 96.9524 99.4669 96.6685 99.4669 96.6685Z" fill="#263238"/>
<path d="M194.231 75.3653C194.231 75.4417 176.98 75.611 155.709 75.7366C134.439 75.8622 117.182 75.9114 117.182 75.8295C117.182 75.7476 134.428 75.5837 155.709 75.4527C176.99 75.3216 194.231 75.2834 194.231 75.3653Z" fill="#263238"/>
<path d="M194.231 86.7241C194.231 86.806 176.98 86.9753 155.709 87.1009C134.439 87.2265 117.182 87.2702 117.182 87.1937C117.182 87.1173 134.428 86.948 155.709 86.8169C176.99 86.6858 194.231 86.6476 194.231 86.7241Z" fill="#263238"/>
<path d="M194.231 99.8249C194.231 99.9014 176.98 100.071 155.709 100.202C134.439 100.333 117.182 100.371 117.182 100.289C117.182 100.207 134.428 100.043 155.709 99.9177C176.99 99.7921 194.231 99.743 194.231 99.8249Z" fill="#263238"/>
<path d="M194.231 112.92C194.231 113.002 177.777 113.161 157.479 113.286C137.18 113.412 120.726 113.445 120.721 113.368C120.715 113.292 137.175 113.128 157.479 113.002C177.782 112.877 194.231 112.844 194.231 112.92Z" fill="#263238"/>
<path d="M179.803 124.416C179.655 124.441 179.505 124.452 179.355 124.448L178.056 124.487L173.294 124.563L157.571 124.787C151.433 124.891 145.869 124.923 141.844 124.929H137.082H135.782C135.633 124.932 135.483 124.922 135.334 124.902C135.482 124.877 135.632 124.866 135.782 124.869L137.082 124.836L141.844 124.754L157.566 124.53C163.704 124.426 169.269 124.394 173.288 124.388H178.056H179.355C179.505 124.388 179.654 124.397 179.803 124.416Z" fill="#263238"/>
<path d="M165.282 135.469C165.282 135.545 161.607 135.611 157.091 135.611C152.575 135.611 148.899 135.545 148.899 135.469C148.899 135.392 152.58 135.327 157.091 135.327C161.602 135.327 165.282 135.387 165.282 135.469Z" fill="#263238"/>
<path d="M203.247 126.545C210.772 126.545 216.872 120.445 216.872 112.92C216.872 105.395 210.772 99.2952 203.247 99.2952C195.722 99.2952 189.622 105.395 189.622 112.92C189.622 120.445 195.722 126.545 203.247 126.545Z" fill="#263238"/>
<path d="M199.703 126.545C207.228 126.545 213.328 120.445 213.328 112.92C213.328 105.395 207.228 99.2952 199.703 99.2952C192.178 99.2952 186.078 105.395 186.078 112.92C186.078 120.445 192.178 126.545 199.703 126.545Z" fill="white"/>
<path d="M101.171 37.9061H113.633L111.945 35.9729V31.3366C111.945 30.1316 111.466 28.9759 110.614 28.1238C109.762 27.2718 108.607 26.7931 107.402 26.7931C106.805 26.7931 106.215 26.9106 105.664 27.139C105.113 27.3674 104.612 27.7022 104.191 28.1242C103.769 28.5461 103.435 29.0471 103.207 29.5983C102.98 30.1495 102.863 30.7402 102.864 31.3366V35.7436L101.171 37.9061Z" fill="#FF7658"/>
<path d="M105.687 37.2945C105.701 37.5658 105.772 37.8311 105.896 38.0729C106.02 38.3148 106.193 38.5276 106.405 38.6974C106.617 38.8673 106.863 38.9902 107.126 39.0581C107.389 39.1261 107.663 39.1375 107.931 39.0916C108.199 39.0458 108.454 38.9437 108.68 38.7921C108.905 38.6405 109.096 38.4428 109.239 38.2121C109.383 37.9814 109.476 37.7229 109.512 37.4536C109.548 37.1844 109.527 36.9105 109.45 36.6501" fill="#FF725E"/>
<path d="M108.095 24.9036H106.872V27.503H108.095V24.9036Z" fill="#FF725E"/>
<path d="M125.57 29.3816C125.533 29.2746 125.504 29.1651 125.483 29.0539C125.428 28.8191 125.357 28.5078 125.264 28.0928C125.15 27.5704 125.003 27.056 124.822 26.5528C124.713 26.2579 124.636 25.9248 124.489 25.5917L124.025 24.5322C123.185 22.7426 122.07 21.0953 120.721 19.6501C118.949 17.7823 116.804 16.3086 114.424 15.3251C113.069 14.7547 111.65 14.3513 110.198 14.1237C108.631 13.8953 107.042 13.8696 105.468 14.0472C104.641 14.1343 103.82 14.2766 103.011 14.4732C102.601 14.5605 102.203 14.7189 101.788 14.8445C101.371 14.9601 100.964 15.108 100.57 15.2868C98.8969 15.9635 97.3399 16.8977 95.9555 18.0555C92.8831 20.5888 90.7173 24.0521 89.7846 27.9235C89.2935 29.9976 89.1733 32.1422 89.4296 34.2582C89.6545 36.4471 90.29 38.5739 91.3027 40.5274L91.6195 41.1226L91.6577 41.1991V41.281C90.6474 44.5575 89.6645 47.8341 88.7033 50.9632L88.4467 50.7284L96.2504 46.66L96.3432 46.6109L96.4306 46.6764C99.6931 49.1923 103.714 50.5239 107.834 50.4524C111.953 50.381 115.926 48.9108 119.099 46.2832C120.726 44.9228 122.113 43.2983 123.2 41.4776C124.07 39.9571 124.74 38.3309 125.193 36.6392C125.5 35.3543 125.683 34.0432 125.74 32.7237C125.74 32.1776 125.74 31.7079 125.74 31.2874C125.74 30.8669 125.674 30.5338 125.652 30.2444C125.63 29.955 125.608 29.7638 125.598 29.6055C125.589 29.5329 125.589 29.4596 125.598 29.387C125.617 29.4567 125.63 29.528 125.636 29.6C125.636 29.7602 125.663 29.9732 125.718 30.2389C125.75 30.5284 125.789 30.8724 125.838 31.2874C125.887 31.7025 125.838 32.1885 125.838 32.7291C125.807 34.0602 125.643 35.3848 125.346 36.6828C124.91 38.4006 124.249 40.0532 123.38 41.5977C122.293 43.458 120.897 45.12 119.252 46.5126C117.238 48.1935 114.89 49.4263 112.362 50.1287C109.835 50.8312 107.187 50.9872 104.595 50.5864C101.544 50.1018 98.6599 48.8692 96.2012 46.9986H96.3869L88.5941 51.0779L88.2009 51.2854L88.332 50.8431L91.2809 41.1608V41.3192L90.9587 40.713C89.9256 38.7165 89.2773 36.5435 89.0474 34.3073C88.7801 32.1419 88.9059 29.946 89.4187 27.8252C90.374 23.8781 92.588 20.3492 95.7261 17.7716C97.1427 16.5996 98.7325 15.6545 100.439 14.9701C100.84 14.7886 101.254 14.6389 101.679 14.5223C102.099 14.4022 102.503 14.2438 102.924 14.1564C103.744 13.9545 104.578 13.8121 105.419 13.7305C107.019 13.5544 108.634 13.5874 110.225 13.8288C111.696 14.0727 113.134 14.4907 114.506 15.0739C116.911 16.0865 119.074 17.5979 120.852 19.5082C122.201 20.98 123.307 22.6575 124.129 24.4776C124.287 24.8599 124.44 25.2148 124.576 25.5698C124.713 25.9248 124.795 26.247 124.899 26.5473C125.076 27.0546 125.213 27.575 125.308 28.1037C125.385 28.5133 125.45 28.8355 125.494 29.0757C125.526 29.1759 125.551 29.278 125.57 29.3816Z" fill="#263238"/>
<path d="M200.266 118.159C202.589 118.159 203.998 116.337 203.998 113.423V113.411C203.998 110.497 202.589 108.682 200.266 108.682C197.942 108.682 196.533 110.497 196.533 113.411V113.423C196.533 116.337 197.942 118.159 200.266 118.159ZM200.266 116.623C199.123 116.623 198.469 115.436 198.469 113.423V113.411C198.469 111.398 199.123 110.218 200.266 110.218C201.408 110.218 202.062 111.398 202.062 113.411V113.423C202.062 115.436 201.408 116.623 200.266 116.623Z" fill="#FF7658"/>
</svg>
