<svg width="173" height="17" viewBox="0 0 173 17" fill="none" xmlns="http://www.w3.org/2000/svg">
<g filter="url(#filter0_dii)">
<path d="M2.96332 3.75C2.40803 4.10897 1.82631 4.33974 1.21815 4.44231L1 2.36538C1.43629 2.27564 1.92547 2.01923 2.46753 1.59615C3.00959 1.16026 3.37317 0.717949 3.55826 0.269231H5.50175V13.7308H2.96332V3.75Z" fill="url(#paint0_linear)"/>
<path d="M14.4287 14C13.2653 14 12.2406 13.7051 11.3548 13.1154C10.4822 12.5256 9.80135 11.6923 9.31218 10.6154C8.823 9.53846 8.57841 8.29487 8.57841 6.88462C8.57841 5.53846 8.823 4.34615 9.31218 3.30769C9.80135 2.25641 10.4888 1.44231 11.3747 0.865385C12.2605 0.288462 13.2785 0 14.4287 0C15.5921 0 16.6168 0.294872 17.5026 0.884615C18.3884 1.46154 19.0693 2.26923 19.5452 3.30769C20.0344 4.34615 20.279 5.53846 20.279 6.88462C20.279 8.29487 20.0344 9.53846 19.5452 10.6154C19.0693 11.6923 18.3884 12.5256 17.5026 13.1154C16.6168 13.7051 15.5921 14 14.4287 14ZM14.4287 11.7885C15.4335 11.7885 16.2334 11.3846 16.8283 10.5769C17.4365 9.76923 17.7406 8.53846 17.7406 6.88462C17.7406 5.34615 17.4365 4.17949 16.8283 3.38461C16.2201 2.57692 15.4203 2.17308 14.4287 2.17308C13.4371 2.17308 12.6373 2.57692 12.0291 3.38461C11.4209 4.17949 11.1168 5.34615 11.1168 6.88462C11.1168 8.52564 11.4143 9.75641 12.0093 10.5769C12.6174 11.3846 13.4239 11.7885 14.4287 11.7885Z" fill="url(#paint1_linear)"/>
<path d="M28.4308 14C27.2674 14 26.2427 13.7051 25.3569 13.1154C24.4843 12.5256 23.8035 11.6923 23.3143 10.6154C22.8251 9.53846 22.5805 8.29487 22.5805 6.88462C22.5805 5.53846 22.8251 4.34615 23.3143 3.30769C23.8035 2.25641 24.491 1.44231 25.3768 0.865385C26.2626 0.288462 27.2806 0 28.4308 0C29.5943 0 30.6189 0.294872 31.5047 0.884615C32.3905 1.46154 33.0714 2.26923 33.5473 3.30769C34.0365 4.34615 34.2811 5.53846 34.2811 6.88462C34.2811 8.29487 34.0365 9.53846 33.5473 10.6154C33.0714 11.6923 32.3905 12.5256 31.5047 13.1154C30.6189 13.7051 29.5943 14 28.4308 14ZM28.4308 11.7885C29.4356 11.7885 30.2355 11.3846 30.8304 10.5769C31.4386 9.76923 31.7427 8.53846 31.7427 6.88462C31.7427 5.34615 31.4386 4.17949 30.8304 3.38461C30.2222 2.57692 29.4224 2.17308 28.4308 2.17308C27.4392 2.17308 26.6394 2.57692 26.0312 3.38461C25.423 4.17949 25.1189 5.34615 25.1189 6.88462C25.1189 8.52564 25.4164 9.75641 26.0114 10.5769C26.6195 11.3846 27.426 11.7885 28.4308 11.7885Z" fill="url(#paint2_linear)"/>
<path d="M36.1316 11.1154H38.7097V13.7308H36.1316V11.1154Z" fill="url(#paint3_linear)"/>
<path d="M46.4418 14C45.2784 14 44.2537 13.7051 43.3679 13.1154C42.4953 12.5256 41.8145 11.6923 41.3253 10.6154C40.8361 9.53846 40.5915 8.29487 40.5915 6.88462C40.5915 5.53846 40.8361 4.34615 41.3253 3.30769C41.8145 2.25641 42.502 1.44231 43.3878 0.865385C44.2736 0.288462 45.2916 0 46.4418 0C47.6053 0 48.6299 0.294872 49.5157 0.884615C50.4015 1.46154 51.0824 2.26923 51.5583 3.30769C52.0475 4.34615 52.2921 5.53846 52.2921 6.88462C52.2921 8.29487 52.0475 9.53846 51.5583 10.6154C51.0824 11.6923 50.4015 12.5256 49.5157 13.1154C48.6299 13.7051 47.6053 14 46.4418 14ZM46.4418 11.7885C47.4466 11.7885 48.2465 11.3846 48.8414 10.5769C49.4496 9.76923 49.7537 8.53846 49.7537 6.88462C49.7537 5.34615 49.4496 4.17949 48.8414 3.38461C48.2333 2.57692 47.4334 2.17308 46.4418 2.17308C45.4502 2.17308 44.6504 2.57692 44.0422 3.38461C43.434 4.17949 43.13 5.34615 43.13 6.88462C43.13 8.52564 43.4274 9.75641 44.0224 10.5769C44.6305 11.3846 45.437 11.7885 46.4418 11.7885Z" fill="url(#paint4_linear)"/>
<path d="M60.4439 14C59.2805 14 58.2558 13.7051 57.37 13.1154C56.4975 12.5256 55.8166 11.6923 55.3274 10.6154C54.8382 9.53846 54.5936 8.29487 54.5936 6.88462C54.5936 5.53846 54.8382 4.34615 55.3274 3.30769C55.8166 2.25641 56.5041 1.44231 57.3899 0.865385C58.2757 0.288462 59.2937 0 60.4439 0C61.6074 0 62.632 0.294872 63.5178 0.884615C64.4036 1.46154 65.0845 2.26923 65.5604 3.30769C66.0496 4.34615 66.2942 5.53846 66.2942 6.88462C66.2942 8.29487 66.0496 9.53846 65.5604 10.6154C65.0845 11.6923 64.4036 12.5256 63.5178 13.1154C62.632 13.7051 61.6074 14 60.4439 14ZM60.4439 11.7885C61.4487 11.7885 62.2486 11.3846 62.8435 10.5769C63.4517 9.76923 63.7558 8.53846 63.7558 6.88462C63.7558 5.34615 63.4517 4.17949 62.8435 3.38461C62.2354 2.57692 61.4355 2.17308 60.4439 2.17308C59.4523 2.17308 58.6525 2.57692 58.0443 3.38461C57.4361 4.17949 57.1321 5.34615 57.1321 6.88462C57.1321 8.52564 57.4295 9.75641 58.0245 10.5769C58.6326 11.3846 59.4391 11.7885 60.4439 11.7885Z" fill="url(#paint5_linear)"/>
<path d="M74.446 14C73.2826 14 72.258 13.7051 71.3721 13.1154C70.4996 12.5256 69.8187 11.6923 69.3295 10.6154C68.8403 9.53846 68.5957 8.29487 68.5957 6.88462C68.5957 5.53846 68.8403 4.34615 69.3295 3.30769C69.8187 2.25641 70.5062 1.44231 71.392 0.865385C72.2778 0.288462 73.2958 0 74.446 0C75.6095 0 76.6341 0.294872 77.5199 0.884615C78.4057 1.46154 79.0866 2.26923 79.5625 3.30769C80.0517 4.34615 80.2963 5.53846 80.2963 6.88462C80.2963 8.29487 80.0517 9.53846 79.5625 10.6154C79.0866 11.6923 78.4057 12.5256 77.5199 13.1154C76.6341 13.7051 75.6095 14 74.446 14ZM74.446 11.7885C75.4508 11.7885 76.2507 11.3846 76.8456 10.5769C77.4538 9.76923 77.7579 8.53846 77.7579 6.88462C77.7579 5.34615 77.4538 4.17949 76.8456 3.38461C76.2375 2.57692 75.4376 2.17308 74.446 2.17308C73.4545 2.17308 72.6546 2.57692 72.0464 3.38461C71.4383 4.17949 71.1342 5.34615 71.1342 6.88462C71.1342 8.52564 71.4316 9.75641 72.0266 10.5769C72.6347 11.3846 73.4412 11.7885 74.446 11.7885Z" fill="url(#paint6_linear)"/>
<path d="M82.1468 11.1154H84.7249V13.7308H82.1468V11.1154Z" fill="url(#paint7_linear)"/>
<path d="M92.457 14C91.2936 14 90.269 13.7051 89.3832 13.1154C88.5106 12.5256 87.8297 11.6923 87.3405 10.6154C86.8513 9.53846 86.6068 8.29487 86.6068 6.88462C86.6068 5.53846 86.8513 4.34615 87.3405 3.30769C87.8297 2.25641 88.5172 1.44231 89.403 0.865385C90.2888 0.288462 91.3068 0 92.457 0C93.6205 0 94.6451 0.294872 95.5309 0.884615C96.4167 1.46154 97.0976 2.26923 97.5736 3.30769C98.0627 4.34615 98.3073 5.53846 98.3073 6.88462C98.3073 8.29487 98.0627 9.53846 97.5736 10.6154C97.0976 11.6923 96.4167 12.5256 95.5309 13.1154C94.6451 13.7051 93.6205 14 92.457 14ZM92.457 11.7885C93.4618 11.7885 94.2617 11.3846 94.8566 10.5769C95.4648 9.76923 95.7689 8.53846 95.7689 6.88462C95.7689 5.34615 95.4648 4.17949 94.8566 3.38461C94.2485 2.57692 93.4486 2.17308 92.457 2.17308C91.4655 2.17308 90.6656 2.57692 90.0574 3.38461C89.4493 4.17949 89.1452 5.34615 89.1452 6.88462C89.1452 8.52564 89.4426 9.75641 90.0376 10.5769C90.6458 11.3846 91.4522 11.7885 92.457 11.7885Z" fill="url(#paint8_linear)"/>
<path d="M106.459 14C105.296 14 104.271 13.7051 103.385 13.1154C102.513 12.5256 101.832 11.6923 101.343 10.6154C100.853 9.53846 100.609 8.29487 100.609 6.88462C100.609 5.53846 100.853 4.34615 101.343 3.30769C101.832 2.25641 102.519 1.44231 103.405 0.865385C104.291 0.288462 105.309 0 106.459 0C107.623 0 108.647 0.294872 109.533 0.884615C110.419 1.46154 111.1 2.26923 111.576 3.30769C112.065 4.34615 112.309 5.53846 112.309 6.88462C112.309 8.29487 112.065 9.53846 111.576 10.6154C111.1 11.6923 110.419 12.5256 109.533 13.1154C108.647 13.7051 107.623 14 106.459 14ZM106.459 11.7885C107.464 11.7885 108.264 11.3846 108.859 10.5769C109.467 9.76923 109.771 8.53846 109.771 6.88462C109.771 5.34615 109.467 4.17949 108.859 3.38461C108.251 2.57692 107.451 2.17308 106.459 2.17308C105.468 2.17308 104.668 2.57692 104.06 3.38461C103.451 4.17949 103.147 5.34615 103.147 6.88462C103.147 8.52564 103.445 9.75641 104.04 10.5769C104.648 11.3846 105.454 11.7885 106.459 11.7885Z" fill="url(#paint9_linear)"/>
<path d="M120.461 14C119.298 14 118.273 13.7051 117.387 13.1154C116.515 12.5256 115.834 11.6923 115.345 10.6154C114.856 9.53846 114.611 8.29487 114.611 6.88462C114.611 5.53846 114.856 4.34615 115.345 3.30769C115.834 2.25641 116.521 1.44231 117.407 0.865385C118.293 0.288462 119.311 0 120.461 0C121.625 0 122.649 0.294872 123.535 0.884615C124.421 1.46154 125.102 2.26923 125.578 3.30769C126.067 4.34615 126.312 5.53846 126.312 6.88462C126.312 8.29487 126.067 9.53846 125.578 10.6154C125.102 11.6923 124.421 12.5256 123.535 13.1154C122.649 13.7051 121.625 14 120.461 14ZM120.461 11.7885C121.466 11.7885 122.266 11.3846 122.861 10.5769C123.469 9.76923 123.773 8.53846 123.773 6.88462C123.773 5.34615 123.469 4.17949 122.861 3.38461C122.253 2.57692 121.453 2.17308 120.461 2.17308C119.47 2.17308 118.67 2.57692 118.062 3.38461C117.453 4.17949 117.149 5.34615 117.149 6.88462C117.149 8.52564 117.447 9.75641 118.042 10.5769C118.65 11.3846 119.456 11.7885 120.461 11.7885Z" fill="url(#paint10_linear)"/>
<path d="M144.193 0.269231L139.255 13.7308H136.855L131.917 0.269231H134.475L138.045 10.1731L141.635 0.269231H144.193Z" fill="url(#paint11_linear)"/>
<path d="M145.723 0.269231H148.221L154.151 8.96154V0.269231H156.689V13.7308H154.607L148.261 4.5V13.7308H145.723V0.269231Z" fill="url(#paint12_linear)"/>
<path d="M159.962 7.78846H158.673V5.98077H159.962V0.269231H165.158C166.48 0.269231 167.657 0.538461 168.688 1.07692C169.733 1.61538 170.546 2.39103 171.127 3.40385C171.709 4.41667 172 5.61538 172 7C172 8.38461 171.709 9.58333 171.127 10.5962C170.546 11.609 169.733 12.3846 168.688 12.9231C167.657 13.4615 166.48 13.7308 165.158 13.7308H159.962V7.78846ZM165.158 11.3654C166.48 11.3654 167.485 10.9808 168.173 10.2115C168.873 9.44231 169.224 8.37179 169.224 7C169.224 5.6282 168.873 4.55769 168.173 3.78846C167.485 3.01923 166.48 2.63462 165.158 2.63462H162.501V5.98077H164.92V7.78846H162.501V11.3654H165.158Z" fill="url(#paint13_linear)"/>
</g>
<defs>
<filter id="filter0_dii" x="0" y="-1" width="173" height="18" filterUnits="userSpaceOnUse" color-interpolation-filters="sRGB">
<feFlood flood-opacity="0" result="BackgroundImageFix"/>
<feColorMatrix in="SourceAlpha" type="matrix" values="0 0 0 0 0 0 0 0 0 0 0 0 0 0 0 0 0 0 127 0"/>
<feOffset dy="2"/>
<feGaussianBlur stdDeviation="0.5"/>
<feColorMatrix type="matrix" values="0 0 0 0 0.838125 0 0 0 0 0.061875 0 0 0 0 0.0858335 0 0 0 1 0"/>
<feBlend mode="normal" in2="BackgroundImageFix" result="effect1_dropShadow"/>
<feBlend mode="normal" in="SourceGraphic" in2="effect1_dropShadow" result="shape"/>
<feColorMatrix in="SourceAlpha" type="matrix" values="0 0 0 0 0 0 0 0 0 0 0 0 0 0 0 0 0 0 127 0" result="hardAlpha"/>
<feOffset dy="1"/>
<feComposite in2="hardAlpha" operator="arithmetic" k2="-1" k3="1"/>
<feColorMatrix type="matrix" values="0 0 0 0 0.977604 0 0 0 0 0.972396 0 0 0 0 0.972396 0 0 0 0.25 0"/>
<feBlend mode="normal" in2="shape" result="effect2_innerShadow"/>
<feColorMatrix in="SourceAlpha" type="matrix" values="0 0 0 0 0 0 0 0 0 0 0 0 0 0 0 0 0 0 127 0" result="hardAlpha"/>
<feOffset dy="-1"/>
<feGaussianBlur stdDeviation="0.5"/>
<feComposite in2="hardAlpha" operator="arithmetic" k2="-1" k3="1"/>
<feColorMatrix type="matrix" values="0 0 0 0 0.954167 0 0 0 0 0.599974 0 0 0 0 0.0458333 0 0 0 1 0"/>
<feBlend mode="normal" in2="effect2_innerShadow" result="effect3_innerShadow"/>
</filter>
<linearGradient id="paint0_linear" x1="1.44393" y1="1.63016" x2="172.87" y2="41.965" gradientUnits="userSpaceOnUse">
<stop stop-color="#FDE2B8"/>
<stop offset="0.255208" stop-color="#FAC46F"/>
<stop offset="0.614583" stop-color="#FED698"/>
<stop offset="1" stop-color="#FEC05F"/>
</linearGradient>
<linearGradient id="paint1_linear" x1="1.44393" y1="1.63016" x2="172.87" y2="41.965" gradientUnits="userSpaceOnUse">
<stop stop-color="#FDE2B8"/>
<stop offset="0.255208" stop-color="#FAC46F"/>
<stop offset="0.614583" stop-color="#FED698"/>
<stop offset="1" stop-color="#FEC05F"/>
</linearGradient>
<linearGradient id="paint2_linear" x1="1.44393" y1="1.63016" x2="172.87" y2="41.965" gradientUnits="userSpaceOnUse">
<stop stop-color="#FDE2B8"/>
<stop offset="0.255208" stop-color="#FAC46F"/>
<stop offset="0.614583" stop-color="#FED698"/>
<stop offset="1" stop-color="#FEC05F"/>
</linearGradient>
<linearGradient id="paint3_linear" x1="1.44393" y1="1.63016" x2="172.87" y2="41.965" gradientUnits="userSpaceOnUse">
<stop stop-color="#FDE2B8"/>
<stop offset="0.255208" stop-color="#FAC46F"/>
<stop offset="0.614583" stop-color="#FED698"/>
<stop offset="1" stop-color="#FEC05F"/>
</linearGradient>
<linearGradient id="paint4_linear" x1="1.44393" y1="1.63016" x2="172.87" y2="41.965" gradientUnits="userSpaceOnUse">
<stop stop-color="#FDE2B8"/>
<stop offset="0.255208" stop-color="#FAC46F"/>
<stop offset="0.614583" stop-color="#FED698"/>
<stop offset="1" stop-color="#FEC05F"/>
</linearGradient>
<linearGradient id="paint5_linear" x1="1.44393" y1="1.63016" x2="172.87" y2="41.965" gradientUnits="userSpaceOnUse">
<stop stop-color="#FDE2B8"/>
<stop offset="0.255208" stop-color="#FAC46F"/>
<stop offset="0.614583" stop-color="#FED698"/>
<stop offset="1" stop-color="#FEC05F"/>
</linearGradient>
<linearGradient id="paint6_linear" x1="1.44393" y1="1.63016" x2="172.87" y2="41.965" gradientUnits="userSpaceOnUse">
<stop stop-color="#FDE2B8"/>
<stop offset="0.255208" stop-color="#FAC46F"/>
<stop offset="0.614583" stop-color="#FED698"/>
<stop offset="1" stop-color="#FEC05F"/>
</linearGradient>
<linearGradient id="paint7_linear" x1="1.44393" y1="1.63016" x2="172.87" y2="41.965" gradientUnits="userSpaceOnUse">
<stop stop-color="#FDE2B8"/>
<stop offset="0.255208" stop-color="#FAC46F"/>
<stop offset="0.614583" stop-color="#FED698"/>
<stop offset="1" stop-color="#FEC05F"/>
</linearGradient>
<linearGradient id="paint8_linear" x1="1.44393" y1="1.63016" x2="172.87" y2="41.965" gradientUnits="userSpaceOnUse">
<stop stop-color="#FDE2B8"/>
<stop offset="0.255208" stop-color="#FAC46F"/>
<stop offset="0.614583" stop-color="#FED698"/>
<stop offset="1" stop-color="#FEC05F"/>
</linearGradient>
<linearGradient id="paint9_linear" x1="1.44393" y1="1.63016" x2="172.87" y2="41.965" gradientUnits="userSpaceOnUse">
<stop stop-color="#FDE2B8"/>
<stop offset="0.255208" stop-color="#FAC46F"/>
<stop offset="0.614583" stop-color="#FED698"/>
<stop offset="1" stop-color="#FEC05F"/>
</linearGradient>
<linearGradient id="paint10_linear" x1="1.44393" y1="1.63016" x2="172.87" y2="41.965" gradientUnits="userSpaceOnUse">
<stop stop-color="#FDE2B8"/>
<stop offset="0.255208" stop-color="#FAC46F"/>
<stop offset="0.614583" stop-color="#FED698"/>
<stop offset="1" stop-color="#FEC05F"/>
</linearGradient>
<linearGradient id="paint11_linear" x1="1.44393" y1="1.63016" x2="172.87" y2="41.965" gradientUnits="userSpaceOnUse">
<stop stop-color="#FDE2B8"/>
<stop offset="0.255208" stop-color="#FAC46F"/>
<stop offset="0.614583" stop-color="#FED698"/>
<stop offset="1" stop-color="#FEC05F"/>
</linearGradient>
<linearGradient id="paint12_linear" x1="1.44393" y1="1.63016" x2="172.87" y2="41.965" gradientUnits="userSpaceOnUse">
<stop stop-color="#FDE2B8"/>
<stop offset="0.255208" stop-color="#FAC46F"/>
<stop offset="0.614583" stop-color="#FED698"/>
<stop offset="1" stop-color="#FEC05F"/>
</linearGradient>
<linearGradient id="paint13_linear" x1="1.44393" y1="1.63016" x2="172.87" y2="41.965" gradientUnits="userSpaceOnUse">
<stop stop-color="#FDE2B8"/>
<stop offset="0.255208" stop-color="#FAC46F"/>
<stop offset="0.614583" stop-color="#FED698"/>
<stop offset="1" stop-color="#FEC05F"/>
</linearGradient>
</defs>
</svg>
