<svg width="34" height="68" viewBox="0 0 34 68" fill="none" xmlns="http://www.w3.org/2000/svg">
<path fill-rule="evenodd" clip-rule="evenodd" d="M9.66623 29.3436L12.2827 6.85837L12.6939 6.90622L10.0775 29.3914L9.66623 29.3436Z" fill="#C23232"/>
<path fill-rule="evenodd" clip-rule="evenodd" d="M24.4474 56.3905L24.9863 0L25.4003 0.00395679L24.8613 56.3945L24.4474 56.3905Z" fill="#C23232"/>
<path d="M32.1404 43.0055L33.653 65.2881C33.7122 66.161 33.0469 66.9163 32.1717 66.9757L18.6725 67.892C17.7948 67.9516 17.0337 67.2956 16.9743 66.4202L15.4617 44.1377C15.4537 44.0195 15.461 43.9027 15.4788 43.7903C15.5849 43.0705 16.1867 42.5015 16.9455 42.45L30.4447 41.5336C31.2086 41.4818 31.8851 41.9767 32.0828 42.6809C32.1127 42.785 32.1329 42.8949 32.1404 43.0055Z" fill="url(#paint0_linear)"/>
<path fill-rule="evenodd" clip-rule="evenodd" d="M15.8877 43.855L15.8877 43.855C15.8741 43.9413 15.8691 44.0267 15.8748 44.1097L17.3873 66.3922C17.431 67.0361 17.9914 67.5233 18.6444 67.4789L32.1437 66.5626C32.7933 66.5185 33.2835 65.9583 33.2399 65.3161L31.7273 43.0336C31.7219 42.9539 31.7073 42.873 31.6849 42.7953L31.6842 42.7928C31.539 42.2756 31.0393 41.9082 30.4728 41.9467L16.9735 42.863C16.4085 42.9014 15.966 43.324 15.8884 43.8507L15.8877 43.855ZM32.0828 42.6809C31.8851 41.9767 31.2086 41.4818 30.4447 41.5336L16.9455 42.45C16.1867 42.5015 15.5849 43.0705 15.4788 43.7903C15.461 43.9027 15.4537 44.0195 15.4617 44.1377L16.9743 66.4202C17.0337 67.2956 17.7948 67.9516 18.6725 67.892L32.1717 66.9757C33.0469 66.9163 33.7122 66.161 33.653 65.2881L32.1404 43.0055C32.1329 42.8949 32.1127 42.785 32.0828 42.6809Z" fill="#FFCB66"/>
<path d="M32.0794 42.6811C32.1338 49.771 27.8352 50.9801 24.414 51.1542C20.9083 51.3922 16.4146 50.9997 15.4754 43.7905C15.5841 43.0704 16.1858 42.5014 16.9446 42.4499L30.4439 41.5336C31.2078 41.4817 31.8842 41.9766 32.0794 42.6811Z" fill="url(#paint1_linear)"/>
<path fill-rule="evenodd" clip-rule="evenodd" d="M24.414 51.1542C27.8352 50.9801 32.1338 49.771 32.0794 42.6811C31.8842 41.9766 31.2078 41.4817 30.4439 41.5336L16.9446 42.4499C16.1858 42.5014 15.5841 43.0704 15.4754 43.7905C16.4146 50.9997 20.9083 51.3922 24.414 51.1542ZM31.6658 42.743C31.5058 42.2528 31.0208 41.9094 30.4719 41.9466L16.9727 42.863C16.4271 42.9 15.9947 43.2957 15.8942 43.7989C16.3596 47.2748 17.6619 49.0246 19.1893 49.9065C20.7542 50.8102 22.6454 50.8593 24.386 50.7412L24.3895 50.7409L24.393 50.7408C26.0763 50.6551 27.8975 50.3158 29.2896 49.1893C30.6533 48.0856 31.6802 46.1629 31.6658 42.743Z" fill="#FFCB66"/>
<path d="M24.6204 54.1427C26.2785 54.0301 27.532 52.602 27.4201 50.953C27.3081 49.3039 25.8732 48.0583 24.215 48.1708C22.5568 48.2834 21.3034 49.7115 21.4153 51.3606C21.5273 53.0096 22.9622 54.2553 24.6204 54.1427Z" fill="url(#paint2_radial)"/>
<path fill-rule="evenodd" clip-rule="evenodd" d="M24.5923 53.7296C26.0245 53.6324 27.1033 52.3998 27.007 50.981C26.9107 49.5622 25.6752 48.4867 24.243 48.5839C22.8109 48.6811 21.7321 49.9137 21.8284 51.3325C21.9247 52.7514 23.1602 53.8269 24.5923 53.7296ZM27.4201 50.953C27.532 52.602 26.2785 54.0301 24.6204 54.1427C22.9622 54.2553 21.5273 53.0096 21.4153 51.3606C21.3034 49.7115 22.5568 48.2834 24.215 48.1708C25.8732 48.0583 27.3081 49.3039 27.4201 50.953Z" fill="#FFCB66"/>
<path d="M24.5844 53.6151C25.9492 53.5224 26.9809 52.347 26.8888 50.9897C26.7966 49.6323 25.6155 48.6071 24.2507 48.6997C22.8859 48.7924 21.8542 49.9678 21.9464 51.3252C22.0385 52.6825 23.2196 53.7077 24.5844 53.6151Z" fill="url(#paint3_radial)"/>
<path fill-rule="evenodd" clip-rule="evenodd" d="M24.5564 53.202C25.6952 53.1247 26.5522 52.1448 26.4757 51.0177C26.3992 49.8906 25.4176 49.0355 24.2788 49.1128C23.14 49.1901 22.2829 50.17 22.3594 51.2971C22.4359 52.4242 23.4175 53.2793 24.5564 53.202ZM26.8888 50.9897C26.9809 52.347 25.9492 53.5224 24.5844 53.6151C23.2196 53.7077 22.0385 52.6825 21.9464 51.3252C21.8542 49.9678 22.8859 48.7924 24.2507 48.6997C25.6155 48.6071 26.7966 49.6323 26.8888 50.9897Z" fill="#FFCB66"/>
<path d="M25.6468 51.074L24.5005 52.38L23.1857 51.241L24.3343 49.9323L25.6468 51.074Z" fill="url(#paint4_radial)"/>
<path fill-rule="evenodd" clip-rule="evenodd" d="M25.6468 51.074L24.3343 49.9323L23.1857 51.241L24.5005 52.38L25.6468 51.074ZM25.0613 51.1134L24.3736 50.5152L23.7717 51.2009L24.4607 51.7977L25.0613 51.1134Z" fill="#FFCB66"/>
<path d="M16.4562 25.5157L14.0737 44.0925C13.9804 44.8202 13.3102 45.3333 12.5806 45.2397L1.32635 43.7964C0.594626 43.7025 0.075277 43.039 0.168875 42.3092L2.55131 23.7325C2.56395 23.6339 2.58897 23.539 2.6219 23.4495C2.82637 22.8746 3.41398 22.5044 4.0466 22.5855L15.3008 24.0289C15.9376 24.1105 16.4136 24.6278 16.4616 25.2393C16.4693 25.3298 16.468 25.4235 16.4562 25.5157Z" fill="url(#paint5_linear)"/>
<path fill-rule="evenodd" clip-rule="evenodd" d="M3.0105 23.5923L3.01048 23.5923C2.98669 23.657 2.9701 23.7216 2.96195 23.7851L0.579511 42.3619C0.515435 42.8615 0.870669 43.3205 1.37901 43.3857L12.6332 44.829C13.1386 44.8939 13.5992 44.5382 13.6631 44.0398L16.0455 25.4631C16.0534 25.4016 16.0545 25.3375 16.0491 25.2743L16.0489 25.2717C16.0161 24.8539 15.6888 24.496 15.2481 24.4395L3.99393 22.9962C3.55402 22.9398 3.15103 23.1972 3.01196 23.5882L3.0105 23.5923ZM16.4616 25.2393C16.4136 24.6278 15.9376 24.1105 15.3008 24.0289L4.0466 22.5855C3.41398 22.5044 2.82637 22.8746 2.6219 23.4495C2.58897 23.539 2.56395 23.6339 2.55131 23.7325L0.168875 42.3092C0.075277 43.039 0.594626 43.7025 1.32635 43.7964L12.5806 45.2397C13.3102 45.3333 13.9804 44.8202 14.0737 44.0925L16.4562 25.5157C16.468 25.4235 16.4693 25.3298 16.4616 25.2393Z" fill="#FFCB66"/>
<path d="M16.4591 25.2393C15.3499 31.0806 11.6168 31.3757 8.77415 30.9621C5.85147 30.5872 2.21859 29.533 2.61941 23.4495C2.82599 22.8748 3.4136 22.5047 4.04622 22.5858L15.3004 24.0291C15.9373 24.1108 16.4132 24.628 16.4591 25.2393Z" fill="url(#paint6_linear)"/>
<path fill-rule="evenodd" clip-rule="evenodd" d="M8.83029 30.5519L8.83376 30.5524C10.2281 30.7552 11.7641 30.7702 13.0737 30.08C14.3509 29.4069 15.4983 28.0154 16.0411 25.2207C15.9887 24.826 15.6711 24.494 15.2478 24.4398L3.99355 22.9964C3.57269 22.9425 3.18455 23.1759 3.02847 23.54C2.84919 26.4539 3.6315 28.0795 4.72314 29.035C5.84742 30.0191 7.37765 30.3656 8.82682 30.5514L8.83029 30.5519ZM16.4591 25.2393C15.3499 31.0806 11.6168 31.3757 8.77415 30.9621C5.85147 30.5872 2.21859 29.533 2.61941 23.4495C2.82599 22.8748 3.4136 22.5047 4.04622 22.5858L15.3004 24.0291C15.9373 24.1108 16.4132 24.628 16.4591 25.2393Z" fill="#FFCB66"/>
<path d="M8.45731 33.4534C9.8397 33.6306 11.1033 32.6598 11.2796 31.285C11.4559 29.9102 10.4782 28.652 9.09582 28.4747C7.71342 28.2974 6.44984 29.2682 6.27352 30.643C6.0972 32.0178 7.07492 33.2761 8.45731 33.4534Z" fill="url(#paint7_radial)"/>
<path fill-rule="evenodd" clip-rule="evenodd" d="M8.50997 33.0427C9.66771 33.1912 10.722 32.3783 10.869 31.2324C11.0159 30.0864 10.2009 29.0338 9.04315 28.8853C7.88542 28.7368 6.83112 29.5497 6.68416 30.6957C6.53719 31.8416 7.35224 32.8942 8.50997 33.0427ZM11.2796 31.285C11.1033 32.6598 9.8397 33.6306 8.45731 33.4534C7.07492 33.2761 6.0972 32.0178 6.27352 30.643C6.44984 29.2682 7.71342 28.2974 9.09582 28.4747C10.4782 28.652 11.4559 29.9102 11.2796 31.285Z" fill="#FFCB66"/>
<path d="M8.51367 33.0127C9.6515 33.1586 10.6915 32.3595 10.8367 31.2279C10.9818 30.0964 10.177 29.0607 9.03922 28.9148C7.90139 28.7689 6.86136 29.5679 6.71623 30.6995C6.57111 31.8311 7.37585 32.8667 8.51367 33.0127Z" fill="url(#paint8_radial)"/>
<path fill-rule="evenodd" clip-rule="evenodd" d="M8.56634 32.602C9.4795 32.7191 10.3103 32.078 10.426 31.1753C10.5418 30.2726 9.89972 29.4425 8.98656 29.3254C8.07339 29.2083 7.24264 29.8495 7.12687 30.7522C7.0111 31.6549 7.65317 32.4849 8.56634 32.602ZM10.8367 31.2279C10.6915 32.3595 9.6515 33.1586 8.51367 33.0127C7.37585 32.8667 6.57111 31.8311 6.71623 30.6995C6.86136 29.5679 7.90139 28.7689 9.03922 28.9148C10.177 29.0607 10.9818 30.0964 10.8367 31.2279Z" fill="#FFCB66"/>
<path d="M9.80141 31.0951L8.64586 31.9829L7.74963 30.832L8.90756 29.9423L9.80141 31.0951Z" fill="url(#paint9_radial)"/>
<path fill-rule="evenodd" clip-rule="evenodd" d="M9.80141 31.0951L8.90756 29.9423L7.74963 30.832L8.64586 31.9829L9.80141 31.0951ZM9.21942 31.0202L8.83295 30.5217L8.3323 30.9064L8.7198 31.404L9.21942 31.0202Z" fill="#FFCB66"/>
<defs>
<linearGradient id="paint0_linear" x1="23.8667" y1="41.8885" x2="25.2509" y2="67.5369" gradientUnits="userSpaceOnUse">
<stop stop-color="#D43324"/>
<stop offset="1" stop-color="#DF4C3D"/>
</linearGradient>
<linearGradient id="paint1_linear" x1="23.7088" y1="41.9366" x2="24.2138" y2="51.2935" gradientUnits="userSpaceOnUse">
<stop stop-color="#FA6037"/>
<stop offset="0.9986" stop-color="#DF4B3D"/>
</linearGradient>
<radialGradient id="paint2_radial" cx="0" cy="0" r="1" gradientUnits="userSpaceOnUse" gradientTransform="translate(24.4168 51.1558) rotate(-3.88331) scale(3.02775 3.01118)">
<stop offset="0.8261" stop-color="#FFC02A"/>
<stop offset="0.8854" stop-color="#FFB928"/>
<stop offset="0.9729" stop-color="#FFA521"/>
<stop offset="0.9763" stop-color="#FFA421"/>
</radialGradient>
<radialGradient id="paint3_radial" cx="0" cy="0" r="1" gradientUnits="userSpaceOnUse" gradientTransform="translate(24.4166 51.1564) rotate(-3.88331) scale(2.49567 2.48201)">
<stop stop-color="#FFC02A"/>
<stop offset="0.3857" stop-color="#FFB928"/>
<stop offset="0.9544" stop-color="#FFA521"/>
<stop offset="0.9763" stop-color="#FFA421"/>
</radialGradient>
<radialGradient id="paint4_radial" cx="0" cy="0" r="1" gradientUnits="userSpaceOnUse" gradientTransform="translate(24.4166 51.1564) rotate(-3.88331) scale(0.936576 0.931451)">
<stop stop-color="#FFC02A"/>
<stop offset="0.3857" stop-color="#FFB928"/>
<stop offset="0.9544" stop-color="#FFA521"/>
<stop offset="0.9763" stop-color="#FFA421"/>
</radialGradient>
<linearGradient id="paint5_linear" x1="9.83172" y1="23.2501" x2="6.79579" y2="44.5749" gradientUnits="userSpaceOnUse">
<stop stop-color="#D43324"/>
<stop offset="1" stop-color="#DF4C3D"/>
</linearGradient>
<linearGradient id="paint6_linear" x1="9.69429" y1="23.2645" x2="8.58673" y2="31.0441" gradientUnits="userSpaceOnUse">
<stop stop-color="#FA6037"/>
<stop offset="0.9986" stop-color="#DF4B3D"/>
</linearGradient>
<radialGradient id="paint7_radial" cx="0" cy="0" r="1" gradientUnits="userSpaceOnUse" gradientTransform="translate(8.77596 30.963) rotate(7.30818) scale(2.53904 2.52515)">
<stop offset="0.8261" stop-color="#FFC02A"/>
<stop offset="0.8854" stop-color="#FFB928"/>
<stop offset="0.9729" stop-color="#FFA521"/>
<stop offset="0.9763" stop-color="#FFA421"/>
</radialGradient>
<radialGradient id="paint8_radial" cx="0" cy="0" r="1" gradientUnits="userSpaceOnUse" gradientTransform="translate(8.77584 30.9628) rotate(7.30818) scale(2.09284 2.08139)">
<stop stop-color="#FFC02A"/>
<stop offset="0.3857" stop-color="#FFB928"/>
<stop offset="0.9544" stop-color="#FFA521"/>
<stop offset="0.9763" stop-color="#FFA421"/>
</radialGradient>
<radialGradient id="paint9_radial" cx="0" cy="0" r="1" gradientUnits="userSpaceOnUse" gradientTransform="translate(8.77597 30.9627) rotate(7.30818) scale(0.785403 0.781105)">
<stop stop-color="#FFC02A"/>
<stop offset="0.3857" stop-color="#FFB928"/>
<stop offset="0.9544" stop-color="#FFA521"/>
<stop offset="0.9763" stop-color="#FFA421"/>
</radialGradient>
</defs>
</svg>
