<svg width="56" height="56" viewBox="0 0 56 56" fill="none" xmlns="http://www.w3.org/2000/svg">
<path d="M28 56C43.464 56 56 43.464 56 28C56 12.536 43.464 0 28 0C12.536 0 0 12.536 0 28C0 43.464 12.536 56 28 56Z" fill="#FFD54F"/>
<path d="M16.3334 25.6667C18.9107 25.6667 21.0001 23.5773 21.0001 21C21.0001 18.4227 18.9107 16.3333 16.3334 16.3333C13.7561 16.3333 11.6667 18.4227 11.6667 21C11.6667 23.5773 13.7561 25.6667 16.3334 25.6667Z" fill="#6D4C41"/>
<path d="M39.6667 25.6667C42.244 25.6667 44.3333 23.5773 44.3333 21C44.3333 18.4227 42.244 16.3333 39.6667 16.3333C37.0893 16.3333 35 18.4227 35 21C35 23.5773 37.0893 25.6667 39.6667 25.6667Z" fill="#6D4C41"/>
<path d="M34.4167 45.8243C33.9687 45.8243 33.5207 45.654 33.1801 45.311C30.4127 42.5437 25.5874 42.5437 22.8224 45.311C22.1387 45.9946 21.0304 45.9946 20.3467 45.311C19.6631 44.6297 19.6631 43.519 20.3467 42.8353C22.3907 40.7913 25.1091 39.6667 28.0001 39.6667C30.8911 39.6667 33.6094 40.7913 35.6534 42.8377C36.3371 43.5213 36.3371 44.6296 35.6534 45.3133C35.3127 45.654 34.8647 45.8243 34.4167 45.8243Z" fill="#6D4C41"/>
<path d="M43.4396 28.1726C42.7862 27.2276 41.2136 27.2276 40.5602 28.1726C39.5896 29.5773 37.3333 33.054 37.3333 35C37.3333 37.5736 39.4262 39.6666 41.9999 39.6666C44.5736 39.6666 46.6666 37.5736 46.6666 35C46.6666 33.054 44.4102 29.5773 43.4396 28.1726Z" fill="#00BCD4"/>
</svg>
