<svg width="56" height="56" viewBox="0 0 56 56" fill="none" xmlns="http://www.w3.org/2000/svg">
<path d="M28 56C43.464 56 56 43.464 56 28C56 12.536 43.464 0 28 0C12.536 0 0 12.536 0 28C0 43.464 12.536 56 28 56Z" fill="#FFD54F"/>
<path d="M16.3334 25.6667C18.9107 25.6667 21.0001 23.5773 21.0001 21C21.0001 18.4227 18.9107 16.3334 16.3334 16.3334C13.7561 16.3334 11.6667 18.4227 11.6667 21C11.6667 23.5773 13.7561 25.6667 16.3334 25.6667Z" fill="#6D4C41"/>
<path d="M39.6667 25.6667C42.244 25.6667 44.3333 23.5773 44.3333 21C44.3333 18.4227 42.244 16.3334 39.6667 16.3334C37.0893 16.3334 35 18.4227 35 21C35 23.5773 37.0893 25.6667 39.6667 25.6667Z" fill="#6D4C41"/>
<path d="M35.5834 42H20.4167C19.4507 42 18.6667 41.216 18.6667 40.25C18.6667 39.284 19.4507 38.5 20.4167 38.5H35.5834C36.5494 38.5 37.3334 39.284 37.3334 40.25C37.3334 41.216 36.5494 42 35.5834 42Z" fill="#6D4C41"/>
</svg>
