<svg width="56" height="56" viewBox="0 0 56 56" fill="none" xmlns="http://www.w3.org/2000/svg">
<g clip-path="url(#clip0)">
<path d="M28 56C43.464 56 56 43.464 56 28C56 12.536 43.464 0 28 0C12.536 0 0 12.536 0 28C0 43.464 12.536 56 28 56Z" fill="#FFD54F"/>
<path d="M50.2949 2.24934C48.9439 2.24934 47.6699 2.70434 46.6666 3.48834C45.6632 2.70434 44.3892 2.24934 43.0382 2.24934C39.8929 2.24934 37.3333 4.69468 37.3333 7.70001C37.3333 12.383 44.2749 17.465 45.6632 18.4357C45.9666 18.6457 46.3166 18.7507 46.6666 18.7507C47.0166 18.7507 47.3666 18.6457 47.6699 18.4357C49.0582 17.4627 55.9999 12.383 55.9999 7.70001C55.9999 4.69468 53.4402 2.24934 50.2949 2.24934Z" fill="#E53935"/>
<path d="M12.9617 39.5827C11.6107 39.5827 10.3367 40.0377 9.33333 40.8217C8.33 40.0377 7.056 39.5827 5.705 39.5827C2.55967 39.5827 0 42.028 0 45.0333C0 49.7163 6.94167 54.7983 8.33 55.769C8.63333 55.979 8.98333 56.084 9.33333 56.084C9.68333 56.084 10.0333 55.979 10.3367 55.769C11.725 54.796 18.6667 49.7163 18.6667 45.0333C18.6667 42.028 16.107 39.5827 12.9617 39.5827Z" fill="#E53935"/>
<path d="M21.5834 26.25C20.6174 26.25 19.8334 25.466 19.8334 24.5C19.8334 23.2143 18.7881 22.1667 17.5001 22.1667C16.2121 22.1667 15.1667 23.2143 15.1667 24.5C15.1667 25.466 14.3827 26.25 13.4167 26.25C12.4507 26.25 11.6667 25.466 11.6667 24.5C11.6667 21.2847 14.2824 18.6667 17.5001 18.6667C20.7177 18.6667 23.3334 21.2847 23.3334 24.5C23.3334 25.466 22.5494 26.25 21.5834 26.25Z" fill="#6D4C41"/>
<path d="M42.5834 26.25C41.6174 26.25 40.8334 25.466 40.8334 24.5C40.8334 23.2143 39.7881 22.1667 38.5001 22.1667C37.2121 22.1667 36.1667 23.2143 36.1667 24.5C36.1667 25.466 35.3827 26.25 34.4167 26.25C33.4507 26.25 32.6667 25.466 32.6667 24.5C32.6667 21.2847 35.2824 18.6667 38.5001 18.6667C41.7177 18.6667 44.3334 21.2847 44.3334 24.5C44.3334 25.466 43.5494 26.25 42.5834 26.25Z" fill="#6D4C41"/>
<path d="M28.0001 42C22.9041 42 18.1161 40.0167 14.5135 36.4117C13.8298 35.728 13.8298 34.6197 14.5135 33.936C15.1971 33.2523 16.3055 33.2523 16.9891 33.936C19.9291 36.8807 23.8398 38.5 28.0001 38.5C32.1605 38.5 36.0711 36.8807 39.0135 33.9383C39.6971 33.2547 40.8055 33.2547 41.4891 33.9383C42.1728 34.622 42.1728 35.7303 41.4891 36.414C37.8841 40.0167 33.0961 42 28.0001 42Z" fill="#6D4C41"/>
</g>
<defs>
<clipPath id="clip0">
<rect width="56" height="56" fill="white"/>
</clipPath>
</defs>
</svg>
