<svg width="337" height="358" viewBox="0 0 337 358" fill="none" xmlns="http://www.w3.org/2000/svg">
<path d="M185.418 121.197C235.459 125.595 235.023 101.987 235.023 101.987L206.174 104.357C206.174 104.357 235.398 95.2638 240.459 86.8361C245.52 78.4085 245.524 68.735 245.524 68.735L218.667 82.686C218.667 82.686 240.455 71.103 240.455 59.4476C237.495 59.4476 224.553 63.5274 224.553 63.5274C224.553 63.5274 238.892 52.454 240.455 47.7923C242.019 43.1305 236.766 35.6196 236.766 35.6196C236.766 35.6196 219.012 38.4517 215.635 41.5899C212.258 44.7282 206.167 59.4419 206.167 59.4419C206.167 59.4419 202.13 48.515 203.359 44.2907C188.706 46.6226 197.085 78.4028 197.085 78.4028C197.085 78.4028 195.159 66.2605 185.411 55.4649C178.935 70.3688 183.028 81.8282 184.049 88.9664C176.074 88.1904 174.809 71.7154 168.003 61.768C168.003 61.768 160.638 82.0165 171.541 104.346C175.79 113.648 175.79 113.648 185.418 121.197Z" fill="#16C6B1"/>
<path d="M111.546 303.249L78.2553 335.594L101.939 357.425L151.622 346.993C151.622 346.993 113.889 336.758 115.257 337.608C115.994 338.067 113.26 326.151 113.26 326.151L123.435 315.88L111.546 303.249Z" fill="#16C6B1"/>
<path d="M111.634 303.352L94.7693 319.734C94.7693 319.734 113.139 330.765 114.506 331.625L113.34 326.255L123.514 315.985L111.634 303.352Z" fill="#BCB1A2"/>
<path d="M83.3037 330.678L78.2428 335.594L101.926 357.425L151.609 346.993L105.113 353.722L83.3037 330.678Z" fill="#3A3A3A"/>
<path d="M198.392 299.495L196.868 345.859L229.112 345.175L257.65 303.245C257.65 303.245 223.365 322.01 224.938 321.676C225.788 321.485 215.54 314.806 215.54 314.806L215.731 300.351L198.392 299.495Z" fill="#16C6B1"/>
<path d="M198.527 299.504L197.765 322.986C197.765 322.986 218.664 318.214 220.241 317.879L215.669 314.819L215.86 300.364L198.527 299.504Z" fill="#BCB1A2"/>
<path d="M197.103 338.812L196.873 345.859L229.097 345.178L257.635 303.249L228.819 340.303L197.103 338.812Z" fill="#3A3A3A"/>
<path d="M66.2618 86.237L73.2636 207.89H189.376L174.01 83.2413L66.2618 86.237Z" fill="#E4E4E4"/>
<path d="M53.3647 91.9965C52.6219 90.8763 49.7781 89.3509 46.2677 87.7969C45.5896 87.4983 44.6373 113.803 44.6373 113.803C44.7839 110.044 42.9763 86.4142 42.3687 86.1612C35.7136 83.4985 28.5557 81.1476 28.5557 81.1476C28.5557 81.1476 15.2588 109.677 25.5424 120.559C35.826 131.44 50.2505 142.234 50.2505 142.234L25.83 134.475C25.83 134.475 22.8224 146.492 30.6642 152.076C38.506 157.661 46.8791 164.161 54.6047 167.241C62.3303 170.32 58.5951 178.628 36.1631 170.855C36.1631 170.855 59.9874 223.349 80.7337 209.21C101.48 195.071 82.5718 130.108 82.5718 130.108C82.5718 130.108 66.4406 144.706 68.793 146.774C68.793 146.774 70.8882 136.731 75.9243 119.516C74.8767 111.77 53.3647 91.9965 53.3647 91.9965" fill="#449281"/>
<path d="M86.0661 49.6086V83.2413H150.745V45.0286L86.0661 49.6086Z" fill="#E4E4E4"/>
<path d="M57.7755 201.872V244.122H201.104L198.26 201.872H57.7755Z" fill="#E4E4E4"/>
<path d="M172.437 63.0862C176.051 63.0862 178.981 60.1603 178.981 56.551C178.981 52.9417 176.051 50.0158 172.437 50.0158C168.822 50.0158 165.892 52.9417 165.892 56.551C165.892 60.1603 168.822 63.0862 172.437 63.0862Z" fill="#7C7C7C"/>
<path d="M161.591 78.6864C168.448 78.6864 174.008 73.1351 174.008 66.2874C174.008 59.4396 168.448 53.8883 161.591 53.8883C154.733 53.8883 149.174 59.4396 149.174 66.2874C149.174 73.1351 154.733 78.6864 161.591 78.6864Z" fill="#F4DDBE"/>
<path d="M138.837 75.7534C146.262 75.7534 152.282 69.7423 152.282 62.3273C152.282 54.9122 146.262 48.9012 138.837 48.9012C131.411 48.9012 125.391 54.9122 125.391 62.3273C125.391 69.7423 131.411 75.7534 138.837 75.7534Z" fill="#D3D3D3"/>
<path d="M159.192 63.925C164.985 63.925 169.681 59.2356 169.681 53.4508C169.681 47.6661 164.985 42.9766 159.192 42.9766C153.399 42.9766 148.703 47.6661 148.703 53.4508C148.703 59.2356 153.399 63.925 159.192 63.925Z" fill="#D3D3D3"/>
<path d="M169.78 53.4508C169.799 54.838 169.542 56.2151 169.023 57.5022C168.504 58.7893 167.735 59.9606 166.759 60.9482C165.783 61.9358 164.62 62.72 163.339 63.2552C162.057 63.7905 160.681 64.0661 159.292 64.0661C157.903 64.0661 156.527 63.7905 155.245 63.2552C153.963 62.72 152.801 61.9358 151.825 60.9482C150.849 59.9606 150.08 58.7893 149.561 57.5022C149.042 56.2151 148.785 54.838 148.804 53.4508C158.194 58.0555 164.698 56.5148 167.325 46.7159C168.915 48.6005 169.785 50.9866 169.78 53.4508V53.4508Z" fill="#7C7C7C"/>
<path d="M152.272 62.3386C152.23 65.8715 150.795 69.2454 148.278 71.7288C145.761 74.2122 142.366 75.6049 138.827 75.6049C135.289 75.6049 131.893 74.2122 129.377 71.7288C126.86 69.2454 125.425 65.8715 125.383 62.3386C132.832 71.3083 142.141 71.3616 152.272 62.3386Z" fill="#7C7C7C"/>
<path d="M259.596 130.112L259.592 123.605L291.02 123.583C291.884 123.583 292.713 123.926 293.324 124.536C293.935 125.146 294.279 125.973 294.279 126.835V126.835C294.279 127.698 293.937 128.525 293.326 129.135C292.716 129.746 291.888 130.089 291.025 130.09L259.596 130.112Z" fill="#F4DDBE"/>
<path d="M262.999 122.194L262.995 115.678L294.423 115.656C295.287 115.655 296.116 115.997 296.728 116.607C297.339 117.217 297.683 118.045 297.684 118.908V118.908C297.685 119.771 297.342 120.599 296.731 121.21C296.12 121.82 295.292 122.164 294.427 122.164L262.999 122.186L262.999 122.194Z" fill="#F4DDBE"/>
<path d="M262.991 114.229L262.987 107.722L294.415 107.7C294.842 107.7 295.266 107.784 295.662 107.947C296.057 108.11 296.417 108.35 296.72 108.652C297.022 108.954 297.263 109.312 297.427 109.707C297.591 110.102 297.675 110.525 297.676 110.952V110.952C297.676 111.379 297.592 111.803 297.429 112.198C297.265 112.592 297.025 112.951 296.723 113.254C296.42 113.556 296.061 113.796 295.666 113.96C295.271 114.124 294.847 114.208 294.419 114.209L262.991 114.23L262.991 114.229Z" fill="#F4DDBE"/>
<path d="M261.402 106.753L261.398 100.247L292.826 100.225C293.69 100.224 294.519 100.566 295.131 101.176C295.742 101.786 296.086 102.614 296.087 103.477V103.477C296.088 104.34 295.745 105.168 295.134 105.778C294.523 106.389 293.695 106.733 292.83 106.733L261.402 106.755L261.402 106.753Z" fill="#F4DDBE"/>
<path d="M260.942 106.267L256.331 101.67L267.51 90.4912C268.121 89.8805 268.95 89.537 269.814 89.5364C270.679 89.5358 271.508 89.8781 272.119 90.488V90.488C272.731 91.0978 273.075 91.9253 273.075 92.7884C273.076 93.6515 272.733 94.4795 272.123 95.0902L260.943 106.269L260.942 106.267Z" fill="#F4DDBE"/>
<path d="M249.609 130.12L249.588 100.258L262.329 100.25C266.295 100.247 270.099 101.817 272.906 104.616C275.712 107.414 277.29 111.211 277.293 115.172V115.172C277.296 119.132 275.723 122.931 272.921 125.734C270.118 128.536 266.316 130.112 262.35 130.115L249.609 130.123L249.609 130.12Z" fill="#F4DDBE"/>
<path d="M271.358 127.038C273.195 125.648 274.684 123.852 275.71 121.791C276.736 119.73 277.271 117.46 277.272 115.158V115.158C277.272 110.185 275.025 105.88 271.352 103.206" stroke="#191919" stroke-miterlimit="10"/>
<path d="M243.987 100.31L244.195 130.175L249.589 130.112L257.778 100.215L243.987 100.31Z" fill="#BCB1A2"/>
<path d="M255.731 107.72C261.927 107.09 267.967 106.168 268.706 102.545" stroke="#191919" stroke-miterlimit="10"/>
<path d="M160.3 95.266L255.612 96.6278L243.767 133.977L150.5 126.185L160.3 95.266Z" fill="#2C98F0"/>
<path d="M255.659 96.4984L243.815 133.846L160.617 126.837C188.312 128.028 244.029 121.937 255.659 96.4984Z" fill="#296C9F"/>
<path d="M147.25 67.5976C149.179 67.5976 150.743 66.0359 150.743 64.1094C150.743 62.1829 149.179 60.6211 147.25 60.6211C145.321 60.6211 143.757 62.1829 143.757 64.1094C143.757 66.0359 145.321 67.5976 147.25 67.5976Z" fill="#F4DDBE"/>
<path d="M89.6908 178.011H156.362L225.574 223.568L239.72 308.259L86.0661 319.914L143.76 248.963L89.6908 178.011Z" fill="#191919"/>
<path d="M135.594 86.2372L169.187 91.2527L158.993 199.658L89.6859 188.822L135.594 86.2372Z" fill="#2C98F0"/>
<path d="M212.287 108.741L208.363 103.546L233.453 84.6467C234.142 84.1277 235.01 83.9034 235.866 84.023C236.721 84.1425 237.494 84.5963 238.014 85.2845V85.2845C238.535 85.9735 238.76 86.8408 238.64 87.6955C238.52 88.5503 238.065 89.3225 237.375 89.8423L212.286 108.742L212.287 108.741Z" fill="#F4DDBE"/>
<path d="M211.637 108.63L205.184 107.728L207.378 92.0809C207.498 91.2261 207.953 90.4539 208.643 89.9341C209.333 89.4143 210.201 89.1896 211.057 89.3092V89.3092C211.913 89.4289 212.687 89.8832 213.207 90.5722C213.728 91.2613 213.953 92.1285 213.833 92.9833L211.639 108.63L211.637 108.63Z" fill="#F4DDBE"/>
<path d="M221.156 100.034L222.127 101.322L228.453 96.5556L221.156 100.034Z" fill="#BCB1A2"/>
<path d="M190.738 117.102L208.751 140.942L218.922 133.279C233.699 121.867 235.01 112.498 230.036 105.915C228.854 104.348 227.373 103.03 225.68 102.035C223.987 101.04 222.114 100.388 220.168 100.116C218.222 99.8443 216.242 99.958 214.34 100.451C212.438 100.943 210.652 101.806 209.084 102.988L190.738 117.102Z" fill="#F4DDBE"/>
<path d="M225.905 119.594C224.468 120.676 224.182 122.717 225.265 124.151C226.349 125.585 228.392 125.871 229.829 124.788L239.923 117.185C241.36 116.103 241.646 114.062 240.562 112.628C239.479 111.194 237.435 110.908 235.999 111.991L225.905 119.594Z" fill="#F4DDBE"/>
<path d="M220.467 113.777C219.03 114.86 218.744 116.9 219.827 118.334C220.911 119.769 222.954 120.054 224.391 118.972L236.652 109.736C238.089 108.654 238.375 106.613 237.291 105.179C236.208 103.745 234.164 103.459 232.727 104.542L220.467 113.777Z" fill="#F4DDBE"/>
<path d="M215.655 107.421C214.218 108.504 213.931 110.544 215.015 111.978C216.099 113.413 218.142 113.698 219.579 112.616L231.632 103.536C233.069 102.453 233.356 100.413 232.272 98.9787C231.188 97.5443 229.145 97.2589 227.708 98.3413L215.655 107.421Z" fill="#F4DDBE"/>
<path d="M209.505 140.685L190.738 117.433L205.589 105.481L218.41 133.519L209.505 140.685Z" fill="#BCB1A2"/>
<path d="M173.445 168.051L220.657 139.295L195.9 110.499L152.952 144.208L173.445 168.051Z" fill="#2C98F0"/>
<path d="M308.115 29.3158L263.49 39.3907C260.271 40.1174 258.251 43.312 258.979 46.5261L279.302 136.282C280.03 139.496 283.229 141.513 286.448 140.786L331.073 130.711C334.291 129.984 336.311 126.79 335.583 123.576L315.26 33.8196C314.533 30.6055 311.333 28.5891 308.115 29.3158Z" fill="#191919"/>
<path d="M269.327 92.2513L258.976 46.5352C258.803 45.7709 258.783 44.98 258.916 44.2078C259.049 43.4355 259.333 42.6969 259.751 42.0342C260.17 41.3715 260.716 40.7977 261.357 40.3456C261.998 39.8934 262.721 39.5718 263.487 39.399L308.113 29.3185C308.878 29.1456 309.67 29.1249 310.443 29.2577C311.217 29.3905 311.957 29.6741 312.62 30.0923C313.284 30.5105 313.858 31.0552 314.311 31.6952C314.764 32.3352 315.086 33.0581 315.259 33.8224L317.084 41.883L269.327 92.2513Z" fill="#3A3A3A"/>
<path d="M307.66 32.672L265.348 42.2247C262.745 42.8124 261.112 45.396 261.701 47.9954L281.146 133.88C281.735 136.479 284.322 138.11 286.925 137.522L329.238 127.97C331.841 127.382 333.474 124.798 332.885 122.199L313.439 36.3144C312.851 33.7151 310.264 32.0843 307.66 32.672Z" fill="#FBFBFB"/>
<path d="M329.23 127.982L286.917 137.533C286.298 137.674 285.658 137.69 285.032 137.583C284.407 137.475 283.809 137.245 283.273 136.906C282.227 136.248 324.556 85.4571 324.556 85.4571L332.878 122.211C333.16 123.459 332.935 124.768 332.251 125.851C331.567 126.933 330.48 127.699 329.23 127.982V127.982Z" fill="#D3D3D3"/>
<path d="M281.376 90.06C283.563 90.06 285.336 88.2897 285.336 86.1058C285.336 83.922 283.563 82.1516 281.376 82.1516C279.189 82.1516 277.416 83.922 277.416 86.1058C277.416 88.2897 279.189 90.06 281.376 90.06Z" fill="#7393FD"/>
<path d="M317.842 74.9988L287.157 81.9151L287.479 83.3363L318.163 76.4199L317.842 74.9988Z" fill="#7C7C7C"/>
<path d="M303.063 83.0241L288.5 86.3066L288.821 87.7277L303.384 84.4452L303.063 83.0241Z" fill="#7C7C7C"/>
<path d="M320.781 88.018L279.171 97.3968L279.493 98.818L321.102 89.4391L320.781 88.018Z" fill="#7C7C7C"/>
<path d="M321.573 91.5008L279.964 100.88L280.285 102.301L321.894 92.9219L321.573 91.5008Z" fill="#7C7C7C"/>
<path d="M322.353 94.9834L280.744 104.362L281.065 105.783L322.674 96.4045L322.353 94.9834Z" fill="#7C7C7C"/>
<path d="M323.145 98.4642L281.536 107.843L281.857 109.264L323.467 99.8854L323.145 98.4642Z" fill="#7C7C7C"/>
<path d="M323.929 101.947L282.32 111.326L282.641 112.747L324.251 103.368L323.929 101.947Z" fill="#7C7C7C"/>
<path d="M298.63 111.31L283.108 114.808L283.429 116.23L298.951 112.731L298.63 111.31Z" fill="#7C7C7C"/>
<path d="M325.501 108.912L283.892 118.291L284.213 119.712L325.823 110.333L325.501 108.912Z" fill="#7C7C7C"/>
<path d="M326.294 112.393L284.684 121.772L285.006 123.193L326.615 113.814L326.294 112.393Z" fill="#7C7C7C"/>
<path d="M327.078 115.874L285.468 125.253L285.79 126.674L327.399 117.295L327.078 115.874Z" fill="#7C7C7C"/>
<path d="M327.866 119.357L286.257 128.735L286.578 130.157L328.187 120.778L327.866 119.357Z" fill="#7C7C7C"/>
<path d="M328.658 122.839L287.049 132.218L287.37 133.639L328.98 124.26L328.658 122.839Z" fill="#7C7C7C"/>
<path d="M329.442 126.322L287.833 135.7L288.154 137.122L329.764 127.743L329.442 126.322Z" fill="#7C7C7C"/>
<path d="M35.7926 224.57L32.7835 226.501L108.507 344.148L111.516 342.216L35.7926 224.57Z" fill="#C63F17"/>
<path d="M107.788 338.155C117.744 326.823 127.304 298.42 122.896 284.566C115.788 299.967 105.952 328.112 107.788 338.155Z" fill="#C63F17"/>
<path d="M99.6141 330.035C109.57 318.701 119.128 290.301 114.722 276.447C107.614 291.845 97.778 319.992 99.6141 330.035Z" fill="#C63F17"/>
<path d="M91.1955 315.58C103.167 306.395 118.071 280.393 116.446 265.938C106.475 279.673 91.3478 305.374 91.1955 315.58Z" fill="#C63F17"/>
<path d="M84.7567 306.028C96.7279 296.844 111.632 270.842 110.008 256.386C100.036 270.119 84.9205 295.822 84.7567 306.028Z" fill="#C63F17"/>
<path d="M78.3221 296.484C90.2933 287.299 105.198 261.297 103.573 246.842C93.6018 260.567 78.4744 286.268 78.3221 296.484Z" fill="#C63F17"/>
<path d="M71.8833 286.925C83.8545 277.74 98.7589 251.738 97.1342 237.283C87.163 251.015 72.0376 276.717 71.8833 286.925Z" fill="#C63F17"/>
<path d="M64.0391 276.281C77.0598 268.654 95.0862 244.708 95.2766 230.164C83.6673 242.548 65.462 266.174 64.0391 276.281Z" fill="#C63F17"/>
<path d="M59.014 267.82C70.9852 258.637 85.8897 232.633 84.265 218.178C74.2861 231.912 59.1588 257.614 59.014 267.82Z" fill="#C63F17"/>
<path d="M52.5669 258.268C64.5381 249.083 79.4426 223.081 77.8179 208.626C67.8466 222.36 52.7269 248.062 52.5669 258.268Z" fill="#C63F17"/>
<path d="M46.1907 248.364C58.1619 239.179 68.7941 223.884 67.1693 209.44C57.1981 223.165 46.343 238.158 46.1907 248.364Z" fill="#C63F17"/>
<path d="M40.3983 239.356C52.3695 230.172 54.8037 219.849 56.9084 208.238C46.9372 221.964 40.5506 229.154 40.3983 239.356Z" fill="#C63F17"/>
<path d="M36.3281 231.708C44.6785 220.011 45.5451 220.724 47.6498 209.113C37.6843 222.839 36.4805 221.502 36.3281 231.708Z" fill="#C63F17"/>
<path d="M35.3281 226.952C33.5776 212.687 34.6995 212.635 28.4006 202.654C30.3263 219.501 28.5396 219.321 35.3281 226.952Z" fill="#C63F17"/>
<path d="M105.893 339.371C91.4342 343.708 61.5909 340.596 50.7987 330.841C67.7756 330.778 97.5083 333.532 105.893 339.371Z" fill="#C63F17"/>
<path d="M101.892 328.574C87.433 332.911 57.5898 329.799 46.7995 320.044C63.7782 319.981 93.5072 322.731 101.892 328.574Z" fill="#C63F17"/>
<path d="M92.2176 314.92C78.8845 321.98 48.9994 324.721 36.5158 317.244C53.1612 313.887 82.8559 310.821 92.2176 314.92Z" fill="#C63F17"/>
<path d="M86.1917 305.105C72.8586 312.166 42.9734 314.906 30.4899 307.43C47.1353 304.073 76.83 301.007 86.1917 305.105Z" fill="#C63F17"/>
<path d="M80.1574 295.292C66.8243 302.352 36.9392 305.091 24.4556 297.616C41.1105 294.259 70.8014 291.193 80.1574 295.292Z" fill="#C63F17"/>
<path d="M74.1398 285.477C60.8067 292.538 30.9216 295.276 18.438 287.802C35.0834 284.445 64.7781 281.379 74.1398 285.477Z" fill="#C63F17"/>
<path d="M67.6941 273.934C55.3382 282.596 26.0301 289.021 12.7123 283.151C28.811 277.755 57.8943 271.028 67.6941 273.934Z" fill="#C63F17"/>
<path d="M62.0754 265.849C48.7423 272.909 18.8572 275.648 6.3736 268.173C23.0133 264.816 52.7137 261.75 62.0754 265.849Z" fill="#C63F17"/>
<path d="M56.0494 256.034C42.7164 263.095 12.8312 265.833 0.347656 258.359C16.9931 255.002 46.6877 251.936 56.0494 256.034Z" fill="#C63F17"/>
<path d="M49.6829 246.129C36.3498 253.189 17.9958 256.497 5.51036 249.022C22.1481 245.665 40.3135 242.03 49.6829 246.129Z" fill="#C63F17"/>
<path d="M43.8806 237.121C30.5475 244.182 20.1268 242.107 8.67555 239.197C25.321 235.839 34.5189 233.023 43.8806 237.121Z" fill="#C63F17"/>
<path d="M38.6022 230.248C24.4787 232.975 24.7663 234.052 13.317 231.149C29.9624 227.792 29.2405 226.149 38.6022 230.248Z" fill="#C63F17"/>
<path d="M35.2227 227.132C21.722 222.176 21.4077 223.252 13.1126 214.849C29.1085 220.568 29.3314 218.79 35.2227 227.132Z" fill="#C63F17"/>
<path d="M158.992 199.658L89.6775 188.832C150.492 198.342 169.179 91.2601 169.179 91.2601L158.992 199.658Z" fill="#296C9F"/>
<path d="M160.022 107.494L182.902 162.818L156.516 177.998L132.168 111.857L160.022 107.494Z" fill="#2C98F0"/>
<path d="M195.903 110.499L220.66 139.295L206.552 147.808L192.444 113.215L195.903 110.499Z" fill="#296C9F"/>
<path d="M169.777 131.095L165.579 142.745V136.921L169.777 131.095Z" fill="#296C9F"/>
<rect x="213.5" y="0.5" width="76" height="76" rx="38" fill="white"/>
<path d="M251.5 7.25C234.234 7.25 220.25 21.2344 220.25 38.5C220.25 55.75 234.234 69.75 251.5 69.75C268.75 69.75 282.75 55.75 282.75 38.5C282.75 21.2344 268.75 7.25 251.5 7.25ZM245.25 54.125L229.625 38.5L234.047 34.0781L245.25 45.2813L268.953 21.5781L273.375 26L245.25 54.125Z" fill="#5CAACC"/>
<rect x="213.5" y="0.5" width="76" height="76" rx="38" stroke="white"/>
</svg>
