<svg width="686" height="114" viewBox="0 0 343 57" fill="none" xmlns="http://www.w3.org/2000/svg">
<g opacity="0.25">
<g clip-path="url(#clip0)">
<g opacity="0.3">
<path opacity="0.3" d="M254.88 25.68L254.53 25.44L255.67 23.74H258.66V21.73H260.42V19.75H263.57V20.17H260.85V22.16H259.09V23.49H259.63V24.16H255.9L254.88 25.68Z" fill="white"/>
</g>
<g opacity="0.3">
<path opacity="0.3" d="M301.93 28.4998H299.19V28.0698H301.51V15.6098H304.1V14.1398L305.96 12.2798H311.01L312.73 13.9798V15.7198H315.83V23.6998L317.71 25.5798L317.41 25.8798L315.4 23.8698V16.1398H312.3V14.1598L310.84 12.6998H306.14L304.52 14.3098V16.0298H301.93V28.4998Z" fill="white"/>
</g>
<g opacity="0.3">
<path opacity="0.3" d="M332.68 29.4H328.51V28.97H332.25V8.75H349.02V17.75H352.45V23.43H359.38V23.86H352.02V18.17H348.6V9.18H332.68V29.4Z" fill="white"/>
</g>
<g opacity="0.3">
<path opacity="0.3" d="M248.49 28.46H248.06V11.95H238.36V9.08998H237.65V7.15998H234.98V9.19998H229.19V12.17H226.57V11.07H220.16V8.47998H218V11.01H204.32V13.13H208.95V15.48H204.2V19.37H203.78V15.06H208.53V13.55H203.89V10.59H217.57V8.05998H220.59V10.65H226.99V11.75H228.77V8.76998H234.56V6.72998H238.07V8.65998H238.79V11.53H248.49V28.46Z" fill="white"/>
</g>
<g opacity="0.3">
<path opacity="0.3" d="M129.73 13.29H129.31V10.96H144.39V11.38H129.73V13.29Z" fill="white"/>
</g>
<g opacity="0.3">
<path opacity="0.3" d="M159.28 18.2701H157.58V16.5101H156.12V16.0801H158V17.8501H159.28V18.2701Z" fill="white"/>
</g>
<g opacity="0.3">
<path opacity="0.3" d="M99.6002 19.38H99.1702V2.72998H117.32V3.79998H116.89V3.14998H99.6002V19.38Z" fill="white"/>
</g>
<g opacity="0.3">
<path opacity="0.3" d="M13.7401 13.36H13.3201V10.37H14.2301V8.5H18.5801V10.48H20.3901V10.9H18.1601V8.93H14.6501V10.8H13.7401V13.36Z" fill="white"/>
</g>
<g opacity="0.3">
<path opacity="0.3" d="M82.2499 20.5398H74.4399V20.1198H81.8299V16.5698L85.6099 14.4498H88.7499V9.31982H92.4699V11.3498H93.3099V14.4498H95.7V19.4098H95.2699V14.8698H92.89V11.7698H92.0399V9.74982H89.17V14.8698H85.7199L82.2499 16.8198V20.5398Z" fill="white"/>
</g>
<g opacity="0.3">
<path opacity="0.3" d="M55.9101 18.5201H55.4901V17.0001H53.8701V14.7001H56.2601V9.07014H40.1901V14.8901H37.3301V14.4701H39.7701V8.64014H56.6801V15.1201H54.2901V16.5701H55.9101V18.5201Z" fill="white"/>
</g>
<g opacity="0.3">
<path opacity="0.3" d="M182.84 24.0601L181.76 22.1101H179.08V16.8101H176.47V16.3901H179.5V21.6801H182.01L183.21 23.8501L182.84 24.0601Z" fill="white"/>
</g>
<path d="M139.29 35.8998H144.26V7.77979H156.32V27.9698H159.08V13.7798H176.68V41.5298H181.45V23.7698H193.66V19.1698H208.39V23.3698H212.69V22.0598H225.94L225.92 36.9598H227.36V26.2198H240.12L242.15 28.9098V34.1798L247.04 34.1298V28.2598H253.01V31.3698H253.54V25.3598H256.82V39.9698H263.31L263.37 38.1798V15.7898H281.77V30.8198H284.84V21.1298H293.11V23.7698H299.4V33.8998H309.41V30.9598L313.86 28.1998H317.35V19.6998H318.56V17.7098H327.79V19.6398H328.84V30.8398H332.39L334.86 28.2598V24.8298H336.09V28.2498L338.74 30.9998H340.07L340.08 21.8998L343.5 12.6698H344.95L348.09 21.9098V32.6898H349.17V31.8298H353.33V32.7498H356.42V29.2398L359.1 28.2798V19.1598H373.03V26.5098H379.56V15.0198H387.39V32.6198H392.63V33.0198H386.98V15.4198H379.96V26.9198H372.63V19.5698H359.51V28.5698L356.82 29.5298V33.1498H352.92V32.2298H349.58V33.0998H347.68V21.9498L344.66 13.0698H343.78L340.48 21.9998V31.4098H338.56L335.69 28.4198V25.2298H335.27V28.4198L332.56 31.2398H328.44V20.0498H327.39V18.1198H318.97V20.0998H317.76V28.6098H313.97L309.82 31.1898V34.3098H298.99V24.1698H292.7V21.5398H285.25V31.2298H281.36V16.1898H263.77V38.1898L263.7 40.3698H256.41V25.7598H253.94V31.7698H252.61V28.6698H247.45V34.5298L241.75 34.5898V29.0398L239.92 26.6298H227.76V37.3698H225.5L225.54 36.3698V22.4698H213.1V23.7698H207.98V19.5798H194.07V24.1698H181.86V41.9398H176.27V14.1798H159.48V28.3798H155.91V8.17979H144.67V36.2998H139.29" fill="white"/>
<path d="M136.03 31.3198V29.2698L130.86 25.9798V13.4898H126.73V4.00982H114.63V13.4898H111.19V35.2998H104.15V26.9898H101.9V35.2998H99.5899V19.5798L92.3299 19.6398V24.2698H74.2299V9.14982H61.1199V18.7298H54.1599L43.9699 25.3798V32.3798H37.1799V4.00982H32.6499V1.21982H27.2299L24.2699 3.96982H20.5899V37.7398H17.2799V13.7598H4.59995L4.64993 22.1498H4.23994L4.18994 13.3498H17.6899V37.3298H20.1899V3.56982H24.1099L27.0699 0.819824H33.0599V3.59982H37.5799V31.9698H43.5699V25.1598L43.6599 25.0998L54.0399 18.3198H60.7099V8.74982H74.64V23.8598H91.92V19.2398L99.9999 19.1698V34.8998H101.5V26.5798H104.55V34.8998H110.79V13.0798H114.23V3.59982H127.13V13.0798H131.27V25.7598L136.43 29.0498V30.5698" fill="white"/>
<path d="M333.66 45.6301C334.15 41.4901 337.59 38.3201 339.42 38.3301C341.25 38.3501 344.63 41.5801 345.06 45.7201C345.57 50.7601 339.66 51.5801 339.66 51.5801L339.68 57.1101H339.26H338.85L338.96 51.5901C338.96 51.5801 333.06 50.6601 333.66 45.6301Z" fill="white" fill-opacity="0.2"/>
<path d="M339.89 57.3199L338.62 57.3099L338.73 51.7499C337.71 51.5299 332.88 50.2499 333.44 45.5999C333.93 41.4699 337.4 38.1099 339.4 38.1099C341.42 38.1299 344.84 41.5299 345.26 45.6899C345.73 50.3599 340.89 51.5599 339.86 51.7499L339.89 57.3199ZM339.07 56.8799H339.46L339.44 51.3799L339.63 51.3599C339.86 51.3299 345.33 50.5099 344.84 45.7299C344.41 41.5999 341.02 38.5499 339.42 38.5399C337.81 38.5399 334.37 41.5399 333.88 45.6499C333.32 50.4099 338.77 51.3199 339 51.3599L339.19 51.3899L339.07 56.8799Z" fill="white"/>
<path d="M154.88 57.3198L153.6 57.3098L153.68 53.6698C152.72 53.5698 148.68 53.0298 147.36 51.2398C146.97 50.7198 146.85 50.1298 146.98 49.4998C147.6 46.6698 153.04 44.5698 154.35 44.5698C155.67 44.5798 161.07 46.7498 161.65 49.6198C161.78 50.2498 161.64 50.8398 161.25 51.3498C159.89 53.1298 155.83 53.5898 154.87 53.6798L154.88 57.3198ZM154.04 56.8798H154.45L154.43 53.2598L154.63 53.2498C154.68 53.2498 159.51 52.8998 160.9 51.0798C161.22 50.6598 161.33 50.2098 161.22 49.6898C160.7 47.1198 155.51 44.9898 154.35 44.9798C153.14 44.9798 147.96 46.9898 147.39 49.5698C147.28 50.0798 147.38 50.5398 147.69 50.9598C149.05 52.7998 153.85 53.2398 153.9 53.2398L154.1 53.2598L154.04 56.8798Z" fill="white"/>
<path d="M147.2 57.32H145.75V57.1C145.8 55.01 145.78 51.68 145.5 51.12C145.42 50.95 145.18 50.94 144.78 50.94C144.48 50.94 144.13 50.93 143.78 50.83C143.43 50.72 143.31 50.56 143.2 50.42C143.13 50.33 143.07 50.25 142.92 50.16C142.67 50.02 142.43 50.03 142.2 50.06C141.86 50.11 141.54 50.08 141.24 49.86C141.04 49.71 140.96 49.51 140.89 49.33C140.82 49.16 140.78 49.04 140.66 48.98C140.57 48.93 140.44 48.91 140.29 48.88C140.04 48.83 139.72 48.77 139.47 48.54C138.9 48.03 138.96 47.64 139 47.38C139.01 47.29 139.02 47.24 139.01 47.22C138.98 47.17 138.93 47.15 138.84 47.1C138.66 47.01 138.41 46.87 138.23 46.37C138.1 46.02 138.15 45.71 138.2 45.44C138.23 45.29 138.25 45.14 138.24 44.99C138.23 44.76 138.16 44.7 138.07 44.6C137.95 44.48 137.78 44.32 137.78 43.92C137.78 43.46 137.96 43.18 138.1 42.97C138.16 42.88 138.21 42.8 138.23 42.73C138.27 42.57 138.24 42.39 138.2 42.19C138.15 41.94 138.09 41.65 138.21 41.36C138.34 41.01 138.56 40.86 138.75 40.72C138.86 40.64 138.97 40.56 139.06 40.45C139.28 40.17 139.39 39.91 139.48 39.69C139.6 39.4 139.71 39.12 140.03 38.91C140.52 38.59 140.85 38.55 141.12 38.52C141.32 38.5 141.46 38.48 141.64 38.36C141.81 38.25 141.86 38.17 141.92 38.06C142.03 37.86 142.15 37.69 142.56 37.5C143 37.3 143.41 37.32 143.77 37.39C143.98 37.43 144.16 37.46 144.41 37.43C144.71 37.39 144.78 37.34 144.9 37.26C145.02 37.18 145.17 37.07 145.5 36.96C146.21 36.72 146.38 36.71 147.13 36.95C147.47 37.06 147.62 37.16 147.73 37.25C147.85 37.33 147.92 37.38 148.22 37.42C148.47 37.44 148.66 37.41 148.86 37.37C149.22 37.3 149.63 37.27 150.07 37.47C150.48 37.65 150.6 37.82 150.72 38.02C150.78 38.12 150.83 38.21 151.01 38.32C151.19 38.43 151.33 38.45 151.53 38.47C151.8 38.5 152.14 38.53 152.63 38.85C152.95 39.06 153.06 39.33 153.18 39.62C153.27 39.84 153.38 40.1 153.61 40.37C153.7 40.48 153.81 40.56 153.92 40.63C154.11 40.77 154.33 40.92 154.46 41.27C154.58 41.56 154.52 41.85 154.48 42.1C154.45 42.3 154.41 42.48 154.46 42.64C154.48 42.7 154.53 42.78 154.59 42.87C154.73 43.08 154.92 43.36 154.92 43.82C154.92 44.22 154.77 44.38 154.64 44.51C154.56 44.6 154.5 44.65 154.48 44.82L154.46 45H154.29C152.9 45.07 147.94 47.13 147.4 49.59C147.31 49.99 147.36 50.35 147.53 50.71L147.63 50.91L147.43 51C147.36 51.03 147.32 51.06 147.3 51.11C147.03 51.68 147.09 55 147.19 57.1L147.2 57.32ZM146.19 56.89H146.74C146.69 55.78 146.53 51.7 146.9 50.92C146.94 50.84 146.99 50.77 147.06 50.71C146.91 50.32 146.88 49.91 146.97 49.49C147.58 46.73 152.55 44.79 154.09 44.58C154.15 44.39 154.26 44.28 154.33 44.2C154.43 44.1 154.49 44.04 154.49 43.82C154.49 43.49 154.36 43.29 154.23 43.11C154.16 43 154.09 42.9 154.05 42.77C153.97 42.51 154.02 42.25 154.06 42.02C154.1 41.8 154.14 41.6 154.07 41.42C153.98 41.19 153.85 41.1 153.68 40.98C153.56 40.89 153.42 40.79 153.29 40.64C153.02 40.32 152.9 40.02 152.79 39.78C152.68 39.52 152.6 39.34 152.4 39.21C152 38.95 151.74 38.92 151.49 38.9C151.27 38.88 151.05 38.85 150.79 38.69C150.52 38.52 150.43 38.37 150.36 38.24C150.28 38.11 150.22 38.01 149.9 37.87C149.55 37.71 149.27 37.73 148.95 37.8C148.74 37.84 148.49 37.89 148.18 37.86C147.8 37.82 147.66 37.74 147.49 37.62C147.39 37.55 147.28 37.47 147 37.38C146.35 37.17 146.28 37.17 145.65 37.39C145.38 37.48 145.26 37.56 145.16 37.63C144.99 37.75 144.85 37.83 144.47 37.88C144.16 37.92 143.91 37.87 143.7 37.83C143.38 37.77 143.1 37.75 142.75 37.91C142.43 38.06 142.37 38.16 142.3 38.29C142.23 38.41 142.14 38.57 141.88 38.74C141.62 38.91 141.4 38.94 141.18 38.96C140.93 38.99 140.68 39.02 140.28 39.28C140.07 39.42 140 39.6 139.89 39.86C139.79 40.1 139.67 40.4 139.41 40.72C139.28 40.88 139.14 40.98 139.02 41.07C138.85 41.19 138.72 41.29 138.63 41.51C138.56 41.69 138.6 41.89 138.64 42.11C138.69 42.34 138.74 42.6 138.66 42.85C138.62 42.98 138.55 43.09 138.47 43.2C138.35 43.39 138.22 43.58 138.23 43.91C138.23 44.14 138.29 44.19 138.39 44.29C138.51 44.41 138.68 44.57 138.69 44.97C138.7 45.16 138.67 45.34 138.64 45.5C138.6 45.75 138.56 45.97 138.65 46.22C138.77 46.57 138.91 46.64 139.06 46.72C139.17 46.77 139.29 46.84 139.38 46.98C139.49 47.15 139.46 47.31 139.44 47.45C139.41 47.66 139.37 47.87 139.77 48.23C139.93 48.38 140.15 48.42 140.38 48.46C140.55 48.49 140.72 48.53 140.87 48.6C141.13 48.74 141.22 48.98 141.3 49.17C141.35 49.31 141.4 49.43 141.5 49.51C141.81 49.74 141.96 49.66 142.15 49.63C142.47 49.59 142.81 49.6 143.14 49.78C143.38 49.91 143.48 50.05 143.56 50.16C143.65 50.27 143.7 50.34 143.91 50.41C144.2 50.5 144.52 50.5 144.79 50.5C145.23 50.51 145.7 50.51 145.9 50.93C146.28 51.7 146.22 55.79 146.19 56.89Z" fill="white"/>
<path d="M137.47 57.3601L135.99 57.3501L136.13 51.4301C135.56 51.0501 133.73 49.3301 133.86 42.9401C134 35.6601 137 27.8101 137.03 27.7301L137.29 27.0601L137.52 27.7401C137.54 27.8001 139.48 33.5101 139.98 39.6501V39.7101L139.91 39.8701C139.81 40.1101 139.69 40.4201 139.42 40.7501C139.29 40.9101 139.15 41.0201 139.02 41.1101C138.85 41.2301 138.73 41.3201 138.65 41.5301C138.59 41.6901 138.62 41.8801 138.67 42.1001C138.72 42.3301 138.77 42.6001 138.69 42.8701C138.65 43.0101 138.57 43.1201 138.5 43.2301C138.38 43.4201 138.26 43.6001 138.26 43.9101C138.26 44.1201 138.31 44.1601 138.4 44.2501C138.53 44.3701 138.7 44.5401 138.72 44.9601C138.73 45.1601 138.7 45.3401 138.67 45.5001C138.63 45.7401 138.59 45.9601 138.68 46.1901C138.8 46.5201 138.93 46.5901 139.07 46.6601C139.17 46.7101 139.31 46.7801 139.41 46.9301C139.53 47.1101 139.5 47.2901 139.48 47.4301C139.46 47.5501 139.45 47.6501 139.49 47.7701L139.52 47.8501L139.5 47.9301C138.86 50.3601 137.88 51.1901 137.48 51.4301L137.47 57.3601ZM136.53 56.8301H136.95L136.98 51.1101L137.15 51.0501C137.16 51.0501 138.28 50.5601 138.99 47.8901C138.93 47.6801 138.96 47.5101 138.98 47.3801C138.99 47.3301 139 47.2601 138.99 47.2401C138.97 47.2001 138.93 47.1801 138.84 47.1401C138.65 47.0401 138.39 46.9101 138.2 46.3901C138.06 46.0301 138.12 45.7101 138.16 45.4301C138.19 45.2801 138.21 45.1401 138.2 44.9901C138.19 44.7801 138.14 44.7301 138.04 44.6301C137.91 44.5101 137.74 44.3401 137.73 43.9101C137.72 43.4401 137.91 43.1501 138.05 42.9301C138.11 42.8401 138.16 42.7701 138.18 42.7101C138.22 42.5701 138.19 42.3901 138.15 42.2001C138.1 41.9401 138.04 41.6501 138.16 41.3401C138.3 40.9801 138.52 40.8201 138.71 40.6801C138.82 40.6001 138.92 40.5301 139 40.4201C139.22 40.1401 139.32 39.9001 139.42 39.6701L139.44 39.6301C139.04 34.8601 137.77 30.3601 137.25 28.6401C136.52 30.7301 134.49 37.0301 134.37 42.9401C134.23 49.9201 136.46 51.0201 136.49 51.0301L136.65 51.1001V51.2801L136.53 56.8301Z" fill="white"/>
<path d="M127.3 57.3499L126.04 57.3399L126.14 52.2699C124.87 52.1399 118.97 51.4099 117.09 48.8599C116.57 48.1499 116.39 47.3599 116.58 46.4999C117.44 42.5799 124.97 39.6699 126.8 39.6699C127.93 39.6799 131.61 40.9699 134.27 43.0499L134.37 43.1199V43.2399C134.33 46.7499 134.91 48.6799 135.41 49.6699L135.51 49.8599L135.33 49.9999C132.85 51.7099 128.37 52.1799 127.29 52.2799L127.3 57.3499ZM126.55 56.8599H126.8L126.78 51.8199L127.01 51.7999C127.06 51.7999 132.16 51.4399 134.86 49.7099C134.18 48.2199 133.85 46.0899 133.87 43.3699C131.34 41.4299 127.83 40.1799 126.81 40.1699C125.12 40.1699 117.87 42.9899 117.07 46.6099C116.91 47.3299 117.05 47.9699 117.49 48.5699C119.42 51.1799 126.34 51.7899 126.41 51.7999L126.64 51.8199L126.55 56.8599Z" fill="white"/>
<path d="M364.96 43.3697C363.95 38.3397 354.11 34.3897 351.89 34.3697C350.31 34.3597 344.83 36.2797 341.41 39.1997C343.04 40.4297 344.75 42.8597 345.05 45.7197C345.19 47.1097 344.84 48.1697 344.27 48.9897C347.67 50.1097 351.33 50.4097 351.33 50.4097L351.2 57.0997H351.7H352.2L352.18 50.4097C352.18 50.4197 366.2 49.4797 364.96 43.3697Z" fill="white" fill-opacity="0.2"/>
<path d="M352.42 57.3199L350.98 57.3099L351.12 50.5999C350.3 50.5199 347.14 50.1499 344.21 49.1799L343.93 49.0899L344.1 48.8499C344.71 47.9799 344.96 46.9299 344.84 45.7299C344.54 42.7699 342.74 40.4499 341.29 39.3599L341.07 39.1999L341.28 39.0299C344.64 36.1599 350.17 34.1499 351.88 34.1499C354.22 34.1699 364.15 38.2199 365.17 43.3299C365.39 44.4299 365.16 45.4499 364.47 46.3499C361.9 49.7099 353.82 50.5099 352.4 50.6199L352.42 57.3199ZM351.42 56.8799H351.98L351.96 50.2099L352.16 50.1999C352.25 50.1899 361.48 49.5399 364.12 46.0799C364.73 45.2799 364.94 44.3799 364.74 43.4099C363.77 38.5999 354.06 34.5999 351.88 34.5799C350.45 34.5799 345.23 36.3199 341.75 39.1899C343.23 40.3899 344.96 42.7399 345.26 45.6999C345.38 46.8999 345.16 47.9599 344.6 48.8699C347.86 49.8999 351.31 50.1999 351.34 50.1999L351.54 50.2199L351.42 56.8799Z" fill="white"/>
<path opacity="0.4" d="M-14.6101 30.5298C-14.4001 29.8298 -14.9301 29.0798 -14.6501 28.3698C-14.3601 27.6198 -13.8001 27.5598 -13.3701 27.0098C-12.5301 25.9598 -12.6701 25.1498 -11.9001 24.6298C-10.6501 23.7998 -10.1301 24.2798 -9.34009 23.7598C-8.55009 23.2498 -8.99009 22.9198 -7.90009 22.4198C-6.67009 21.8498 -6.17009 22.4698 -5.05009 22.3298C-4.03009 22.2098 -4.3301 21.9398 -3.2401 21.5598C-2.1601 21.1898 -1.95009 21.1898 -0.860092 21.5398C0.229908 21.8998 -0.0700951 22.1798 0.949905 22.2898C2.06991 22.4098 2.56991 21.7898 3.79991 22.3398C4.88991 22.8298 4.4599 23.1698 5.2599 23.6698C6.0599 24.1698 6.56991 23.6898 7.82991 24.5098C8.60991 25.0098 8.46992 25.8198 9.31992 26.8698C9.75992 27.4098 10.3199 27.4498 10.6299 28.2098C10.9199 28.9198 10.3899 29.6798 10.6199 30.3698C10.7599 30.8298 11.3399 31.1898 11.3399 32.1498C11.3399 33.1498 10.6499 32.8298 10.6099 33.8598C10.5899 34.5898 10.9499 35.1898 10.6699 35.9498C10.2899 37.0198 9.76991 36.8098 9.4799 37.2498C9.1899 37.6798 9.96992 38.2298 8.81992 39.2998C8.29992 39.7898 7.48991 39.6998 6.99991 39.9698C6.43991 40.2798 6.55991 41.0298 6.04991 41.4098C5.07991 42.1298 4.53991 41.2398 3.40991 41.8998C2.71991 42.2898 2.9399 42.6998 2.1199 42.9498C0.849903 43.3498 -0.450099 42.8498 -0.820099 43.6398C-1.4501 44.9498 -1.03009 57.3898 -1.03009 57.3898L-1.83009 57.3798H-2.6301C-2.6301 57.3798 -2.42009 44.9598 -3.06009 43.6598C-3.45009 42.8798 -4.74009 43.3898 -6.01009 43.0098C-6.84009 42.7698 -6.6201 42.3598 -7.3201 41.9698C-8.4501 41.3298 -8.9901 42.2298 -9.9601 41.5198C-10.4801 41.1498 -10.3501 40.3998 -10.9301 40.0998C-11.4201 39.8398 -12.2101 39.9398 -12.7501 39.4498C-13.9201 38.3898 -13.1401 37.8398 -13.4301 37.3998C-13.7201 36.9698 -14.2501 37.1798 -14.6401 36.1198C-14.9201 35.3598 -14.5701 34.7498 -14.6001 34.0198C-14.6501 32.9998 -15.3301 33.3198 -15.3501 32.3198C-15.3201 31.3598 -14.7501 30.9898 -14.6101 30.5298Z" fill="white"/>
</g>
</g>
<defs>
<clipPath id="clip0">
<path d="M0 0H343V49C343 53.4183 339.418 57 335 57H7.99999C3.58172 57 0 53.4183 0 49V0Z" fill="white"/>
</clipPath>
</defs>
</svg>
