<svg width="20" height="14" viewBox="0 0 20 14" fill="#fff" xmlns="http://www.w3.org/2000/svg">
    <path d="M4.96875 5.05859C4.85547 4.92969 4.79883 4.76367 4.79883 4.56055V4.12109C4.79883 3.90234 4.85547 3.73047 4.96875 3.60547C5.08203 3.47656 5.23438 3.41211 5.42578 3.41211C5.625 3.41211 5.7793 3.47852 5.88867 3.61133C5.99805 3.74023 6.05273 3.90625 6.05273 4.10938V4.46094C6.05273 4.98438 5.84766 5.24609 5.4375 5.24609C5.23828 5.24609 5.08203 5.18359 4.96875 5.05859Z"/>
    <path d="M9.03516 9.8457C8.91016 9.70508 8.84766 9.54297 8.84766 9.35938V8.87891C8.85547 8.67578 8.91602 8.51562 9.0293 8.39844C9.14258 8.27734 9.29297 8.2168 9.48047 8.2168C9.67578 8.2168 9.83008 8.28125 9.94336 8.41016C10.0566 8.53516 10.1133 8.70117 10.1133 8.9082L10.1074 9.51172C10.0762 9.87109 9.87109 10.0508 9.49219 10.0508C9.3125 10.0508 9.16016 9.98242 9.03516 9.8457Z"/>
    <path fill-rule="evenodd" clip-rule="evenodd"
          d="M15.135 0.845C14.77 0.335 14.175 0 13.5 0L2.5 0.0100002C1.395 0.0100002 0.5 0.895 0.5 2V12C0.5 13.105 1.395 13.99 2.5 13.99L13.5 14C14.175 14 14.77 13.665 15.135 13.155L19.0898 7.57848C19.3355 7.23197 19.3355 6.76803 19.0898 6.42152L15.135 0.845ZM3.52734 4.10938C3.52734 3.58203 3.69922 3.15625 4.04297 2.83203C4.38672 2.50781 4.84766 2.3457 5.42578 2.3457C6.01172 2.3457 6.47461 2.50781 6.81445 2.83203C7.1543 3.15234 7.32422 3.58789 7.32422 4.13867V4.56055C7.32422 5.08789 7.1543 5.51172 6.81445 5.83203C6.47461 6.15234 6.01562 6.3125 5.4375 6.3125C4.86328 6.3125 4.40039 6.1543 4.04883 5.83789C3.70117 5.51758 3.52734 5.08008 3.52734 4.52539V4.10938ZM7.58203 8.9082C7.58203 8.37695 7.75391 7.95117 8.09766 7.63086C8.44531 7.31055 8.90625 7.15039 9.48047 7.15039C10.0625 7.15039 10.5254 7.30859 10.8691 7.625C11.2129 7.94141 11.3848 8.38281 11.3848 8.94922V9.35938C11.3848 9.89062 11.2148 10.3164 10.875 10.6367C10.5352 10.957 10.0742 11.1172 9.49219 11.1172C8.91797 11.1172 8.45508 10.959 8.10352 10.6426C7.75586 10.3223 7.58203 9.88477 7.58203 9.33008V8.9082ZM5.8125 10.3613L4.89258 9.89844L9.05859 3.23047L9.97852 3.69336L5.8125 10.3613ZM16 8.5C16.8284 8.5 17.5 7.82843 17.5 7C17.5 6.17157 16.8284 5.5 16 5.5C15.1716 5.5 14.5 6.17157 14.5 7C14.5 7.82843 15.1716 8.5 16 8.5Z"/>
</svg>
