<svg width="375" height="183" viewBox="0 0 375 183" fill="none" xmlns="http://www.w3.org/2000/svg">
<rect y="-1" width="375" height="184" fill="#B7EEE3"/>
<mask id="mask0" mask-type="alpha" maskUnits="userSpaceOnUse" x="0" y="-1" width="375" height="184">
<rect y="-1" width="375" height="184" fill="#C1E4F0"/>
</mask>
<g mask="url(#mask0)">
<path opacity="0.3" d="M634 22.1006C583.669 197.804 247.632 270.89 107 43.5097C170.142 -80.4572 277.498 -99.2806 376.421 -67.2272C485.966 -31.732 537.038 38.3423 565.164 26.5301L573.306 59.7514C560.477 67.6261 523.123 80.7177 476.344 70.0869C463.021 13.9801 408.989 -20.7176 392.705 -26.6235C420.831 -5.21436 459.32 61.2279 454.879 66.3957C445.257 66.3957 371.24 42.0335 367.539 42.7717C364.579 31.698 323.129 -13.3351 268.357 -17.7646C306.846 -4.47611 343.114 29.4833 343.114 36.1275C287.601 21.3626 179.537 34.651 177.316 40.557C220.246 36.1275 281.68 36.1275 286.861 40.557C275.018 66.3957 225.427 87.0666 213.584 90.0196C244.671 92.9726 292.042 59.9636 304.625 45.7247C321.205 41.5905 392.458 64.6731 426.013 76.7311C412.69 94.203 371.832 131.804 314.987 142.435C356.437 147.603 422.312 109.952 443.036 84.1136C529.636 104.046 603.653 86.3284 634 22.1006Z" fill="url(#paint0_linear)"/>
</g>
<defs>
<linearGradient id="paint0_linear" x1="370.5" y1="7.03262" x2="324.118" y2="149.761" gradientUnits="userSpaceOnUse">
<stop stop-color="white" stop-opacity="0.51"/>
<stop offset="1" stop-color="white"/>
</linearGradient>
</defs>
</svg>
