<svg width="68" height="68" viewBox="0 0 68 68" fill="none" xmlns="http://www.w3.org/2000/svg">
<rect width="68" height="68" rx="8" fill="white"/>
<path d="M49.3017 33.1768L32.168 50.3099C28.5811 53.8967 22.7657 53.8967 19.1789 50.3099C15.5921 46.723 15.5921 40.9076 19.1789 37.3208L36.312 20.1877C39.8988 16.6009 45.7142 16.6009 49.301 20.1877C52.8886 23.7745 52.8886 29.5899 49.3017 33.1768Z" fill="url(#paint0_radial)"/>
<path d="M49.3018 20.1877C45.7149 16.6009 39.8995 16.6009 36.3127 20.1877L34.6136 21.8867C37.4892 19.0112 42.1507 19.0119 45.0263 21.8867C47.9018 24.7615 47.9018 29.4238 45.0263 32.2993L31.2905 46.0344C28.415 48.9099 23.7535 48.9099 20.8779 46.0344C18.0024 43.1588 18.0024 38.4973 20.8779 35.6217L19.1789 37.3208C15.5921 40.9076 15.5921 46.723 19.1789 50.3098C22.7657 53.8967 28.5811 53.8967 32.168 50.3098L49.301 33.1761C52.8886 29.5899 52.8886 23.7745 49.3018 20.1877Z" fill="url(#paint1_linear)" fill-opacity="0.5"/>
<path fill-rule="evenodd" clip-rule="evenodd" d="M45.3508 22.2247C45.3508 22.7796 44.9009 23.2294 44.3461 23.2294C43.7912 23.2294 43.3413 22.7796 43.3413 22.2247C43.3413 21.6698 43.7912 21.22 44.3461 21.22C44.9009 21.22 45.3508 21.6698 45.3508 22.2247ZM41.5009 23.1566C41.5009 23.7115 41.0511 24.1613 40.4962 24.1613C39.9413 24.1613 39.4915 23.7115 39.4915 23.1566C39.4915 22.6017 39.9413 22.1519 40.4962 22.1519C41.0511 22.1519 41.5009 22.6017 41.5009 23.1566ZM42.7043 26.7844C42.3119 26.392 42.3119 25.7564 42.7043 25.364C43.0967 24.9716 43.733 24.9716 44.1247 25.364C44.5164 25.7564 44.5172 26.3927 44.1247 26.7844C43.7323 27.1768 43.0967 27.1768 42.7043 26.7844ZM32.5392 44.5892C31.7536 44.5892 31.0155 44.2831 30.4604 43.728L25.7607 39.0283C24.6146 37.8822 24.6146 36.017 25.7607 34.8709L33.862 26.7689C34.4171 26.2139 35.1559 25.9077 35.9407 25.9077C36.7263 25.9077 37.4644 26.2132 38.0194 26.7689L42.7192 31.4686C43.2742 32.0236 43.5803 32.7618 43.5803 33.5473C43.5803 34.3328 43.2742 35.071 42.7192 35.626L34.6179 43.728C34.0628 44.2838 33.3247 44.5892 32.5392 44.5892ZM35.9407 27.3536C35.5575 27.3536 35.175 27.4993 34.8837 27.7906L26.7817 35.8926C26.1984 36.4759 26.1984 37.424 26.7817 38.0073L31.4814 42.7071C31.7635 42.9892 32.139 43.1454 32.5384 43.1454C32.9379 43.1454 33.3134 42.9899 33.5955 42.7078L41.6968 34.6065C42.2801 34.0232 42.2801 33.075 41.6968 32.4917L36.9971 27.792C36.7065 27.4993 36.324 27.3536 35.9407 27.3536ZM23.4013 40.2514C23.7937 40.6439 23.7937 41.2802 23.4013 41.6719C23.0089 42.0636 22.3733 42.0643 21.9809 41.6719C21.5885 41.2795 21.5885 40.6431 21.9809 40.2514C22.3733 39.859 23.0089 39.859 23.4013 40.2514ZM26.3193 44.5899C26.7117 44.1982 26.7117 43.5618 26.3193 43.1694C25.9269 42.777 25.2912 42.777 24.8988 43.1694C24.5064 43.5611 24.5064 44.1975 24.8988 44.5899C25.2912 44.9823 25.9269 44.9816 26.3193 44.5899ZM28.5274 47.8027C29.0823 47.8027 29.5321 47.3529 29.5321 46.798C29.5321 46.2431 29.0823 45.7933 28.5274 45.7933C27.9725 45.7933 27.5227 46.2431 27.5227 46.798C27.5227 47.3529 27.9725 47.8027 28.5274 47.8027ZM22.7643 44.8112C22.7643 45.3661 22.3144 45.8159 21.7596 45.8159C21.2047 45.8159 20.7549 45.3661 20.7549 44.8112C20.7549 44.2564 21.2047 43.8065 21.7596 43.8065C22.3144 43.8065 22.7643 44.2564 22.7643 44.8112ZM24.6775 48.7339C25.2324 48.7339 25.6822 48.2841 25.6822 47.7292C25.6822 47.1743 25.2324 46.7245 24.6775 46.7245C24.1226 46.7245 23.6728 47.1743 23.6728 47.7292C23.6728 48.2841 24.1226 48.7339 24.6775 48.7339ZM47.3376 28.9925C47.3376 29.5474 46.8877 29.9972 46.3329 29.9972C45.778 29.9972 45.3281 29.5474 45.3281 28.9925C45.3281 28.4376 45.778 27.9878 46.3329 27.9878C46.8877 27.9878 47.3376 28.4376 47.3376 28.9925ZM47.264 26.1474C47.8189 26.1474 48.2687 25.6975 48.2687 25.1426C48.2687 24.5878 47.8189 24.1379 47.264 24.1379C46.7091 24.1379 46.2593 24.5878 46.2593 25.1426C46.2593 25.6975 46.7091 26.1474 47.264 26.1474Z" fill="url(#paint2_linear)"/>
<path d="M34.5139 32.2081C34.3294 32.2081 34.1442 32.1374 34.0035 31.9967C33.7213 31.7146 33.7213 31.2571 34.0035 30.975L34.4185 30.56C34.7006 30.2779 35.158 30.2779 35.4402 30.56C35.7223 30.8421 35.7223 31.2995 35.4402 31.5817L35.0251 31.9967C34.883 32.1374 34.6985 32.2081 34.5139 32.2081Z" fill="white"/>
<path d="M30.2788 36.4828C30.0942 36.4828 29.9097 36.4128 29.7683 36.2714C29.4862 35.9893 29.4855 35.5326 29.7676 35.2497C30.0468 34.9698 30.3268 34.6749 30.5976 34.3886C31.0622 33.8986 31.5422 33.3916 32.0591 32.92C32.3532 32.6507 32.8107 32.6719 33.0794 32.966C33.348 33.2601 33.3275 33.7176 33.0334 33.9863C32.5547 34.4232 32.1135 34.8892 31.6462 35.382C31.369 35.6747 31.0827 35.9766 30.79 36.27C30.6485 36.4121 30.464 36.4828 30.2788 36.4828Z" fill="white"/>
<path fill-rule="evenodd" clip-rule="evenodd" d="M31.1256 16.8453L30.5324 15.1767C30.449 14.9412 30.152 14.9412 30.0686 15.176L29.4754 16.8446C29.4499 16.9167 29.3997 16.9733 29.3361 17.0016L27.8541 17.669C27.6449 17.7637 27.6449 18.0975 27.8541 18.1915L29.3361 18.859C29.3997 18.8879 29.4499 18.9445 29.4754 19.0159L30.0686 20.6845C30.152 20.92 30.449 20.92 30.5324 20.6845L31.1256 19.0166C31.1511 18.9452 31.2013 18.8879 31.2649 18.8597L32.7469 18.1922C32.9562 18.0975 32.9562 17.7637 32.7469 17.6697L31.2649 17.0023C31.2013 16.9733 31.1511 16.9167 31.1256 16.8453ZM18.5446 30.4665L18.1049 29.2292C18.0426 29.0538 17.8228 29.0538 17.7598 29.2292L17.3193 30.4665C17.3003 30.5195 17.2635 30.5613 17.2161 30.5825L16.1167 31.0781C15.9611 31.1481 15.9611 31.3956 16.1167 31.4656L17.2161 31.9612C17.2635 31.9824 17.3003 32.0241 17.3193 32.0772L17.7598 33.3145C17.8221 33.4891 18.0419 33.4891 18.1042 33.3145L18.5446 32.0772C18.5637 32.0241 18.6005 31.9824 18.6479 31.9612L19.7473 31.4656C19.9029 31.3956 19.9029 31.1481 19.7473 31.0781L18.6479 30.5825C18.6005 30.5613 18.5637 30.5195 18.5446 30.4665Z" fill="url(#paint3_linear)"/>
<path fill-rule="evenodd" clip-rule="evenodd" d="M23.9907 18.0956C23.9907 18.8113 23.4105 19.3916 22.6947 19.3916C21.9789 19.3916 21.3987 18.8113 21.3987 18.0956C21.3987 17.3798 21.9789 16.7996 22.6947 16.7996C23.4105 16.7996 23.9907 17.3798 23.9907 18.0956ZM20.757 27.8143C21.0652 27.8143 21.3155 27.5647 21.3155 27.2557C21.3155 26.9475 21.0652 26.6972 20.757 26.6972C20.4487 26.6972 20.1984 26.9475 20.1984 27.2557C20.1984 27.564 20.4487 27.8143 20.757 27.8143Z" fill="url(#paint4_linear)"/>
<defs>
<radialGradient id="paint0_radial" cx="0" cy="0" r="1" gradientUnits="userSpaceOnUse" gradientTransform="translate(49.1247 51.7493) rotate(-129.694) scale(44.8901 45.6457)">
<stop stop-color="#9CEBDB"/>
<stop offset="1" stop-color="#DBF0EC"/>
</radialGradient>
<linearGradient id="paint1_linear" x1="23.1131" y1="37.0226" x2="40.3268" y2="51.7775" gradientUnits="userSpaceOnUse">
<stop stop-color="#3BBDA3"/>
<stop offset="1" stop-color="#37BFA4"/>
</linearGradient>
<linearGradient id="paint2_linear" x1="25.8885" y1="36.3516" x2="39.2289" y2="47.7862" gradientUnits="userSpaceOnUse">
<stop stop-color="#3BBDA3"/>
<stop offset="1" stop-color="#37BFA4"/>
</linearGradient>
<linearGradient id="paint3_linear" x1="27.3672" y1="30.1161" x2="18.346" y2="18.1618" gradientUnits="userSpaceOnUse">
<stop stop-color="#56D5BC"/>
<stop offset="0.773765" stop-color="#B6F0E6"/>
<stop offset="1" stop-color="white"/>
</linearGradient>
<linearGradient id="paint4_linear" x1="20.0899" y1="18.4355" x2="17.6094" y2="23.296" gradientUnits="userSpaceOnUse">
<stop stop-color="#FACE8D"/>
<stop offset="0.99" stop-color="#E47712"/>
</linearGradient>
</defs>
</svg>
