<svg width="68" height="68" viewBox="0 0 68 68" fill="none" xmlns="http://www.w3.org/2000/svg">
<rect width="68" height="68" rx="8" fill="white"/>
<path fill-rule="evenodd" clip-rule="evenodd" d="M24.9681 14.2281C24.9681 14.9836 24.3557 15.5959 23.6003 15.5959C22.8449 15.5959 22.2325 14.9836 22.2325 14.2281C22.2325 13.4727 22.8449 12.8604 23.6003 12.8604C24.3557 12.8604 24.9681 13.4727 24.9681 14.2281ZM50.8414 17.8382C50.8414 18.1639 50.5773 18.4279 50.2517 18.4279C49.926 18.4279 49.662 18.1639 49.662 17.8382C49.662 17.5125 49.926 17.2485 50.2517 17.2485C50.5773 17.2485 50.8414 17.5125 50.8414 17.8382Z" fill="url(#paint0_linear)"/>
<path d="M49.3033 49.7529H19.6967C18.2077 49.7529 17 48.4696 17 46.886V25.9203C17 24.3367 18.2077 23.0535 19.6967 23.0535H49.3033C50.793 23.0535 52 24.3367 52 25.9203V46.886C52 48.4696 50.793 49.7529 49.3033 49.7529Z" fill="url(#paint1_linear)" fill-opacity="0.5"/>
<path d="M49.3033 23.0535H45.1812C46.5096 23.0535 47.5862 24.198 47.5862 25.6103V42.0755C47.5862 43.4878 47.4502 44.6323 46.1218 44.6323H19.405C18.0766 44.6323 17 43.4878 17 42.0755V46.886C17 48.4696 18.2077 49.7529 19.6967 49.7529H49.3033C50.793 49.7529 52 48.4696 52 46.886V25.9203C52 24.3367 50.793 23.0535 49.3033 23.0535Z" fill="url(#paint2_linear)"/>
<path fill-rule="evenodd" clip-rule="evenodd" d="M21.0551 27.5129H22.4282C23.0784 27.5129 23.6059 26.668 23.6059 25.6266V21.4297C23.6059 20.3883 23.0784 19.5435 22.4282 19.5435H21.0551C20.4048 19.5435 19.8773 20.3883 19.8773 21.4297V25.6266C19.8773 26.668 20.4048 27.5129 21.0551 27.5129ZM46.5725 27.5129H47.9449C48.5951 27.5129 49.1226 26.668 49.1226 25.6266V21.4297C49.1226 20.3883 48.5951 19.5435 47.9449 19.5435H46.5725C45.9222 19.5435 45.3947 20.3883 45.3947 21.4297V25.6266C45.3947 26.668 45.9222 27.5129 46.5725 27.5129Z" fill="url(#paint3_linear)"/>
<path d="M46.1854 47H22.6177C21.0734 47 19.8219 45.7532 19.8219 44.2148V31.7852C19.8219 30.2468 21.0734 29 22.6177 29H46.1854C47.7298 29 48.9812 30.2468 48.9812 31.7852V44.2148C48.9812 45.7532 47.7291 47 46.1854 47Z" fill="white"/>
<path fill-rule="evenodd" clip-rule="evenodd" d="M39.8451 33.6432C40.2841 34.0844 40.3035 34.8203 39.8886 35.287L33.2714 42.7289C33.0648 42.9612 32.7773 43.0929 32.4766 43.0929C32.1758 43.0929 31.8883 42.9612 31.6817 42.7289L28.6739 39.3462C28.259 38.8795 28.2784 38.1436 28.7174 37.7024C29.1564 37.2613 29.8486 37.282 30.2636 37.7486L32.4766 40.2374L38.2989 33.6894C38.7139 33.2228 39.4061 33.2021 39.8451 33.6432Z" fill="url(#paint4_linear)"/>
<path fill-rule="evenodd" clip-rule="evenodd" d="M45.3891 12.9486L44.7623 11.1869C44.6733 10.9377 44.3602 10.9377 44.272 11.1869L43.6452 12.9486C43.6185 13.0242 43.5651 13.0836 43.4983 13.114L41.9332 13.8187C41.7122 13.9181 41.7122 14.2704 41.9332 14.3698L43.4983 15.0752C43.5651 15.1056 43.6185 15.1649 43.6452 15.2406L44.272 17.0023C44.361 17.2515 44.674 17.2515 44.7623 17.0023L45.3891 15.2406C45.4158 15.1649 45.4692 15.1056 45.5359 15.0752L47.101 14.3698C47.3221 14.2704 47.3221 13.9181 47.101 13.8187L45.5359 13.114C45.4692 13.0836 45.4158 13.0242 45.3891 12.9486ZM14.685 18.9563L14.2206 17.6501C14.1553 17.4654 13.9232 17.4654 13.8572 17.6508L13.3928 18.957C13.3728 19.0127 13.3335 19.0572 13.2838 19.0794L12.1229 19.6024C11.959 19.6758 11.959 19.9369 12.1229 20.0111L13.2838 20.5347C13.3335 20.557 13.3728 20.6015 13.3928 20.6571L13.8572 21.9634C13.9232 22.1481 14.1553 22.1481 14.2206 21.9634L14.685 20.6564C14.705 20.6008 14.7443 20.5562 14.794 20.534L15.9548 20.0111C16.1188 19.9369 16.1188 19.6758 15.9548 19.6016L14.794 19.0787C14.7443 19.0564 14.705 19.0119 14.685 18.9563Z" fill="url(#paint5_linear)"/>
<defs>
<linearGradient id="paint0_linear" x1="21.7674" y1="16.1162" x2="37.2843" y2="-1.49779" gradientUnits="userSpaceOnUse">
<stop stop-color="#FACE8D"/>
<stop offset="0.99" stop-color="#E47712"/>
</linearGradient>
<linearGradient id="paint1_linear" x1="23.5304" y1="37.7372" x2="36.5416" y2="52.3567" gradientUnits="userSpaceOnUse">
<stop stop-color="#3BBDA3"/>
<stop offset="1" stop-color="#37BFA4"/>
</linearGradient>
<linearGradient id="paint2_linear" x1="23.5304" y1="37.7372" x2="36.5416" y2="52.3567" gradientUnits="userSpaceOnUse">
<stop stop-color="#3BBDA3"/>
<stop offset="1" stop-color="#37BFA4"/>
</linearGradient>
<linearGradient id="paint3_linear" x1="27.5" y1="16.5813" x2="28.8374" y2="30.3315" gradientUnits="userSpaceOnUse">
<stop stop-color="#FACE8D"/>
<stop offset="0.99" stop-color="#E47712"/>
</linearGradient>
<linearGradient id="paint4_linear" x1="30.579" y1="38.6972" x2="35.3682" y2="43.6616" gradientUnits="userSpaceOnUse">
<stop stop-color="#3BBDA3"/>
<stop offset="1" stop-color="#37BFA4"/>
</linearGradient>
<linearGradient id="paint5_linear" x1="40.3798" y1="20.2281" x2="37.7706" y2="7.77282" gradientUnits="userSpaceOnUse">
<stop stop-color="#56D5BC"/>
<stop offset="0.773765" stop-color="#B6F0E6"/>
<stop offset="1" stop-color="white"/>
</linearGradient>
</defs>
</svg>
