<svg width="20" height="18" viewBox="0 0 20 18" fill="none" xmlns="http://www.w3.org/2000/svg">
<path fill-rule="evenodd" clip-rule="evenodd" d="M15.9674 1.43457C15.9674 1.02036 15.6316 0.68457 15.2174 0.68457C14.8032 0.68457 14.4674 1.02036 14.4674 1.43457V2H5.53261V1.43457C5.53261 1.02036 5.19682 0.68457 4.78261 0.68457C4.36839 0.68457 4.03261 1.02036 4.03261 1.43457V2H2.75C1.23122 2 0 3.23122 0 4.75V15.25C0 16.7688 1.23122 18 2.75 18H17.25C18.7688 18 20 16.7688 20 15.25V4.75C20 3.23122 18.7688 2 17.25 2H15.9674V1.43457ZM4.03261 3.5H2.75C2.05964 3.5 1.5 4.05964 1.5 4.75V6.25H18.5V4.75C18.5 4.05964 17.9404 3.5 17.25 3.5H15.9674V4.04327C15.9674 4.45748 15.6316 4.79327 15.2174 4.79327C14.8032 4.79327 14.4674 4.45748 14.4674 4.04327V3.5H5.53261V4.04327C5.53261 4.45748 5.19682 4.79327 4.78261 4.79327C4.36839 4.79327 4.03261 4.45748 4.03261 4.04327V3.5ZM1.5 7.75H18.5V15.25C18.5 15.9404 17.9404 16.5 17.25 16.5H2.75C2.05964 16.5 1.5 15.9404 1.5 15.25V7.75Z" fill="#918AA8"/>
</svg>
