<svg width="68" height="68" viewBox="0 0 68 68" fill="none" xmlns="http://www.w3.org/2000/svg">
<rect width="68" height="68" rx="8" fill="white"/>
<g clip-path="url(#clip0)">
<path d="M33.5642 21.9664V33.7493H36.2257V21.9664C36.2257 18.4799 33.7327 15.5657 30.4352 14.9109V17.6575C32.2494 18.2496 33.5642 19.9571 33.5642 21.9664Z" fill="url(#paint0_linear)"/>
<path d="M18.1934 33.7491V21.9662C18.1934 19.8384 19.6673 18.05 21.6473 17.5645V14.854C18.1909 15.3756 15.532 18.3663 15.532 21.9662V33.7491H18.1934Z" fill="url(#paint1_linear)"/>
<path d="M49.4618 26.5964C44.1526 26.5964 39.8334 30.9157 39.8334 36.2249V46.3707C39.8334 49.687 37.1358 52.3846 33.8186 52.3846C30.5023 52.3846 27.8038 49.687 27.8038 46.3707V42.8575C33.278 42.4794 36.7568 37.9196 36.7568 32.3491V31.4502C36.7568 30.7017 36.1501 30.095 35.4016 30.095H34.3858C33.6373 30.095 33.0305 30.7017 33.0305 31.4502V32.3491C33.0305 36.1089 30.8263 39.1571 27.0665 39.1571H24.8441C21.0835 39.1571 18.7245 36.1089 18.7245 32.3482V31.4493C18.7245 30.7008 18.1178 30.0941 17.3693 30.0941H16.3552C15.6067 30.0958 15 30.7025 15 31.451V32.35C15 37.9479 18.6773 42.525 24.1902 42.8635V46.3715C24.1902 51.6807 28.5094 55.9999 33.8186 55.9999C39.1278 55.9999 43.447 51.6807 43.447 46.3715V36.2249C43.447 32.9085 46.1446 30.2101 49.4618 30.2101C50.4595 30.2101 51.2691 29.4014 51.2691 28.4028C51.2691 27.406 50.4604 26.5964 49.4618 26.5964Z" fill="url(#paint2_radial)"/>
<path d="M35.4162 31.0231V31.8429C35.4162 36.3667 32.8269 40.1591 28.6314 41.1792C27.6878 41.4086 27.0149 42.2388 27.0149 43.209V44.6287C27.0149 45.7356 27.3552 46.766 27.937 47.6279C27.8502 47.2223 27.8038 46.8021 27.8038 46.3707V42.8575C33.278 42.4794 36.7568 37.9196 36.7568 32.3491V31.4502C36.7568 30.7017 36.1501 30.095 35.4016 30.095H34.9822C35.2477 30.3227 35.4162 30.6536 35.4162 31.0231Z" fill="url(#paint3_linear)"/>
<path d="M49.4618 26.5964C48.9522 26.5964 48.4512 26.6368 47.9622 26.7133C48.5895 26.9557 49.033 27.5486 49.033 28.2447C49.033 29.1548 48.2741 29.893 47.3374 29.893C44.2256 29.893 41.8496 32.4894 41.8496 35.5135V46.1308C41.8496 50.9725 38.5512 54.3199 33.5686 54.3199C29.8337 54.3199 25.7104 51.196 24.3362 48.0473C25.132 52.5599 29.0809 55.9999 33.8186 55.9999C39.1278 55.9999 43.447 51.6807 43.447 46.3715V36.2249C43.447 32.9085 46.1446 30.2101 49.4618 30.2101C50.4595 30.2101 51.2691 29.4014 51.2691 28.4028C51.2691 27.406 50.4604 26.5964 49.4618 26.5964Z" fill="url(#paint4_linear)"/>
<path d="M49.4902 32.5066C51.756 32.5066 53.5928 30.6698 53.5928 28.4039C53.5928 26.1381 51.756 24.3013 49.4902 24.3013C47.2243 24.3013 45.3875 26.1381 45.3875 28.4039C45.3875 30.6698 47.2243 32.5066 49.4902 32.5066Z" fill="url(#paint5_linear)"/>
<path d="M49.4902 29.8201C50.2723 29.8201 50.9064 29.186 50.9064 28.4038C50.9064 27.6216 50.2723 26.9875 49.4902 26.9875C48.708 26.9875 48.0739 27.6216 48.0739 28.4038C48.0739 29.186 48.708 29.8201 49.4902 29.8201Z" fill="#FED79E"/>
<path d="M23.9796 16.2496C23.9796 17.8171 23.7957 19.0882 22.7455 19.0882C21.6962 19.0882 20.1786 17.8171 20.1786 16.2496C20.1786 14.6821 21.6962 13.4111 22.7455 13.4111C23.7957 13.4111 23.9796 14.6821 23.9796 16.2496Z" fill="url(#paint6_linear)"/>
<path d="M28.1235 16.2496C28.1235 14.6821 28.3083 13.4111 29.3576 13.4111C30.4069 13.4111 31.9245 14.6821 31.9245 16.2496C31.9245 17.8171 30.4069 19.0882 29.3576 19.0882C28.3083 19.0882 28.1235 17.8171 28.1235 16.2496Z" fill="url(#paint7_linear)"/>
<path fill-rule="evenodd" clip-rule="evenodd" d="M44.0391 14.2662L43.3104 12.2175C43.2073 11.9278 42.8438 11.9278 42.7406 12.2175L42.0119 14.2662C41.9809 14.3539 41.9191 14.4235 41.8409 14.4587L40.0207 15.2785C39.7638 15.3946 39.7638 15.8045 40.0207 15.9205L41.8409 16.7403C41.9191 16.7756 41.9809 16.8452 42.0119 16.9328L42.7406 18.9816C42.8438 19.2712 43.2073 19.2712 43.3104 18.9816L44.0391 16.9328C44.0701 16.8452 44.132 16.7756 44.2102 16.7403L46.0303 15.9205C46.2873 15.8045 46.2873 15.3946 46.0303 15.2785L44.2102 14.4587C44.132 14.4235 44.0701 14.3539 44.0391 14.2662ZM53.427 18.9919L52.8864 17.4717C52.8099 17.2568 52.5401 17.2568 52.4636 17.4717L51.9231 18.9919C51.8999 19.0572 51.8535 19.1088 51.7959 19.1345L50.4458 19.743C50.255 19.8289 50.255 20.1331 50.4458 20.2191L51.7959 20.8275C51.8543 20.8533 51.8999 20.9049 51.9231 20.9702L52.4636 22.4904C52.5401 22.7053 52.8099 22.7053 52.8864 22.4904L53.427 20.9702C53.4502 20.9049 53.4966 20.8533 53.5542 20.8275L54.9042 20.2191C55.095 20.1331 55.095 19.8289 54.9042 19.743L53.5542 19.1345C53.4957 19.1088 53.4502 19.0572 53.427 18.9919Z" fill="url(#paint8_linear)"/>
<path d="M42.3393 24.3879C42.7185 24.3879 43.026 24.0805 43.026 23.7013C43.026 23.3221 42.7185 23.0146 42.3393 23.0146C41.9601 23.0146 41.6527 23.3221 41.6527 23.7013C41.6527 24.0805 41.9601 24.3879 42.3393 24.3879Z" fill="#FFA585"/>
</g>
<defs>
<linearGradient id="paint0_linear" x1="31.5156" y1="25.2713" x2="36.0698" y2="26.4712" gradientUnits="userSpaceOnUse">
<stop stop-color="#3BBDA3"/>
<stop offset="1" stop-color="#37BFA4"/>
</linearGradient>
<linearGradient id="paint1_linear" x1="16.673" y1="25.2456" x2="21.4489" y2="26.5705" gradientUnits="userSpaceOnUse">
<stop stop-color="#3BBDA3"/>
<stop offset="1" stop-color="#37BFA4"/>
</linearGradient>
<radialGradient id="paint2_radial" cx="0" cy="0" r="1" gradientUnits="userSpaceOnUse" gradientTransform="translate(48.3401 54.9641) rotate(-135.675) scale(40.9422 42.3439)">
<stop stop-color="#9CEBDB"/>
<stop offset="1" stop-color="#DBF0EC"/>
</radialGradient>
<linearGradient id="paint3_linear" x1="28.8326" y1="39.7375" x2="35.5114" y2="42.9183" gradientUnits="userSpaceOnUse">
<stop stop-color="#3BBDA3"/>
<stop offset="1" stop-color="#37BFA4"/>
</linearGradient>
<linearGradient id="paint4_linear" x1="29.3615" y1="42.7673" x2="43.3757" y2="53.7701" gradientUnits="userSpaceOnUse">
<stop stop-color="#3BBDA3"/>
<stop offset="1" stop-color="#37BFA4"/>
</linearGradient>
<linearGradient id="paint5_linear" x1="46.7041" y1="21.9576" x2="50.5412" y2="33.0045" gradientUnits="userSpaceOnUse">
<stop stop-color="#FACE8D"/>
<stop offset="0.99" stop-color="#E47712"/>
</linearGradient>
<linearGradient id="paint6_linear" x1="20.8878" y1="16.5333" x2="23.2927" y2="17.9134" gradientUnits="userSpaceOnUse">
<stop stop-color="#3BBDA3"/>
<stop offset="1" stop-color="#37BFA4"/>
</linearGradient>
<linearGradient id="paint7_linear" x1="28.8327" y1="16.5333" x2="31.2376" y2="17.9135" gradientUnits="userSpaceOnUse">
<stop stop-color="#3BBDA3"/>
<stop offset="1" stop-color="#37BFA4"/>
</linearGradient>
<linearGradient id="paint8_linear" x1="55.9571" y1="22.9219" x2="51.2697" y2="7.0038" gradientUnits="userSpaceOnUse">
<stop stop-color="#56D5BC"/>
<stop offset="0.966381" stop-color="#B6F0E6"/>
</linearGradient>
<clipPath id="clip0">
<rect width="40.0469" height="44" fill="white" transform="translate(15 12)"/>
</clipPath>
</defs>
</svg>
