<svg width="68" height="68" viewBox="0 0 68 68" fill="none" xmlns="http://www.w3.org/2000/svg">
<rect width="68" height="68" rx="8" fill="white"/>
<g clip-path="url(#clip0)">
<path d="M45.2076 54.9998H23.7869C22.4841 54.9998 21.4279 53.9436 21.4279 52.6408V23.9867C21.4279 22.6839 22.4841 21.6277 23.7869 21.6277H45.2085C46.5113 21.6277 47.5675 22.6839 47.5675 23.9867V52.6417C47.5666 53.9436 46.5105 54.9998 45.2076 54.9998Z" fill="url(#paint0_linear)" fill-opacity="0.5"/>
<path d="M44.6508 21.6277V51.4523C44.6508 51.7892 44.3783 52.0616 44.0415 52.0616H24.9539C24.617 52.0616 24.3446 51.7892 24.3446 51.4523V21.6277" fill="url(#paint1_radial)"/>
<path d="M45.2076 21.6277H40.6375C41.7143 21.6277 42.5874 22.5008 42.5874 23.5776V47.8618C42.5874 48.9386 41.7143 49.8118 40.6375 49.8118H23.3778C22.301 49.8118 21.4279 48.9386 21.4279 47.8618V52.6408C21.4279 53.9436 22.4841 54.9998 23.7869 54.9998H45.2085C46.5113 54.9998 47.5675 53.9436 47.5675 52.6408V23.9867C47.5666 22.6839 46.5105 21.6277 45.2076 21.6277Z" fill="url(#paint2_linear)"/>
<path d="M40.6384 21.6277C41.7152 21.6277 42.5883 22.5008 42.5883 23.5776V47.8618C42.5883 48.9386 41.7152 49.8118 40.6384 49.8118H24.3438V51.4514C24.3438 51.7883 24.617 52.0607 24.953 52.0607H44.0406C44.3775 52.0607 44.6499 51.7883 44.6499 51.4514V21.6277H40.6384Z" fill="url(#paint3_radial)"/>
<path fill-rule="evenodd" clip-rule="evenodd" d="M39.2023 29.0991H41.0208C41.2717 29.0991 41.4745 29.3019 41.4745 29.552V30.9055C41.4745 31.1556 41.2717 31.3584 41.0216 31.3584H39.2023V33.1777C39.2023 33.4278 38.9995 33.6306 38.7494 33.6306H37.3959C37.1458 33.6306 36.943 33.4278 36.943 33.1777V31.3584H35.1237C34.8736 31.3584 34.6708 31.1556 34.6708 30.9055V29.552C34.6708 29.3019 34.8736 29.0991 35.1237 29.0991H36.943V27.2798C36.943 27.0297 37.1458 26.8269 37.3959 26.8269H38.7494C38.9995 26.8269 39.2023 27.0297 39.2023 27.2798V29.0991ZM40.2499 37.5752H28.7446C28.4421 37.5752 28.1963 37.3294 28.1963 37.0269C28.1963 36.7244 28.4412 36.4786 28.7446 36.4786H40.2499C40.5524 36.4786 40.7982 36.7244 40.7982 37.0269C40.7982 37.3303 40.5524 37.5752 40.2499 37.5752ZM28.7446 41.0822H40.2499C40.5524 41.0822 40.7982 40.8372 40.7982 40.5339C40.7982 40.2314 40.5524 39.9856 40.2499 39.9856H28.7446C28.4412 39.9856 28.1963 40.2314 28.1963 40.5339C28.1963 40.8364 28.4421 41.0822 28.7446 41.0822ZM40.2499 44.5892H28.7446C28.4421 44.5892 28.1963 44.3435 28.1963 44.041C28.1963 43.7385 28.4412 43.4927 28.7446 43.4927H40.2499C40.5524 43.4927 40.7982 43.7385 40.7982 44.041C40.7982 44.3435 40.5524 44.5892 40.2499 44.5892ZM40.2499 48.0964H28.7446C28.4421 48.0964 28.1963 47.8507 28.1963 47.5482C28.1963 47.2457 28.4412 46.9999 28.7446 46.9999H40.2499C40.5524 46.9999 40.7982 47.2457 40.7982 47.5482C40.7982 47.8507 40.5524 48.0964 40.2499 48.0964ZM31.0073 32.2848H27.5208C27.2183 32.2848 26.9726 32.0399 26.9726 31.7365C26.9726 31.4332 27.2175 31.1882 27.5208 31.1882H31.0073C31.3098 31.1882 31.5556 31.4332 31.5556 31.7365C31.5556 32.0399 31.3098 32.2848 31.0073 32.2848ZM27.5208 29.2692H31.0073C31.3098 29.2692 31.5556 29.0242 31.5556 28.7209C31.5556 28.4175 31.3098 28.1726 31.0073 28.1726H27.5208C27.2175 28.1726 26.9726 28.4175 26.9726 28.7209C26.9726 29.0242 27.2183 29.2692 27.5208 29.2692Z" fill="url(#paint4_linear)"/>
<path d="M36.4807 19.3934C37.0058 18.852 37.3117 18.0975 37.2541 17.2708C37.1588 15.9087 36.0545 14.8052 34.6923 14.7115C33.0776 14.6007 31.7327 15.8777 31.7327 17.4693C31.7327 18.2178 32.03 18.8958 32.513 19.3934H28.2281C27.6266 19.3934 27.1384 19.8815 27.1384 20.4831V23.0853C27.1384 23.6869 27.6266 24.175 28.2281 24.175H40.7664C41.368 24.175 41.8561 23.6869 41.8561 23.0853V20.4831C41.8561 19.8815 41.368 19.3934 40.7664 19.3934H36.4807Z" fill="url(#paint5_linear)"/>
<path d="M33.7539 22.7201H32.3583C31.8538 22.7201 31.4448 22.311 31.4448 21.8066C31.4448 21.3021 31.8538 20.8931 32.3583 20.8931H33.7539C34.2583 20.8931 34.6674 21.3021 34.6674 21.8066C34.6674 22.311 34.2583 22.7201 33.7539 22.7201Z" fill="white"/>
<path d="M29.9546 22.7201H29.8944C29.39 22.7201 28.9809 22.311 28.9809 21.8066C28.9809 21.3021 29.39 20.8931 29.8944 20.8931H29.9546C30.4591 20.8931 30.8681 21.3021 30.8681 21.8066C30.8681 22.311 30.4591 22.7201 29.9546 22.7201Z" fill="white"/>
<path fill-rule="evenodd" clip-rule="evenodd" d="M48.9863 13.3323L48.2361 11.2234C48.1295 10.9252 47.7548 10.9252 47.6491 11.2234L46.8989 13.3323C46.8662 13.4225 46.8026 13.4939 46.7227 13.53L44.8493 14.3739C44.5846 14.4925 44.5846 14.9144 44.8493 15.0339L46.7227 15.8778C46.8035 15.9139 46.8671 15.9852 46.8989 16.0754L47.6491 18.1843C47.7557 18.4825 48.1304 18.4825 48.2361 18.1843L48.9863 16.0754C49.0189 15.9852 49.0825 15.9139 49.1625 15.8778L51.0359 15.0339C51.3006 14.9153 51.3006 14.4933 51.0359 14.3739L49.1625 13.53C49.0817 13.4939 49.0181 13.4225 48.9863 13.3323ZM16.2158 20.6103L15.6598 19.0454C15.5807 18.8245 15.3031 18.8245 15.2249 19.0454L14.6689 20.6103C14.6448 20.6774 14.5976 20.7306 14.5383 20.7573L13.1487 21.3838C12.9527 21.4723 12.9527 21.7851 13.1487 21.8736L14.5383 22.5001C14.5976 22.5267 14.6448 22.58 14.6689 22.647L15.2249 24.212C15.3031 24.4328 15.5807 24.4328 15.6598 24.212L16.2158 22.647C16.2398 22.58 16.2871 22.5267 16.3464 22.5001L17.736 21.8736C17.9328 21.7851 17.9328 21.4723 17.736 21.3838L16.3464 20.7573C16.2871 20.7306 16.2398 20.6774 16.2158 20.6103Z" fill="url(#paint6_linear)"/>
<path fill-rule="evenodd" clip-rule="evenodd" d="M18.5902 16.5859C18.9804 16.5859 19.2966 16.2697 19.2966 15.8795C19.2966 15.4893 18.9804 15.1731 18.5902 15.1731C18.2001 15.1731 17.8838 15.4893 17.8838 15.8795C17.8838 16.2697 18.2001 16.5859 18.5902 16.5859ZM55.8562 26.8271C55.8562 27.7317 55.1228 28.465 54.2182 28.465C53.3136 28.465 52.5802 27.7317 52.5802 26.8271C52.5802 25.9224 53.3136 25.1891 54.2182 25.1891C55.1228 25.1891 55.8562 25.9224 55.8562 26.8271Z" fill="url(#paint7_radial)"/>
</g>
<defs>
<linearGradient id="paint0_linear" x1="26.3051" y1="39.9811" x2="41.4598" y2="50.1556" gradientUnits="userSpaceOnUse">
<stop stop-color="#3BBDA3"/>
<stop offset="1" stop-color="#37BFA4"/>
</linearGradient>
<radialGradient id="paint1_radial" cx="0" cy="0" r="1" gradientUnits="userSpaceOnUse" gradientTransform="translate(43.0109 50.9895) rotate(-118.978) scale(33.8477 29.6813)">
<stop stop-color="#9CEBDB"/>
<stop offset="1" stop-color="#DBF0EC"/>
</radialGradient>
<linearGradient id="paint2_linear" x1="26.3051" y1="39.9811" x2="41.4598" y2="50.1556" gradientUnits="userSpaceOnUse">
<stop stop-color="#3BBDA3"/>
<stop offset="1" stop-color="#37BFA4"/>
</linearGradient>
<radialGradient id="paint3_radial" cx="0" cy="0" r="1" gradientUnits="userSpaceOnUse" gradientTransform="translate(43.0101 50.9886) rotate(-118.979) scale(33.847 29.6812)">
<stop stop-color="#9CEBDB"/>
<stop offset="1" stop-color="#DBF0EC"/>
</radialGradient>
<linearGradient id="paint4_linear" x1="27.8277" y1="28.7757" x2="28.1063" y2="29.7739" gradientUnits="userSpaceOnUse">
<stop stop-color="#3BBDA3"/>
<stop offset="1" stop-color="#37BFA4"/>
</linearGradient>
<linearGradient id="paint5_linear" x1="29.5" y1="11.9999" x2="32.5414" y2="25.6081" gradientUnits="userSpaceOnUse">
<stop stop-color="#FACE8D"/>
<stop offset="0.99" stop-color="#E47712"/>
</linearGradient>
<linearGradient id="paint6_linear" x1="43.0654" y1="23.0118" x2="38.0854" y2="5.61586" gradientUnits="userSpaceOnUse">
<stop stop-color="#56D5BC"/>
<stop offset="0.773765" stop-color="#B6F0E6"/>
<stop offset="1" stop-color="white"/>
</linearGradient>
<radialGradient id="paint7_radial" cx="0" cy="0" r="1" gradientUnits="userSpaceOnUse" gradientTransform="translate(18.3737 25.5394) rotate(-13.9269) scale(44.8646 20.2821)">
<stop stop-color="#FACE8D"/>
<stop offset="0.41" stop-color="#EE9E49"/>
<stop offset="0.99" stop-color="#E47712"/>
</radialGradient>
<clipPath id="clip0">
<rect width="42.8562" height="44" fill="white" transform="translate(13 11)"/>
</clipPath>
</defs>
</svg>
