<svg width="121" height="139" viewBox="0 0 121 139" fill="none" xmlns="http://www.w3.org/2000/svg">
<circle cx="60.5896" cy="64.0963" r="55.9036" fill="#F3FBFC"/>
<ellipse rx="5.3012" ry="5.3012" transform="matrix(-1 0 0 1 9.98737 107.162)" fill="#F3FBFC"/>
<ellipse rx="2.40964" ry="2.40964" transform="matrix(-1 0 0 1 18.6617 56.3855)" fill="#F3FBFC"/>
<circle r="5.3012" transform="matrix(-1 0 0 1 18.6617 5.3012)" fill="#F3FBFC"/>
<ellipse rx="3.37349" ry="3.37349" transform="matrix(-1 0 0 1 36.6641 6.86187)" fill="#F3FBFC"/>
<ellipse rx="2.6506" ry="2.6506" transform="matrix(-1 0 0 1 111.29 100.325)" fill="#F3FBFC"/>
<ellipse rx="2.6506" ry="2.6506" transform="matrix(-1 0 0 1 113.843 10.8433)" fill="#F3FBFC"/>
<ellipse rx="2.09302" ry="2.09302" transform="matrix(-1 0 0 1 20.7327 114.419)" fill="#F3FBFC"/>
<g filter="url(#filter0_f)">
<rect x="40.582" y="100.254" width="56.9232" height="12.3525" rx="6.17626" transform="rotate(-41.4242 40.582 100.254)" fill="#82D4E3"/>
</g>
<path d="M84.0841 62.2548L67.1757 53.5247L51.4471 45.4024C51.4471 45.4024 49.6587 61.0054 46.357 63.6469L44.6978 78.1412C44.6978 78.1412 44.696 78.1582 44.6924 78.1924C44.6906 78.2095 44.6884 78.2292 44.6855 78.2542C44.5622 79.4926 43.5696 90.5233 47.2279 93.941C48.8161 95.4246 51.2815 95.4736 55.0749 92.6616L62.025 86.1646C62.025 86.1646 67.0262 76.4665 72.5949 76.2838L84.4867 65.1672C84.9135 64.768 85.1198 64.1852 85.0398 63.6058C84.9599 63.0265 84.6031 62.5232 84.0841 62.2548Z" fill="#0490A9"/>
<path d="M85.0403 63.6068C85.1203 64.1862 84.9139 64.7689 84.4871 65.1682L72.5953 76.2847C67.0266 76.4675 62.0255 86.1655 62.0255 86.1655L55.0754 92.6626C51.282 95.4746 48.8166 95.4255 47.2284 93.9419L67.1762 53.5256L84.0845 62.2557C84.6035 62.5242 84.9603 63.0274 85.0403 63.6068Z" fill="#0490A9"/>
<path d="M50.8076 86.6895L44.6982 78.1417L42.149 100.407C42.0634 101.155 42.4543 101.879 43.1276 102.217C43.1322 102.22 43.1367 102.222 43.1409 102.223C43.5777 102.44 44.0723 102.464 44.5141 102.315C44.7514 102.234 44.9741 102.103 45.1647 101.926L55.0753 92.6621L50.8076 86.6895Z" fill="#50C3D8"/>
<path d="M55.075 92.6615L45.1643 101.925C44.9737 102.102 44.751 102.234 44.5137 102.314C44.0719 102.464 43.5773 102.439 43.1405 102.223L50.8073 86.6888L55.075 92.6615Z" fill="#50C3D8"/>
<path d="M62.9177 62.1534L51.4476 45.4028L50.9301 45.1351C50.4051 44.8637 49.7798 44.8681 49.2576 45.1464C48.7365 45.4244 48.385 45.9412 48.3171 46.5289L46.3575 63.6473L55.6142 76.951L62.0255 86.165L72.5954 76.2842L62.9177 62.1534Z" fill="#50C3D8"/>
<path d="M72.595 76.2841L62.0251 86.1649L55.6138 76.9509L62.9172 62.1533L72.595 76.2841Z" fill="#50C3D8"/>
<path d="M78.0161 54.3623C77.3912 54.5742 76.6726 54.4331 76.1718 53.9374C75.4657 53.2386 75.4599 52.0999 76.1586 51.3937L76.6781 50.8688C79.6167 47.8994 83.814 46.6291 87.906 47.4699C88.879 47.6699 89.5058 48.6209 89.3058 49.5939C89.1058 50.5671 88.1548 51.1935 87.1819 50.9938C84.2857 50.3985 81.3149 51.2977 79.2349 53.3994L78.7154 53.9242C78.5124 54.1295 78.2721 54.2755 78.0161 54.3623Z" fill="#9B79DB"/>
<path d="M82.2044 42.813C81.2637 43.1319 80.2418 42.6281 79.9228 41.6873C79.6038 40.7466 80.1073 39.7255 81.0481 39.4065L81.0492 39.4061C81.9901 39.0871 83.0112 39.5912 83.3302 40.5319C83.6492 41.4727 83.1454 42.4939 82.2044 42.813Z" fill="#FFA940"/>
<path d="M72.1364 46.3533C72.4553 47.2936 71.9509 48.3155 71.0106 48.6344C70.5405 48.7938 70.0499 48.7474 69.6363 48.5432L69.6359 48.5421C69.2227 48.3391 68.8879 47.9791 68.7285 47.5089C68.4096 46.5686 68.914 45.5467 69.8543 45.2279L69.8554 45.2275C70.3256 45.0681 70.815 45.1149 71.2271 45.3183C71.6415 45.5209 71.977 45.8832 72.1364 46.3533Z" fill="#DA4343"/>
<path d="M72.1362 46.3535C72.455 47.2937 71.9507 48.3156 71.0104 48.6345C70.5402 48.7939 70.0497 48.7475 69.6361 48.5434L69.6357 48.5422L71.2268 45.3184C71.6412 45.521 71.9768 45.8833 72.1362 46.3535Z" fill="#DA4343"/>
<path d="M62.1986 46.5576C61.9426 46.6444 61.663 46.6746 61.3771 46.6352C60.3929 46.4998 59.7049 45.5923 59.8403 44.6081L59.941 43.8766C60.344 40.9474 59.2509 38.0423 57.0168 36.1053C56.2663 35.4546 56.1853 34.3185 56.836 33.568C57.4866 32.8175 58.6227 32.7364 59.3733 33.3873C62.5297 36.1239 64.0742 40.2285 63.5047 44.3669L63.404 45.0983C63.308 45.7966 62.8234 46.3458 62.1986 46.5576Z" fill="#FFA940"/>
<path d="M68.8226 36.2082C67.8818 36.5272 66.86 36.0233 66.541 35.0826C66.222 34.1418 66.7255 33.1207 67.6662 32.8017L67.6674 32.8014C68.6082 32.4823 69.6294 32.9864 69.9484 33.9272C70.2674 34.8679 69.7635 35.8891 68.8226 36.2082Z" fill="#FFC069"/>
<path d="M81.8156 26.7376L81.8541 26.8512C82.8522 29.7947 81.2701 33.0003 78.3266 33.9984L78.213 34.0369C77.1489 34.3977 76.5763 35.558 76.9371 36.6221C77.2559 37.5623 76.7516 38.5842 75.8113 38.9031C75.3411 39.0625 74.8506 39.0161 74.4381 38.8116C74.0249 38.6086 73.6897 38.2474 73.5303 37.7773C72.5322 34.8338 74.1143 31.6282 77.0578 30.6301L77.1714 30.5916C78.2354 30.2308 78.8081 29.0705 78.4473 28.0064L78.4088 27.8928C78.0899 26.9526 78.5943 25.9307 79.5346 25.6118C80.0047 25.4524 80.4953 25.4988 80.9078 25.7033C81.321 25.9063 81.6562 26.2675 81.8156 26.7376Z" fill="#DA4343"/>
<path d="M81.8155 26.7364L81.854 26.85C82.8521 29.7935 81.2699 32.9991 78.3264 33.9972L78.2129 34.0357C77.1488 34.3965 76.5761 35.5568 76.9369 36.6209C77.2558 37.5611 76.7514 38.583 75.8111 38.9019C75.341 39.0613 74.8504 39.0149 74.4379 38.8104L80.9076 25.7021C81.3209 25.9051 81.656 26.2663 81.8155 26.7364Z" fill="#DA4343"/>
<defs>
<filter id="filter0_f" x="11.123" y="33.1332" width="109.773" height="105.842" filterUnits="userSpaceOnUse" color-interpolation-filters="sRGB">
<feFlood flood-opacity="0" result="BackgroundImageFix"/>
<feBlend mode="normal" in="SourceGraphic" in2="BackgroundImageFix" result="shape"/>
<feGaussianBlur stdDeviation="16" result="effect1_foregroundBlur"/>
</filter>
</defs>
</svg>
