<svg width="68" height="68" viewBox="0 0 68 68" fill="none" xmlns="http://www.w3.org/2000/svg">
<rect width="68" height="68" rx="8" fill="white"/>
<g clip-path="url(#clip0)">
<path d="M12.8809 56.7472C12.6555 56.7472 12.43 56.6615 12.2578 56.4894C11.9135 56.145 11.9135 55.5874 12.2578 55.2431L21.2116 46.2893C21.556 45.9449 22.1136 45.9449 22.4579 46.2893C22.8022 46.6336 22.8022 47.1912 22.4579 47.5355L13.505 56.4894C13.3328 56.6615 13.1073 56.7472 12.8809 56.7472Z" fill="url(#paint0_linear)"/>
<path fill-rule="evenodd" clip-rule="evenodd" d="M55.3882 21.1696L47.5775 13.359C46.7621 12.5436 45.4407 12.5436 44.6253 13.3581C43.8098 14.1735 43.8098 15.4958 44.6253 16.3113L45.4834 17.1696L42.1493 20.5037L41.2789 19.6332C40.4704 18.8248 39.1586 18.8248 38.3502 19.6332L19.7512 38.2322C18.9428 39.0406 18.9428 40.3524 19.7512 41.1608L20.3403 41.7499L18.2786 43.8116C17.3793 44.7109 17.3793 46.1687 18.2786 47.068L21.6792 50.4686C22.5785 51.3679 24.0363 51.3679 24.9356 50.4686L26.9973 48.4069L27.5864 48.996C28.3948 49.8044 29.7066 49.8044 30.515 48.996L49.114 30.397C49.9224 29.5886 49.9224 28.2768 49.114 27.4683L48.2505 26.6048L51.5839 23.2714L52.4351 24.1228C53.2505 24.9382 54.5728 24.9382 55.3882 24.1228C56.2036 23.3074 56.2036 21.9851 55.3882 21.1696Z" fill="url(#paint1_linear)"/>
<path d="M23.0653 34.9189L19.7512 38.233C18.9428 39.0415 18.9428 40.3533 19.7512 41.1617L27.5864 48.9969C28.3948 49.8053 29.7066 49.8053 30.515 48.9969L44.5929 34.9189H23.0653Z" fill="url(#paint2_linear)" fill-opacity="0.4"/>
<path d="M51.5812 24.1491C51.3557 24.1491 51.1302 24.0634 50.958 23.8913L44.856 17.7892C44.5116 17.4449 44.5116 16.8873 44.856 16.5429C45.2003 16.1986 45.7579 16.1986 46.1023 16.5429L52.2043 22.645C52.5487 22.9893 52.5487 23.5469 52.2043 23.8913C52.0321 24.0634 51.8067 24.1491 51.5812 24.1491Z" fill="url(#paint3_linear)"/>
<path d="M49.114 27.4683L41.2788 19.6332C40.4704 18.8247 39.1586 18.8247 38.3502 19.6332L36.3497 21.6337C36.9842 20.9992 38.0137 20.9992 38.6482 21.6337L44.7983 27.7838C45.4328 28.4183 45.4328 29.4479 44.7983 30.0824L30.2004 44.6803C29.5659 45.3148 28.5364 45.3148 27.9019 44.6803L21.7517 38.5301C21.1172 37.8956 21.1172 36.8661 21.7517 36.2316L19.7512 38.2321C18.9428 39.0405 18.9428 40.3524 19.7512 41.1608L27.5864 48.9959C28.3948 49.8044 29.7066 49.8044 30.515 48.9959L49.114 30.397C49.9224 29.5886 49.9224 28.2776 49.114 27.4683Z" fill="url(#paint4_linear)" fill-opacity="0.4"/>
<path d="M44.5929 34.9189H39.9626L30.2004 44.6812C29.5659 45.3157 28.5364 45.3157 27.9019 44.6812L21.7517 38.5311C21.1172 37.8966 21.1172 36.867 21.7517 36.2325L19.7512 38.233C18.9428 39.0415 18.9428 40.3533 19.7512 41.1617L27.5864 48.9969C28.3948 49.8053 29.7066 49.8053 30.515 48.9969L44.5929 34.9189Z" fill="url(#paint5_linear)"/>
<path d="M32.2359 30.8323C32.006 30.8323 31.7762 30.7432 31.604 30.5649C31.2649 30.2162 31.2728 29.6577 31.6224 29.3186C32.0777 28.8764 32.346 28.5967 32.6056 28.3276C32.9228 27.9981 33.2217 27.6861 33.7994 27.1416C34.1534 26.8077 34.711 26.8243 35.0457 27.1783C35.3796 27.5322 35.363 28.0898 35.009 28.4246C34.4628 28.9393 34.191 29.2216 33.8763 29.5494C33.6194 29.8168 33.3283 30.1192 32.8512 30.5833C32.679 30.7493 32.457 30.8323 32.2359 30.8323Z" fill="white"/>
<path d="M36.6984 26.3699C36.4729 26.3699 36.2474 26.2842 36.0752 26.112C35.7309 25.7677 35.7309 25.2101 36.0752 24.8658L36.5008 24.4401C36.8452 24.0958 37.4028 24.0958 37.7471 24.4401C38.0915 24.7845 38.0915 25.3421 37.7471 25.6864L37.3215 26.112C37.1493 26.2833 36.9238 26.3699 36.6984 26.3699Z" fill="white"/>
<path fill-rule="evenodd" clip-rule="evenodd" d="M43.1514 35.1519C43.3107 35.3112 43.5193 35.3904 43.728 35.3904C43.9366 35.3904 44.1452 35.3104 44.3045 35.1519C44.6231 34.8333 44.6231 34.3173 44.3045 33.9987L39.3251 29.019C39.0065 28.7004 38.4906 28.7004 38.172 29.019C37.8534 29.3376 37.8534 29.8535 38.172 30.1721L43.1514 35.1519ZM39.1515 39.4583C38.9429 39.4583 38.7343 39.3791 38.575 39.2198L33.5956 34.2401C33.277 33.9215 33.277 33.4055 33.5956 33.0869C33.9142 32.7683 34.4301 32.7683 34.7487 33.0869L39.7281 38.0666C40.0467 38.3853 40.0467 38.9012 39.7281 39.2198C39.5696 39.3791 39.3602 39.4583 39.1515 39.4583ZM34.5751 44.0348C34.3665 44.0348 34.1579 43.9555 33.9986 43.7962L29.0192 38.8165C28.7006 38.4979 28.7006 37.9819 29.0192 37.6633C29.3377 37.3447 29.8536 37.3447 30.1722 37.6633L35.1516 42.6431C35.4702 42.9617 35.4702 43.4776 35.1516 43.7962C34.9924 43.9555 34.7837 44.0348 34.5751 44.0348Z" fill="url(#paint6_linear)"/>
<path fill-rule="evenodd" clip-rule="evenodd" d="M24.5353 14.2514L23.8117 12.2159C23.7094 11.9284 23.3476 11.9284 23.2454 12.2159L22.5217 14.2514C22.4911 14.3388 22.43 14.4078 22.3522 14.4428L20.5439 15.2573C20.2887 15.3727 20.2887 15.7791 20.5439 15.8944L22.3522 16.709C22.4291 16.7439 22.4903 16.813 22.5217 16.9004L23.2454 18.9358C23.3476 19.2234 23.7094 19.2234 23.8117 18.9358L24.5353 16.9004C24.5659 16.813 24.6271 16.7439 24.7049 16.709L26.5131 15.8944C26.7683 15.7791 26.7683 15.3727 26.5131 15.2573L24.7049 14.4428C24.628 14.4078 24.5659 14.3388 24.5353 14.2514ZM18.1047 29.3177L17.5681 27.8075C17.4929 27.5943 17.2246 27.5943 17.1477 27.8075L16.6102 29.3177C16.5875 29.3824 16.542 29.4331 16.4843 29.4593L15.1428 30.0641C14.9531 30.1498 14.9531 30.4513 15.1428 30.5369L16.4843 31.1417C16.542 31.1671 16.5875 31.2186 16.6102 31.2833L17.1477 32.7935C17.2237 33.0068 17.492 33.0068 17.5681 32.7935L18.1047 31.2833C18.1274 31.2186 18.1728 31.1679 18.2305 31.1417L19.5721 30.5369C19.7617 30.4513 19.7617 30.1498 19.5721 30.0641L18.2305 29.4593C18.1728 29.434 18.1274 29.3824 18.1047 29.3177Z" fill="url(#paint7_linear)"/>
<path fill-rule="evenodd" clip-rule="evenodd" d="M33.3567 16.8306C33.3567 17.5326 32.7875 18.1018 32.0854 18.1018C31.3833 18.1018 30.8142 17.5326 30.8142 16.8306C30.8142 16.1285 31.3833 15.5593 32.0854 15.5593C32.7875 15.5593 33.3567 16.1285 33.3567 16.8306ZM17.2054 22.7017C17.2054 23.0781 16.9002 23.3834 16.5237 23.3834C16.1472 23.3834 15.842 23.0781 15.842 22.7017C15.842 22.3252 16.1472 22.02 16.5237 22.02C16.9002 22.02 17.2054 22.3252 17.2054 22.7017Z" fill="url(#paint8_radial)"/>
</g>
<defs>
<linearGradient id="paint0_linear" x1="21.9151" y1="47.5976" x2="9.82811" y2="51.6515" gradientUnits="userSpaceOnUse">
<stop stop-color="#4EB49F"/>
<stop offset="1" stop-color="#24C8A7"/>
</linearGradient>
<linearGradient id="paint1_linear" x1="65.191" y1="39.6836" x2="17.2287" y2="18.9482" gradientUnits="userSpaceOnUse">
<stop stop-color="#56D5BC"/>
<stop offset="0.773765" stop-color="#B6F0E6"/>
<stop offset="1" stop-color="white"/>
</linearGradient>
<linearGradient id="paint2_linear" x1="42.6907" y1="37.0656" x2="18.823" y2="50.9383" gradientUnits="userSpaceOnUse">
<stop stop-color="#4EB49F"/>
<stop offset="1" stop-color="#24C8A7"/>
</linearGradient>
<linearGradient id="paint3_linear" x1="51.8747" y1="17.4343" x2="43.0041" y2="20.4096" gradientUnits="userSpaceOnUse">
<stop stop-color="#4EB49F"/>
<stop offset="1" stop-color="#24C8A7"/>
</linearGradient>
<linearGradient id="paint4_linear" x1="47.4348" y1="23.4965" x2="12.9493" y2="35.0625" gradientUnits="userSpaceOnUse">
<stop stop-color="#4EB49F"/>
<stop offset="1" stop-color="#24C8A7"/>
</linearGradient>
<linearGradient id="paint5_linear" x1="42.6907" y1="37.0656" x2="18.823" y2="50.9383" gradientUnits="userSpaceOnUse">
<stop stop-color="#4EB49F"/>
<stop offset="1" stop-color="#24C8A7"/>
</linearGradient>
<linearGradient id="paint6_linear" x1="32.3827" y1="33.489" x2="52.6949" y2="45.9588" gradientUnits="userSpaceOnUse">
<stop stop-color="#FACE8D"/>
<stop offset="0.41" stop-color="#EE9E49"/>
<stop offset="0.99" stop-color="#E47712"/>
</linearGradient>
<linearGradient id="paint7_linear" x1="24.2038" y1="30.8142" x2="10.476" y2="21.4417" gradientUnits="userSpaceOnUse">
<stop stop-color="#56D5BC"/>
<stop offset="0.773765" stop-color="#B6F0E6"/>
<stop offset="1" stop-color="white"/>
</linearGradient>
<radialGradient id="paint8_radial" cx="0" cy="0" r="1" gradientUnits="userSpaceOnUse" gradientTransform="translate(16.068 21.6612) rotate(-17.5603) scale(21.0671 11.727)">
<stop stop-color="#FACE8D"/>
<stop offset="0.41" stop-color="#EE9E49"/>
<stop offset="0.99" stop-color="#E47712"/>
</radialGradient>
<clipPath id="clip0">
<rect width="44" height="44.7472" fill="white" transform="translate(12 12)"/>
</clipPath>
</defs>
</svg>
