<svg width="32" height="32" viewBox="0 0 32 32" fill="none" xmlns="http://www.w3.org/2000/svg">
<circle cx="16" cy="16.0001" r="16" fill="url(#paint0_linear)"/>
<path opacity="0.6" d="M15.8507 22.5583C14.3287 21.6182 12.9138 20.5097 11.632 19.2531C10.727 18.3558 10.0359 17.2603 9.61148 16.0502C8.85306 13.6902 9.73591 10.993 12.2008 10.1923C13.5018 9.78369 14.9167 10.0345 16.0047 10.8666C17.0931 10.0354 18.5076 9.7847 19.8087 10.1923C22.2736 10.993 23.1623 13.6902 22.4039 16.0502C21.9829 17.2592 21.2959 18.3546 20.3953 19.2531C19.1123 20.5083 17.6976 21.6167 16.1766 22.5583L16.0107 22.6667L15.8507 22.5583Z" fill="#F2F8F5"/>
<path d="M16.0072 22.6666L15.8506 22.5583C14.3267 21.6183 12.9098 20.5098 11.6259 19.253C10.7167 18.3571 10.0215 17.2614 9.5936 16.0502C8.8411 13.6901 9.72395 10.993 12.1888 10.1922C13.4898 9.78367 14.9234 10.0347 16.0072 10.8737V22.6666Z" fill="white"/>
<path d="M20.1535 14.6661C20.0195 14.6575 19.8948 14.5906 19.8085 14.481C19.7223 14.3715 19.682 14.2289 19.6971 14.0868C19.7116 13.6185 19.4452 13.1923 19.0343 13.0265C18.7738 12.9554 18.616 12.6732 18.6812 12.395C18.743 12.1212 18.9994 11.951 19.2571 12.0126C19.2896 12.018 19.3209 12.0298 19.3494 12.0474C20.1732 12.3644 20.7066 13.2176 20.6641 14.1505C20.6628 14.2919 20.6077 14.4267 20.5114 14.5239C20.4151 14.6211 20.2859 14.6724 20.1535 14.6661Z" fill="white"/>
<defs>
<linearGradient id="paint0_linear" x1="32" y1="35.0001" x2="28.7962" y2="-4.35569" gradientUnits="userSpaceOnUse">
<stop stop-color="#22C0A1"/>
<stop offset="0.963542" stop-color="#7BFFE4"/>
</linearGradient>
</defs>
</svg>
