<svg width="14" height="18" viewBox="0 0 14 18" fill="none" xmlns="http://www.w3.org/2000/svg">
<path opacity="0.8" d="M12.575 0.384521H1.42508C1.10539 0.384521 0.846191 0.628905 0.846191 0.930326V17.0688C0.846191 17.5259 1.40916 17.7809 1.78749 17.4944L2.96708 16.6015L3.87911 17.4559C4.09985 17.6627 4.45448 17.668 4.68202 17.4679L5.64785 16.6184L6.6033 17.4662C6.83127 17.6685 7.18852 17.6633 7.40972 17.4544L8.26977 16.6421L9.13375 17.4551C9.35449 17.6628 9.7101 17.6683 9.93796 17.4675L10.941 16.5835L12.2247 17.5033C12.605 17.7758 13.1539 17.5196 13.1539 17.0687V0.930326C13.1538 0.628905 12.8947 0.384521 12.575 0.384521V0.384521ZM3.84221 8.57124H7.90178C8.22147 8.57124 8.48066 8.81563 8.48066 9.11705C8.48066 9.41847 8.22147 9.66285 7.90178 9.66285H3.84221C3.52252 9.66285 3.26332 9.41847 3.26332 9.11705C3.26332 8.81563 3.52252 8.57124 3.84221 8.57124ZM3.26332 6.54781C3.26332 6.24639 3.52252 6.00201 3.84221 6.00201H6.34469C6.66437 6.00201 6.92357 6.24639 6.92357 6.54781C6.92357 6.84923 6.66437 7.09361 6.34469 7.09361H3.84221C3.52252 7.09361 3.26332 6.84926 3.26332 6.54781ZM9.23647 12.2321H3.84221C3.52252 12.2321 3.26332 11.9877 3.26332 11.6862C3.26332 11.3848 3.52252 11.1404 3.84221 11.1404H9.23647C9.55615 11.1404 9.81535 11.3848 9.81535 11.6862C9.81535 11.9877 9.55615 12.2321 9.23647 12.2321ZM9.98721 4.52441H3.84221C3.52252 4.52441 3.26332 4.28003 3.26332 3.97861C3.26332 3.67719 3.52252 3.4328 3.84221 3.4328H9.98721C10.3069 3.4328 10.5661 3.67719 10.5661 3.97861C10.5661 4.28003 10.3069 4.52441 9.98721 4.52441Z" fill="white"/>
</svg>
