<svg width="32" height="32" viewBox="0 0 32 32" fill="none" xmlns="http://www.w3.org/2000/svg">
<circle cx="16" cy="16" r="16" fill="url(#paint0_linear)"/>
<path opacity="0.4" d="M23.7084 17.2303C23.0242 17.2303 22.4676 16.6787 22.4676 16.0008C22.4676 15.3221 23.0242 14.7705 23.7084 14.7705C23.8742 14.7705 24.0334 14.7053 24.1501 14.5897C24.2676 14.4732 24.3334 14.3155 24.3334 14.1512L24.3326 11.9201C24.3326 10.0342 22.7834 8.5 20.8801 8.5H11.1201C9.21675 8.5 7.66758 10.0342 7.66758 11.9201L7.66675 14.2231C7.66675 14.3874 7.73258 14.5451 7.85008 14.6615C7.96675 14.7771 8.12591 14.8423 8.29175 14.8423C8.99925 14.8423 9.53258 15.3403 9.53258 16.0008C9.53258 16.6787 8.97591 17.2303 8.29175 17.2303C7.94675 17.2303 7.66675 17.5078 7.66675 17.8496V20.079C7.66675 21.965 9.21508 23.5 11.1192 23.5H20.8809C22.7851 23.5 24.3334 21.965 24.3334 20.079V17.8496C24.3334 17.5078 24.0534 17.2303 23.7084 17.2303Z" fill="white"/>
<path d="M18.8587 15.6571L17.8762 16.6137L18.1087 17.9662C18.1487 18.2004 18.0545 18.4312 17.862 18.5696C17.6712 18.7096 17.422 18.7271 17.212 18.6154L15.9995 17.9779L14.7845 18.6162C14.6945 18.6637 14.5962 18.6887 14.4987 18.6887C14.3712 18.6887 14.2454 18.6487 14.137 18.5704C13.9454 18.4312 13.8512 18.2004 13.8912 17.9662L14.1229 16.6137L13.1404 15.6571C12.9704 15.4921 12.9112 15.2496 12.9845 15.0237C13.0587 14.7987 13.2504 14.6387 13.4845 14.6054L14.8395 14.4079L15.447 13.1771C15.5529 12.9654 15.7645 12.8337 15.9995 12.8337H16.0012C16.237 12.8346 16.4487 12.9662 16.5529 13.1779L17.1604 14.4079L18.5179 14.6062C18.7495 14.6387 18.9412 14.7987 19.0145 15.0237C19.0887 15.2496 19.0295 15.4921 18.8587 15.6571Z" fill="white"/>
<defs>
<linearGradient id="paint0_linear" x1="7.5" y1="4" x2="21.5" y2="30" gradientUnits="userSpaceOnUse">
<stop stop-color="#BBFA9E"/>
<stop offset="1" stop-color="#52CF17"/>
</linearGradient>
</defs>
</svg>
