<svg width="67" height="68" viewBox="0 0 67 68" fill="none" xmlns="http://www.w3.org/2000/svg">
<path d="M61.3879 37.252C61.3879 54.2037 47.6445 67.9455 30.6934 67.9455C26.535 67.9455 22.5709 67.1186 18.9552 65.62C9.07273 61.5263 1.7936 52.4189 0.288739 41.4706C0.0974559 40.0917 0 38.6833 0 37.252C0 20.2994 13.7418 6.55756 30.6934 6.55756C47.6445 6.55756 61.3879 20.2994 61.3879 37.252Z" fill="url(#paint0_linear)"/>
<path d="M65.2198 34.983L47.6927 46.589C46.4439 47.4164 44.9313 47.7445 43.4529 47.5081C41.9708 47.2723 40.4546 47.5957 39.2027 48.4246L36.857 49.9793L23.7212 30.6161L26.9439 16.6934C27.1943 15.6095 27.3182 14.511 27.3182 13.4167C27.3182 10.5858 26.4904 7.79174 24.9026 5.39318C24.5122 4.80326 24.3256 4.1361 24.3256 3.47724C24.3256 2.35131 24.872 1.24664 25.8818 0.577926C27.2425 -0.323541 29.046 -0.156104 30.2175 0.980191L32.3056 3.0024C34.6932 5.31905 36.5351 8.13957 37.6916 11.2592L38.8237 14.3073L50.4827 6.60412C52.3447 5.37141 54.8635 5.91053 56.0527 7.81766C57.1993 9.65481 56.6105 12.0824 54.8039 13.2783C54.7821 13.2928 54.7806 13.3161 54.7878 13.3338C54.7982 13.3529 54.82 13.3659 54.8443 13.3555C55.3052 13.1783 55.7873 13.0922 56.2652 13.0922C57.0283 13.0922 57.7846 13.312 58.4315 13.7303C58.8773 14.0185 59.2724 14.4016 59.5839 14.8723C60.1857 15.7816 60.3651 16.8479 60.1681 17.839C59.8592 19.4004 58.7244 20.2049 58.5015 20.3563C58.4637 20.3827 58.4533 20.4351 58.4797 20.4745C58.4797 20.4755 58.4813 20.4771 58.4823 20.4771C58.5072 20.5123 58.558 20.5222 58.5943 20.4994C58.9121 20.4221 59.2356 20.3853 59.559 20.3853C60.3485 20.3853 61.1339 20.6098 61.8015 21.0354C62.2531 21.3241 62.6522 21.7056 62.9612 22.1732C64.1731 24.0031 63.6724 26.4696 61.8404 27.6821C61.7953 27.7127 61.7502 27.7432 61.7051 27.7723C61.6792 27.793 61.6714 27.8262 61.6849 27.8495C61.6875 27.8552 61.6937 27.8614 61.6994 27.864C61.7196 27.8801 61.7518 27.8817 61.7782 27.8614C62.9161 27.4737 64.1545 27.6499 65.1508 28.2953C65.6096 28.5898 66.0165 28.9863 66.3384 29.4726C67.5509 31.304 67.0497 33.7705 65.2198 34.983V34.983Z" fill="#FDD7BD"/>
<path d="M37.0245 53.6541L29.6302 58.5508L18.9552 65.6199C9.07275 61.5258 1.79362 52.4198 0.288757 41.4706L12.6771 33.2666L20.2185 28.272C21.0868 27.6966 22.2583 27.9356 22.8337 28.8054L37.5579 51.0373C38.1333 51.9072 37.8943 53.0766 37.0245 53.6541V53.6541Z" fill="#87DBFF"/>
<path d="M37.0245 53.6541L29.6303 58.5508L12.6771 33.2666L20.2185 28.272C21.0868 27.6966 22.2583 27.9356 22.8337 28.8054L37.5579 51.0368C38.1333 51.9072 37.8943 53.0766 37.0245 53.6541V53.6541Z" fill="#6FC7FF"/>
<path d="M58.4316 13.7298L52.5992 16.851C51.7719 17.2926 50.746 17.0619 50.1898 16.3087L54.7879 13.3337C54.7982 13.3529 54.82 13.3659 54.8444 13.3555C55.3052 13.1782 55.7873 13.0922 56.2652 13.0922C57.0288 13.0922 57.7846 13.312 58.4316 13.7298V13.7298Z" fill="#FAC5AA"/>
<path d="M61.8017 21.0355L56.0963 24.0862C55.269 24.5294 54.2431 24.2993 53.6864 23.5461L58.2844 20.5705L58.483 20.4772C58.5078 20.5125 58.5586 20.5223 58.5949 20.4995C58.9127 20.4223 59.2362 20.3855 59.5596 20.3855C60.3491 20.3855 61.1345 20.6099 61.8017 21.0355Z" fill="#FAC5AA"/>
<path d="M65.1515 28.2955L60.1263 30.9838C59.3 31.425 58.2746 31.1948 57.7163 30.4416L61.6996 27.8642C61.7203 27.8803 61.7525 27.8818 61.7784 27.8611C62.9162 27.4738 64.1547 27.6501 65.1515 28.2955V28.2955Z" fill="#FAC5AA"/>
<defs>
<linearGradient id="paint0_linear" x1="10.5" y1="11.9999" x2="46.5" y2="67.9999" gradientUnits="userSpaceOnUse">
<stop stop-color="#FAD5B4"/>
<stop offset="1" stop-color="#F88216"/>
</linearGradient>
</defs>
</svg>
