<svg width="32" height="32" viewBox="0 0 32 32" fill="none" xmlns="http://www.w3.org/2000/svg">
<circle cx="16" cy="16" r="16" fill="url(#paint0_linear)"/>
<path d="M20.5478 22.8764C20.4405 22.9206 16.2357 24.6516 16.1702 24.6791C15.4419 25.0568 14.6482 25.0658 13.8448 24.8781C11.5104 24.3296 10.0426 21.9911 9.12441 19.776C7.42536 15.6792 7.01835 10.6305 7.00183 10.4175C6.96524 9.95159 7.4841 9.64584 7.87455 9.90614L8.89736 10.5884L9.26641 9.11285C9.3605 8.73652 9.79967 8.56567 10.124 8.78141L11.1468 9.46363L11.5159 7.98812C11.61 7.61179 12.0491 7.44094 12.3735 7.65668L13.5924 8.46965L14.4054 7.25037C14.7012 6.80663 15.391 6.98809 15.4338 7.51714C15.4345 7.52768 15.5245 8.61903 15.7888 10.1701C16.8145 16.1851 18.4368 18.3397 19.2969 19.6871L20.8079 22.0536C20.9956 22.3481 20.8727 22.7421 20.5478 22.8764Z" fill="url(#paint1_linear)"/>
<path d="M24.2192 21.3123C24.0916 21.4455 24.5232 21.2392 16.2192 24.6588C15.9046 24.7881 15.3999 25.077 14.447 24.9807C15.9366 24.9094 17.1225 23.6792 17.1225 22.1721C17.1225 21.0973 16.5194 20.1635 15.6333 19.6902C15.3558 19.542 15.3808 19.1365 15.6744 19.0235C18.943 17.7661 17.887 18.1725 21.982 16.5976C22.415 16.4296 24.0881 16.6879 24.7629 18.264C25.2146 19.3188 25.0061 20.4871 24.2192 21.3123Z" fill="white"/>
<path opacity="0.9" d="M10.5831 14.2587L13.395 13.134C13.6833 13.0186 13.8236 12.6914 13.7082 12.403C13.5929 12.1146 13.2656 11.9743 12.9772 12.0897L10.1654 13.2144C9.87706 13.3298 9.73679 13.6571 9.85214 13.9454C9.96715 14.233 10.2941 14.3744 10.5831 14.2587Z" fill="#F2F8F5"/>
<path opacity="0.9" d="M14.2705 14.6524C14.1552 14.3641 13.8279 14.2237 13.5395 14.3392L10.7277 15.4639C10.4393 15.5793 10.299 15.9065 10.4144 16.1949C10.5023 16.4148 10.7135 16.5486 10.9367 16.5486C11.0888 16.5486 10.9038 16.6048 13.9572 15.3834C14.2456 15.2681 14.3859 14.9408 14.2705 14.6524Z" fill="#F2F8F5"/>
<path d="M20.7849 12.459C20.5657 12.6781 19.8789 12.6776 19.6602 12.459C19.4406 12.2394 19.0845 12.2393 18.8649 12.459C18.6453 12.6786 18.6453 13.0346 18.8649 13.2542C19.1008 13.4901 19.4387 13.6504 19.8249 13.7156V14.3108C19.8249 14.6213 20.0767 14.8731 20.3873 14.8731C20.6979 14.8731 20.9496 14.6213 20.9496 14.3108V13.6325C22.4256 13.1309 22.3833 11.1547 21.0342 10.5959L20.1707 10.2382C19.7213 10.0521 19.6406 9.2495 20.552 9.2495C20.8267 9.2495 21.0324 9.33224 21.1144 9.41424C21.334 9.63384 21.6901 9.63388 21.9097 9.41424C22.1293 9.1946 22.1293 8.83855 21.9097 8.61895C21.6738 8.38307 21.3358 8.22276 20.9497 8.15759V7.56237C20.9497 7.2518 20.6979 7 20.3873 7C20.0767 7 19.8249 7.2518 19.8249 7.56237V8.24061C18.3618 8.73792 18.3797 10.7137 19.7403 11.2773L20.6039 11.635C20.9278 11.7691 21.0464 12.1968 20.7849 12.459Z" fill="white"/>
<defs>
<linearGradient id="paint0_linear" x1="32" y1="35" x2="28.7962" y2="-4.35575" gradientUnits="userSpaceOnUse">
<stop stop-color="#22C0A1"/>
<stop offset="0.963542" stop-color="#7BFFE4"/>
</linearGradient>
<linearGradient id="paint1_linear" x1="10.15" y1="8.35" x2="18.25" y2="24.1" gradientUnits="userSpaceOnUse">
<stop stop-color="#F2F8F5" stop-opacity="0.4"/>
<stop offset="1" stop-color="#F2F8F5" stop-opacity="0.7"/>
</linearGradient>
</defs>
</svg>
