<svg width="32" height="32" viewBox="0 0 32 32" fill="none" xmlns="http://www.w3.org/2000/svg">
<circle cx="16" cy="16" r="16" fill="url(#paint0_linear)"/>
<path opacity="0.6" d="M21.1422 13.8061C20.8926 11.8142 19.1828 10.1849 17.3309 10.1742C17.2941 10.174 17.2537 10.1717 17.2109 10.1693C17.1186 10.164 17.0232 10.1587 16.9292 10.1712C16.5565 10.2207 16.4971 10.5363 16.4948 10.7201C16.4926 10.8988 16.5365 11.0428 16.6252 11.1483C16.7743 11.3257 16.9961 11.3313 17.1742 11.3357C17.2264 11.3371 17.2756 11.3382 17.3174 11.3433C19.0071 11.5479 19.6453 12.1377 20.1627 13.9729C20.1753 14.0177 20.1858 14.0737 20.1969 14.133C20.2383 14.3551 20.3245 14.8171 20.7576 14.7596L20.7577 14.7596C20.7937 14.7548 20.832 14.746 20.8714 14.7336C21.2653 14.6092 21.1962 14.1856 21.163 13.982C21.1536 13.9247 21.1447 13.8705 21.1441 13.8337C21.1441 13.8245 21.1434 13.8152 21.1422 13.8061Z" fill="#F2F8F5"/>
<path opacity="0.6" d="M17.0904 9.05995C17.145 9.06375 17.1967 9.06738 17.2398 9.07373C20.2664 9.5223 21.6583 10.9043 22.0441 13.8439C22.0506 13.8938 22.0517 13.9548 22.0527 14.0193C22.0566 14.249 22.0645 14.7268 22.5969 14.7367L22.6134 14.7368C22.7804 14.7368 22.9133 14.6883 23.0083 14.5925C23.174 14.4254 23.1624 14.1772 23.1531 13.9778C23.1508 13.9288 23.1487 13.8827 23.1492 13.8424C23.1877 10.8359 20.4873 8.10968 17.3703 8.00829C17.3574 8.00788 17.3451 8.00854 17.3326 8.01023C17.3265 8.0111 17.3152 8.01217 17.2957 8.01217C17.2646 8.01217 17.2264 8.00957 17.1858 8.00693C17.1368 8.00371 17.0812 8 17.0249 8C16.5285 8 16.4342 8.34 16.4221 8.54268C16.3943 9.01109 16.8645 9.04406 17.0904 9.05995Z" fill="#F2F8F5"/>
<path d="M21.3757 19.8434C21.3049 19.7894 21.2318 19.7335 21.1633 19.6783C20.7999 19.3859 20.4134 19.1164 20.0396 18.8558C19.962 18.8017 19.8845 18.7476 19.8072 18.6934C19.3283 18.3571 18.8978 18.1936 18.4911 18.1936C17.9433 18.1936 17.4657 18.4963 17.0715 19.0932C16.8969 19.3578 16.685 19.4864 16.4239 19.4864C16.2695 19.4864 16.094 19.4424 15.9025 19.3554C14.3569 18.6545 13.2532 17.5799 12.6221 16.1614C12.317 15.4759 12.4159 15.0277 12.9529 14.663C13.2578 14.456 13.8253 14.0708 13.7851 13.333C13.7396 12.4953 11.8911 9.9745 11.1122 9.6882C10.7825 9.56693 10.436 9.5658 10.0806 9.68537C9.18524 9.98636 8.54272 10.515 8.22234 11.2139C7.91273 11.8893 7.92671 12.6823 8.26277 13.5072C9.23429 15.8923 10.6002 17.9717 12.3227 19.6877C14.0087 21.3675 16.0809 22.7435 18.4818 23.7773C18.6982 23.8704 18.9252 23.9212 19.0909 23.9582C19.1474 23.9709 19.1962 23.9818 19.2317 23.9915C19.2513 23.9968 19.2714 23.9997 19.2916 23.9999L19.3106 24C19.3106 24 19.3106 24 19.3107 24C20.4399 24 21.7958 22.9681 22.2122 21.7917C22.577 20.7617 21.9109 20.2525 21.3757 19.8434Z" fill="white"/>
<defs>
<linearGradient id="paint0_linear" x1="32" y1="35" x2="28.7962" y2="-4.35572" gradientUnits="userSpaceOnUse">
<stop stop-color="#22C0A1"/>
<stop offset="0.963542" stop-color="#7BFFE4"/>
</linearGradient>
</defs>
</svg>
