<svg width="32" height="32" viewBox="0 0 32 32" fill="none" xmlns="http://www.w3.org/2000/svg">
<circle cx="16" cy="16" r="16" fill="url(#paint0_linear_3_1336)"/>
<path d="M22.0825 19.0613L22.0824 19.0614C21.4774 19.7767 20.7619 20.5323 20.0708 21.1615C19.3732 21.7966 18.7222 22.2824 18.2441 22.4825C18.1011 22.5423 17.9219 22.6038 17.7159 22.6555L17.6975 22.6601L17.689 22.6636C16.2757 23.047 13.7734 23.2637 12.282 23.2504L11.645 18.5815L11.645 18.5815L11.6445 18.578C11.6401 18.549 11.6351 18.5207 11.6295 18.4931C12.248 18.3015 12.7917 18.1813 13.29 18.1234L13.29 18.1235L13.2942 18.1229C13.9372 18.0373 14.5186 18.0397 15.1081 18.1046L15.1535 18.1096L15.1975 18.0986C15.2828 18.0772 15.3731 18.0538 15.4673 18.0294C15.9414 17.9064 16.5139 17.758 17.0422 17.7203C17.6946 17.6737 18.1209 17.8052 18.2849 18.1796C18.3596 18.3502 18.3605 18.4841 18.283 18.6142C18.1943 18.7629 17.9792 18.9478 17.5138 19.1426C17.0485 19.3372 16.3718 19.5318 15.8017 19.6793C15.5186 19.7526 15.2653 19.8133 15.0829 19.8558C14.9917 19.877 14.9183 19.8936 14.8677 19.9049L14.8098 19.9177L14.795 19.921L14.7913 19.9218L14.7904 19.9219L14.7903 19.922L14.7902 19.922L14.7902 19.922L14.7902 19.922L14.7997 20.4083L14.8466 20.1648C14.7997 20.4083 14.7997 20.4084 14.7998 20.4084L14.8 20.4084L14.8004 20.4085L14.8018 20.4088L14.8065 20.4097L14.8236 20.4129C14.8383 20.4156 14.8596 20.4194 14.8867 20.4241C14.9411 20.4333 15.0194 20.4458 15.1169 20.459C15.3116 20.4855 15.5843 20.5151 15.8972 20.5281C16.5158 20.5537 17.3218 20.5157 17.9925 20.2352C18.3204 20.098 18.6644 19.8422 19.0047 19.5439C19.3481 19.2429 19.7055 18.8824 20.0584 18.5213C20.1084 18.4701 20.1583 18.419 20.2081 18.3679C20.5123 18.056 20.8122 17.7485 21.1032 17.4741C21.4432 17.1535 21.7586 16.8903 22.04 16.724L22.0464 16.7201L22.0527 16.7159C22.1206 16.67 22.1954 16.6323 22.2648 16.6033C22.5403 16.488 22.8328 16.4475 23.0728 16.493C23.2977 16.5357 23.472 16.6509 23.5698 16.8594C23.5694 16.863 23.5689 16.8677 23.5679 16.8737C23.5627 16.9052 23.549 16.9533 23.5216 17.0201C23.467 17.1533 23.371 17.3292 23.2359 17.5408C22.9668 17.9622 22.5616 18.4957 22.0825 19.0613Z" fill="white" stroke="white" stroke-width="0.5"/>
<path d="M11.9004 23.9651L10.2041 24.6745C9.94877 24.7813 9.65117 24.6619 9.53986 24.4079L7.25439 19.1936C7.14308 18.9396 7.25999 18.6468 7.51535 18.5401C9.67733 17.6359 11.0118 17.9612 11.0669 17.9752C11.2662 18.0269 11.416 18.1907 11.446 18.3923L12.198 23.4385C12.2311 23.6621 12.1095 23.8777 11.9004 23.9651Z" fill="#B1EEE1"/>
<path d="M15.8604 9.32474L12.4913 12.2565V15.4208C12.4913 15.5027 12.5221 15.5813 12.577 15.6392C12.6318 15.6972 12.7062 15.7297 12.7837 15.7297L14.8314 15.7241C14.9087 15.7237 14.9827 15.691 15.0372 15.6331C15.0917 15.5752 15.1224 15.4969 15.1224 15.4152V13.5673C15.1224 13.4854 15.1532 13.4068 15.208 13.3489C15.2628 13.2909 15.3372 13.2584 15.4147 13.2584H16.5842C16.6618 13.2584 16.7361 13.2909 16.791 13.3489C16.8458 13.4068 16.8766 13.4854 16.8766 13.5673V15.4138C16.8765 15.4545 16.884 15.4948 16.8986 15.5324C16.9132 15.5699 16.9348 15.6041 16.9619 15.6329C16.9891 15.6617 17.0213 15.6845 17.0569 15.7001C17.0924 15.7157 17.1305 15.7237 17.169 15.7237L19.216 15.7297C19.2935 15.7297 19.3679 15.6972 19.4227 15.6392C19.4775 15.5813 19.5083 15.5027 19.5083 15.4208V12.2544L16.14 9.32474C16.1004 9.29102 16.0511 9.27263 16.0002 9.27263C15.9493 9.27263 15.9 9.29102 15.8604 9.32474ZM21.1822 11.3174L19.6545 9.98698V7.31274C19.6545 7.25129 19.6314 7.19236 19.5903 7.14891C19.5492 7.10546 19.4934 7.08105 19.4352 7.08105H18.4119C18.3538 7.08105 18.298 7.10546 18.2569 7.14891C18.2158 7.19236 18.1927 7.25129 18.1927 7.31274V8.71463L16.5566 7.29247C16.3996 7.15596 16.2026 7.08133 15.9993 7.08133C15.796 7.08133 15.599 7.15596 15.442 7.29247L10.8164 11.3174C10.7942 11.3368 10.7758 11.3606 10.7623 11.3875C10.7488 11.4144 10.7405 11.4439 10.7378 11.4742C10.7351 11.5045 10.738 11.5351 10.7465 11.5641C10.755 11.5932 10.7688 11.6203 10.7872 11.6437L11.2531 12.2422C11.2714 12.2658 11.294 12.2853 11.3194 12.2996C11.3449 12.3139 11.3728 12.3228 11.4015 12.3257C11.4302 12.3286 11.4591 12.3255 11.4867 12.3166C11.5143 12.3077 11.5399 12.2931 11.5621 12.2737L15.8604 8.53315C15.9 8.49942 15.9493 8.48103 16.0002 8.48103C16.0511 8.48103 16.1004 8.49942 16.14 8.53315L20.4385 12.2737C20.4607 12.2931 20.4863 12.3077 20.5138 12.3167C20.5413 12.3256 20.5703 12.3287 20.5989 12.3259C20.6276 12.323 20.6555 12.3142 20.6809 12.2999C20.7064 12.2857 20.7289 12.2663 20.7473 12.2428L21.2133 11.6443C21.2316 11.6207 21.2454 11.5935 21.2537 11.5643C21.2621 11.5351 21.2649 11.5044 21.262 11.474C21.2591 11.4437 21.2506 11.4142 21.2369 11.3873C21.2232 11.3604 21.2046 11.3367 21.1822 11.3174Z" fill="#EAF7F3"/>
<defs>
<linearGradient id="paint0_linear_3_1336" x1="32" y1="35" x2="28.7962" y2="-4.35575" gradientUnits="userSpaceOnUse">
<stop stop-color="#22C0A1"/>
<stop offset="0.963542" stop-color="#7BFFE4"/>
</linearGradient>
</defs>
</svg>
