<svg width="32" height="32" viewBox="0 0 32 32" fill="none" xmlns="http://www.w3.org/2000/svg">
<circle cx="16" cy="16.0001" r="16" fill="url(#paint0_linear)"/>
<path d="M16.0079 17.8868C14.9383 17.8868 14.073 17.0534 14.073 16.0068C14.073 14.9601 14.9383 14.1201 16.0079 14.1201C17.0776 14.1201 17.9224 14.9601 17.9224 16.0068C17.9224 17.0534 17.0776 17.8868 16.0079 17.8868Z" fill="white"/>
<path opacity="0.6" d="M22.1533 17.5801C22.0238 17.3801 21.8399 17.1801 21.6014 17.0534C21.4106 16.9601 21.288 16.8067 21.179 16.6267C20.8315 16.0534 21.0359 15.3001 21.615 14.9601C22.2963 14.5801 22.5143 13.7334 22.1192 13.0734L21.6627 12.2867C21.2744 11.6267 20.4227 11.3934 19.7483 11.7801C19.1487 12.1001 18.3788 11.8867 18.0314 11.3201C17.9224 11.1334 17.861 10.9334 17.8747 10.7334C17.8951 10.4734 17.8133 10.2267 17.6907 10.0267C17.4386 9.6134 16.9822 9.3334 16.478 9.3334H15.5173C15.02 9.34674 14.5635 9.6134 14.3114 10.0267C14.182 10.2267 14.107 10.4734 14.1207 10.7334C14.1343 10.9334 14.073 11.1334 13.964 11.3201C13.6165 11.8867 12.8466 12.1001 12.2539 11.7801C11.5726 11.3934 10.7278 11.6267 10.3326 12.2867L9.87614 13.0734C9.4878 13.7334 9.70582 14.5801 10.3803 14.9601C10.9594 15.3001 11.1638 16.0534 10.8232 16.6267C10.7073 16.8067 10.5847 16.9601 10.3939 17.0534C10.1623 17.1801 9.9579 17.3801 9.84889 17.5801C9.59681 17.9934 9.61043 18.5134 9.86252 18.9467L10.3326 19.7467C10.5847 20.1734 11.0548 20.4401 11.5453 20.4401C11.777 20.4401 12.0495 20.3734 12.2675 20.2401C12.4378 20.1267 12.6422 20.0867 12.8671 20.0867C13.5416 20.0867 14.107 20.6401 14.1207 21.3001C14.1207 22.0667 14.7475 22.6667 15.5378 22.6667H16.4644C17.2479 22.6667 17.8747 22.0667 17.8747 21.3001C17.8951 20.6401 18.4606 20.0867 19.1351 20.0867C19.3531 20.0867 19.5575 20.1267 19.7346 20.2401C19.9526 20.3734 20.2184 20.4401 20.4568 20.4401C20.9405 20.4401 21.4106 20.1734 21.6627 19.7467L22.1396 18.9467C22.3849 18.5001 22.4053 17.9934 22.1533 17.5801Z" fill="#F2F8F5"/>
<defs>
<linearGradient id="paint0_linear" x1="32" y1="35.0001" x2="28.7962" y2="-4.35566" gradientUnits="userSpaceOnUse">
<stop stop-color="#22C0A1"/>
<stop offset="0.963542" stop-color="#7BFFE4"/>
</linearGradient>
</defs>
</svg>
