<svg width="142" height="138" viewBox="0 0 142 138" fill="none" xmlns="http://www.w3.org/2000/svg">
<circle cx="73" cy="69" r="69" fill="#E2FDEF"/>
<g clip-path="url(#clip0)">
<path d="M85.8469 60.5091C85.7195 60.201 85.419 60.0001 85.0857 60C53.1201 60 49.6599 73.2509 49.6599 78.9486C49.6599 86.3402 55.2885 91.3064 63.6654 91.3064C74.2453 91.3064 76.4615 81.2389 77.6511 75.8295C78.8076 70.3232 81.6018 65.2952 85.6673 61.4055C85.9026 61.1704 85.9735 60.8168 85.8469 60.5091Z" fill="url(#paint0_linear)"/>
<path fill-rule="evenodd" clip-rule="evenodd" d="M85.83 60.4717C76.7771 64.2929 60.6981 73.7187 53.7373 87.6403C53.6846 87.7458 53.6331 87.8502 53.5828 87.9535C51.0904 85.7855 49.6596 82.6754 49.6596 78.9486C49.6596 73.2509 53.1198 60 85.0853 60C85.405 60.0001 85.6945 60.1849 85.83 60.4717Z" fill="url(#paint1_linear)"/>
<path d="M50.9542 96.2496C50.2392 96.2496 49.6596 95.7722 49.6596 95.1834C49.6596 88.844 63.054 68.8501 84.0967 60.4531C84.7402 60.1964 85.4676 60.0716 85.7794 60.6016C85.9092 61.3594 84.7402 62.0088 84.0967 62.2656C62.8468 70.7458 52.2488 90.2003 52.2488 95.1835C52.2488 95.7723 51.6692 96.2496 50.9542 96.2496Z" fill="#7EF384"/>
</g>
<path d="M91.8501 85.4406C92.4859 86.9258 88.7278 92.6087 83.4364 98.908C76.7461 106.885 67.6158 115.786 61.945 118.214C61.1011 118.575 60.0596 118.941 58.8734 119.249L58.8396 119.264C50.6087 121.589 35.7923 122.899 27.7745 122.737L24.3282 95.9341C24.2479 95.3734 24.115 94.8671 23.9431 94.3815C27.8875 93.0524 31.3254 92.2197 34.4739 91.8304C38.09 91.3207 41.3623 91.3138 44.6662 91.6608C50.0956 90.2551 60.5109 86.8747 63.0398 92.7818C64.0802 95.2121 63.3609 97.637 58.0951 99.8913C52.8294 102.146 43.0268 104.345 43.0268 104.345C43.0268 104.345 52.8326 106.258 59.5836 103.368C65.8957 100.666 74.8684 88.0374 81.5378 84.0239C82.0008 83.7059 82.4927 83.4554 82.9315 83.2675C86.307 81.8224 90.405 82.0651 91.8501 85.4406Z" fill="url(#paint2_linear)"/>
<path d="M26.9875 125.191L17.7049 129.165C16.3075 129.764 14.6878 129.115 14.0895 127.718L1.80646 99.0259C1.2082 97.6285 1.85682 96.0087 3.25427 95.4105C15.0854 90.3455 22.3562 92.0937 22.6561 92.169C23.7417 92.4472 24.5537 93.3457 24.71 94.4571L28.6308 122.275C28.8029 123.508 28.1318 124.702 26.9875 125.191V125.191Z" fill="url(#paint3_linear)"/>
<defs>
<linearGradient id="paint0_linear" x1="65.0657" y1="73.1405" x2="75.9405" y2="85.8278" gradientUnits="userSpaceOnUse">
<stop stop-color="#13B52D"/>
<stop offset="1" stop-color="#53EA6B"/>
</linearGradient>
<linearGradient id="paint1_linear" x1="63.2532" y1="74.4998" x2="54.1908" y2="67.2499" gradientUnits="userSpaceOnUse">
<stop stop-color="#28B93F"/>
<stop offset="0.90625" stop-color="#57D96C"/>
</linearGradient>
<linearGradient id="paint2_linear" x1="50.7445" y1="82.9077" x2="65.253" y2="116.798" gradientUnits="userSpaceOnUse">
<stop stop-color="#FFE2D2"/>
<stop offset="1" stop-color="#FDCAAE"/>
</linearGradient>
<linearGradient id="paint3_linear" x1="11.2714" y1="91.9783" x2="25.7221" y2="125.733" gradientUnits="userSpaceOnUse">
<stop stop-color="#FFB78E"/>
<stop offset="1" stop-color="#EA5400"/>
</linearGradient>
<clipPath id="clip0">
<rect width="36.2496" height="36.2496" fill="white" transform="translate(49.6596 60)"/>
</clipPath>
</defs>
</svg>
