<svg width="97" height="120" viewBox="0 0 97 120" fill="none" xmlns="http://www.w3.org/2000/svg">
<path d="M27.7181 4.5456H71.5641C74.6388 4.5456 77.1344 7.02674 77.1344 10.0837V114.462C77.1344 117.519 74.6388 120 71.5641 120H27.7181C24.6434 120 22.1478 117.519 22.1478 114.462V10.0837C22.1478 7.02674 24.6434 4.5456 27.7181 4.5456Z" fill="#16C6B1"/>
<path opacity="0.7" d="M27.7181 4.5456H71.5641C74.6388 4.5456 77.1344 7.02674 77.1344 10.0837V114.462C77.1344 117.519 74.6388 120 71.5641 120H27.7181C24.6434 120 22.1478 117.519 22.1478 114.462V10.0837C22.1478 7.02674 24.6434 4.5456 27.7181 4.5456Z" fill="white"/>
<path d="M29.1888 4.34862H73.0348C76.1095 4.34862 78.6051 6.82976 78.6051 9.88667V114.265C78.6051 117.322 76.1095 119.803 73.0348 119.803H29.1888C26.1141 119.803 23.6185 117.322 23.6185 114.265V9.88667C23.6185 6.82976 26.1141 4.34862 29.1888 4.34862Z" fill="#16C6B1"/>
<path opacity="0.2" d="M29.1888 4.34862H73.0348C76.1095 4.34862 78.6051 6.82976 78.6051 9.88667V114.265C78.6051 117.322 76.1095 119.803 73.0348 119.803H29.1888C26.1141 119.803 23.6185 117.322 23.6185 114.265V9.88667C23.6185 6.82976 26.1141 4.34862 29.1888 4.34862Z" fill="black"/>
<path d="M53.2568 114.716C53.2607 116.079 52.1519 117.182 50.7803 117.185C49.4087 117.189 48.3 116.087 48.2962 114.723C48.2923 113.36 49.4011 112.257 50.7727 112.254C50.7765 112.254 50.7765 112.254 50.7803 112.254C52.1481 112.254 53.2568 113.356 53.2568 114.716Z" fill="#16C6B1"/>
<path opacity="0.4" d="M53.2568 114.716C53.2607 116.079 52.1519 117.182 50.7803 117.185C49.4087 117.189 48.3 116.087 48.2962 114.723C48.2923 113.36 49.4011 112.257 50.7727 112.254C50.7765 112.254 50.7765 112.254 50.7803 112.254C52.1481 112.254 53.2568 113.356 53.2568 114.716Z" fill="black"/>
<path d="M78.1631 111.106H23.4509V11.8905H78.5442L78.1631 111.106Z" fill="#16C6B1"/>
<path opacity="0.8" d="M78.647 111.053L23.4204 111.117V11.8981L78.5975 11.8413L78.647 111.053Z" fill="white"/>
<path opacity="0.33" d="M19.2865 13.5535H18.9054V18.5612H19.2865V13.5535Z" fill="#16C6B1"/>
<path opacity="0.33" d="M19.2865 19.9514H18.9054V21.5196H19.2865V19.9514Z" fill="#16C6B1"/>
<path d="M28.7582 15.9967H66.7101C68.8018 15.9967 70.4973 17.6824 70.4973 19.762V42.2854C70.4973 44.365 68.8018 46.0507 66.7101 46.0507H28.7582C26.6665 46.0507 24.971 44.365 24.971 42.2854V19.762C24.971 17.6824 26.6703 15.9967 28.7582 15.9967Z" fill="white"/>
<path opacity="0.27" d="M31.9472 27.9516C34.7311 27.9516 36.9879 25.7079 36.9879 22.9401C36.9879 20.1723 34.7311 17.9286 31.9472 17.9286C29.1633 17.9286 26.9065 20.1723 26.9065 22.9401C26.9065 25.7079 29.1633 27.9516 31.9472 27.9516Z" fill="#16C6B1"/>
<path d="M36.1078 22.9401C36.1116 23.6295 35.9364 24.3076 35.6049 24.9099C34.5114 26.9175 31.9853 27.6637 29.966 26.5766C27.9467 25.4894 27.1961 22.978 28.2896 20.9704C29.3831 18.9627 31.9091 18.2165 33.9285 19.3036C35.2734 20.0271 36.1116 21.4211 36.1078 22.9401Z" fill="white"/>
<path opacity="0.27" d="M35.6049 24.9061C34.5114 26.9137 31.9853 27.66 29.966 26.5728C29.2573 26.1902 28.6744 25.6107 28.2896 24.9061C30.507 23.4364 33.3912 23.4364 35.6049 24.9061Z" fill="#16C6B1"/>
<path opacity="0.27" d="M31.9472 23.3606C32.9699 23.3606 33.7989 22.5364 33.7989 21.5196C33.7989 20.5029 32.9699 19.6786 31.9472 19.6786C30.9246 19.6786 30.0956 20.5029 30.0956 21.5196C30.0956 22.5364 30.9246 23.3606 31.9472 23.3606Z" fill="#16C6B1"/>
<path d="M27.7638 48.8273H67.7045C69.2476 48.8273 70.4973 50.0698 70.4973 51.6039V56.57C70.4973 58.1041 69.2476 59.3466 67.7045 59.3466H27.7638C26.2207 59.3466 24.971 58.1041 24.971 56.57V51.6039C24.971 50.0698 26.2245 48.8273 27.7638 48.8273Z" fill="white"/>
<path opacity="0.6" d="M78.2355 60.3655L83.6191 75.116C83.9087 75.9191 83.4895 76.8055 82.6856 77.0971L54.4417 87.2831C53.634 87.5709 52.7463 87.1581 52.4491 86.3588L47.0655 71.6045C46.7759 70.8015 47.1912 69.9189 47.999 69.6272L76.2428 59.4375C77.0544 59.1496 77.9421 59.5663 78.2355 60.3655Z" fill="#16C6B1"/>
<path d="M77.3821 59.4716L69.3086 72.6803C67.7693 75.2031 64.6679 76.3206 61.8599 75.366L47.1455 70.3734C47.3246 70.0212 47.6294 69.7522 47.999 69.6158L76.2429 59.4261C76.6162 59.2973 77.0239 59.3125 77.3821 59.4716Z" fill="#16C6B1"/>
<path opacity="0.5" d="M77.3821 59.4716L69.3086 72.6803C67.7693 75.2031 64.6679 76.3206 61.8599 75.366L47.1455 70.3734C47.3246 70.0212 47.6294 69.7522 47.999 69.6158L76.2429 59.4261C76.6162 59.2973 77.0239 59.3125 77.3821 59.4716Z" fill="white"/>
<path opacity="0.6" d="M69.3771 85.7186L69.1181 99.0069C69.1028 99.7266 68.5046 100.302 67.7769 100.291L42.3296 99.7986C41.6057 99.7834 41.0266 99.1887 41.0418 98.4652L41.2971 85.1769C41.3047 84.8133 41.4647 84.4686 41.7352 84.2261C41.9829 84.0064 42.3068 83.8852 42.6382 83.8928L68.0855 84.3814C68.8133 84.3966 69.3924 84.9951 69.3771 85.7186Z" fill="#16C6B1"/>
<path d="M68.9771 84.7527L58.5528 92.7529C56.5602 94.2795 53.7712 94.2265 51.8395 92.6241L41.7543 84.2261C42.002 84.0064 42.3258 83.8852 42.6573 83.8928L68.1046 84.3814C68.4323 84.3928 68.7447 84.5254 68.9771 84.7527Z" fill="#16C6B1"/>
<path opacity="0.5" d="M68.9771 84.7527L58.5528 92.7529C56.5602 94.2795 53.7712 94.2265 51.8395 92.6241L41.7543 84.2261C42.002 84.0064 42.3258 83.8852 42.6573 83.8928L68.1046 84.3814C68.4323 84.3928 68.7447 84.5254 68.9771 84.7527Z" fill="white"/>
<path d="M43.7089 7.47372C43.7127 6.99265 44.1051 6.60248 44.589 6.60627C45.0729 6.61006 45.4653 7.00022 45.4615 7.4813C45.4577 7.96237 45.0691 8.34875 44.5852 8.34875C44.1013 8.34875 43.7089 7.95859 43.7089 7.47751C43.7089 7.47751 43.7089 7.47372 43.7089 7.47372Z" fill="#16C6B1"/>
<path d="M47.6142 6.60248H54.8952C55.3791 6.60627 55.7677 6.99265 55.7715 7.47372C55.7715 7.9548 55.3791 8.34496 54.8952 8.34875H47.6142C47.1303 8.34496 46.7379 7.9548 46.7379 7.47372C46.7417 6.99265 47.1341 6.60627 47.6142 6.60248Z" fill="#16C6B1"/>
<path opacity="0.4" d="M43.7089 7.47372C43.7127 6.99265 44.1051 6.60248 44.589 6.60627C45.0729 6.61006 45.4653 7.00022 45.4615 7.4813C45.4577 7.96237 45.0691 8.34875 44.5852 8.34875C44.1013 8.34875 43.7089 7.95859 43.7089 7.47751C43.7089 7.47751 43.7089 7.47372 43.7089 7.47372Z" fill="black"/>
<path opacity="0.4" d="M47.6142 6.60248H54.8952C55.3791 6.60627 55.7677 6.99265 55.7715 7.47372C55.7715 7.9548 55.3791 8.34496 54.8952 8.34875H47.6142C47.1303 8.34496 46.7379 7.9548 46.7379 7.47372C46.7417 6.99265 47.1341 6.60627 47.6142 6.60248Z" fill="black"/>
<path d="M75.0503 24.1561H78.6813C79.5233 24.1561 80.2092 24.8379 80.2092 25.675V36.6716C80.2092 37.5088 79.5233 38.1906 78.6813 38.1906H75.0503C74.2083 38.1906 73.5225 37.5088 73.5225 36.6716V25.675C73.5225 24.8379 74.2083 24.1561 75.0503 24.1561Z" fill="#16C6B1"/>
<path opacity="0.8" d="M75.0503 24.1561H78.6813C79.5233 24.1561 80.2092 24.8379 80.2092 25.675V36.6716C80.2092 37.5088 79.5233 38.1906 78.6813 38.1906H75.0503C74.2083 38.1906 73.5225 37.5088 73.5225 36.6716V25.675C73.5225 24.8379 74.2083 24.1561 75.0503 24.1561Z" fill="white"/>
<path d="M74.6693 42.24H79.0623C79.6948 42.24 80.2092 42.7513 80.2092 43.3802V49.0167C80.2092 49.6455 79.6948 50.1569 79.0623 50.1569H74.6693C74.0369 50.1569 73.5225 49.6455 73.5225 49.0167V43.3802C73.5225 42.7513 74.0369 42.24 74.6693 42.24Z" fill="#16C6B1"/>
<path opacity="0.8" d="M74.6693 42.24H79.0623C79.6948 42.24 80.2092 42.7513 80.2092 43.3802V49.0167C80.2092 49.6455 79.6948 50.1569 79.0623 50.1569H74.6693C74.0369 50.1569 73.5225 49.6455 73.5225 49.0167V43.3802C73.5225 42.7513 74.0369 42.24 74.6693 42.24Z" fill="white"/>
<path d="M30.3166 108.333L33.117 108.602L36.0316 101.977L33.2313 101.704L30.3166 108.333Z" fill="#E4897B"/>
<path d="M1.8898 88.0407L3.4862 90.446L9.60514 87.5406L8.00492 85.1315L1.8898 88.0407Z" fill="#E4897B"/>
<path d="M36.0316 101.977L34.5305 105.393H31.6082L33.2274 101.704L36.0316 101.977Z" fill="#CE6F64"/>
<path d="M8.00491 85.1353L9.60132 87.5407L6.45041 89.0369L4.85019 86.6315L8.00491 85.1353Z" fill="#CE6F64"/>
<path d="M61.8066 40.524L61.8981 40.7286L62.0162 40.9672C62.0924 41.1263 62.18 41.2892 62.2676 41.4521C62.4467 41.774 62.6486 42.0998 62.8391 42.4104C63.2392 43.0468 63.6811 43.6567 64.1612 44.2362C64.6489 44.812 65.1709 45.3575 65.7195 45.8727C66.0053 46.1227 66.2834 46.3803 66.5806 46.6303L67.0264 46.9788L67.1292 47.0621C67.0797 47.0469 67.0302 47.0356 66.9807 47.0318C66.8702 47.0204 66.7597 47.0356 66.6568 47.081C66.5958 47.1 66.5387 47.1341 66.4968 47.1833C66.4701 47.2212 66.5387 47.1606 66.5958 47.0621C66.7482 46.7856 66.8664 46.4939 66.9502 46.1909C67.1597 45.456 67.3236 44.706 67.4417 43.9521C67.5712 43.1718 67.6779 42.3725 67.7617 41.5733C67.8455 40.774 67.9332 39.9596 68.0094 39.1641L69.48 39.1414C69.5715 39.9861 69.6096 40.8081 69.6439 41.649C69.6782 42.49 69.6629 43.3233 69.6439 44.1756C69.6096 45.0507 69.5105 45.9257 69.3429 46.7856C69.2476 47.2818 69.0914 47.7667 68.8819 48.225C68.7295 48.5508 68.5199 48.8462 68.2646 49.1C68.0665 49.2856 67.8341 49.4296 67.5788 49.5281C67.2816 49.6379 66.9654 49.6758 66.6492 49.6417C66.3939 49.6076 66.1463 49.5319 65.9176 49.4144C65.8262 49.369 65.7386 49.3197 65.6509 49.2629L65.5062 49.1682L64.9499 48.7894C64.5689 48.5394 64.2336 48.2629 63.8869 47.9864C63.2011 47.4182 62.5572 46.8007 61.9628 46.1378C61.3723 45.4711 60.8274 44.7628 60.3359 44.0203C60.0921 43.6415 59.8673 43.2627 59.6501 42.8839C59.5434 42.6832 59.4406 42.4862 59.3415 42.2779L59.1967 41.9559C59.1472 41.8422 59.1091 41.7513 59.0481 41.596L61.8066 40.524Z" fill="#E4897B"/>
<path d="M63.0944 42.4824L60.534 45.9939L61.5932 47.028L64.3174 43.7703L63.0944 42.4824Z" fill="#F5F5F5"/>
<path d="M59.0786 37.8497C61.9628 38.6073 63.9517 42.6301 63.9517 42.6301L60.6217 47.2704C60.6217 47.2704 56.6135 42.2589 56.7164 40.6755C56.8154 39.0164 57.3412 37.3838 59.0786 37.8497Z" fill="#16C6B1"/>
<path opacity="0.7" d="M59.0786 37.8497C61.9628 38.6073 63.9517 42.6301 63.9517 42.6301L60.6217 47.2704C60.6217 47.2704 56.6135 42.2589 56.7164 40.6755C56.8154 39.0164 57.3412 37.3838 59.0786 37.8497Z" fill="white"/>
<path d="M61.5666 39.3308C61.5666 39.3308 62.5153 40.4445 51.5347 53.657L41.3733 47.7401C43.9641 43.7287 45.4615 41.1945 48.4524 31.6033C50.0488 32.1374 51.6071 32.7889 53.1083 33.5465C54.7009 34.3458 56.2439 35.2435 57.726 36.2322C59.6006 37.5656 61.5666 39.3308 61.5666 39.3308Z" fill="#16C6B1"/>
<path opacity="0.7" d="M61.5666 39.3308C61.5666 39.3308 62.5153 40.4445 51.5347 53.657L41.3733 47.7401C43.9641 43.7287 45.4615 41.1945 48.4524 31.6033C50.0488 32.1374 51.6071 32.7889 53.1083 33.5465C54.7009 34.3458 56.2439 35.2435 57.726 36.2322C59.6006 37.5656 61.5666 39.3308 61.5666 39.3308Z" fill="white"/>
<path d="M60.2483 38.1906C59.532 37.5997 58.6138 36.8686 57.7261 36.2322C56.2516 35.2284 54.7085 34.3306 53.1083 33.5465C52.2091 33.0806 51.2871 32.6715 50.5022 32.3609C50.3765 32.5692 50.4793 33.2056 50.8642 34.1374C52.3272 36.0125 55.7258 38.7739 58.5605 39.3232C59.8787 39.1338 60.2902 38.7171 60.2483 38.1906Z" fill="#F5F5F5"/>
<path d="M50.8641 34.1374C51.7176 36.0277 52.853 37.7815 54.236 39.3346C55.6724 39.4785 57.124 39.4785 58.5604 39.3346C55.7258 38.774 52.3272 36.0125 50.8641 34.1374Z" fill="#F5F5F5"/>
<path d="M51.5462 53.657C51.5462 53.657 51.71 79.6124 47.0808 87.105C42.2649 94.8969 35.9859 104.401 35.9859 104.401L30.549 104.14C30.549 104.14 36.8889 90.0786 39.2816 83.5519C42.5773 74.5554 44.1013 49.3235 44.1013 49.3235L51.5462 53.657Z" fill="#16C6B1"/>
<path opacity="0.4" d="M51.5462 53.657C51.5462 53.657 51.71 79.6124 47.0808 87.105C42.2649 94.8969 35.9859 104.401 35.9859 104.401L30.549 104.14C30.549 104.14 36.8889 90.0786 39.2816 83.5519C42.5773 74.5554 44.1013 49.3235 44.1013 49.3235L51.5462 53.657Z" fill="black"/>
<path opacity="0.2" d="M45.7625 54.3805C44.8824 55.1229 44.1242 55.998 43.5184 56.9753C43.3469 58.9072 43.1374 61.0777 42.8973 63.3505C44.5547 61.1118 45.8654 57.1836 45.7625 54.3805Z" fill="black"/>
<path d="M48.8601 52.1077C48.8601 52.1077 37.3576 68.3431 30.1909 77.1085C24.3996 84.1731 7.63537 89.2301 7.63537 89.2301L5.58937 85.8209C5.58937 85.8209 18.9245 78.4191 22.9022 73.6387C35.6354 58.3352 35.4754 50.3993 41.3886 47.7818L48.8601 52.1077Z" fill="#16C6B1"/>
<path opacity="0.4" d="M48.8601 52.1077C48.8601 52.1077 37.3576 68.3431 30.1909 77.1085C24.3996 84.1731 7.63537 89.2301 7.63537 89.2301L5.58937 85.8209C5.58937 85.8209 18.9245 78.4191 22.9022 73.6387C35.6354 58.3352 35.4754 50.3993 41.3886 47.7818L48.8601 52.1077Z" fill="black"/>
<path d="M68.0437 39.5202L67.2816 36.4898L70.1887 37.3307C70.1887 37.3307 70.1087 39.3687 69.1028 40.0316L68.0437 39.5202Z" fill="#E4897B"/>
<path d="M68.2075 34.0579L70.2497 35.0844L70.2001 37.3459L67.2931 36.5049L68.2075 34.0579Z" fill="#E4897B"/>
<path d="M31.6882 35.1716L29.0211 33.5427L31.6882 32.126C31.6882 32.126 33.056 33.6412 32.8045 34.8155L31.6882 35.1716Z" fill="#E4897B"/>
<path d="M27.9657 31.1525L30.1489 30.4707L31.7034 32.126L29.0249 33.5427L27.9657 31.1525Z" fill="#E4897B"/>
<path d="M4.15677 90.1922L3.20806 87.0937C3.17377 86.9838 3.06328 86.9156 2.94898 86.9346L0.377199 87.3134C0.125736 87.3588 -0.041906 87.6013 0.0076246 87.8513C0.0114346 87.8702 0.0152447 87.8854 0.0190547 87.9043C0.369579 88.9763 0.590562 89.4801 1.00967 90.84C1.26494 91.6809 1.71072 93.5711 2.06505 94.7303C2.41938 95.8894 3.58907 95.6015 3.54716 95.0863C3.35285 92.7832 3.73385 91.6052 4.12629 90.6923C4.19487 90.5332 4.2063 90.3589 4.15677 90.1922Z" fill="#263238"/>
<path d="M33.4903 107.742H30.0613C29.9355 107.742 29.825 107.829 29.7908 107.95L29.0287 110.659C28.964 110.882 29.0935 111.113 29.3183 111.182C29.3602 111.193 29.4059 111.2 29.4479 111.197C30.6518 111.178 31.2386 111.11 32.7512 111.11C33.6808 111.11 36.0888 111.204 37.3728 111.204C38.6567 111.204 38.8968 109.939 38.3748 109.825C36.0392 109.314 34.6981 108.606 33.978 107.931C33.8485 107.81 33.6732 107.742 33.4903 107.742Z" fill="#263238"/>
<path d="M41.5752 47.0583L40.5846 47.6985C40.5084 47.7477 40.5503 47.8689 40.6684 47.9371L51.3366 54.1381C51.428 54.1911 51.5309 54.1911 51.569 54.1381L52.1938 53.2858C52.2357 53.2252 52.1938 53.1267 52.0872 53.0699L41.8 47.081C41.7391 47.0318 41.6514 47.0242 41.5752 47.0583Z" fill="#263238"/>
<path d="M47.618 35.9481C46.8979 36.5201 46.2121 36.9822 45.4844 37.4633C44.7566 37.9444 44.0175 38.3573 43.2555 38.7664C41.7277 39.5997 40.116 40.274 38.451 40.7854C38.2453 40.8573 38.0243 40.9066 37.8147 40.9634C37.6052 41.0202 37.4033 41.077 37.1518 41.1301C36.607 41.2513 36.0431 41.2816 35.4868 41.2134C34.8962 41.1452 34.3324 40.9483 33.8256 40.6376C33.357 40.3422 32.9455 39.9634 32.6102 39.524C32.0463 38.7436 31.6425 37.8573 31.4215 36.9216C31.3072 36.4898 31.2272 36.0504 31.1776 35.6072C31.1167 35.164 31.0862 34.7208 31.09 34.2738L32.5531 34.1488C32.7283 34.8875 32.9684 35.611 33.2655 36.3117C33.5246 36.9519 33.9018 37.5428 34.3743 38.0467C34.7172 38.433 35.2049 38.6603 35.723 38.6755C35.9935 38.6717 36.2602 38.63 36.5155 38.5505C36.847 38.4444 37.2356 38.3232 37.5899 38.1944C39.0568 37.6451 40.4742 36.9784 41.8305 36.1981C42.524 35.8193 43.1869 35.3837 43.8575 34.9632C44.528 34.5428 45.1872 34.0693 45.7625 33.6374L47.618 35.9481Z" fill="#E4897B"/>
<path d="M42.9049 34.9556L44.2232 38.9179L45.4615 38.1792L44.3032 34.2511L42.9049 34.9556Z" fill="#F5F5F5"/>
<path d="M4.45016 91.8173C4.38539 91.8173 4.32443 91.7983 4.26728 91.768C3.95105 91.5786 3.86341 90.9082 3.83674 90.5256C3.83674 90.4991 3.85198 90.4725 3.87484 90.4612C3.89771 90.4498 3.92819 90.4498 3.95105 90.4612C4.04249 90.5369 4.8426 91.2188 4.79307 91.5749C4.78164 91.6582 4.7283 91.7302 4.64828 91.7605C4.59113 91.7946 4.52255 91.8135 4.45016 91.8173ZM3.98915 90.6809C4.03868 91.1923 4.16441 91.5483 4.33586 91.6506C4.41587 91.6923 4.51112 91.6923 4.59113 91.6506C4.64447 91.6241 4.6559 91.5938 4.6559 91.5673C4.68258 91.3741 4.30157 90.9612 3.98915 90.6809Z" fill="#16C6B1"/>
<path d="M4.93024 90.9953C4.5378 90.9612 4.16823 90.8135 3.85962 90.571C3.84819 90.5521 3.84819 90.5256 3.85962 90.5066C3.86343 90.4839 3.88248 90.465 3.90534 90.4574C3.93963 90.4574 4.73974 90.2074 5.09788 90.4271C5.18932 90.4801 5.25409 90.571 5.26933 90.6771C5.29982 90.7832 5.25409 90.9006 5.15503 90.9536C5.08645 90.9839 5.01025 90.9991 4.93024 90.9953ZM4.05393 90.5521C4.3473 90.7529 4.89214 90.9309 5.07121 90.8324C5.09788 90.8324 5.13217 90.787 5.11693 90.6998C5.1055 90.6354 5.06359 90.5786 5.00644 90.5445C4.69783 90.4498 4.36635 90.4498 4.05393 90.5521Z" fill="#16C6B1"/>
<path d="M35.0143 108.306C34.6981 108.299 34.3818 108.261 34.0732 108.189C34.0466 108.181 34.0237 108.159 34.0199 108.128C34.0199 108.098 34.0351 108.072 34.0618 108.06C34.2904 107.95 35.4639 107.424 35.7763 107.632C35.8373 107.674 35.8678 107.75 35.8602 107.822C35.8563 107.95 35.7954 108.072 35.6887 108.147C35.4868 108.269 35.2505 108.325 35.0143 108.306ZM34.3133 108.098C34.6943 108.166 35.3344 108.242 35.6049 108.038C35.6811 107.984 35.723 107.901 35.723 107.81C35.7268 107.787 35.7192 107.761 35.7001 107.746C35.5287 107.632 34.8238 107.875 34.3133 108.098Z" fill="#16C6B1"/>
<path d="M34.0885 108.189C34.0733 108.193 34.0618 108.193 34.0466 108.189C34.0237 108.174 34.0161 108.147 34.0237 108.121C34.0237 108.068 34.3209 106.829 35.0067 106.916C35.1858 106.935 35.2315 107.026 35.2429 107.094C35.2887 107.42 34.5038 108.041 34.0999 108.2L34.0885 108.189ZM34.9458 107.034C34.5343 107.034 34.2866 107.697 34.1837 107.996C34.5648 107.78 35.121 107.287 35.0943 107.098C35.0943 107.068 35.0524 107.045 34.98 107.037L34.9458 107.034Z" fill="#16C6B1"/>
<path d="M42.2839 49.0091L42.0096 48.85C41.9563 48.8159 41.9296 48.7629 41.9524 48.7326L42.7754 47.6303C42.7983 47.6 42.863 47.6 42.9164 47.6303L43.1945 47.7932C43.2479 47.8235 43.2745 47.8765 43.2517 47.9068L42.4287 49.0091C42.4058 49.0394 42.3411 49.0394 42.2839 49.0091Z" fill="#16C6B1"/>
<path d="M50.4946 53.7858L50.2202 53.6229C50.1669 53.5926 50.1402 53.5396 50.1631 53.5093L50.9861 52.407C51.0089 52.3767 51.0737 52.3767 51.127 52.407L51.4052 52.5661C51.4585 52.6001 51.4852 52.6532 51.4585 52.6835L50.6393 53.7858C50.6165 53.8161 50.5517 53.8161 50.4946 53.7858Z" fill="#16C6B1"/>
<path d="M46.3911 51.3956L46.113 51.2365C46.0597 51.2062 46.033 51.1531 46.0597 51.119L46.8788 50.0205C46.9055 49.9864 46.9664 49.9864 47.0236 50.0205L47.2979 50.1796C47.3551 50.2099 47.3779 50.2629 47.3551 50.297L46.5321 51.3956C46.5092 51.4296 46.4445 51.4296 46.3911 51.3956Z" fill="#16C6B1"/>
<path opacity="0.4" d="M42.2839 49.0091L42.0096 48.85C41.9563 48.8159 41.9296 48.7629 41.9524 48.7326L42.7754 47.6303C42.7983 47.6 42.863 47.6 42.9164 47.6303L43.1945 47.7932C43.2479 47.8235 43.2745 47.8765 43.2517 47.9068L42.4287 49.0091C42.4058 49.0394 42.3411 49.0394 42.2839 49.0091Z" fill="black"/>
<path opacity="0.4" d="M50.4946 53.7858L50.2202 53.6229C50.1669 53.5926 50.1402 53.5396 50.1631 53.5093L50.9861 52.407C51.0089 52.3767 51.0737 52.3767 51.127 52.407L51.4052 52.5661C51.4585 52.6001 51.4852 52.6532 51.4585 52.6835L50.6393 53.7858C50.6165 53.8161 50.5517 53.8161 50.4946 53.7858Z" fill="black"/>
<path opacity="0.4" d="M46.3911 51.3956L46.113 51.2365C46.0597 51.2062 46.033 51.1531 46.0597 51.119L46.8788 50.0205C46.9055 49.9864 46.9664 49.9864 47.0236 50.0205L47.2979 50.1796C47.3551 50.2099 47.3779 50.2629 47.3551 50.297L46.5321 51.3956C46.5092 51.4296 46.4445 51.4296 46.3911 51.3956Z" fill="black"/>
<path d="M54.0151 34.3041C54.0151 32.0313 53.253 23.0878 57.0021 22.3302C58.1871 21.0878 64.0583 20.959 64.9575 24.1182C66.1462 28.266 64.386 38.3876 64.386 38.3876L54.0151 34.3041Z" fill="#263238"/>
<path d="M65.167 38.4103C65.1137 38.4027 65.0756 38.3573 65.0832 38.3042C65.0832 38.202 66.3215 28.0766 64.9537 24.0689C64.5727 22.9704 63.5135 22.2015 61.9437 21.8984C59.9016 21.5007 57.6917 21.9969 57.0783 22.7015C57.0402 22.7394 56.9831 22.7394 56.945 22.7015C56.9069 22.6636 56.9069 22.603 56.945 22.5651C57.6613 21.7393 60.0654 21.3264 61.9933 21.7014C63.6316 22.0158 64.7518 22.8378 65.148 23.997C66.5272 28.0539 65.2966 38.2133 65.2852 38.3156C65.2852 38.3686 65.2394 38.4141 65.1823 38.4103C65.1785 38.4103 65.1747 38.4103 65.167 38.4103Z" fill="#263238"/>
<path d="M56.6135 28.6486C56.0382 30.2926 54.7352 33.1677 53.1159 33.5465C53.1159 33.5465 52.6396 35.2814 55.4019 36.8875C58.45 38.6527 57.7337 36.2322 57.7337 36.2322C56.3087 34.8761 57.0669 33.6791 58.0309 32.7018L56.6135 28.6486Z" fill="#E4897B"/>
<path d="M57.185 30.3002L58.0232 32.698C57.7946 32.9253 57.5889 33.1677 57.4022 33.4291C56.8231 32.9707 56.202 31.8533 56.5221 31.1563C56.6897 30.8343 56.9145 30.5426 57.185 30.3002Z" fill="#CE6F64"/>
<path d="M56.6364 25.372C55.8477 28.1259 55.4553 29.2736 56.3354 31.1336C57.6575 33.9367 61.2275 34.2965 62.8125 31.8343C64.2527 29.6184 65.2966 25.4894 63.0258 23.5007C61.4065 22.0689 58.9262 22.2128 57.486 23.8227C57.0898 24.2697 56.8002 24.7962 56.6364 25.372Z" fill="#E4897B"/>
<path d="M55.8248 27.1069C57.7946 27.838 62.4238 25.4099 63.6849 23.9212C63.8526 21.6257 58.4385 22.531 58.4385 22.531C58.4385 22.531 55.5505 21.6484 55.8248 27.1069Z" fill="#263238"/>
<path d="M55.3562 27.6562C55.2267 28.1941 55.3181 28.7623 55.6115 29.232C55.9925 29.8532 56.6936 29.6108 56.9984 28.9971C57.2727 28.4365 57.3984 27.4327 56.8079 27.0274C56.3735 26.7433 55.7868 26.8607 55.4972 27.2963C55.4286 27.4024 55.3791 27.5274 55.3562 27.6562Z" fill="#E4897B"/>
<path d="M60.4807 27.5653C60.4007 27.785 60.454 28.0047 60.5988 28.0539C60.7436 28.1032 60.9226 27.9668 61.0027 27.7471C61.0827 27.5274 61.0255 27.3115 60.8807 27.2584C60.736 27.2054 60.5569 27.3456 60.4807 27.5653Z" fill="#263238"/>
<path d="M62.9725 28.4403C62.8963 28.66 62.9497 28.8759 63.0944 28.9289C63.2392 28.982 63.4183 28.8418 63.4945 28.6221C63.5707 28.4024 63.5173 28.1827 63.3764 28.1335C63.2354 28.0842 63.0525 28.2206 62.9725 28.4403Z" fill="#263238"/>
<path d="M63.3077 28.1221L63.8907 28.1562C63.8907 28.1562 63.4716 28.4744 63.3077 28.1221Z" fill="#263238"/>
<path d="M62.18 28.5842C62.199 29.1524 62.2981 29.7168 62.4695 30.2585C62.1838 30.3419 61.879 30.2926 61.6313 30.1297L62.18 28.5842Z" fill="#DE5753"/>
<path d="M60.5721 30.7282H60.5493C59.9435 30.5313 59.4672 30.0578 59.2767 29.4517C59.2691 29.4138 59.292 29.3759 59.3301 29.3683C59.3643 29.3608 59.3986 29.3797 59.4101 29.4138C59.4101 29.4176 59.4101 29.4176 59.4101 29.4214C59.5968 29.9782 60.0349 30.4138 60.595 30.5994C60.6293 30.6108 60.6483 30.6525 60.6369 30.6866C60.6255 30.7131 60.6026 30.732 60.5721 30.732V30.7282V30.7282Z" fill="#263238"/>
<path d="M60.3702 26.6978C60.294 26.6978 60.2331 26.6372 60.2293 26.5652C60.2293 26.5122 60.2559 26.4667 60.3055 26.4402C60.6903 26.2243 61.1551 26.2054 61.5552 26.391C61.6237 26.4213 61.658 26.5008 61.6314 26.569C61.6009 26.6372 61.5209 26.6713 61.4523 26.6448C61.4447 26.641 61.4332 26.6372 61.4256 26.6296C61.1056 26.4895 60.736 26.5084 60.435 26.6827C60.416 26.694 60.3931 26.6978 60.3702 26.6978Z" fill="#263238"/>
<path d="M64.5537 27.7016C64.4927 27.7016 64.4394 27.66 64.4241 27.5994C64.3479 27.2622 64.1117 26.9781 63.7916 26.8418C63.7193 26.8152 63.6812 26.7395 63.704 26.6675C63.7269 26.5993 63.8031 26.5577 63.8717 26.5804C63.8755 26.5804 63.8755 26.5804 63.8793 26.5842C64.287 26.7508 64.5879 27.1069 64.687 27.535C64.7061 27.6069 64.6641 27.6827 64.5879 27.7016H64.5537Z" fill="#263238"/>
<path d="M60.8046 27.2509L61.3875 27.285C61.3875 27.285 60.9798 27.5994 60.8046 27.2509Z" fill="#263238"/>
<path d="M48.46 31.6033C47.2598 31.3192 43.5679 34.1147 43.5679 34.1147L45.1338 39.0808C45.1338 39.0808 48.9934 36.9557 49.3516 35.3913C49.7059 33.77 49.8278 31.929 48.46 31.6033Z" fill="#16C6B1"/>
<path opacity="0.7" d="M48.46 31.6033C47.2598 31.3192 43.5679 34.1147 43.5679 34.1147L45.1338 39.0808C45.1338 39.0808 48.9934 36.9557 49.3516 35.3913C49.7059 33.77 49.8278 31.929 48.46 31.6033Z" fill="white"/>
<path d="M92.4279 0H64.1574C61.6313 0 59.5853 2.03415 59.5853 4.5456V13.258C59.5853 15.7694 61.6313 17.8036 64.1574 17.8036H66.5196V22.2734L71.0155 17.8036H92.4279C94.954 17.8036 97 15.7694 97 13.258V4.5456C97 2.03415 94.954 0 92.4279 0Z" fill="#16C6B1"/>
<path opacity="0.3" d="M92.4279 0H64.1574C61.6313 0 59.5853 2.03415 59.5853 4.5456V13.258C59.5853 15.7694 61.6313 17.8036 64.1574 17.8036H66.5196V22.2734L71.0155 17.8036H92.4279C94.954 17.8036 97 15.7694 97 13.258V4.5456C97 2.03415 94.954 0 92.4279 0Z" fill="black"/>
<g opacity="0.54">
<path opacity="0.54" d="M64.8127 3.62133H91.765C92.3441 3.62133 92.8128 4.08725 92.8128 4.66303C92.8128 5.2388 92.3441 5.70473 91.765 5.70473H64.8127C64.2336 5.70473 63.765 5.2388 63.765 4.66303C63.765 4.08725 64.2374 3.62133 64.8127 3.62133Z" fill="#F5F5F5"/>
</g>
<g opacity="0.54">
<path opacity="0.54" d="M91.7612 9.84501H74.4864C73.9073 9.84122 73.4387 9.3753 73.4348 8.79952C73.4387 8.22375 73.9073 7.75782 74.4864 7.75782H91.7612C92.3403 7.75782 92.8089 8.22375 92.8089 8.79952C92.8089 9.3753 92.3441 9.84122 91.7612 9.84501Z" fill="#F5F5F5"/>
</g>
<g opacity="0.54">
<path opacity="0.54" d="M69.3581 9.84501H64.8127C64.2336 9.84122 63.765 9.3753 63.765 8.79952C63.765 8.22375 64.2336 7.75782 64.8127 7.75782H69.3581C69.9372 7.75782 70.4059 8.22375 70.4059 8.79952C70.4059 9.3753 69.941 9.84122 69.3581 9.84501Z" fill="#F5F5F5"/>
</g>
<g opacity="0.54">
<path opacity="0.54" d="M85.0326 13.9815H64.8127C64.2336 13.9815 63.765 13.5156 63.765 12.9398C63.765 12.364 64.2336 11.8981 64.8127 11.8943H85.0326C85.6118 11.8981 86.0804 12.364 86.0804 12.9398C86.0804 13.5156 85.6118 13.9815 85.0326 13.9815Z" fill="#F5F5F5"/>
</g>
</svg>
