<svg width="24" height="24" viewBox="0 0 24 24" fill="#5CAACC" xmlns="http://www.w3.org/2000/svg">
    <path d="M12 2C8.135 2 5 5.135 5 9C5 14.25 12 22 12 22C12 22 19 14.25 19 9C19 5.135 15.865 2 12 2Z"/>
    <path d="M8.5 11.3947C8.5 11.7674 8.67063 12.0979 8.9375 12.3295V13.0789C8.9375 13.3105 9.13437 13.5 9.375 13.5H9.8125C10.0553 13.5 10.25 13.3105 10.25 13.0789V12.6579H13.75V13.0789C13.75 13.3105 13.9447 13.5 14.1875 13.5H14.625C14.8656 13.5 15.0625 13.3105 15.0625 13.0789V12.3295C15.3294 12.0979 15.5 11.7674 15.5 11.3947V7.18421C15.5 5.71053 13.9338 5.5 12 5.5C10.0662 5.5 8.5 5.71053 8.5 7.18421V11.3947ZM10.0312 11.8158C9.66813 11.8158 9.375 11.5337 9.375 11.1842C9.375 10.8347 9.66813 10.5526 10.0312 10.5526C10.3944 10.5526 10.6875 10.8347 10.6875 11.1842C10.6875 11.5337 10.3944 11.8158 10.0312 11.8158ZM13.9688 11.8158C13.6056 11.8158 13.3125 11.5337 13.3125 11.1842C13.3125 10.8347 13.6056 10.5526 13.9688 10.5526C14.3319 10.5526 14.625 10.8347 14.625 11.1842C14.625 11.5337 14.3319 11.8158 13.9688 11.8158ZM14.625 9.28947H9.375V7.18421H14.625V9.28947Z"
          fill="white"/>
</svg>
