<svg width="18" height="40" viewBox="0 0 49 102" fill="none" xmlns="http://www.w3.org/2000/svg">
<g clip-path="url(#clip0)">
<path d="M38.5 20.8191C38.5 20.8191 37 3.81909 36.5406 2.81909C35 0.819092 13.5001 1.31909 12.5 2.81909C11.5 4.31909 10.5 20.8191 10.5 20.8191L38.5 20.8191Z" fill="#03B696"/>
<path d="M12.5014 5.33642C12.5014 5.62142 12.8354 5.85364 13.2443 5.85364H16.7572C17.166 5.85364 17.5 5.62142 17.5 5.33642C17.5 5.05142 17.166 4.8192 16.7572 4.8192H13.2443C12.8354 4.8192 12.5014 5.05142 12.5014 5.33642Z" fill="url(#paint0_radial)"/>
<path d="M36.5 5.27737C36.5 5.52986 36.2328 5.7356 35.9056 5.7356L33.0945 5.7356C32.7673 5.7356 32.5 5.52986 32.5 5.27737C32.5 5.02487 32.7673 4.81914 33.0945 4.81914L35.9056 4.81914C36.2328 4.81914 36.5 5.02487 36.5 5.27737Z" fill="url(#paint1_radial)"/>
<path d="M9.31838 18.1261C19.6203 15.9579 30.0497 15.9579 40.3516 18.1261C42.1005 19.0171 41.5793 19.9081 42.5 20.799C42.4537 20.8866 42.419 20.9844 42.3842 21.0823C36.5528 19.7793 30.6925 20.3716 24.8321 20.3716C19.1165 20.3716 13.3951 19.8154 7.70852 20.9947C7.66219 20.7733 7.5927 20.5621 7.50005 20.387C7.98069 19.6299 7.84171 18.878 9.31838 18.1261Z" fill="url(#paint2_linear)"/>
<path d="M26.5 20.3028C31.8048 20.2248 37.1096 19.7961 42.3857 21.0823C42.42 20.9709 42.4543 20.8707 42.5 20.776C41.5912 19.8128 42.1056 18.8496 40.3793 17.8864C37.6183 17.2516 34.8516 16.7951 32.0792 16.5C30.4272 18.02 28.5465 19.3062 26.5 20.3028Z" fill="url(#paint3_linear)"/>
<path d="M24.2553 5.89606C24.503 5.89606 24.7448 5.89606 24.9925 5.89606V9.99158H24.2553V5.89606Z" fill="url(#paint4_linear)"/>
<path d="M44.5437 18.5354C44.5782 18.5354 44.6128 18.5459 44.6416 18.5723C44.6934 18.6198 44.6992 18.699 44.6473 18.7518L42.4878 20.7995C42.4359 20.847 42.3496 20.8523 42.292 20.8048C42.2401 20.7573 42.2344 20.6781 42.2862 20.6254L44.4458 18.5776C44.4746 18.5459 44.5091 18.5354 44.5437 18.5354Z" fill="black"/>
<path d="M43.8583 17.7542C43.9505 17.7542 44.0369 17.7965 44.0887 17.8704C44.1693 17.9865 44.1348 18.1448 44.0023 18.2187L41.7506 19.5328C41.6239 19.6067 41.4569 19.5751 41.3705 19.4537C41.2899 19.3376 41.3244 19.1792 41.4569 19.1053L43.7086 17.7912C43.7547 17.7648 43.8065 17.7542 43.8583 17.7542Z" fill="black"/>
<path d="M43.7605 17.7384C43.7605 18.0604 44.0484 18.9154 44.3997 18.9154H47.6938C48.7591 18.9154 48.5288 17.8651 48.333 17.7384C48.333 17.7384 48.045 17.7384 47.6938 17.7384H44.4055C44.0484 17.7384 43.7605 17.7384 43.7605 17.7384Z" fill="#ADADAD"/>
<path d="M48.4597 18.4615C48.4654 18.6884 48.1429 18.9154 47.9702 18.9154H44.3997C44.2269 18.9154 44.0714 18.7095 43.9562 18.4615H48.4597Z" fill="url(#paint5_linear)"/>
<path d="M4.45642 18.2187C4.49097 18.2187 4.52553 18.2292 4.55432 18.2556L6.71389 20.3034C6.76572 20.3509 6.76572 20.4353 6.70813 20.4828C6.6563 20.5303 6.56991 20.5303 6.51233 20.4776L4.35276 18.4298C4.30093 18.3823 4.30093 18.2979 4.35852 18.2504C4.38732 18.2293 4.42187 18.2187 4.45642 18.2187Z" fill="black"/>
<path d="M5.14168 17.4323C5.19351 17.4323 5.24534 17.4429 5.29141 17.4693L7.54312 18.7834C7.66981 18.8573 7.71012 19.0104 7.6295 19.1318C7.54888 19.2479 7.38187 19.2848 7.24942 19.2109L4.99771 17.8968C4.87102 17.8229 4.83071 17.6698 4.91133 17.5484C4.96316 17.4745 5.04954 17.4323 5.14168 17.4323Z" fill="black"/>
<path d="M5.23384 17.4165C5.23384 17.7384 4.94589 18.5934 4.5946 18.5934H1.3063C0.240913 18.5934 0.471267 17.5432 0.667068 17.4165C0.667068 17.4165 0.95501 17.4165 1.3063 17.4165H4.5946C4.95165 17.4165 5.23384 17.4165 5.23384 17.4165Z" fill="#ADADAD"/>
<path d="M0.540409 18.1395C0.53465 18.3664 0.857145 18.5881 1.02991 18.5881H4.60039C4.77316 18.5881 4.92865 18.3823 5.04383 18.1395H0.540409Z" fill="url(#paint6_linear)"/>
<path d="M6.50005 20.4389C6.50005 19.7117 14.558 19.5 24.5029 19.5C34.4421 19.5 42.5001 19.7117 42.5001 20.4389L42.5001 100.149C42.5001 100.572 6.50005 100.66 6.50005 100.149L6.50005 20.4389Z" fill="#2EDBB1"/>
<path d="M40.5 18.5C41.7737 18.6391 42.5001 18.8152 42.5001 19.0424L42.5001 99.3331C42.5001 99.398 41.7579 99.4536 40.5 99.5L40.5 18.5V18.5Z" fill="#21FFCA"/>
<path d="M8.50005 18.5C7.22637 18.6391 6.50005 18.8152 6.50005 19.0424L6.50005 99.3331C6.50005 99.398 7.24215 99.4536 8.50005 99.5L8.50005 18.5Z" fill="#20A585"/>
<path d="M7.95768 100.893H41.382L42.7008 99.695H6.55253L7.95768 100.893Z" fill="url(#paint7_linear)"/>
<path d="M8.71787 101.5H40.6219L41.3821 100.893H7.9577L8.71787 101.5Z" fill="url(#paint8_linear)"/>
<path d="M18.4891 3.73557L29.2294 3.73557L29.5 4.54834H18.2127L18.4891 3.73557Z" fill="url(#paint9_linear)"/>
<path d="M8.74089 100.513H40.8234L41.3187 100.096H8.19956L8.74089 100.513Z" fill="url(#paint10_linear)"/>
<path d="M12.1536 3.81909L36.7826 3.81909L36.5001 2.81909L12.5 2.81909L12.1536 3.81909Z" fill="url(#paint11_linear)"/>
</g>
<defs>
<radialGradient id="paint0_radial" cx="0" cy="0" r="1" gradientUnits="userSpaceOnUse" gradientTransform="translate(15.0008 5.33747) rotate(180) scale(1.84329 1.2837)">
<stop stop-color="#F7F7F7"/>
<stop offset="1" stop-color="#DBDBDB"/>
</radialGradient>
<radialGradient id="paint1_radial" cx="0" cy="0" r="1" gradientUnits="userSpaceOnUse" gradientTransform="translate(34.4984 5.2783) scale(1.47502 1.13729)">
<stop stop-color="#F7F7F7"/>
<stop offset="1" stop-color="#DBDBDB"/>
</radialGradient>
<linearGradient id="paint2_linear" x1="25.0029" y1="20.0483" x2="25.0029" y2="13.6579" gradientUnits="userSpaceOnUse">
<stop stop-color="#363B39"/>
<stop offset="1" stop-color="#1B1C1C"/>
</linearGradient>
<linearGradient id="paint3_linear" x1="28.0644" y1="15.8089" x2="34.7598" y2="20.1168" gradientUnits="userSpaceOnUse">
<stop stop-color="#3B3B3B"/>
<stop offset="1"/>
</linearGradient>
<linearGradient id="paint4_linear" x1="24.625" y1="8.97266" x2="24.625" y2="3.43246" gradientUnits="userSpaceOnUse">
<stop stop-color="#363B39"/>
<stop offset="1" stop-color="#1B1C1C"/>
</linearGradient>
<linearGradient id="paint5_linear" x1="48.4604" y1="18.6859" x2="43.9578" y2="18.6859" gradientUnits="userSpaceOnUse">
<stop stop-color="#363B39"/>
<stop offset="1" stop-color="#1B1C1C"/>
</linearGradient>
<linearGradient id="paint6_linear" x1="0.538681" y1="18.3678" x2="5.04129" y2="18.3678" gradientUnits="userSpaceOnUse">
<stop stop-color="#363B39"/>
<stop offset="1" stop-color="#1B1C1C"/>
</linearGradient>
<linearGradient id="paint7_linear" x1="42.9479" y1="100.294" x2="4.048" y2="100.294" gradientUnits="userSpaceOnUse">
<stop stop-color="#ADADAD"/>
<stop offset="1" stop-color="#878787"/>
</linearGradient>
<linearGradient id="paint8_linear" x1="41.6132" y1="101.196" x2="5.64483" y2="101.196" gradientUnits="userSpaceOnUse">
<stop stop-color="#363B39"/>
<stop offset="1" stop-color="#1B1C1C"/>
</linearGradient>
<linearGradient id="paint9_linear" x1="29.5013" y1="4.14142" x2="18.2141" y2="4.14142" gradientUnits="userSpaceOnUse">
<stop stop-color="#363B39"/>
<stop offset="1" stop-color="#1B1C1C"/>
</linearGradient>
<linearGradient id="paint10_linear" x1="41.3213" y1="100.304" x2="8.20232" y2="100.304" gradientUnits="userSpaceOnUse">
<stop stop-color="#363B39"/>
<stop offset="1" stop-color="#1B1C1C"/>
</linearGradient>
<linearGradient id="paint11_linear" x1="14.3898" y1="-13.94" x2="27.6855" y2="-10.8832" gradientUnits="userSpaceOnUse">
<stop stop-color="#3B3B3B"/>
<stop offset="1"/>
</linearGradient>
<clipPath id="clip0">
<path d="M48.5 101.5H0.499996L0.499996 0.5H48.5L48.5 101.5Z" fill="white"/>
</clipPath>
</defs>
</svg>
