<svg width="686" height="114" viewBox="0 0 343 57" fill="none" xmlns="http://www.w3.org/2000/svg">
<g opacity="0.25">
<g clip-path="url(#clip0)">
<path d="M247.102 6.73977V29.3398H246.062V33.4298H242.642V31.6098L241.452 29.3298V15.5298H235.362L234.362 17.3298V24.4998H231.102V19.3898H223.052V8.15977H227.502V5.37977H228.582V3.50977H233.252V5.48977H242.012V3.75977H250.402V6.61977V6.73977H247.102Z" fill="#F7F7F7"/>
<path d="M264.5 14.3699H256.28V11.7199H253.53V9.4799H260.08V5.9899H252.41V3.6499H264.5V14.3699Z" fill="#F7F7F7"/>
<path d="M12.7617 16.3501V28.2401H9.60172V18.1101H11.0817V16.3501H12.7617Z" fill="#F7F7F7"/>
<path d="M131.633 32.2399H125.233V25.3299L114.893 18.5799H113.283V16.8299H114.913V14.9599H112.513V8.8999H129.023V14.7299H131.633V32.2399Z" fill="#F7F7F7"/>
<path d="M69.1508 19.43V35.17H67.2408V26.85H64.5808V35.17H57.9408V13.33H54.4908V3.83998H51.8208V2.97998H69.5508V19.43H69.1508Z" fill="#F7F7F7"/>
<path d="M94.5312 24.1301H76.8213V19.5001L73.4613 19.4701V14.7101H75.8513V11.6101H76.6913V9.58008H79.9913V14.7101H83.2913L86.9213 16.7401V20.3801H94.5312V24.1301Z" fill="#F7F7F7"/>
<path d="M37.8428 25.9302L32.6728 29.2202V36.1702H24.4228V11.3802C24.4728 11.2802 24.4928 11.2202 24.4928 11.2202H39.3828V13.3402H37.8328V25.9302H37.8428Z" fill="#F7F7F7"/>
<path d="M319.96 21.67C319.36 21.98 318.76 22.31 318.17 22.65C317.13 22.27 316.62 22.78 315.59 22.65C314.59 22.53 314.88 22.26 313.82 21.9C312.76 21.54 312.55 21.54 311.48 21.88C311.4 21.91 311.34 21.93 311.27 21.96V11.5H321.82C321.13 14.43 320.43 17.94 319.96 21.67Z" fill="#F7F7F7"/>
<path d="M202.363 28.0998C202.313 28.3498 202.253 28.6098 202.213 28.8698C201.353 28.3798 200.483 27.9198 199.623 27.5098L202.363 28.0998Z" fill="#F7F7F7"/>
<path d="M191.43 24.8601C190.58 24.8701 188.93 25.2901 186.95 26.0301C186.52 23.4901 185.97 21.0701 185.41 18.9401L185.49 18.8501H197.07V26.3901C194.58 25.4101 192.44 24.8601 191.43 24.8601Z" fill="#F7F7F7"/>
<path d="M306.894 22.6597C305.824 23.1397 306.254 23.4797 305.464 23.9697C304.674 24.4597 304.184 23.9897 302.934 24.7997C302.174 25.2997 302.304 26.0897 301.464 27.1197C301.024 27.6497 300.474 27.6897 300.184 28.4297C299.904 29.1397 300.414 29.8797 300.194 30.5597C300.054 31.0097 299.484 31.3697 299.484 32.3097C299.484 33.0397 299.864 33.0597 300.064 33.4297H295.724C295.454 31.6397 295.094 29.8997 294.704 28.3297V20.6497L295.734 18.6197H299.654V13.4897H303.574V15.5197H304.574V18.6197H309.094V22.0597V22.6197C308.374 22.5197 307.864 22.2297 306.894 22.6597Z" fill="#F7F7F7"/>
<path d="M-13.0167 42.0298H-7.40674V14.2398H9.38327V28.4598H12.9733V8.23984H24.2133V36.3798H32.8833V29.3398L38.0533 26.0498V13.5498H42.1933V4.04984H54.2833V13.5498H57.7233V35.3798H64.8033V27.0598H67.0233V35.3798H69.3633V19.6398L76.6133 19.7098V24.3398H94.7433V9.20984H107.853V18.7898H114.833L125.023 25.4498V32.4598H131.843V4.04984H136.373V1.26984H141.783L144.753 4.01984H148.423V37.8298H151.753V13.8098H164.433L164.383 22.2098H164.813L164.863 13.3898H151.333V37.3998H148.843V3.59984H144.913L141.953 0.839844H135.943V3.62984H131.413V32.0298H125.443V25.2198L125.343 25.1498L114.953 18.3698H108.273V8.77984H94.3233V23.9198H77.0333V19.2898L68.9333 19.2098V34.9598H67.4533V26.6298H64.3733V34.9598H58.1533V13.1198H54.7133V3.62984H41.7633V13.1198H37.6333V25.8198L32.4633 29.1098V35.9598H24.6433V7.80984H12.5533V28.0298H9.81326V13.8098H-7.82672V41.5998H-12.5867V23.8098H-24.8067V19.2098H-39.5667V23.4198H-43.8567V22.1098H-57.1467L-57.1267 37.0298H-58.5367V26.2698H-71.3367L-73.3767 28.9698V34.2398L-78.2467 34.1898V28.3098H-84.2467V31.4298H-84.7467V25.4098H-88.0567V40.0298H-94.5267L-94.5867 38.2598V15.8298H-113.027V30.8798H-116.087V21.1798H-124.377V23.8198H-130.677V33.9598H-140.687V31.0298L-145.147 28.2598H-148.637V19.7398H-149.847V17.7498H-159.107V19.6898H-160.157V30.8898H-163.687L-166.157 28.3198V24.8798H-167.417V28.3098L-170.057 31.0598H-171.377L-171.387 21.9498L-174.807 12.6998H-176.277L-179.417 21.9698V32.7498H-180.487V31.8898H-184.667V32.8098H-187.737V29.2998L-190.427 28.3398V19.2098H-204.397V26.5598H-210.907V15.0598H-218.757V32.6698H-223.997V33.0998H-218.337V15.4798H-211.327V26.9898H-203.967V19.6298H-190.847V28.6398L-188.167 29.5998V33.2298H-184.237V32.3098H-180.907V33.1698H-178.997V21.9998L-175.967 13.1298H-175.107L-171.807 22.0598V31.4898H-169.877L-166.987 28.4798V25.2998H-166.587V28.4898L-163.877 31.3198H-159.727V20.1098H-158.677V18.1798H-150.267V20.1698H-149.057V28.6798H-145.267L-141.107 31.2598V34.3898H-130.247V24.2398H-123.957V21.6098H-116.517V31.2998H-112.597V16.2498H-95.0167V38.2698L-94.9467 40.4598H-87.6267V25.8298H-85.1767V31.8498H-83.8167V28.7398H-78.6667V34.6198L-72.9467 34.6698V29.1098L-71.1267 26.6998H-58.9667V37.4498H-56.6767L-56.7167 36.4398V22.5298H-44.2867V23.8398H-39.1467V19.6398H-25.2367V24.2398H-13.0167V42.0298Z" fill="#515151"/>
<path d="M242.42 33.65H246.27V29.55H247.32V6.95H253.31V11.94H256.07V14.58H264.71V0.43H274.36V4.99H283.43V6.55H285.14V8.31H284.43V28.55H284.85V8.74H285.57V6.13H283.85V4.56H274.78V0H264.28V14.16H256.5V11.51H253.74V6.52H246.89V29.13H245.84V33.22H242.85L242.83 31.51L241.66 29.28V15.31H235.24L234.15 17.33V24.29H231.31V19.18H219.34V29.46H217.71V5.56H206.82V20.52H207.24V5.99H217.28V29.88H219.77V19.61H230.89V24.71H234.58V17.39L235.49 15.74H241.24L241.26 29.43L242.42 31.67V33.65Z" fill="#515151"/>
<path opacity="0.84" d="M287.023 43.7997C285.973 39.0197 276.513 35.3997 274.403 35.4097C272.283 35.4297 262.883 39.1997 261.913 44.0097C260.743 49.8497 274.123 50.7397 274.123 50.7397L274.103 57.1297L274.583 57.1197H275.053L274.933 50.7297C274.933 50.7297 288.303 49.6097 287.023 43.7997Z" fill="#D7D7D7"/>
<path opacity="0.84" d="M353.214 33.1001C351.324 24.4801 334.264 17.9501 330.454 17.9801C326.644 18.0101 309.694 24.8201 307.954 33.4801C305.824 44.0101 329.964 45.6101 329.964 45.6101L329.924 57.1301L330.784 57.1201L331.654 57.1101L331.414 45.5901C331.404 45.6001 355.504 43.5901 353.214 33.1001Z" fill="#4A4A4A"/>
<path opacity="0.9" d="M237.702 46.1297C237.232 42.1697 233.942 39.1297 232.192 39.1397C230.442 39.1597 227.202 42.2497 226.792 46.2097C226.302 51.0397 231.962 51.8197 231.962 51.8197L231.942 57.1097H232.342H232.742L232.642 51.8297C232.632 51.8297 238.272 50.9497 237.702 46.1297Z" fill="#5F5F5F"/>
<path opacity="0.84" d="M296.181 38.0998C295.911 30.1798 292.781 21.2298 291.961 21.2398C291.151 21.2498 288.121 30.2298 287.991 38.1398C287.841 46.4398 290.981 45.9498 291.451 46.4498C291.561 46.5698 291.611 46.7898 291.621 46.8698C291.791 49.4298 291.701 57.1198 291.701 57.1198H292.801C292.801 57.1198 292.591 49.4298 292.701 46.8698C292.701 46.7898 292.691 46.6398 292.801 46.5098C293.141 46.0898 296.471 46.7898 296.181 38.0998Z" fill="#D7D7D7"/>
<path opacity="0.9" d="M232.114 43.32C231.034 38.37 221.234 34.61 219.034 34.63C216.844 34.65 207.104 38.56 206.104 43.54C204.894 49.59 218.754 50.51 218.754 50.51L218.734 57.13H219.224H219.724L219.584 50.51C219.594 50.5 233.434 49.34 232.114 43.32Z" fill="#D7D7D7"/>
<path opacity="0.84" d="M263.303 49.0898C262.663 46.1998 256.963 44.0198 255.683 44.0298C254.413 44.0398 248.743 46.3198 248.153 49.2098C247.443 52.7298 255.363 53.2698 255.363 53.2698L255.343 57.1198H255.953H256.263L256.183 53.2698C256.183 53.2698 264.073 52.5998 263.303 49.0898Z" fill="#4A4A4A"/>
<path opacity="0.9" d="M324.991 30.7097C324.781 30.0197 325.301 29.2897 325.031 28.5797C324.751 27.8397 324.201 27.7797 323.771 27.2397C322.941 26.2097 323.081 25.4097 322.331 24.8997C321.091 24.0897 320.591 24.5497 319.811 24.0497C319.031 23.5497 319.461 23.2197 318.401 22.7297C317.201 22.1697 316.701 22.7797 315.601 22.6397C314.601 22.5197 314.891 22.2497 313.831 21.8897C312.771 21.5297 312.561 21.5297 311.491 21.8697C310.421 22.2197 310.711 22.4997 309.711 22.5997C308.601 22.7197 308.121 22.1097 306.901 22.6497C305.831 23.1297 306.261 23.4697 305.471 23.9597C304.681 24.4497 304.191 23.9797 302.941 24.7897C302.181 25.2897 302.311 26.0797 301.471 27.1097C301.031 27.6397 300.481 27.6797 300.191 28.4197C299.911 29.1297 300.421 29.8697 300.201 30.5497C300.061 30.9997 299.491 31.3597 299.491 32.2997C299.491 33.2797 300.171 32.9697 300.201 33.9797C300.221 34.6997 299.871 35.2797 300.141 36.0397C300.511 37.0897 301.031 36.8897 301.311 37.3197C301.591 37.7497 300.821 38.2797 301.951 39.3297C302.471 39.8197 303.261 39.7297 303.731 39.9797C304.291 40.2797 304.171 41.0197 304.661 41.3897C305.611 42.0997 306.141 41.2297 307.251 41.8697C307.941 42.2597 307.711 42.6597 308.521 42.9097C309.771 43.2897 311.051 42.8097 311.421 43.5897C312.041 44.8797 311.621 57.0997 311.621 57.0997H312.401L313.181 57.0897C313.181 57.0897 312.971 44.8897 313.611 43.5997C313.991 42.8297 315.261 43.3297 316.511 42.9597C317.321 42.7197 317.111 42.3197 317.801 41.9397C318.921 41.3197 319.441 42.1897 320.401 41.4997C320.911 41.1397 320.781 40.3997 321.351 40.0997C321.831 39.8497 322.611 39.9397 323.141 39.4697C324.291 38.4297 323.531 37.8897 323.811 37.4597C324.101 37.0297 324.621 37.2397 325.001 36.1997C325.271 35.4497 324.931 34.8597 324.961 34.1397C325.001 33.1397 325.681 33.4597 325.691 32.4797C325.691 31.5197 325.131 31.1597 324.991 30.7097Z" fill="#5F5F5F"/>
<path opacity="0.84" d="M329.891 31.1098C329.631 17.6698 324.091 3.33984 324.091 3.33984C324.091 3.33984 319.121 17.8698 319.391 31.3198C319.651 44.7598 324.171 46.4598 324.171 46.4598L324.231 57.1298L325.101 57.1198L325.971 57.1098L325.711 46.4298C325.711 46.4298 330.151 44.5598 329.891 31.1098Z" fill="#939393"/>
<path opacity="0.84" d="M210.193 37.3298C208.633 30.2198 194.583 24.8398 191.433 24.8698C188.283 24.8998 174.324 30.5098 172.894 37.6498C171.144 46.3198 191.023 47.6498 191.023 47.6498L190.993 57.1398H191.704L192.413 57.1298L192.224 47.6398C192.224 47.6298 212.083 45.9698 210.193 37.3298Z" fill="#4A4A4A"/>
<path opacity="0.84" d="M183.311 30.24C183.101 29.54 183.631 28.79 183.351 28.07C183.061 27.31 182.501 27.26 182.061 26.71C181.221 25.66 181.361 24.85 180.591 24.33C179.331 23.5 178.821 23.98 178.031 23.46C177.241 22.95 177.681 22.61 176.591 22.12C175.361 21.55 174.861 22.17 173.741 22.03C172.721 21.91 173.021 21.64 171.931 21.26C170.851 20.89 170.641 20.89 169.551 21.24C168.461 21.6 168.761 21.88 167.741 21.99C166.621 22.11 166.121 21.49 164.881 22.04C163.781 22.53 164.221 22.87 163.421 23.37C162.621 23.87 162.111 23.39 160.841 24.21C160.061 24.71 160.201 25.53 159.341 26.57C158.891 27.11 158.331 27.15 158.031 27.91C157.741 28.62 158.271 29.38 158.041 30.08C157.901 30.54 157.321 30.9 157.321 31.86C157.321 32.86 158.011 32.54 158.051 33.57C158.071 34.29 157.711 34.9 157.981 35.67C158.361 36.74 158.891 36.53 159.171 36.98C159.461 37.41 158.681 37.96 159.831 39.03C160.351 39.52 161.161 39.43 161.651 39.7C162.211 40.01 162.091 40.76 162.601 41.14C163.571 41.86 164.111 40.97 165.241 41.63C165.941 42.02 165.711 42.43 166.531 42.68C167.801 43.08 169.101 42.58 169.481 43.37C170.111 44.69 169.691 57.14 169.691 57.14L170.491 57.13H171.291C171.291 57.13 171.071 44.7 171.721 43.39C172.111 42.6 173.401 43.12 174.681 42.74C175.511 42.5 175.291 42.09 175.991 41.7C177.121 41.06 177.661 41.96 178.641 41.25C179.161 40.88 179.031 40.13 179.611 39.83C180.101 39.57 180.891 39.67 181.431 39.18C182.601 38.12 181.821 37.57 182.111 37.13C182.401 36.7 182.931 36.91 183.321 35.85C183.601 35.09 183.251 34.48 183.281 33.75C183.331 32.73 184.011 33.05 184.031 32.05C184.031 31.08 183.451 30.71 183.311 30.24Z" fill="#D7D7D7"/>
<path opacity="0.84" d="M243.933 46.7899C243.853 46.5199 244.053 46.2299 243.943 45.9599C243.833 45.6699 243.613 45.6499 243.443 45.4399C243.123 45.0399 243.173 44.7299 242.883 44.5299C242.403 44.2099 242.203 44.3899 241.903 44.1899C241.603 43.9999 241.763 43.8699 241.353 43.6699C240.883 43.4499 240.693 43.6899 240.263 43.6399C239.873 43.5899 239.983 43.4899 239.573 43.3499C239.153 43.2099 239.073 43.2099 238.663 43.3399C238.243 43.4799 238.363 43.5899 237.963 43.6299C237.533 43.6799 237.343 43.4399 236.863 43.6499C236.443 43.8399 236.613 43.9699 236.303 44.1599C235.993 44.3499 235.803 44.1699 235.313 44.4799C235.013 44.6699 235.073 44.9799 234.743 45.3899C234.573 45.5999 234.363 45.6099 234.243 45.8999C234.133 46.1699 234.333 46.4699 234.253 46.7299C234.193 46.9099 233.973 47.0499 233.973 47.4099C233.973 47.7999 234.233 47.6699 234.253 48.0699C234.263 48.3499 234.123 48.5799 234.233 48.8699C234.373 49.2799 234.583 49.1999 234.693 49.3699C234.803 49.5399 234.503 49.7499 234.943 50.1599C235.143 50.3499 235.453 50.3199 235.643 50.4199C235.863 50.5399 235.813 50.8299 236.003 50.9699C236.373 51.2499 236.583 50.9099 237.013 51.1599C237.283 51.3099 237.193 51.4699 237.513 51.5599C238.003 51.7099 238.503 51.5199 238.643 51.8299C238.883 52.3399 238.723 57.1199 238.723 57.1199H239.033H239.343C239.343 57.1199 239.263 52.3399 239.513 51.8399C239.663 51.5399 240.163 51.7399 240.643 51.5899C240.963 51.4899 240.883 51.3399 241.143 51.1899C241.583 50.9399 241.783 51.2899 242.163 51.0199C242.363 50.8799 242.313 50.5899 242.533 50.4699C242.723 50.3699 243.023 50.4099 243.233 50.2199C243.683 49.8099 243.383 49.5999 243.493 49.4299C243.603 49.2599 243.803 49.3399 243.953 48.9299C244.063 48.6399 243.923 48.4099 243.943 48.1299C243.963 47.7399 244.223 47.8599 244.223 47.4799C244.213 47.1099 243.983 46.9599 243.933 46.7899Z" fill="#D7D7D7"/>
<path opacity="0.84" d="M187.822 34.6196C187.602 22.9896 182.812 10.5996 182.812 10.5996C182.812 10.5996 178.512 23.1696 178.742 34.7996C178.972 46.4296 182.882 47.8896 182.882 47.8896L182.922 57.1196H183.682L184.442 57.1096L184.222 47.8696C184.212 47.8696 188.052 46.2496 187.822 34.6196Z" fill="#939393"/>
<path opacity="0.84" d="M201.822 33.6296C201.882 40.9996 204.812 46.9596 208.372 46.9296C211.932 46.8996 214.762 40.8996 214.702 33.5296C214.642 26.1496 211.702 20.1996 208.152 20.2296C204.592 20.2496 201.762 26.2596 201.822 33.6296Z" fill="#D7D7D7"/>
<path opacity="0.84" d="M204.744 40.63C204.784 45.33 207.144 49.11 210.014 49.08C212.884 49.05 215.184 45.23 215.144 40.54C215.104 35.85 212.744 32.06 209.874 32.09C207.004 32.11 204.704 35.94 204.744 40.63Z" fill="#939393"/>
<path opacity="0.84" d="M264.804 44.6699C264.774 48.5699 263.224 51.7099 261.344 51.6999C259.464 51.6799 257.964 48.5099 257.994 44.6099C258.024 40.7099 259.584 37.5699 261.464 37.5899C263.334 37.5999 264.834 40.7699 264.804 44.6699Z" fill="#D7D7D7"/>
<path opacity="0.84" d="M262.251 40.46C260.511 40.45 259.081 43.16 259.051 46.51C259.031 49.13 259.871 51.37 261.071 52.23C261.101 53.75 261.171 57.11 261.371 57.11C261.621 57.11 261.541 57.11 261.751 57.11C261.901 57.11 262.041 54.24 262.111 52.61C262.121 52.61 262.141 52.61 262.151 52.61C263.891 52.62 265.321 49.91 265.351 46.55C265.381 43.21 263.991 40.48 262.251 40.46Z" fill="#3A3A3A"/>
<path opacity="0.84" d="M263.261 48.3699C263.241 50.8499 261.991 52.8499 260.471 52.8399C258.951 52.8299 257.741 50.7999 257.761 48.3299C257.781 45.8499 259.031 43.8499 260.551 43.8599C262.061 43.8699 263.281 45.8899 263.261 48.3699Z" fill="#939393"/>
<path opacity="0.84" d="M200.894 37.0001C200.844 30.6501 203.474 25.4701 206.764 25.4401C210.054 25.4101 212.763 30.5401 212.823 36.9001C212.863 41.9401 211.234 46.2201 208.904 47.8101C208.884 49.4001 208.764 57.1101 208.314 57.1101C207.834 57.1101 208.004 57.1101 207.594 57.1201C207.244 57.1201 206.963 49.5201 206.933 48.4601C203.643 48.4601 200.944 43.3401 200.894 37.0001Z" fill="#3A3A3A"/>
<path opacity="0.84" d="M339.174 29.8196C339.244 38.4196 342.664 45.3596 346.814 45.3196C350.964 45.2796 354.264 38.2896 354.194 29.6896C354.124 21.0896 350.704 14.1496 346.554 14.1896C342.404 14.2196 339.094 21.2296 339.174 29.8196Z" fill="#D7D7D7"/>
<path opacity="0.84" d="M342.572 37.9794C342.622 43.4494 345.372 47.8594 348.722 47.8394C352.072 47.8094 354.752 43.3494 354.702 37.8894C354.652 32.4194 351.902 27.9994 348.552 28.0294C345.202 28.0494 342.532 32.5094 342.572 37.9794Z" fill="#939393"/>
<path opacity="0.84" d="M338.083 33.7496C338.023 26.3396 341.083 20.3096 344.923 20.2696C348.763 20.2396 351.923 26.2196 351.983 33.6296C352.033 39.4996 350.123 44.4896 347.423 46.3396C347.403 48.1996 347.263 57.1796 346.733 57.1896C346.173 57.1996 346.363 57.1896 345.893 57.1996C345.483 57.1996 345.163 48.3396 345.123 47.0996C341.293 47.1096 338.153 41.1296 338.083 33.7496Z" fill="#3A3A3A"/>
<path opacity="0.9" d="M292.801 39.5898C292.051 33.2698 286.801 28.4198 284.001 28.4498C281.201 28.4698 276.041 33.3998 275.391 39.7398C274.601 47.4398 283.641 48.6898 283.641 48.6898L283.601 57.1298L284.231 57.1198H284.861L284.691 48.6798C284.701 48.6798 293.721 47.2798 292.801 39.5898Z" fill="#5F5F5F"/>
<path opacity="0.1" d="M151.54 13.5998V37.6098H148.63V10.7398H150.65V8.75977H154.59V10.6298H155.5V13.4098V13.5998H151.54Z" fill="#D7D7D7"/>
<path opacity="0.1" d="M328.351 18.3302C327.841 15.8502 327.261 13.5402 326.701 11.4902H328.641V15.5302V18.2502C328.541 18.2902 328.451 18.3102 328.351 18.3302Z" fill="#D7D7D7"/>
<path d="M21.7009 49.6201C21.1009 46.9001 15.7309 44.8401 14.5209 44.8501C13.3309 44.8601 7.98087 47.0001 7.43087 49.7301C6.76087 53.0501 14.2309 53.5501 14.2309 53.5501L14.2208 57.1801H14.8009H15.0709L15.0008 53.5501C14.9908 53.5601 22.4209 52.9201 21.7009 49.6201Z" fill="white"/>
<path d="M14.0002 57.4101L15.2902 57.4001L15.2202 53.7601C16.1802 53.6601 20.2202 53.1201 21.5502 51.3201C21.9402 50.8001 22.0602 50.2101 21.9202 49.5801C21.2902 46.7401 15.8502 44.6401 14.5402 44.6401C13.2102 44.6501 7.81021 46.8201 7.23021 49.7001C7.10021 50.3401 7.24021 50.9201 7.63021 51.4401C8.99021 53.2201 13.0502 53.6801 14.0202 53.7701L14.0002 57.4101ZM14.8402 56.9701H14.4302L14.4402 53.3501L14.2402 53.3401C14.1902 53.3401 9.35023 52.9901 7.96023 51.1701C7.64023 50.7501 7.53022 50.3001 7.64022 49.7801C8.16022 47.2101 13.3602 45.0801 14.5202 45.0701C15.7302 45.0701 20.9102 47.0801 21.4802 49.6701C21.5902 50.1801 21.4902 50.6401 21.1802 51.0601C19.8202 52.9001 15.0102 53.3401 14.9602 53.3401L14.7602 53.3601L14.8402 56.9701Z" fill="#515151"/>
<path d="M21.6987 49.6199C21.1087 46.9499 15.9487 44.9299 14.6087 44.8599C14.5387 44.3499 14.1687 44.4799 14.1687 43.8899C14.1687 43.2899 14.5287 43.0599 14.6187 42.7699C14.7587 42.3299 14.4287 41.8599 14.6087 41.4099C14.7987 40.9399 15.1487 40.9099 15.4287 40.5699C15.9687 39.9199 15.8787 39.4099 16.3687 39.0899C17.1587 38.5799 17.4787 38.8799 17.9787 38.5599C18.4787 38.2499 18.2087 38.0299 18.8987 37.7199C19.6687 37.3699 19.9787 37.7599 20.6887 37.6899C21.3287 37.6199 21.1387 37.4499 21.8187 37.2199C22.4987 36.9999 22.6287 36.9999 23.3087 37.2299C23.9887 37.4599 23.7987 37.6399 24.4387 37.7099C25.1387 37.7999 25.4587 37.4099 26.2287 37.7599C26.9087 38.0799 26.6387 38.2899 27.1287 38.5999C27.6287 38.9199 27.9487 38.6299 28.7387 39.1499C29.2187 39.4699 29.1287 39.9799 29.6587 40.6399C29.9287 40.9799 30.2887 41.0199 30.4687 41.4899C30.6387 41.9399 30.3087 42.4099 30.4387 42.8499C30.5287 43.1399 30.8887 43.3799 30.8787 43.9699C30.8687 44.5999 30.4387 44.3999 30.4187 45.0399C30.3987 45.4999 30.6187 45.8699 30.4387 46.3499C30.1987 47.0199 29.8687 46.8899 29.6787 47.1499C29.4987 47.4199 29.9887 47.7699 29.2487 48.4399C28.9187 48.7499 28.4087 48.6899 28.1087 48.8399C27.7487 49.0299 27.8187 49.5099 27.4987 49.7399C26.8887 50.1899 26.5487 49.6299 25.8387 50.0199C25.3987 50.2699 25.5387 50.5199 25.0187 50.6699C24.2187 50.9099 23.4087 50.5899 23.1687 51.0799C22.7687 51.8999 22.8987 57.1699 22.8987 57.1699H22.3987H21.8987C21.8987 57.1699 22.1587 51.8999 21.7687 51.0699C21.7187 50.9599 21.6287 50.8999 21.5287 50.8499C21.7387 50.5099 21.7987 50.0999 21.6987 49.6199Z" fill="white"/>
<path d="M21.679 57.4201H23.129L23.119 57.2001C23.069 55.1001 23.089 51.7801 23.369 51.2101C23.449 51.0401 23.689 51.0301 24.099 51.0301C24.399 51.0301 24.739 51.0201 25.099 50.9201C25.459 50.8101 25.569 50.6601 25.679 50.5101C25.749 50.4201 25.809 50.3301 25.969 50.2501C26.219 50.1101 26.459 50.1201 26.689 50.1501C27.029 50.2001 27.349 50.1701 27.649 49.9501C27.849 49.8001 27.929 49.6001 27.999 49.4201C28.069 49.2401 28.119 49.1301 28.229 49.0701C28.319 49.0201 28.449 49.0001 28.599 48.9701C28.849 48.9201 29.169 48.8601 29.419 48.6301C29.989 48.1201 29.929 47.7201 29.889 47.4701C29.879 47.3801 29.869 47.3301 29.879 47.3101C29.909 47.2601 29.959 47.2401 30.049 47.1901C30.229 47.1001 30.479 46.9601 30.659 46.4601C30.789 46.1101 30.739 45.8001 30.689 45.5301C30.659 45.3801 30.639 45.2301 30.649 45.0801C30.659 44.8501 30.729 44.7901 30.819 44.6901C30.939 44.5701 31.109 44.4101 31.109 44.0101C31.119 43.5501 30.929 43.2701 30.789 43.0601C30.729 42.9701 30.679 42.8901 30.659 42.8201C30.609 42.6601 30.649 42.4801 30.689 42.2801C30.739 42.0301 30.799 41.7401 30.679 41.4401C30.549 41.0901 30.329 40.9401 30.139 40.8001C30.029 40.7201 29.929 40.6401 29.839 40.5301C29.619 40.2501 29.509 40.0001 29.419 39.7701C29.299 39.4801 29.189 39.2001 28.869 38.9901C28.389 38.6701 28.049 38.6301 27.779 38.6001C27.579 38.5801 27.439 38.5601 27.259 38.4401C27.089 38.3301 27.039 38.2401 26.979 38.1401C26.859 37.9401 26.739 37.7701 26.329 37.5801C25.889 37.3801 25.479 37.4001 25.119 37.4701C24.919 37.5101 24.719 37.5401 24.479 37.5101C24.179 37.4701 24.109 37.4201 23.989 37.3401C23.869 37.2601 23.729 37.1501 23.389 37.0401C22.679 36.8001 22.509 36.7901 21.759 37.0301C21.419 37.1401 21.279 37.2401 21.159 37.3301C21.039 37.4101 20.969 37.4601 20.669 37.4901C20.419 37.5201 20.229 37.4801 20.029 37.4401C19.669 37.3701 19.259 37.3401 18.819 37.5401C18.409 37.7201 18.279 37.8901 18.169 38.0901C18.109 38.2001 18.059 38.2801 17.879 38.3901C17.699 38.5001 17.559 38.5201 17.359 38.5401C17.089 38.5701 16.749 38.6001 16.259 38.9201C15.939 39.1301 15.829 39.4001 15.699 39.6901C15.599 39.9101 15.499 40.1701 15.269 40.4401C15.179 40.5501 15.069 40.6301 14.959 40.7001C14.769 40.8401 14.549 40.9901 14.419 41.3401C14.299 41.6301 14.359 41.9201 14.399 42.1801C14.439 42.3801 14.469 42.5601 14.419 42.7201C14.399 42.7801 14.349 42.8601 14.289 42.9501C14.149 43.1601 13.959 43.4401 13.959 43.9101C13.959 44.3101 14.119 44.4701 14.239 44.6001C14.329 44.6901 14.379 44.7401 14.399 44.9101L14.419 45.0901L14.599 45.1001C15.989 45.1701 20.949 47.2301 21.489 49.6901C21.579 50.0901 21.529 50.4501 21.359 50.8101L21.259 51.0101L21.469 51.1001C21.539 51.1301 21.569 51.1601 21.599 51.2101C21.869 51.7801 21.809 55.1101 21.709 57.2101L21.679 57.4201ZM22.689 56.9801H22.139C22.189 55.8701 22.349 51.7801 21.979 51.0001C21.939 50.9201 21.889 50.8501 21.819 50.7901C21.969 50.4001 21.999 49.9901 21.909 49.5601C21.299 46.8001 16.319 44.8501 14.779 44.6501C14.719 44.4601 14.619 44.3501 14.529 44.2701C14.429 44.1701 14.369 44.1101 14.369 43.8901C14.369 43.5601 14.499 43.3601 14.629 43.1801C14.709 43.0701 14.779 42.9701 14.819 42.8401C14.899 42.5801 14.849 42.3201 14.809 42.0901C14.769 41.8701 14.729 41.6701 14.799 41.4901C14.889 41.2601 15.019 41.1701 15.189 41.0501C15.309 40.9601 15.449 40.8601 15.579 40.7101C15.849 40.3801 15.969 40.0901 16.079 39.8501C16.189 39.5901 16.269 39.4101 16.469 39.2801C16.869 39.0201 17.129 38.9901 17.379 38.9701C17.599 38.9501 17.819 38.9201 18.079 38.7601C18.349 38.5901 18.439 38.4401 18.509 38.3101C18.589 38.1801 18.649 38.0801 18.969 37.9401C19.319 37.7801 19.609 37.8101 19.919 37.8701C20.129 37.9101 20.379 37.9601 20.689 37.9301C21.069 37.8901 21.209 37.8101 21.379 37.6901C21.479 37.6201 21.589 37.5401 21.869 37.4501C22.529 37.2401 22.589 37.2401 23.229 37.4601C23.499 37.5501 23.619 37.6301 23.719 37.7101C23.889 37.8301 24.029 37.9101 24.409 37.9601C24.719 38.0001 24.969 37.9501 25.179 37.9101C25.499 37.8501 25.779 37.8301 26.129 37.9901C26.449 38.1401 26.509 38.2401 26.579 38.3701C26.649 38.4901 26.739 38.6501 26.999 38.8201C27.259 38.9901 27.479 39.0201 27.699 39.0401C27.949 39.0701 28.209 39.1001 28.609 39.3601C28.819 39.5001 28.889 39.6801 28.999 39.9401C29.099 40.1801 29.219 40.4801 29.479 40.8001C29.609 40.9601 29.749 41.0601 29.869 41.1501C30.039 41.2701 30.169 41.3701 30.259 41.6001C30.329 41.7801 30.289 41.9801 30.249 42.2001C30.199 42.4301 30.149 42.6901 30.229 42.9401C30.269 43.0701 30.339 43.1801 30.409 43.2901C30.529 43.4801 30.659 43.6701 30.659 44.0001C30.659 44.2301 30.599 44.2801 30.499 44.3801C30.379 44.5001 30.209 44.6601 30.199 45.0601C30.189 45.2501 30.219 45.4301 30.249 45.5901C30.289 45.8401 30.329 46.0601 30.239 46.3101C30.109 46.6601 29.979 46.7301 29.829 46.8101C29.719 46.8701 29.599 46.9301 29.509 47.0701C29.399 47.2401 29.429 47.4001 29.449 47.5401C29.479 47.7401 29.519 47.9601 29.119 48.3201C28.959 48.4701 28.739 48.5101 28.509 48.5501C28.339 48.5801 28.169 48.6101 28.019 48.6901C27.759 48.8301 27.659 49.0701 27.589 49.2701C27.529 49.4101 27.489 49.5401 27.389 49.6101C27.079 49.8401 26.929 49.7601 26.739 49.7301C26.419 49.6901 26.079 49.7001 25.749 49.8801C25.509 50.0101 25.409 50.1501 25.329 50.2601C25.249 50.3701 25.199 50.4401 24.979 50.5101C24.689 50.6001 24.369 50.6001 24.099 50.6101C23.649 50.6201 23.189 50.6201 22.989 51.0401C22.609 51.7901 22.669 55.8801 22.689 56.9801Z" fill="#515151"/>
<path d="M29.6885 47.1801C29.8685 46.9101 30.2085 47.0401 30.4485 46.3801C30.6285 45.9001 30.4085 45.5201 30.4285 45.0701C30.4585 44.4301 30.8885 44.6301 30.8885 44.0001C30.8985 43.4001 30.5385 43.1701 30.4485 42.8801C30.3185 42.4501 30.6485 41.9701 30.4785 41.5201C30.2985 41.0501 29.9385 41.0101 29.6685 40.6701C29.3885 40.3201 29.2785 40.0101 29.1685 39.7501C29.6785 33.5701 31.6185 27.8901 31.6185 27.8901C31.6185 27.8901 34.6385 35.7001 34.7785 43.0201C34.9285 50.3401 32.4985 51.3701 32.4985 51.3701L32.6385 57.1901H32.1585H31.6885L31.6585 51.3801C31.6585 51.3801 30.3985 50.9101 29.6285 47.9701C29.7585 47.6101 29.5585 47.3701 29.6885 47.1801Z" fill="white"/>
<path d="M31.4303 57.4501L32.9103 57.4401L32.7703 51.5101C33.3403 51.1301 35.1703 49.4101 35.0403 43.0101C34.9003 35.7201 31.8903 27.8701 31.8603 27.7901L31.6003 27.1201L31.3703 27.8001C31.3503 27.8601 29.4103 33.5701 28.9103 39.7201V39.7801L28.9803 39.9401C29.0803 40.1801 29.2103 40.4901 29.4803 40.8201C29.6103 40.9801 29.7503 41.0901 29.8803 41.1801C30.0503 41.3001 30.1703 41.3901 30.2503 41.6001C30.3103 41.7701 30.2803 41.9501 30.2303 42.1701C30.1903 42.4001 30.1303 42.6701 30.2103 42.9401C30.2503 43.0801 30.3303 43.1901 30.4003 43.3001C30.5203 43.4901 30.6403 43.6701 30.6403 43.9801C30.6403 44.1901 30.5903 44.2301 30.4903 44.3201C30.3603 44.4401 30.1903 44.6101 30.1703 45.0301C30.1603 45.2301 30.1903 45.4001 30.2203 45.5701C30.2603 45.8201 30.3003 46.0301 30.2103 46.2601C30.0903 46.5901 29.9703 46.6601 29.8203 46.7301C29.7103 46.7801 29.5803 46.8501 29.4803 47.0101C29.3603 47.1901 29.3903 47.3701 29.4103 47.5101C29.4303 47.6301 29.4403 47.7301 29.4003 47.8501L29.3703 47.9301L29.3903 48.0101C30.0303 50.4401 31.0103 51.2701 31.4103 51.5101L31.4303 57.4501ZM32.3703 56.9201H31.9503L31.9203 51.1901L31.7503 51.1301C31.7403 51.1301 30.6203 50.6401 29.9103 47.9701C29.9703 47.7601 29.9403 47.5901 29.9203 47.4601C29.9103 47.4101 29.9003 47.3401 29.9103 47.3201C29.9303 47.2801 29.9803 47.2601 30.0603 47.2201C30.2503 47.1201 30.5103 46.9901 30.7003 46.4601C30.8303 46.1001 30.7803 45.7801 30.7403 45.5001C30.7203 45.3501 30.6903 45.2101 30.7003 45.0601C30.7103 44.8501 30.7603 44.8001 30.8603 44.7001C30.9903 44.5801 31.1603 44.4101 31.1603 43.9801C31.1703 43.5001 30.9803 43.2201 30.8403 43.0001C30.7803 42.9101 30.7303 42.8401 30.7203 42.7801C30.6803 42.6401 30.7103 42.4601 30.7503 42.2701C30.8003 42.0101 30.8603 41.7101 30.7403 41.4101C30.6003 41.0501 30.3803 40.8901 30.1903 40.7501C30.0803 40.6701 29.9803 40.6001 29.8903 40.4901C29.6703 40.2101 29.5703 39.9701 29.4703 39.7401L29.4503 39.7001C29.8503 34.9201 31.1203 30.4201 31.6503 28.7001C32.3803 30.7901 34.4203 37.1001 34.5303 43.0201C34.6703 50.0101 32.4303 51.1101 32.4103 51.1201L32.2503 51.1901V51.3701L32.3703 56.9201Z" fill="#515151"/>
<path d="M33.7091 49.8898C34.2691 48.7498 34.8091 46.7498 34.7691 43.3398C37.3191 41.3398 40.9691 40.0198 42.0891 40.0098C43.7691 39.9998 51.2491 42.8598 52.0891 46.6498C53.0891 51.2598 42.5091 52.1398 42.5091 52.1398L42.6091 57.1998H42.2291H41.8491L41.8691 52.1398C41.8791 52.1398 36.4591 51.7798 33.7091 49.8898Z" fill="white"/>
<path d="M41.6104 57.45L42.8704 57.44L42.7704 52.36C44.0404 52.23 49.9504 51.5 51.8304 48.95C52.3504 48.24 52.5304 47.45 52.3404 46.59C51.4804 42.66 43.9404 39.75 42.1104 39.75C40.9804 39.76 37.2904 41.05 34.6304 43.13L34.5304 43.21V43.33C34.5604 46.84 33.9804 48.77 33.4904 49.77L33.4004 49.96L33.5804 50.08C36.0604 51.79 40.5504 52.27 41.6304 52.36L41.6104 57.45ZM42.3604 56.95H42.1004L42.1204 51.91L41.8904 51.89C41.8404 51.89 36.7404 51.53 34.0304 49.8C34.7104 48.3 35.0404 46.17 35.0304 43.46C37.5604 41.52 41.0804 40.27 42.1004 40.26C43.8004 40.26 51.0604 43.08 51.8504 46.71C52.0104 47.43 51.8704 48.07 51.4304 48.67C49.5004 51.29 42.5704 51.89 42.5004 51.9L42.2704 51.92L42.3604 56.95Z" fill="#515151"/>
</g>
</g>
<defs>
<clipPath id="clip0">
<path d="M343 0H0V49C0 53.4183 3.58173 57 8 57H335C339.418 57 343 53.4183 343 49V0Z" fill="white"/>
</clipPath>
</defs>
</svg>
